<svg width="309" height="34" viewBox="0 0 309 34" fill="none" xmlns="http://www.w3.org/2000/svg">
<circle cx="5" cy="16" r="5" fill="#D72A2A"/>
<path d="M27.688 26H21.612H19.288V24.74H20.464C21.248 24.74 21.584 24.236 21.584 23.62V8.78C21.584 8.164 21.248 7.66 20.464 7.66H19.288V6.4H21.612H27.66C31.44 6.4 33.568 8.36 33.568 11.216C33.568 13.372 32 15.164 30.236 15.696V15.864C32.448 16.312 34.268 18.216 34.268 20.568C34.268 23.788 31.86 26 27.688 26ZM24.132 23.536C24.132 24.152 24.552 24.572 25.168 24.572H27.044C29.816 24.572 31.44 22.976 31.44 20.624C31.44 18.244 29.816 16.62 27.212 16.62H24.132V23.536ZM24.132 15.164H27.212C29.396 15.164 30.74 13.624 30.74 11.412C30.74 9.284 29.396 7.828 27.044 7.828H25.168C24.552 7.828 24.132 8.248 24.132 8.864V15.164ZM39.6546 26H37.3586H35.3706V24.936H36.2106C36.9946 24.936 37.3306 24.544 37.3306 23.872V8.444C37.3306 7.94 37.1626 7.632 36.6866 7.38L35.2866 6.652V6.176L39.4586 5H39.6826V5.28V23.872C39.6826 24.544 40.0186 24.936 40.8026 24.936H41.6426V26H39.6546ZM48.853 26.28C45.017 26.28 42.329 23.34 42.329 19.364C42.329 15.36 45.017 12.42 48.853 12.42C52.689 12.42 55.405 15.36 55.405 19.364C55.405 23.34 52.689 26.28 48.853 26.28ZM48.713 13.848C46.557 13.848 44.961 15.64 44.961 18.804C44.961 21.968 46.501 24.852 49.021 24.852C51.205 24.852 52.773 23.06 52.773 19.896C52.773 16.76 51.233 13.848 48.713 13.848ZM63.0014 26.28C59.1654 26.28 56.4774 23.34 56.4774 19.364C56.4774 15.36 59.1654 12.42 63.0014 12.42C66.8374 12.42 69.5534 15.36 69.5534 19.364C69.5534 23.34 66.8374 26.28 63.0014 26.28ZM62.8614 13.848C60.7054 13.848 59.1094 15.64 59.1094 18.804C59.1094 21.968 60.6494 24.852 63.1694 24.852C65.3534 24.852 66.9214 23.06 66.9214 19.896C66.9214 16.76 65.3814 13.848 62.8614 13.848ZM76.692 26.28C73.192 26.28 71.036 23.256 71.036 19.448C71.036 15.388 73.668 12.42 77.056 12.42C78.512 12.42 79.66 12.98 80.248 13.54H80.416V8.444C80.416 7.94 80.248 7.632 79.772 7.38L78.372 6.652V6.176L82.544 5H82.768V5.28V22.836C82.768 23.34 82.936 23.648 83.412 23.9L84.84 24.628V25.104L80.976 26.28H80.752L80.668 24.04H80.5C79.996 25.02 78.736 26.28 76.692 26.28ZM77.532 24.376C78.876 24.376 79.8 23.62 80.416 22.752V17.432C80.416 15.08 79.072 13.848 77.28 13.848C75.236 13.848 73.5 15.892 73.5 18.944C73.5 21.884 75.096 24.376 77.532 24.376ZM96.5532 26H94.0612H91.7372V24.74H92.9132C93.6972 24.74 94.0332 24.236 94.0332 23.62V8.78C94.0332 8.164 93.6972 7.66 92.9132 7.66H91.7372V6.4H94.0612H106.213L106.577 11.748H105.373C104.617 9.06 104.001 7.828 101.257 7.828H97.6172C97.0012 7.828 96.5812 8.248 96.5812 8.864V15.64H99.8292C100.613 15.64 101.593 15.416 101.677 14.072L101.733 13.288H102.965V19.42H101.733L101.677 18.636C101.593 17.292 100.613 17.068 99.8292 17.068H96.5812V23.62C96.5812 24.236 97.0012 24.74 98.0652 24.74H99.6052V26H96.5532ZM111.94 26H109.644H107.656V24.936H108.496C109.28 24.936 109.616 24.544 109.616 23.872V8.444C109.616 7.94 109.448 7.632 108.972 7.38L107.572 6.652V6.176L111.744 5H111.968V5.28V23.872C111.968 24.544 112.304 24.936 113.088 24.936H113.928V26H111.94ZM121.138 26.28C117.302 26.28 114.614 23.34 114.614 19.364C114.614 15.36 117.302 12.42 121.138 12.42C124.974 12.42 127.69 15.36 127.69 19.364C127.69 23.34 124.974 26.28 121.138 26.28ZM120.998 13.848C118.842 13.848 117.246 15.64 117.246 18.804C117.246 21.968 118.786 24.852 121.306 24.852C123.49 24.852 125.058 23.06 125.058 19.896C125.058 16.76 123.518 13.848 120.998 13.848ZM129.408 15.304C128.96 14.044 128.596 13.82 127.532 13.764V12.7H133.72V13.764H132.712C132.012 13.764 131.676 14.352 131.928 15.108L134.224 22.192H134.392L137.36 14.352H138.732L141.868 22.164H142.036L144.276 15.108C144.528 14.324 144.304 13.764 143.464 13.764H142.484V12.7H147.692V13.764C146.684 13.792 146.236 14.016 145.816 15.192L142.176 26H140.804L137.696 17.964H137.528L134.476 26H133.076L129.408 15.304Z" fill="#414141"/>
</svg>
