<svg width="309" height="34" viewBox="0 0 309 34" fill="none" xmlns="http://www.w3.org/2000/svg">
<circle cx="5" cy="16" r="5" fill="#761A2C"/>
<path d="M27.688 26H21.612H19.288V24.74H20.464C21.248 24.74 21.584 24.236 21.584 23.62V8.78C21.584 8.164 21.248 7.66 20.464 7.66H19.288V6.4H21.612H27.66C31.44 6.4 33.568 8.36 33.568 11.216C33.568 13.372 32 15.164 30.236 15.696V15.864C32.448 16.312 34.268 18.216 34.268 20.568C34.268 23.788 31.86 26 27.688 26ZM24.132 23.536C24.132 24.152 24.552 24.572 25.168 24.572H27.044C29.816 24.572 31.44 22.976 31.44 20.624C31.44 18.244 29.816 16.62 27.212 16.62H24.132V23.536ZM24.132 15.164H27.212C29.396 15.164 30.74 13.624 30.74 11.412C30.74 9.284 29.396 7.828 27.044 7.828H25.168C24.552 7.828 24.132 8.248 24.132 8.864V15.164ZM39.6546 26H37.3586H35.3706V24.936H36.2106C36.9946 24.936 37.3306 24.544 37.3306 23.872V8.444C37.3306 7.94 37.1626 7.632 36.6866 7.38L35.2866 6.652V6.176L39.4586 5H39.6826V5.28V23.872C39.6826 24.544 40.0186 24.936 40.8026 24.936H41.6426V26H39.6546ZM48.853 26.28C45.017 26.28 42.329 23.34 42.329 19.364C42.329 15.36 45.017 12.42 48.853 12.42C52.689 12.42 55.405 15.36 55.405 19.364C55.405 23.34 52.689 26.28 48.853 26.28ZM48.713 13.848C46.557 13.848 44.961 15.64 44.961 18.804C44.961 21.968 46.501 24.852 49.021 24.852C51.205 24.852 52.773 23.06 52.773 19.896C52.773 16.76 51.233 13.848 48.713 13.848ZM63.0014 26.28C59.1654 26.28 56.4774 23.34 56.4774 19.364C56.4774 15.36 59.1654 12.42 63.0014 12.42C66.8374 12.42 69.5534 15.36 69.5534 19.364C69.5534 23.34 66.8374 26.28 63.0014 26.28ZM62.8614 13.848C60.7054 13.848 59.1094 15.64 59.1094 18.804C59.1094 21.968 60.6494 24.852 63.1694 24.852C65.3534 24.852 66.9214 23.06 66.9214 19.896C66.9214 16.76 65.3814 13.848 62.8614 13.848ZM76.692 26.28C73.192 26.28 71.036 23.256 71.036 19.448C71.036 15.388 73.668 12.42 77.056 12.42C78.512 12.42 79.66 12.98 80.248 13.54H80.416V8.444C80.416 7.94 80.248 7.632 79.772 7.38L78.372 6.652V6.176L82.544 5H82.768V5.28V22.836C82.768 23.34 82.936 23.648 83.412 23.9L84.84 24.628V25.104L80.976 26.28H80.752L80.668 24.04H80.5C79.996 25.02 78.736 26.28 76.692 26.28ZM77.532 24.376C78.876 24.376 79.8 23.62 80.416 22.752V17.432C80.416 15.08 79.072 13.848 77.28 13.848C75.236 13.848 73.5 15.892 73.5 18.944C73.5 21.884 75.096 24.376 77.532 24.376ZM96.5532 26H94.0612H91.7372V24.74H92.9132C93.6972 24.74 94.0332 24.236 94.0332 23.62V8.78C94.0332 8.164 93.6972 7.66 92.9132 7.66H91.7372V6.4H94.0612H100.277C104.617 6.4 106.997 8.584 106.997 11.944C106.997 15.5 104.617 17.824 100.277 17.824H96.5812V23.62C96.5812 24.236 97.0012 24.74 98.0092 24.74H99.4652V26H96.5532ZM96.5812 16.396H99.9132C102.601 16.396 104.169 14.66 104.169 12C104.169 9.48 102.601 7.828 99.9132 7.828H97.6172C97.0012 7.828 96.5812 8.248 96.5812 8.864V16.396ZM112.295 26H109.999H108.011V24.936H108.851C109.635 24.936 109.971 24.544 109.971 23.872V15.864C109.971 15.36 109.803 15.052 109.327 14.8L107.899 14.1V13.596L111.763 12.42H111.987L112.099 15.276H112.267C112.911 13.204 114.955 12.42 116.047 12.42C117.335 12.42 118.035 13.176 118.035 13.988C118.035 14.856 117.531 15.444 116.663 15.444C115.739 15.444 115.627 14.828 114.703 14.828C113.303 14.828 112.323 16.508 112.323 18.328V23.872C112.323 24.544 112.771 24.936 113.779 24.936H114.871V26H112.295ZM124.163 26.28C120.607 26.28 118.087 23.368 118.087 19.392C118.087 15.388 120.551 12.42 124.107 12.42C127.327 12.42 129.679 14.856 129.679 18.104C129.679 18.328 129.679 18.412 129.623 18.72H120.411C120.411 18.804 120.411 18.916 120.411 19C120.411 22.108 122.119 24.124 124.583 24.124C126.375 24.124 127.747 23.088 128.279 21.548H129.623C129.119 24.18 127.103 26.28 124.163 26.28ZM120.551 17.376H127.159C127.159 15.248 125.871 13.848 124.051 13.848C122.231 13.848 120.971 15.248 120.551 17.376ZM135.74 26.28C133.724 26.28 132.072 25.608 130.952 24.404V21.884H132.688C132.94 24.152 134.34 24.908 135.852 24.908C137.28 24.908 138.428 24.152 138.428 22.836C138.428 21.66 137.56 20.988 136.244 20.568L134.508 20.008C132.38 19.308 131.232 18.048 131.232 16.256C131.232 13.96 133.388 12.42 135.768 12.42C137.616 12.42 139.016 13.036 139.94 13.848V16.228H138.232C138.064 14.576 136.972 13.792 135.516 13.792C134.34 13.792 133.388 14.548 133.388 15.724C133.388 16.788 134.228 17.32 135.572 17.74L136.972 18.188C139.268 18.916 140.584 20.148 140.584 22.248C140.584 24.852 138.064 26.28 135.74 26.28ZM146.471 26.28C144.455 26.28 142.803 25.608 141.683 24.404V21.884H143.419C143.671 24.152 145.071 24.908 146.583 24.908C148.011 24.908 149.159 24.152 149.159 22.836C149.159 21.66 148.291 20.988 146.975 20.568L145.239 20.008C143.111 19.308 141.963 18.048 141.963 16.256C141.963 13.96 144.119 12.42 146.499 12.42C148.347 12.42 149.747 13.036 150.671 13.848V16.228H148.963C148.794 14.576 147.703 13.792 146.247 13.792C145.071 13.792 144.119 14.548 144.119 15.724C144.119 16.788 144.959 17.32 146.303 17.74L147.703 18.188C149.999 18.916 151.315 20.148 151.315 22.248C151.315 24.852 148.794 26.28 146.471 26.28ZM158.13 26.28C155.75 26.28 154.014 24.628 154.014 21.52V14.828C154.014 14.156 153.678 13.764 152.894 13.764H152.054V12.7H154.042H156.366V20.848C156.366 22.948 157.318 24.236 158.97 24.236C160.734 24.236 162.106 22.696 162.106 20.064V14.828C162.106 14.156 161.77 13.764 160.986 13.764H160.146V12.7H162.134H164.458V22.836C164.458 23.34 164.626 23.648 165.102 23.9L166.502 24.628V25.104L162.694 26.28H162.442L162.33 23.368H162.162C161.742 24.656 160.37 26.28 158.13 26.28ZM171.553 26H169.257H167.269V24.936H168.109C168.893 24.936 169.229 24.544 169.229 23.872V15.864C169.229 15.36 169.061 15.052 168.585 14.8L167.157 14.1V13.596L171.021 12.42H171.245L171.357 15.276H171.525C172.169 13.204 174.213 12.42 175.305 12.42C176.593 12.42 177.293 13.176 177.293 13.988C177.293 14.856 176.789 15.444 175.921 15.444C174.997 15.444 174.885 14.828 173.961 14.828C172.561 14.828 171.581 16.508 171.581 18.328V23.872C171.581 24.544 172.029 24.936 173.037 24.936H174.129V26H171.553ZM183.421 26.28C179.865 26.28 177.345 23.368 177.345 19.392C177.345 15.388 179.809 12.42 183.365 12.42C186.585 12.42 188.937 14.856 188.937 18.104C188.937 18.328 188.937 18.412 188.881 18.72H179.669C179.669 18.804 179.669 18.916 179.669 19C179.669 22.108 181.377 24.124 183.841 24.124C185.633 24.124 187.005 23.088 187.537 21.548H188.881C188.377 24.18 186.361 26.28 183.421 26.28ZM179.809 17.376H186.417C186.417 15.248 185.129 13.848 183.309 13.848C181.489 13.848 180.229 15.248 179.809 17.376Z" fill="#414141"/>
</svg>
