<svg width="28" height="28" viewBox="0 0 28 28" fill="none" xmlns="http://www.w3.org/2000/svg">
<path d="M2.625 5.25V21.875H11.375C12.3389 21.875 13.125 22.6611 13.125 23.625H14.875C14.875 22.6611 15.6611 21.875 16.625 21.875H25.375V5.25H16.625C15.5825 5.25 14.6426 5.71143 14 6.43945C13.3574 5.71143 12.4175 5.25 11.375 5.25H2.625ZM4.375 7H11.375C12.3389 7 13.125 7.78613 13.125 8.75H14.875C14.875 7.78613 15.6611 7 16.625 7H23.625V20.125H16.625C15.5825 20.125 14.6426 20.5864 14 21.3145C13.3574 20.5864 12.4175 20.125 11.375 20.125H4.375V7ZM13.125 10.5V12.25H14.875V10.5H13.125ZM13.125 14V15.75H14.875V14H13.125ZM13.125 17.5V19.25H14.875V17.5H13.125Z" fill="#767676"/>
</svg>
