<svg width="20" height="20" viewBox="0 0 20 20" fill="none" xmlns="http://www.w3.org/2000/svg">
<path d="M1.875 3.75V15.625H8.125C8.81348 15.625 9.375 16.1865 9.375 16.875H10.625C10.625 16.1865 11.1865 15.625 11.875 15.625H18.125V3.75H11.875C11.1304 3.75 10.459 4.07959 10 4.59961C9.54102 4.07959 8.86963 3.75 8.125 3.75H1.875ZM3.125 5H8.125C8.81348 5 9.375 5.56152 9.375 6.25H10.625C10.625 5.56152 11.1865 5 11.875 5H16.875V14.375H11.875C11.1304 14.375 10.459 14.7046 10 15.2246C9.54102 14.7046 8.86963 14.375 8.125 14.375H3.125V5ZM9.375 7.5V8.75H10.625V7.5H9.375ZM9.375 10V11.25H10.625V10H9.375ZM9.375 12.5V13.75H10.625V12.5H9.375Z" fill="#767676"/>
</svg>
