<svg width="309" height="34" viewBox="0 0 309 34" fill="none" xmlns="http://www.w3.org/2000/svg">
<circle cx="5" cy="16" r="5" fill="#D54427"/>
<path d="M28.808 26.28C23.432 26.28 19.288 22.136 19.288 16.34C19.288 10.516 23.432 6.12 29.592 6.12C32.616 6.12 35.08 7.548 36.256 8.696V11.888H34.156C33.764 8.948 31.216 7.632 28.92 7.632C24.748 7.632 21.864 10.992 21.864 15.584C21.864 20.456 25.196 23.956 29.284 23.956C32.42 23.956 34.436 22.192 35.36 19.224H36.816C35.976 23.564 33.064 26.28 28.808 26.28ZM42.1703 26.028H39.8743H37.8863V24.964H38.7263C39.5103 24.964 39.8463 24.572 39.8463 23.9V8.444C39.8463 7.94 39.6783 7.632 39.2023 7.38L37.8023 6.652V6.176L41.9743 5H42.1983V5.28V15.276H42.3663C42.7583 14.156 44.1022 12.42 46.5663 12.42C49.0583 12.42 50.8503 14.072 50.8503 17.18V23.9C50.8503 24.572 51.1863 24.964 51.9703 24.964H52.8103V26.028H50.8223H48.5263H46.5383V24.964H47.3783C48.1623 24.964 48.4983 24.572 48.4983 23.9V17.936C48.4983 15.696 47.4903 14.464 45.6983 14.464C43.7943 14.464 42.1983 16.172 42.1983 18.832V23.9C42.1983 24.572 42.5343 24.964 43.3183 24.964H44.1583V26.028H42.1703ZM59.9545 26.28C56.1185 26.28 53.4305 23.34 53.4305 19.364C53.4305 15.36 56.1185 12.42 59.9545 12.42C63.7905 12.42 66.5065 15.36 66.5065 19.364C66.5065 23.34 63.7905 26.28 59.9545 26.28ZM59.8145 13.848C57.6585 13.848 56.0625 15.64 56.0625 18.804C56.0625 21.968 57.6025 24.852 60.1225 24.852C62.3065 24.852 63.8745 23.06 63.8745 19.896C63.8745 16.76 62.3345 13.848 59.8145 13.848ZM71.4515 26H69.1555H67.1675V24.936H68.0075C68.7915 24.936 69.1275 24.544 69.1275 23.872V8.444C69.1275 7.94 68.9595 7.632 68.4835 7.38L67.0835 6.652V6.176L71.2555 5H71.4795V5.28V23.872C71.4795 24.544 71.8155 24.936 72.5995 24.936H73.4395V26H71.4515ZM80.2018 26.28C76.6458 26.28 74.1258 23.368 74.1258 19.392C74.1258 15.388 76.5898 12.42 80.1458 12.42C83.3658 12.42 85.7178 14.856 85.7178 18.104C85.7178 18.328 85.7178 18.412 85.6618 18.72H76.4498C76.4498 18.804 76.4498 18.916 76.4498 19C76.4498 22.108 78.1578 24.124 80.6218 24.124C82.4138 24.124 83.7858 23.088 84.3178 21.548H85.6618C85.1578 24.18 83.1418 26.28 80.2018 26.28ZM76.5898 17.376H83.1978C83.1978 15.248 81.9098 13.848 80.0898 13.848C78.2698 13.848 77.0098 15.248 76.5898 17.376ZM91.7791 26.28C89.7631 26.28 88.1111 25.608 86.9911 24.404V21.884H88.7271C88.9791 24.152 90.3791 24.908 91.8911 24.908C93.3191 24.908 94.4671 24.152 94.4671 22.836C94.4671 21.66 93.5991 20.988 92.2831 20.568L90.5471 20.008C88.4191 19.308 87.2711 18.048 87.2711 16.256C87.2711 13.96 89.4271 12.42 91.8071 12.42C93.6551 12.42 95.0551 13.036 95.9791 13.848V16.228H94.2711C94.1031 14.576 93.0111 13.792 91.5551 13.792C90.3791 13.792 89.4271 14.548 89.4271 15.724C89.4271 16.788 90.2671 17.32 91.6111 17.74L93.0111 18.188C95.3071 18.916 96.6231 20.148 96.6231 22.248C96.6231 24.852 94.1031 26.28 91.7791 26.28ZM102.633 26.28C101.065 26.28 99.6647 25.356 99.6647 22.976V14.156H97.1727V12.924H97.3967C99.3567 12.924 100.197 11.832 100.421 10.264L100.645 8.948H102.017V12.7H105.349V14.156H102.017V22.78C102.017 23.844 102.661 24.432 103.473 24.432C104.173 24.432 104.789 24.096 105.433 23.48L106.161 24.32C105.125 25.468 104.061 26.28 102.633 26.28ZM112.202 26.28C108.646 26.28 106.126 23.368 106.126 19.392C106.126 15.388 108.59 12.42 112.146 12.42C115.366 12.42 117.718 14.856 117.718 18.104C117.718 18.328 117.718 18.412 117.662 18.72H108.45C108.45 18.804 108.45 18.916 108.45 19C108.45 22.108 110.158 24.124 112.622 24.124C114.414 24.124 115.786 23.088 116.318 21.548H117.662C117.158 24.18 115.142 26.28 112.202 26.28ZM108.59 17.376H115.198C115.198 15.248 113.91 13.848 112.09 13.848C110.27 13.848 109.01 15.248 108.59 17.376ZM122.998 26H120.702H118.714V24.936H119.554C120.338 24.936 120.674 24.544 120.674 23.872V15.864C120.674 15.36 120.506 15.052 120.03 14.8L118.602 14.1V13.596L122.466 12.42H122.69L122.802 15.276H122.97C123.614 13.204 125.658 12.42 126.75 12.42C128.038 12.42 128.738 13.176 128.738 13.988C128.738 14.856 128.234 15.444 127.366 15.444C126.442 15.444 126.33 14.828 125.406 14.828C124.006 14.828 123.026 16.508 123.026 18.328V23.872C123.026 24.544 123.474 24.936 124.482 24.936H125.574V26H122.998ZM135.314 26.28C131.478 26.28 128.79 23.34 128.79 19.364C128.79 15.36 131.478 12.42 135.314 12.42C139.15 12.42 141.866 15.36 141.866 19.364C141.866 23.34 139.15 26.28 135.314 26.28ZM135.174 13.848C133.018 13.848 131.422 15.64 131.422 18.804C131.422 21.968 132.962 24.852 135.482 24.852C137.666 24.852 139.234 23.06 139.234 19.896C139.234 16.76 137.694 13.848 135.174 13.848ZM146.811 26H144.515H142.527V24.936H143.367C144.151 24.936 144.487 24.544 144.487 23.872V8.444C144.487 7.94 144.319 7.632 143.843 7.38L142.443 6.652V6.176L146.615 5H146.839V5.28V23.872C146.839 24.544 147.175 24.936 147.959 24.936H148.799V26H146.811Z" fill="#414141"/>
</svg>
