<svg width="309" height="34" viewBox="0 0 309 34" fill="none" xmlns="http://www.w3.org/2000/svg">
<circle cx="5" cy="16" r="5" fill="#B1369A"/>
<path d="M28.808 26.28C23.432 26.28 19.288 22.136 19.288 16.34C19.288 10.516 23.432 6.12 29.592 6.12C32.616 6.12 35.08 7.548 36.256 8.696V11.888H34.156C33.764 8.948 31.216 7.632 28.92 7.632C24.748 7.632 21.864 10.992 21.864 15.584C21.864 20.456 25.196 23.956 29.284 23.956C32.42 23.956 34.436 22.192 35.36 19.224H36.816C35.976 23.564 33.064 26.28 28.808 26.28ZM44.5756 26.28C40.7396 26.28 38.0516 23.34 38.0516 19.364C38.0516 15.36 40.7396 12.42 44.5756 12.42C48.4116 12.42 51.1276 15.36 51.1276 19.364C51.1276 23.34 48.4116 26.28 44.5756 26.28ZM44.4356 13.848C42.2796 13.848 40.6836 15.64 40.6836 18.804C40.6836 21.968 42.2236 24.852 44.7436 24.852C46.9276 24.852 48.4956 23.06 48.4956 19.896C48.4956 16.76 46.9556 13.848 44.4356 13.848ZM57.3877 31.852C53.9157 31.852 52.1517 29.836 51.6477 28.268L54.0837 25.272C52.9077 24.908 52.1237 24.096 52.1237 22.892C52.1237 21.38 53.2157 20.26 54.5037 19.588C53.6357 18.86 53.1037 17.852 53.1037 16.648C53.1037 14.24 55.2317 12.42 58.1997 12.42C59.4317 12.42 60.5237 12.728 61.4197 13.288C62.7637 12.476 62.2877 10.292 63.9117 10.292C64.5837 10.292 65.1157 10.684 65.1157 11.412C65.1157 12.588 64.0797 13.568 62.3437 14.072C62.9877 14.772 63.3797 15.696 63.3797 16.704C63.3797 19.168 61.1677 20.82 58.2837 20.82C57.2757 20.82 56.3237 20.596 55.5397 20.232C54.8117 20.624 54.1677 21.352 54.1677 22.08C54.1677 22.808 54.7277 23.256 55.7077 23.256H60.3837C63.2677 23.256 65.0037 24.6 65.0037 26.98C65.0037 29.976 61.3357 31.852 57.3877 31.852ZM58.3677 19.476C59.9077 19.476 60.9157 18.44 60.9157 16.788C60.9157 15.08 59.7117 13.764 58.1997 13.764C56.6877 13.764 55.5957 14.772 55.5957 16.48C55.5957 18.16 56.8557 19.476 58.3677 19.476ZM53.7757 28.1C54.5597 29.612 55.8477 30.508 57.8637 30.508C60.6357 30.508 62.4557 29.276 62.4557 27.708C62.4557 26.14 61.3637 25.468 59.6557 25.468H55.8757L53.7757 28.1ZM69.7015 26H67.4055H65.4175V24.936H66.2575C67.0415 24.936 67.3775 24.544 67.3775 23.872V15.864C67.3775 15.36 67.2095 15.052 66.7335 14.8L65.3055 14.1V13.596L69.1695 12.42H69.3935L69.5055 15.276H69.6735C70.1775 13.848 71.8015 12.42 74.0695 12.42C76.5335 12.42 78.3815 14.016 78.3815 17.18V23.872C78.3815 24.544 78.7175 24.936 79.5015 24.936H80.3415V26H78.3535H76.0575H74.0695V24.936H74.9095C75.6935 24.936 76.0295 24.544 76.0295 23.872V17.768C76.0295 15.78 74.8535 14.464 73.1735 14.464C70.9895 14.464 69.7295 16.256 69.7295 18.972V23.872C69.7295 24.544 70.0655 24.936 70.8495 24.936H71.6895V26H69.7015ZM85.4632 26H83.1672H81.1792V24.936H82.0192C82.8032 24.936 83.1392 24.544 83.1392 23.872V15.864C83.1392 15.36 82.9712 15.052 82.4952 14.8L81.0952 14.072V13.596L85.2672 12.42H85.4912V12.7V23.872C85.4912 24.544 85.8272 24.936 86.6112 24.936H87.4512V26H85.4632ZM84.3432 9.956C83.4192 9.956 82.6632 9.2 82.6632 8.332C82.6632 7.436 83.4192 6.708 84.3432 6.708C85.2392 6.708 85.9672 7.408 85.9672 8.332C85.9672 9.228 85.2392 9.956 84.3432 9.956ZM92.9687 26.28C91.4007 26.28 90.0007 25.356 90.0007 22.976V14.156H87.5087V12.924H87.7327C89.6927 12.924 90.5327 11.832 90.7567 10.264L90.9807 8.948H92.3527V12.7H95.6847V14.156H92.3527V22.78C92.3527 23.844 92.9967 24.432 93.8087 24.432C94.5087 24.432 95.1247 24.096 95.7687 23.48L96.4967 24.32C95.4607 25.468 94.3967 26.28 92.9687 26.28ZM101.045 26H98.7493H96.7613V24.936H97.6013C98.3853 24.936 98.7213 24.544 98.7213 23.872V15.864C98.7213 15.36 98.5533 15.052 98.0773 14.8L96.6773 14.072V13.596L100.849 12.42H101.073V12.7V23.872C101.073 24.544 101.409 24.936 102.193 24.936H103.033V26H101.045ZM99.9253 9.956C99.0013 9.956 98.2453 9.2 98.2453 8.332C98.2453 7.436 99.0013 6.708 99.9253 6.708C100.821 6.708 101.549 7.408 101.549 8.332C101.549 9.228 100.821 9.956 99.9253 9.956ZM104.999 15.36C104.467 14.1 104.103 13.876 102.927 13.764V12.7H109.143V13.764H108.415C107.659 13.764 107.183 14.352 107.547 15.248L110.599 22.724H110.767L113.791 15.22C114.127 14.408 113.735 13.764 112.895 13.764H112.139V12.7H117.515V13.764C116.311 13.848 115.947 14.072 115.387 15.36L110.907 26H109.507L104.999 15.36ZM123.452 26.28C119.896 26.28 117.376 23.368 117.376 19.392C117.376 15.388 119.84 12.42 123.396 12.42C126.616 12.42 128.968 14.856 128.968 18.104C128.968 18.328 128.968 18.412 128.912 18.72H119.7C119.7 18.804 119.7 18.916 119.7 19C119.7 22.108 121.408 24.124 123.872 24.124C125.664 24.124 127.036 23.088 127.568 21.548H128.912C128.408 24.18 126.392 26.28 123.452 26.28ZM119.84 17.376H126.448C126.448 15.248 125.16 13.848 123.34 13.848C121.52 13.848 120.26 15.248 119.84 17.376Z" fill="#414141"/>
</svg>
