<svg width="360" height="72" viewBox="0 0 360 72" fill="none" xmlns="http://www.w3.org/2000/svg">
<mask id="path-1-inside-1_7_97" fill="white">
<path d="M0 0H360V72H0V0Z"/>
</mask>
<path d="M360 0H359V72H360H361V0H360Z" fill="#D9D9DB" mask="url(#path-1-inside-1_7_97)"/>
<rect x="16" y="12" width="48" height="48" rx="8" fill="#414141"/>
<path d="M80.736 27.24C78.368 27.24 76.656 25.464 76.656 23C76.656 20.568 78.384 18.776 80.736 18.776C82.768 18.776 84.4 20.088 84.528 21.976L83.04 22.104C82.912 20.936 81.936 20.088 80.72 20.088C79.248 20.088 78.176 21.32 78.176 23C78.176 24.888 79.392 25.896 80.72 25.896C81.872 25.896 82.912 25.128 83.056 23.832L84.544 23.944C84.432 25.896 82.8 27.24 80.736 27.24ZM89.9894 27.24C87.6214 27.24 85.9254 25.48 85.9254 23C85.9254 20.52 87.6214 18.776 89.9894 18.776C92.3574 18.776 94.0374 20.52 94.0374 23C94.0374 25.48 92.3574 27.24 89.9894 27.24ZM89.9894 25.96C91.4774 25.96 92.5014 24.744 92.5014 23C92.5014 21.272 91.4774 20.056 89.9894 20.056C88.4854 20.056 87.4614 21.272 87.4614 23C87.4614 24.744 88.4854 25.96 89.9894 25.96ZM98.9141 26.904C97.4101 27.336 95.7781 27.08 95.7781 24.808V15.8H97.2821V24.504C97.2821 25.672 97.9221 25.944 98.8821 25.624L98.9141 26.904ZM104.122 27.24C101.754 27.24 100.058 25.48 100.058 23C100.058 20.52 101.754 18.776 104.122 18.776C106.49 18.776 108.17 20.52 108.17 23C108.17 25.48 106.49 27.24 104.122 27.24ZM104.122 25.96C105.61 25.96 106.634 24.744 106.634 23C106.634 21.272 105.61 20.056 104.122 20.056C102.618 20.056 101.594 21.272 101.594 23C101.594 24.744 102.618 25.96 104.122 25.96ZM109.928 27V19.016H111.448L111.4 21.4C111.736 19.432 113.112 18.728 114.488 18.984V20.472C112.808 20.248 111.448 21.24 111.448 23.56V27H109.928ZM114.773 23.144V21.896H119.365V23.144H114.773ZM121.279 27V19.016H122.799L122.751 20.968C123.087 19.608 123.999 18.808 125.407 18.808C127.167 18.808 128.287 20.072 128.287 22.088V27H126.767V22.312C126.767 20.856 126.095 20.04 124.895 20.04C123.535 20.04 122.799 21.048 122.799 22.872V27H121.279ZM133.995 27.272C131.659 27.272 129.979 25.48 129.979 23C129.979 20.536 131.659 18.728 133.979 18.728C136.731 18.728 138.075 21.208 137.787 23.432H131.515C131.563 24.984 132.587 26.088 134.011 26.088C135.115 26.088 136.043 25.448 136.347 24.488L137.643 24.696C137.291 26.168 135.851 27.272 133.995 27.272ZM131.531 22.296H136.315C136.315 20.936 135.371 19.88 133.979 19.88C132.651 19.88 131.659 20.872 131.531 22.296ZM141.039 23.704C141.039 25.16 141.711 25.976 142.863 25.976C144.191 25.976 144.911 24.968 144.911 23.144V19.016H146.431V24.12V27H144.911L144.959 25.448C144.543 26.568 143.663 27.208 142.367 27.208C140.639 27.208 139.535 25.976 139.535 23.992V19.016H141.039V23.704ZM152.863 26.92C151.311 27.416 149.487 27 149.487 24.536V20.28H147.951V19.016H149.487V17.016H151.007V19.016H153.071V20.28H151.007V24.424C151.007 25.832 151.951 25.976 152.831 25.656L152.863 26.92ZM154.778 27V19.016H156.298L156.25 21.4C156.586 19.432 157.962 18.728 159.338 18.984V20.472C157.658 20.248 156.298 21.24 156.298 23.56V27H154.778ZM162.834 27.176C161.33 27.176 160.242 26.344 160.242 24.952C160.242 23.464 161.522 22.664 163.938 22.392L165.57 22.216V21.896C165.57 20.728 164.914 19.992 163.794 19.992C162.77 19.992 162.05 20.648 161.954 21.752L160.482 21.704C160.61 19.96 161.954 18.776 163.842 18.776C165.762 18.776 167.058 20.024 167.058 21.944V24.712C167.058 25.576 167.154 26.44 167.266 27H165.794C165.698 26.632 165.634 26.184 165.634 25.352C165.266 26.456 164.178 27.176 162.834 27.176ZM163.298 26.12C164.578 26.12 165.586 25.144 165.586 23.736V23.128L164.05 23.32C162.562 23.496 161.762 23.896 161.762 24.824C161.762 25.704 162.434 26.12 163.298 26.12ZM172.155 26.904C170.651 27.336 169.019 27.08 169.019 24.808V15.8H170.523V24.504C170.523 25.672 171.163 25.944 172.123 25.624L172.155 26.904ZM172.865 23.144V21.896H177.457V23.144H172.865ZM182.803 15.48C185.619 15.48 187.075 17.88 187.075 21.352C187.075 25.064 185.491 27.32 182.819 27.32C180.691 27.32 179.139 25.896 179.027 23.752L180.483 23.656C180.579 25.112 181.491 26.056 182.883 26.056C184.787 26.056 185.603 24.168 185.603 21.56C185.603 21.128 185.571 20.728 185.523 20.424C185.251 21.848 184.051 22.744 182.531 22.744C180.563 22.744 178.899 21.416 178.899 19.144C178.899 16.952 180.499 15.48 182.803 15.48ZM182.819 16.664C181.411 16.664 180.419 17.688 180.419 19.128C180.419 20.568 181.411 21.576 182.819 21.576C184.195 21.576 185.203 20.6 185.203 19.208C185.203 17.72 184.195 16.664 182.819 16.664ZM193.222 27.224C190.742 27.224 189.062 24.856 189.062 21.4C189.062 17.944 190.742 15.576 193.222 15.576C195.702 15.576 197.398 17.944 197.398 21.4C197.398 24.856 195.702 27.224 193.222 27.224ZM193.222 25.88C194.806 25.88 195.862 24.056 195.862 21.4C195.862 18.744 194.806 16.92 193.222 16.92C191.654 16.92 190.582 18.744 190.582 21.4C190.582 24.056 191.654 25.88 193.222 25.88ZM203.538 27.224C201.058 27.224 199.378 24.856 199.378 21.4C199.378 17.944 201.058 15.576 203.538 15.576C206.018 15.576 207.714 17.944 207.714 21.4C207.714 24.856 206.018 27.224 203.538 27.224ZM203.538 25.88C205.122 25.88 206.178 24.056 206.178 21.4C206.178 18.744 205.122 16.92 203.538 16.92C201.97 16.92 200.898 18.744 200.898 21.4C200.898 24.056 201.97 25.88 203.538 25.88Z" fill="#414141"/>
<path d="M78.032 48L78.816 44.704H76.736V43.76H79.04L79.696 40.96H76.736V40.016H79.92L80.688 36.8H81.968L81.2 40.016H83.904L84.672 36.8H85.936L85.168 40.016H87.232V40.96H84.944L84.288 43.76H87.232V44.704H84.064L83.28 48H82L82.784 44.704H80.08L79.296 48H78.032ZM80.304 43.76H83.008L83.68 40.96H80.976L80.304 43.76ZM93.6663 48V45.36H88.4823V44.24C90.5303 42.464 92.1302 39.776 92.6903 36.72H94.3543C93.8103 39.776 92.0983 42.56 89.8423 44.176H93.7303V40.752H95.1063V44.176H96.8023V45.36H95.1063V48H93.6663ZM99.9426 39.376C99.4626 40.4 98.4706 41.024 96.9986 41.024V39.728C98.9186 39.728 99.9266 38.608 100.087 36.72H101.447V48H99.9426V39.376ZM108.401 48V45.36H103.217V44.24C105.265 42.464 106.865 39.776 107.425 36.72H109.089C108.545 39.776 106.833 42.56 104.577 44.176H108.465V40.752H109.841V44.176H111.537V45.36H109.841V48H108.401ZM114.677 39.376C114.197 40.4 113.205 41.024 111.733 41.024V39.728C113.653 39.728 114.661 38.608 114.821 36.72H116.181V48H114.677V39.376ZM123.135 48V45.36H117.951V44.24C119.999 42.464 121.599 39.776 122.159 36.72H123.823C123.279 39.776 121.567 42.56 119.311 44.176H123.199V40.752H124.575V44.176H126.271V45.36H124.575V48H123.135ZM129.411 39.376C128.931 40.4 127.939 41.024 126.467 41.024V39.728C128.387 39.728 129.395 38.608 129.555 36.72H130.915V48H129.411V39.376Z" fill="#767676"/>
</svg>
