<svg width="360" height="72" viewBox="0 0 360 72" fill="none" xmlns="http://www.w3.org/2000/svg">
<mask id="path-1-inside-1_7_172" fill="white">
<path d="M0 0H360V72H0V0Z"/>
</mask>
<path d="M360 0H359V72H360H361V0H360Z" fill="#D9D9DB" mask="url(#path-1-inside-1_7_172)"/>
<rect x="16" y="12" width="48" height="48" rx="8" fill="#F5F5F5"/>
<path d="M80.736 27.24C78.368 27.24 76.656 25.464 76.656 23C76.656 20.568 78.384 18.776 80.736 18.776C82.768 18.776 84.4 20.088 84.528 21.976L83.04 22.104C82.912 20.936 81.936 20.088 80.72 20.088C79.248 20.088 78.176 21.32 78.176 23C78.176 24.888 79.392 25.896 80.72 25.896C81.872 25.896 82.912 25.128 83.056 23.832L84.544 23.944C84.432 25.896 82.8 27.24 80.736 27.24ZM89.9894 27.24C87.6214 27.24 85.9254 25.48 85.9254 23C85.9254 20.52 87.6214 18.776 89.9894 18.776C92.3574 18.776 94.0374 20.52 94.0374 23C94.0374 25.48 92.3574 27.24 89.9894 27.24ZM89.9894 25.96C91.4774 25.96 92.5014 24.744 92.5014 23C92.5014 21.272 91.4774 20.056 89.9894 20.056C88.4854 20.056 87.4614 21.272 87.4614 23C87.4614 24.744 88.4854 25.96 89.9894 25.96ZM98.9141 26.904C97.4101 27.336 95.7781 27.08 95.7781 24.808V15.8H97.2821V24.504C97.2821 25.672 97.9221 25.944 98.8821 25.624L98.9141 26.904ZM104.122 27.24C101.754 27.24 100.058 25.48 100.058 23C100.058 20.52 101.754 18.776 104.122 18.776C106.49 18.776 108.17 20.52 108.17 23C108.17 25.48 106.49 27.24 104.122 27.24ZM104.122 25.96C105.61 25.96 106.634 24.744 106.634 23C106.634 21.272 105.61 20.056 104.122 20.056C102.618 20.056 101.594 21.272 101.594 23C101.594 24.744 102.618 25.96 104.122 25.96ZM109.928 27V19.016H111.448L111.4 21.4C111.736 19.432 113.112 18.728 114.488 18.984V20.472C112.808 20.248 111.448 21.24 111.448 23.56V27H109.928ZM114.773 23.144V21.896H119.365V23.144H114.773ZM121.279 27V15.8H122.799V20.36C123.391 19.368 124.383 18.808 125.615 18.808C127.759 18.808 129.311 20.552 129.311 23.016C129.311 25.464 127.759 27.208 125.615 27.208C124.383 27.208 123.391 26.648 122.799 25.656V27H121.279ZM125.231 20.056C123.743 20.056 122.703 21.256 122.703 23.016C122.703 24.76 123.743 25.96 125.231 25.96C126.703 25.96 127.775 24.728 127.775 23.016C127.775 21.304 126.703 20.056 125.231 20.056ZM133.288 27.176C131.784 27.176 130.696 26.344 130.696 24.952C130.696 23.464 131.976 22.664 134.392 22.392L136.024 22.216V21.896C136.024 20.728 135.368 19.992 134.248 19.992C133.224 19.992 132.504 20.648 132.408 21.752L130.936 21.704C131.064 19.96 132.408 18.776 134.296 18.776C136.216 18.776 137.512 20.024 137.512 21.944V24.712C137.512 25.576 137.608 26.44 137.72 27H136.248C136.152 26.632 136.088 26.184 136.088 25.352C135.72 26.456 134.632 27.176 133.288 27.176ZM133.752 26.12C135.032 26.12 136.04 25.144 136.04 23.736V23.128L134.504 23.32C133.016 23.496 132.216 23.896 132.216 24.824C132.216 25.704 132.888 26.12 133.752 26.12ZM143.297 27.24C140.929 27.24 139.217 25.464 139.217 23C139.217 20.568 140.945 18.776 143.297 18.776C145.329 18.776 146.961 20.088 147.089 21.976L145.601 22.104C145.473 20.936 144.497 20.088 143.281 20.088C141.809 20.088 140.737 21.32 140.737 23C140.737 24.888 141.953 25.896 143.281 25.896C144.433 25.896 145.473 25.128 145.617 23.832L147.105 23.944C146.993 25.896 145.361 27.24 143.297 27.24ZM148.775 27V15.8H150.279V22.616L154.199 19.016H156.007L152.759 22.008L156.087 27H154.391L151.735 22.952L150.279 24.28V27H148.775ZM161.542 30.28C159.302 30.28 157.734 29.048 157.574 27.224L159.062 27.16C159.222 28.296 160.198 29.064 161.542 29.064C163.03 29.064 164.006 28.104 164.006 26.536V25C163.558 26.008 162.454 26.76 161.158 26.76C159.014 26.76 157.318 25.064 157.318 22.76C157.318 20.52 158.982 18.776 161.158 18.776C162.454 18.776 163.622 19.496 164.07 20.584V19.016H165.51V26.296C165.51 28.792 163.974 30.28 161.542 30.28ZM161.478 25.512C162.95 25.512 164.102 24.36 164.102 22.76C164.102 21.224 163.014 20.024 161.478 20.024C159.99 20.024 158.838 21.224 158.838 22.76C158.838 24.312 159.99 25.512 161.478 25.512ZM167.563 27V19.016H169.083L169.035 21.4C169.371 19.432 170.747 18.728 172.123 18.984V20.472C170.443 20.248 169.083 21.24 169.083 23.56V27H167.563ZM177.015 27.24C174.647 27.24 172.951 25.48 172.951 23C172.951 20.52 174.647 18.776 177.015 18.776C179.383 18.776 181.063 20.52 181.063 23C181.063 25.48 179.383 27.24 177.015 27.24ZM177.015 25.96C178.503 25.96 179.527 24.744 179.527 23C179.527 21.272 178.503 20.056 177.015 20.056C175.511 20.056 174.487 21.272 174.487 23C174.487 24.744 175.511 25.96 177.015 25.96ZM184.261 23.704C184.261 25.16 184.933 25.976 186.085 25.976C187.413 25.976 188.133 24.968 188.133 23.144V19.016H189.653V24.12V27H188.133L188.181 25.448C187.765 26.568 186.885 27.208 185.589 27.208C183.861 27.208 182.757 25.976 182.757 23.992V19.016H184.261V23.704ZM191.7 27V19.016H193.22L193.172 20.968C193.508 19.608 194.42 18.808 195.828 18.808C197.588 18.808 198.708 20.072 198.708 22.088V27H197.188V22.312C197.188 20.856 196.516 20.04 195.316 20.04C193.956 20.04 193.22 21.048 193.22 22.872V27H191.7ZM204.096 27.208C201.952 27.208 200.4 25.464 200.4 23C200.4 20.552 201.952 18.808 204.096 18.808C205.344 18.808 206.336 19.384 206.928 20.376V15.8H208.448V25.288V27H206.928V25.624C206.336 26.632 205.344 27.208 204.096 27.208ZM204.48 25.96C205.968 25.96 207.008 24.76 207.008 23C207.008 21.256 205.968 20.056 204.48 20.056C203.008 20.056 201.936 21.288 201.936 23C201.936 24.712 203.008 25.96 204.48 25.96ZM210.361 23.144V21.896H214.953V23.144H210.361ZM219.926 27.272C217.926 27.272 216.534 26.184 216.406 24.472L217.814 24.424C217.91 25.512 218.758 26.2 219.926 26.2C220.87 26.2 221.686 25.768 221.686 24.936C221.686 24.312 221.206 23.96 220.262 23.768L218.902 23.512C217.35 23.256 216.63 22.424 216.63 21.256C216.63 19.704 217.926 18.728 219.702 18.728C221.558 18.728 222.886 19.848 222.966 21.512L221.606 21.592C221.542 20.552 220.758 19.816 219.686 19.816C218.79 19.816 218.07 20.312 218.07 21.112C218.07 21.704 218.47 22.072 219.19 22.2L220.55 22.456C222.23 22.76 223.142 23.528 223.142 24.792C223.142 26.328 221.766 27.272 219.926 27.272ZM226.311 23.704C226.311 25.16 226.983 25.976 228.135 25.976C229.463 25.976 230.183 24.968 230.183 23.144V19.016H231.703V24.12V27H230.183L230.231 25.448C229.815 26.568 228.935 27.208 227.639 27.208C225.911 27.208 224.807 25.976 224.807 23.992V19.016H226.311V23.704ZM233.75 27V15.8H235.27V20.36C235.862 19.368 236.854 18.808 238.086 18.808C240.23 18.808 241.782 20.552 241.782 23.016C241.782 25.464 240.23 27.208 238.086 27.208C236.854 27.208 235.862 26.648 235.27 25.656V27H233.75ZM237.702 20.056C236.214 20.056 235.174 21.256 235.174 23.016C235.174 24.76 236.214 25.96 237.702 25.96C239.174 25.96 240.246 24.728 240.246 23.016C240.246 21.304 239.174 20.056 237.702 20.056ZM247.747 26.92C246.195 27.416 244.371 27 244.371 24.536V20.28H242.835V19.016H244.371V17.016H245.891V19.016H247.955V20.28H245.891V24.424C245.891 25.832 246.835 25.976 247.715 25.656L247.747 26.92ZM252.735 26.904C251.231 27.336 249.599 27.08 249.599 24.808V15.8H251.103V24.504C251.103 25.672 251.743 25.944 252.703 25.624L252.735 26.904ZM257.895 27.272C255.559 27.272 253.879 25.48 253.879 23C253.879 20.536 255.559 18.728 257.879 18.728C260.631 18.728 261.975 21.208 261.687 23.432H255.415C255.463 24.984 256.487 26.088 257.911 26.088C259.015 26.088 259.943 25.448 260.247 24.488L261.543 24.696C261.191 26.168 259.751 27.272 257.895 27.272ZM255.431 22.296H260.215C260.215 20.936 259.271 19.88 257.879 19.88C256.551 19.88 255.559 20.872 255.431 22.296Z" fill="#414141"/>
<path d="M80.592 49.76V48.24C78.352 48.016 76.8 46.544 76.784 44.496L78.32 44.384C78.368 45.76 79.28 46.736 80.592 46.976V42.992L80.368 42.944C78.304 42.544 77.152 41.424 77.152 39.776C77.152 37.936 78.544 36.704 80.592 36.544V35.2H81.776V36.576C83.712 36.864 85.072 38.272 85.136 40.192L83.584 40.288C83.536 39.056 82.832 38.144 81.776 37.856V41.68L81.968 41.712C84.304 42.16 85.456 43.2 85.456 44.96C85.456 46.768 83.968 48.064 81.776 48.24V49.76H80.592ZM78.72 39.664C78.72 40.592 79.392 41.184 80.512 41.44L80.592 41.456V37.792C79.488 37.936 78.72 38.656 78.72 39.664ZM81.776 46.992C83.04 46.816 83.888 46.096 83.888 45.056C83.888 44.048 83.248 43.536 81.824 43.216L81.776 43.2V46.992ZM90.2057 50.928C88.0938 48.96 86.9738 46.368 86.9738 43.52C86.9738 40.672 88.0938 38.08 90.2057 36.112L91.1338 36.992C89.3098 38.688 88.3178 40.976 88.3178 43.52C88.3178 46.064 89.3098 48.352 91.1338 50.048L90.2057 50.928ZM95.1735 48.24C92.8055 48.24 91.0935 46.464 91.0935 44C91.0935 41.568 92.8215 39.776 95.1735 39.776C97.2055 39.776 98.8375 41.088 98.9655 42.976L97.4775 43.104C97.3495 41.936 96.3735 41.088 95.1575 41.088C93.6855 41.088 92.6135 42.32 92.6135 44C92.6135 45.888 93.8295 46.896 95.1575 46.896C96.3095 46.896 97.3495 46.128 97.4935 44.832L98.9815 44.944C98.8695 46.896 97.2375 48.24 95.1735 48.24ZM104.267 48.24C101.899 48.24 100.203 46.48 100.203 44C100.203 41.52 101.899 39.776 104.267 39.776C106.635 39.776 108.315 41.52 108.315 44C108.315 46.48 106.635 48.24 104.267 48.24ZM104.267 46.96C105.755 46.96 106.779 45.744 106.779 44C106.779 42.272 105.755 41.056 104.267 41.056C102.763 41.056 101.739 42.272 101.739 44C101.739 45.744 102.763 46.96 104.267 46.96ZM113.032 47.904C111.528 48.336 109.896 48.08 109.896 45.808V36.8H111.4V45.504C111.4 46.672 112.04 46.944 113 46.624L113.032 47.904ZM118.079 48.24C115.711 48.24 114.015 46.48 114.015 44C114.015 41.52 115.711 39.776 118.079 39.776C120.447 39.776 122.127 41.52 122.127 44C122.127 46.48 120.447 48.24 118.079 48.24ZM118.079 46.96C119.567 46.96 120.591 45.744 120.591 44C120.591 42.272 119.567 41.056 118.079 41.056C116.575 41.056 115.551 42.272 115.551 44C115.551 45.744 116.575 46.96 118.079 46.96ZM123.725 48V40.016H125.245L125.197 42.4C125.533 40.432 126.909 39.728 128.285 39.984V41.472C126.605 41.248 125.245 42.24 125.245 44.56V48H123.725ZM128.41 44.144V42.896H133.002V44.144H128.41ZM134.757 48V40.016H136.277L136.229 41.968C136.565 40.608 137.477 39.808 138.885 39.808C140.645 39.808 141.765 41.072 141.765 43.088V48H140.245V43.312C140.245 41.856 139.573 41.04 138.373 41.04C137.013 41.04 136.277 42.048 136.277 43.872V48H134.757ZM147.313 48.272C144.977 48.272 143.297 46.48 143.297 44C143.297 41.536 144.977 39.728 147.297 39.728C150.049 39.728 151.393 42.208 151.105 44.432H144.833C144.881 45.984 145.905 47.088 147.329 47.088C148.433 47.088 149.361 46.448 149.665 45.488L150.961 45.696C150.609 47.168 149.169 48.272 147.313 48.272ZM144.849 43.296H149.633C149.633 41.936 148.689 40.88 147.297 40.88C145.969 40.88 144.977 41.872 144.849 43.296ZM154.197 44.704C154.197 46.16 154.869 46.976 156.021 46.976C157.349 46.976 158.069 45.968 158.069 44.144V40.016H159.589V45.12V48H158.069L158.117 46.448C157.701 47.568 156.821 48.208 155.525 48.208C153.797 48.208 152.693 46.976 152.693 44.992V40.016H154.197V44.704ZM165.86 47.92C164.308 48.416 162.484 48 162.484 45.536V41.28H160.948V40.016H162.484V38.016H164.004V40.016H166.068V41.28H164.004V45.424C164.004 46.832 164.948 46.976 165.828 46.656L165.86 47.92ZM167.616 48V40.016H169.136L169.088 42.4C169.424 40.432 170.8 39.728 172.176 39.984V41.472C170.496 41.248 169.136 42.24 169.136 44.56V48H167.616ZM175.512 48.176C174.008 48.176 172.92 47.344 172.92 45.952C172.92 44.464 174.2 43.664 176.616 43.392L178.248 43.216V42.896C178.248 41.728 177.592 40.992 176.472 40.992C175.448 40.992 174.728 41.648 174.632 42.752L173.16 42.704C173.288 40.96 174.632 39.776 176.52 39.776C178.44 39.776 179.736 41.024 179.736 42.944V45.712C179.736 46.576 179.832 47.44 179.944 48H178.472C178.376 47.632 178.312 47.184 178.312 46.352C177.944 47.456 176.856 48.176 175.512 48.176ZM175.976 47.12C177.256 47.12 178.264 46.144 178.264 44.736V44.128L176.728 44.32C175.24 44.496 174.44 44.896 174.44 45.824C174.44 46.704 175.112 47.12 175.976 47.12ZM184.672 47.904C183.168 48.336 181.536 48.08 181.536 45.808V36.8H183.04V45.504C183.04 46.672 183.68 46.944 184.64 46.624L184.672 47.904ZM185.223 44.144V42.896H189.815V44.144H185.223ZM192.583 39.376C192.103 40.4 191.111 41.024 189.639 41.024V39.728C191.559 39.728 192.567 38.608 192.727 36.72H194.087V48H192.583V39.376ZM200.228 48.224C197.748 48.224 196.068 45.856 196.068 42.4C196.068 38.944 197.748 36.576 200.228 36.576C202.708 36.576 204.404 38.944 204.404 42.4C204.404 45.856 202.708 48.224 200.228 48.224ZM200.228 46.88C201.812 46.88 202.868 45.056 202.868 42.4C202.868 39.744 201.812 37.92 200.228 37.92C198.66 37.92 197.588 39.744 197.588 42.4C197.588 45.056 198.66 46.88 200.228 46.88ZM210.385 48.224C207.905 48.224 206.225 45.856 206.225 42.4C206.225 38.944 207.905 36.576 210.385 36.576C212.865 36.576 214.561 38.944 214.561 42.4C214.561 45.856 212.865 48.224 210.385 48.224ZM210.385 46.88C211.969 46.88 213.025 45.056 213.025 42.4C213.025 39.744 211.969 37.92 210.385 37.92C208.817 37.92 207.745 39.744 207.745 42.4C207.745 45.056 208.817 46.88 210.385 46.88ZM214.967 50.048C216.791 48.352 217.783 46.064 217.783 43.52C217.783 40.976 216.791 38.688 214.967 36.992L215.895 36.112C218.007 38.08 219.127 40.672 219.127 43.52C219.127 46.368 218.007 48.96 215.895 50.928L214.967 50.048Z" fill="#767676"/>
</svg>
