<svg width="360" height="72" viewBox="0 0 360 72" fill="none" xmlns="http://www.w3.org/2000/svg">
<mask id="path-1-inside-1_7_217" fill="white">
<path d="M0 0H360V72H0V0Z"/>
</mask>
<path d="M360 0H359V72H360H361V0H360Z" fill="#D9D9DB" mask="url(#path-1-inside-1_7_217)"/>
<rect x="16" y="12" width="48" height="48" rx="8" fill="#A0A0A0"/>
<path d="M80.736 27.24C78.368 27.24 76.656 25.464 76.656 23C76.656 20.568 78.384 18.776 80.736 18.776C82.768 18.776 84.4 20.088 84.528 21.976L83.04 22.104C82.912 20.936 81.936 20.088 80.72 20.088C79.248 20.088 78.176 21.32 78.176 23C78.176 24.888 79.392 25.896 80.72 25.896C81.872 25.896 82.912 25.128 83.056 23.832L84.544 23.944C84.432 25.896 82.8 27.24 80.736 27.24ZM89.9894 27.24C87.6214 27.24 85.9254 25.48 85.9254 23C85.9254 20.52 87.6214 18.776 89.9894 18.776C92.3574 18.776 94.0374 20.52 94.0374 23C94.0374 25.48 92.3574 27.24 89.9894 27.24ZM89.9894 25.96C91.4774 25.96 92.5014 24.744 92.5014 23C92.5014 21.272 91.4774 20.056 89.9894 20.056C88.4854 20.056 87.4614 21.272 87.4614 23C87.4614 24.744 88.4854 25.96 89.9894 25.96ZM98.9141 26.904C97.4101 27.336 95.7781 27.08 95.7781 24.808V15.8H97.2821V24.504C97.2821 25.672 97.9221 25.944 98.8821 25.624L98.9141 26.904ZM104.122 27.24C101.754 27.24 100.058 25.48 100.058 23C100.058 20.52 101.754 18.776 104.122 18.776C106.49 18.776 108.17 20.52 108.17 23C108.17 25.48 106.49 27.24 104.122 27.24ZM104.122 25.96C105.61 25.96 106.634 24.744 106.634 23C106.634 21.272 105.61 20.056 104.122 20.056C102.618 20.056 101.594 21.272 101.594 23C101.594 24.744 102.618 25.96 104.122 25.96ZM109.928 27V19.016H111.448L111.4 21.4C111.736 19.432 113.112 18.728 114.488 18.984V20.472C112.808 20.248 111.448 21.24 111.448 23.56V27H109.928ZM114.773 23.144V21.896H119.365V23.144H114.773ZM125.226 26.92C123.674 27.416 121.85 27 121.85 24.536V20.28H120.314V19.016H121.85V17.016H123.37V19.016H125.434V20.28H123.37V24.424C123.37 25.832 124.314 25.976 125.194 25.656L125.226 26.92ZM130.589 27.272C128.253 27.272 126.573 25.48 126.573 23C126.573 20.536 128.253 18.728 130.573 18.728C133.325 18.728 134.669 21.208 134.381 23.432H128.109C128.157 24.984 129.181 26.088 130.605 26.088C131.709 26.088 132.637 25.448 132.941 24.488L134.237 24.696C133.885 26.168 132.445 27.272 130.589 27.272ZM128.125 22.296H132.909C132.909 20.936 131.965 19.88 130.573 19.88C129.245 19.88 128.253 20.872 128.125 22.296ZM141.006 27L138.894 24.024L136.766 27H135.134L138.078 22.984L135.134 19.016H136.846L138.958 21.992L141.086 19.016H142.702L139.774 23.016L142.75 27H141.006ZM148.722 26.92C147.17 27.416 145.346 27 145.346 24.536V20.28H143.81V19.016H145.346V17.016H146.866V19.016H148.93V20.28H146.866V24.424C146.866 25.832 147.81 25.976 148.69 25.656L148.722 26.92ZM149.619 23.144V21.896H154.211V23.144H149.619ZM160.073 26.92C158.521 27.416 156.697 27 156.697 24.536V20.28H155.161V19.016H156.697V17.016H158.217V19.016H160.281V20.28H158.217V24.424C158.217 25.832 159.161 25.976 160.041 25.656L160.073 26.92ZM165.436 27.272C163.1 27.272 161.42 25.48 161.42 23C161.42 20.536 163.1 18.728 165.42 18.728C168.172 18.728 169.516 21.208 169.228 23.432H162.956C163.004 24.984 164.028 26.088 165.452 26.088C166.556 26.088 167.484 25.448 167.788 24.488L169.084 24.696C168.732 26.168 167.292 27.272 165.436 27.272ZM162.972 22.296H167.756C167.756 20.936 166.812 19.88 165.42 19.88C164.092 19.88 163.1 20.872 162.972 22.296ZM171.04 27V19.016H172.56L172.512 21.4C172.848 19.432 174.224 18.728 175.6 18.984V20.472C173.92 20.248 172.56 21.24 172.56 23.56V27H171.04ZM181.569 26.92C180.017 27.416 178.193 27 178.193 24.536V20.28H176.657V19.016H178.193V17.016H179.713V19.016H181.777V20.28H179.713V24.424C179.713 25.832 180.657 25.976 181.537 25.656L181.569 26.92ZM183.485 27V19.016H185.005V27H183.485ZM184.253 17.656C183.629 17.656 183.165 17.192 183.165 16.568C183.165 15.96 183.629 15.48 184.253 15.48C184.861 15.48 185.325 15.96 185.325 16.568C185.325 17.192 184.861 17.656 184.253 17.656ZM189.275 27.176C187.771 27.176 186.683 26.344 186.683 24.952C186.683 23.464 187.963 22.664 190.379 22.392L192.011 22.216V21.896C192.011 20.728 191.355 19.992 190.235 19.992C189.211 19.992 188.491 20.648 188.395 21.752L186.923 21.704C187.051 19.96 188.395 18.776 190.283 18.776C192.203 18.776 193.499 20.024 193.499 21.944V24.712C193.499 25.576 193.595 26.44 193.707 27H192.235C192.139 26.632 192.075 26.184 192.075 25.352C191.707 26.456 190.619 27.176 189.275 27.176ZM189.739 26.12C191.019 26.12 192.027 25.144 192.027 23.736V23.128L190.491 23.32C189.003 23.496 188.203 23.896 188.203 24.824C188.203 25.704 188.875 26.12 189.739 26.12ZM195.492 27V19.016H197.012L196.964 21.4C197.3 19.432 198.676 18.728 200.052 18.984V20.472C198.372 20.248 197.012 21.24 197.012 23.56V27H195.492ZM201.446 28.888C202.406 29.144 203.446 28.952 204.086 27.576L204.422 26.776L200.998 19.016H202.598L205.254 25.096L207.702 19.016H209.238L205.654 27.576C204.758 29.752 203.302 30.632 201.446 30.168V28.888Z" fill="#414141"/>
<path d="M80.592 49.76V48.24C78.352 48.016 76.8 46.544 76.784 44.496L78.32 44.384C78.368 45.76 79.28 46.736 80.592 46.976V42.992L80.368 42.944C78.304 42.544 77.152 41.424 77.152 39.776C77.152 37.936 78.544 36.704 80.592 36.544V35.2H81.776V36.576C83.712 36.864 85.072 38.272 85.136 40.192L83.584 40.288C83.536 39.056 82.832 38.144 81.776 37.856V41.68L81.968 41.712C84.304 42.16 85.456 43.2 85.456 44.96C85.456 46.768 83.968 48.064 81.776 48.24V49.76H80.592ZM78.72 39.664C78.72 40.592 79.392 41.184 80.512 41.44L80.592 41.456V37.792C79.488 37.936 78.72 38.656 78.72 39.664ZM81.776 46.992C83.04 46.816 83.888 46.096 83.888 45.056C83.888 44.048 83.248 43.536 81.824 43.216L81.776 43.2V46.992ZM90.2057 50.928C88.0938 48.96 86.9738 46.368 86.9738 43.52C86.9738 40.672 88.0938 38.08 90.2057 36.112L91.1338 36.992C89.3098 38.688 88.3178 40.976 88.3178 43.52C88.3178 46.064 89.3098 48.352 91.1338 50.048L90.2057 50.928ZM95.1735 48.24C92.8055 48.24 91.0935 46.464 91.0935 44C91.0935 41.568 92.8215 39.776 95.1735 39.776C97.2055 39.776 98.8375 41.088 98.9655 42.976L97.4775 43.104C97.3495 41.936 96.3735 41.088 95.1575 41.088C93.6855 41.088 92.6135 42.32 92.6135 44C92.6135 45.888 93.8295 46.896 95.1575 46.896C96.3095 46.896 97.3495 46.128 97.4935 44.832L98.9815 44.944C98.8695 46.896 97.2375 48.24 95.1735 48.24ZM104.267 48.24C101.899 48.24 100.203 46.48 100.203 44C100.203 41.52 101.899 39.776 104.267 39.776C106.635 39.776 108.315 41.52 108.315 44C108.315 46.48 106.635 48.24 104.267 48.24ZM104.267 46.96C105.755 46.96 106.779 45.744 106.779 44C106.779 42.272 105.755 41.056 104.267 41.056C102.763 41.056 101.739 42.272 101.739 44C101.739 45.744 102.763 46.96 104.267 46.96ZM113.032 47.904C111.528 48.336 109.896 48.08 109.896 45.808V36.8H111.4V45.504C111.4 46.672 112.04 46.944 113 46.624L113.032 47.904ZM118.079 48.24C115.711 48.24 114.015 46.48 114.015 44C114.015 41.52 115.711 39.776 118.079 39.776C120.447 39.776 122.127 41.52 122.127 44C122.127 46.48 120.447 48.24 118.079 48.24ZM118.079 46.96C119.567 46.96 120.591 45.744 120.591 44C120.591 42.272 119.567 41.056 118.079 41.056C116.575 41.056 115.551 42.272 115.551 44C115.551 45.744 116.575 46.96 118.079 46.96ZM123.725 48V40.016H125.245L125.197 42.4C125.533 40.432 126.909 39.728 128.285 39.984V41.472C126.605 41.248 125.245 42.24 125.245 44.56V48H123.725ZM128.41 44.144V42.896H133.002V44.144H128.41ZM134.757 48V40.016H136.277L136.229 41.968C136.565 40.608 137.477 39.808 138.885 39.808C140.645 39.808 141.765 41.072 141.765 43.088V48H140.245V43.312C140.245 41.856 139.573 41.04 138.373 41.04C137.013 41.04 136.277 42.048 136.277 43.872V48H134.757ZM147.313 48.272C144.977 48.272 143.297 46.48 143.297 44C143.297 41.536 144.977 39.728 147.297 39.728C150.049 39.728 151.393 42.208 151.105 44.432H144.833C144.881 45.984 145.905 47.088 147.329 47.088C148.433 47.088 149.361 46.448 149.665 45.488L150.961 45.696C150.609 47.168 149.169 48.272 147.313 48.272ZM144.849 43.296H149.633C149.633 41.936 148.689 40.88 147.297 40.88C145.969 40.88 144.977 41.872 144.849 43.296ZM154.197 44.704C154.197 46.16 154.869 46.976 156.021 46.976C157.349 46.976 158.069 45.968 158.069 44.144V40.016H159.589V45.12V48H158.069L158.117 46.448C157.701 47.568 156.821 48.208 155.525 48.208C153.797 48.208 152.693 46.976 152.693 44.992V40.016H154.197V44.704ZM165.86 47.92C164.308 48.416 162.484 48 162.484 45.536V41.28H160.948V40.016H162.484V38.016H164.004V40.016H166.068V41.28H164.004V45.424C164.004 46.832 164.948 46.976 165.828 46.656L165.86 47.92ZM167.616 48V40.016H169.136L169.088 42.4C169.424 40.432 170.8 39.728 172.176 39.984V41.472C170.496 41.248 169.136 42.24 169.136 44.56V48H167.616ZM175.512 48.176C174.008 48.176 172.92 47.344 172.92 45.952C172.92 44.464 174.2 43.664 176.616 43.392L178.248 43.216V42.896C178.248 41.728 177.592 40.992 176.472 40.992C175.448 40.992 174.728 41.648 174.632 42.752L173.16 42.704C173.288 40.96 174.632 39.776 176.52 39.776C178.44 39.776 179.736 41.024 179.736 42.944V45.712C179.736 46.576 179.832 47.44 179.944 48H178.472C178.376 47.632 178.312 47.184 178.312 46.352C177.944 47.456 176.856 48.176 175.512 48.176ZM175.976 47.12C177.256 47.12 178.264 46.144 178.264 44.736V44.128L176.728 44.32C175.24 44.496 174.44 44.896 174.44 45.824C174.44 46.704 175.112 47.12 175.976 47.12ZM184.672 47.904C183.168 48.336 181.536 48.08 181.536 45.808V36.8H183.04V45.504C183.04 46.672 183.68 46.944 184.64 46.624L184.672 47.904ZM185.223 44.144V42.896H189.815V44.144H185.223ZM195.061 48.32C192.805 48.32 191.317 46.928 191.189 44.992L192.693 44.88C192.805 46.32 193.877 47.072 195.077 47.072C196.325 47.072 197.461 46.192 197.461 44.576C197.461 43.008 196.341 42.08 195.045 42.08C194.213 42.08 193.413 42.48 192.933 43.232L191.445 43.04L191.989 36.8H198.709V38.064H193.349L192.997 42.048C193.541 41.28 194.501 40.912 195.477 40.912C197.237 40.912 198.981 42.144 198.981 44.512C198.981 46.752 197.365 48.32 195.061 48.32ZM204.853 48.224C202.373 48.224 200.693 45.856 200.693 42.4C200.693 38.944 202.373 36.576 204.853 36.576C207.333 36.576 209.029 38.944 209.029 42.4C209.029 45.856 207.333 48.224 204.853 48.224ZM204.853 46.88C206.437 46.88 207.493 45.056 207.493 42.4C207.493 39.744 206.437 37.92 204.853 37.92C203.285 37.92 202.213 39.744 202.213 42.4C202.213 45.056 203.285 46.88 204.853 46.88ZM215.01 48.224C212.53 48.224 210.85 45.856 210.85 42.4C210.85 38.944 212.53 36.576 215.01 36.576C217.49 36.576 219.186 38.944 219.186 42.4C219.186 45.856 217.49 48.224 215.01 48.224ZM215.01 46.88C216.594 46.88 217.65 45.056 217.65 42.4C217.65 39.744 216.594 37.92 215.01 37.92C213.442 37.92 212.37 39.744 212.37 42.4C212.37 45.056 213.442 46.88 215.01 46.88ZM219.592 50.048C221.416 48.352 222.408 46.064 222.408 43.52C222.408 40.976 221.416 38.688 219.592 36.992L220.52 36.112C222.632 38.08 223.752 40.672 223.752 43.52C223.752 46.368 222.632 48.96 220.52 50.928L219.592 50.048Z" fill="#767676"/>
</svg>
