<svg width="360" height="72" viewBox="0 0 360 72" fill="none" xmlns="http://www.w3.org/2000/svg">
<mask id="path-1-inside-1_34_174" fill="white">
<path d="M0 0H360V72H0V0Z"/>
</mask>
<path d="M360 0H359V72H360H361V0H360Z" fill="#D9D9DB" mask="url(#path-1-inside-1_34_174)"/>
<rect x="16" y="12" width="48" height="48" rx="8" fill="black"/>
<path d="M80.736 27.24C78.368 27.24 76.656 25.464 76.656 23C76.656 20.568 78.384 18.776 80.736 18.776C82.768 18.776 84.4 20.088 84.528 21.976L83.04 22.104C82.912 20.936 81.936 20.088 80.72 20.088C79.248 20.088 78.176 21.32 78.176 23C78.176 24.888 79.392 25.896 80.72 25.896C81.872 25.896 82.912 25.128 83.056 23.832L84.544 23.944C84.432 25.896 82.8 27.24 80.736 27.24ZM89.9894 27.24C87.6214 27.24 85.9254 25.48 85.9254 23C85.9254 20.52 87.6214 18.776 89.9894 18.776C92.3574 18.776 94.0374 20.52 94.0374 23C94.0374 25.48 92.3574 27.24 89.9894 27.24ZM89.9894 25.96C91.4774 25.96 92.5014 24.744 92.5014 23C92.5014 21.272 91.4774 20.056 89.9894 20.056C88.4854 20.056 87.4614 21.272 87.4614 23C87.4614 24.744 88.4854 25.96 89.9894 25.96ZM98.9141 26.904C97.4101 27.336 95.7781 27.08 95.7781 24.808V15.8H97.2821V24.504C97.2821 25.672 97.9221 25.944 98.8821 25.624L98.9141 26.904ZM104.122 27.24C101.754 27.24 100.058 25.48 100.058 23C100.058 20.52 101.754 18.776 104.122 18.776C106.49 18.776 108.17 20.52 108.17 23C108.17 25.48 106.49 27.24 104.122 27.24ZM104.122 25.96C105.61 25.96 106.634 24.744 106.634 23C106.634 21.272 105.61 20.056 104.122 20.056C102.618 20.056 101.594 21.272 101.594 23C101.594 24.744 102.618 25.96 104.122 25.96ZM109.928 27V19.016H111.448L111.4 21.4C111.736 19.432 113.112 18.728 114.488 18.984V20.472C112.808 20.248 111.448 21.24 111.448 23.56V27H109.928ZM114.773 23.144V21.896H119.365V23.144H114.773ZM121.279 27V19.016H122.799L122.751 20.968C123.087 19.608 123.999 18.808 125.407 18.808C127.167 18.808 128.287 20.072 128.287 22.088V27H126.767V22.312C126.767 20.856 126.095 20.04 124.895 20.04C123.535 20.04 122.799 21.048 122.799 22.872V27H121.279ZM133.995 27.272C131.659 27.272 129.979 25.48 129.979 23C129.979 20.536 131.659 18.728 133.979 18.728C136.731 18.728 138.075 21.208 137.787 23.432H131.515C131.563 24.984 132.587 26.088 134.011 26.088C135.115 26.088 136.043 25.448 136.347 24.488L137.643 24.696C137.291 26.168 135.851 27.272 133.995 27.272ZM131.531 22.296H136.315C136.315 20.936 135.371 19.88 133.979 19.88C132.651 19.88 131.659 20.872 131.531 22.296ZM141.039 23.704C141.039 25.16 141.711 25.976 142.863 25.976C144.191 25.976 144.911 24.968 144.911 23.144V19.016H146.431V24.12V27H144.911L144.959 25.448C144.543 26.568 143.663 27.208 142.367 27.208C140.639 27.208 139.535 25.976 139.535 23.992V19.016H141.039V23.704ZM152.863 26.92C151.311 27.416 149.487 27 149.487 24.536V20.28H147.951V19.016H149.487V17.016H151.007V19.016H153.071V20.28H151.007V24.424C151.007 25.832 151.951 25.976 152.831 25.656L152.863 26.92ZM154.778 27V19.016H156.298L156.25 21.4C156.586 19.432 157.962 18.728 159.338 18.984V20.472C157.658 20.248 156.298 21.24 156.298 23.56V27H154.778ZM162.834 27.176C161.33 27.176 160.242 26.344 160.242 24.952C160.242 23.464 161.522 22.664 163.938 22.392L165.57 22.216V21.896C165.57 20.728 164.914 19.992 163.794 19.992C162.77 19.992 162.05 20.648 161.954 21.752L160.482 21.704C160.61 19.96 161.954 18.776 163.842 18.776C165.762 18.776 167.058 20.024 167.058 21.944V24.712C167.058 25.576 167.154 26.44 167.266 27H165.794C165.698 26.632 165.634 26.184 165.634 25.352C165.266 26.456 164.178 27.176 162.834 27.176ZM163.298 26.12C164.578 26.12 165.586 25.144 165.586 23.736V23.128L164.05 23.32C162.562 23.496 161.762 23.896 161.762 24.824C161.762 25.704 162.434 26.12 163.298 26.12ZM172.155 26.904C170.651 27.336 169.019 27.08 169.019 24.808V15.8H170.523V24.504C170.523 25.672 171.163 25.944 172.123 25.624L172.155 26.904ZM172.865 23.144V21.896H177.457V23.144H172.865ZM179.371 27V15.8H180.891V20.36C181.483 19.368 182.475 18.808 183.707 18.808C185.851 18.808 187.403 20.552 187.403 23.016C187.403 25.464 185.851 27.208 183.707 27.208C182.475 27.208 181.483 26.648 180.891 25.656V27H179.371ZM183.323 20.056C181.835 20.056 180.795 21.256 180.795 23.016C180.795 24.76 181.835 25.96 183.323 25.96C184.795 25.96 185.867 24.728 185.867 23.016C185.867 21.304 184.795 20.056 183.323 20.056ZM192.229 26.904C190.725 27.336 189.093 27.08 189.093 24.808V15.8H190.597V24.504C190.597 25.672 191.237 25.944 192.197 25.624L192.229 26.904ZM195.978 27.176C194.474 27.176 193.386 26.344 193.386 24.952C193.386 23.464 194.666 22.664 197.082 22.392L198.714 22.216V21.896C198.714 20.728 198.058 19.992 196.938 19.992C195.914 19.992 195.194 20.648 195.098 21.752L193.626 21.704C193.754 19.96 195.098 18.776 196.986 18.776C198.906 18.776 200.202 20.024 200.202 21.944V24.712C200.202 25.576 200.298 26.44 200.41 27H198.938C198.842 26.632 198.778 26.184 198.778 25.352C198.41 26.456 197.322 27.176 195.978 27.176ZM196.442 26.12C197.722 26.12 198.73 25.144 198.73 23.736V23.128L197.194 23.32C195.706 23.496 194.906 23.896 194.906 24.824C194.906 25.704 195.578 26.12 196.442 26.12ZM205.987 27.24C203.619 27.24 201.907 25.464 201.907 23C201.907 20.568 203.635 18.776 205.987 18.776C208.019 18.776 209.651 20.088 209.779 21.976L208.291 22.104C208.163 20.936 207.187 20.088 205.971 20.088C204.499 20.088 203.427 21.32 203.427 23C203.427 24.888 204.643 25.896 205.971 25.896C207.123 25.896 208.163 25.128 208.307 23.832L209.795 23.944C209.683 25.896 208.051 27.24 205.987 27.24ZM211.465 27V15.8H212.969V22.616L216.889 19.016H218.697L215.449 22.008L218.777 27H217.081L214.425 22.952L212.969 24.28V27H211.465Z" fill="#414141"/>
<path d="M78.032 48L78.816 44.704H76.736V43.76H79.04L79.696 40.96H76.736V40.016H79.92L80.688 36.8H81.968L81.2 40.016H83.904L84.672 36.8H85.936L85.168 40.016H87.232V40.96H84.944L84.288 43.76H87.232V44.704H84.064L83.28 48H82L82.784 44.704H80.08L79.296 48H78.032ZM80.304 43.76H83.008L83.68 40.96H80.976L80.304 43.76ZM92.9158 48.224C90.4358 48.224 88.7558 45.856 88.7558 42.4C88.7558 38.944 90.4358 36.576 92.9158 36.576C95.3958 36.576 97.0918 38.944 97.0918 42.4C97.0918 45.856 95.3958 48.224 92.9158 48.224ZM92.9158 46.88C94.4998 46.88 95.5558 45.056 95.5558 42.4C95.5558 39.744 94.4998 37.92 92.9158 37.92C91.3478 37.92 90.2758 39.744 90.2758 42.4C90.2758 45.056 91.3478 46.88 92.9158 46.88ZM103.072 48.224C100.592 48.224 98.912 45.856 98.912 42.4C98.912 38.944 100.592 36.576 103.072 36.576C105.552 36.576 107.248 38.944 107.248 42.4C107.248 45.856 105.552 48.224 103.072 48.224ZM103.072 46.88C104.656 46.88 105.712 45.056 105.712 42.4C105.712 39.744 104.656 37.92 103.072 37.92C101.504 37.92 100.432 39.744 100.432 42.4C100.432 45.056 101.504 46.88 103.072 46.88ZM113.228 48.224C110.748 48.224 109.068 45.856 109.068 42.4C109.068 38.944 110.748 36.576 113.228 36.576C115.708 36.576 117.404 38.944 117.404 42.4C117.404 45.856 115.708 48.224 113.228 48.224ZM113.228 46.88C114.812 46.88 115.868 45.056 115.868 42.4C115.868 39.744 114.812 37.92 113.228 37.92C111.66 37.92 110.588 39.744 110.588 42.4C110.588 45.056 111.66 46.88 113.228 46.88ZM123.385 48.224C120.905 48.224 119.225 45.856 119.225 42.4C119.225 38.944 120.905 36.576 123.385 36.576C125.865 36.576 127.561 38.944 127.561 42.4C127.561 45.856 125.865 48.224 123.385 48.224ZM123.385 46.88C124.969 46.88 126.025 45.056 126.025 42.4C126.025 39.744 124.969 37.92 123.385 37.92C121.817 37.92 120.745 39.744 120.745 42.4C120.745 45.056 121.817 46.88 123.385 46.88ZM133.541 48.224C131.061 48.224 129.381 45.856 129.381 42.4C129.381 38.944 131.061 36.576 133.541 36.576C136.021 36.576 137.717 38.944 137.717 42.4C137.717 45.856 136.021 48.224 133.541 48.224ZM133.541 46.88C135.125 46.88 136.181 45.056 136.181 42.4C136.181 39.744 135.125 37.92 133.541 37.92C131.973 37.92 130.901 39.744 130.901 42.4C130.901 45.056 131.973 46.88 133.541 46.88ZM143.697 48.224C141.217 48.224 139.537 45.856 139.537 42.4C139.537 38.944 141.217 36.576 143.697 36.576C146.177 36.576 147.873 38.944 147.873 42.4C147.873 45.856 146.177 48.224 143.697 48.224ZM143.697 46.88C145.281 46.88 146.337 45.056 146.337 42.4C146.337 39.744 145.281 37.92 143.697 37.92C142.129 37.92 141.057 39.744 141.057 42.4C141.057 45.056 142.129 46.88 143.697 46.88Z" fill="#767676"/>
</svg>
