<svg width="360" height="72" viewBox="0 0 360 72" fill="none" xmlns="http://www.w3.org/2000/svg">
<mask id="path-1-inside-1_7_215" fill="white">
<path d="M0 0H360V72H0V0Z"/>
</mask>
<path d="M360 0H359V72H360H361V0H360Z" fill="#D9D9DB" mask="url(#path-1-inside-1_7_215)"/>
<rect x="16" y="12" width="48" height="48" rx="8" fill="#414141"/>
<path d="M80.736 27.24C78.368 27.24 76.656 25.464 76.656 23C76.656 20.568 78.384 18.776 80.736 18.776C82.768 18.776 84.4 20.088 84.528 21.976L83.04 22.104C82.912 20.936 81.936 20.088 80.72 20.088C79.248 20.088 78.176 21.32 78.176 23C78.176 24.888 79.392 25.896 80.72 25.896C81.872 25.896 82.912 25.128 83.056 23.832L84.544 23.944C84.432 25.896 82.8 27.24 80.736 27.24ZM89.9894 27.24C87.6214 27.24 85.9254 25.48 85.9254 23C85.9254 20.52 87.6214 18.776 89.9894 18.776C92.3574 18.776 94.0374 20.52 94.0374 23C94.0374 25.48 92.3574 27.24 89.9894 27.24ZM89.9894 25.96C91.4774 25.96 92.5014 24.744 92.5014 23C92.5014 21.272 91.4774 20.056 89.9894 20.056C88.4854 20.056 87.4614 21.272 87.4614 23C87.4614 24.744 88.4854 25.96 89.9894 25.96ZM98.9141 26.904C97.4101 27.336 95.7781 27.08 95.7781 24.808V15.8H97.2821V24.504C97.2821 25.672 97.9221 25.944 98.8821 25.624L98.9141 26.904ZM104.122 27.24C101.754 27.24 100.058 25.48 100.058 23C100.058 20.52 101.754 18.776 104.122 18.776C106.49 18.776 108.17 20.52 108.17 23C108.17 25.48 106.49 27.24 104.122 27.24ZM104.122 25.96C105.61 25.96 106.634 24.744 106.634 23C106.634 21.272 105.61 20.056 104.122 20.056C102.618 20.056 101.594 21.272 101.594 23C101.594 24.744 102.618 25.96 104.122 25.96ZM109.928 27V19.016H111.448L111.4 21.4C111.736 19.432 113.112 18.728 114.488 18.984V20.472C112.808 20.248 111.448 21.24 111.448 23.56V27H109.928ZM114.773 23.144V21.896H119.365V23.144H114.773ZM125.226 26.92C123.674 27.416 121.85 27 121.85 24.536V20.28H120.314V19.016H121.85V17.016H123.37V19.016H125.434V20.28H123.37V24.424C123.37 25.832 124.314 25.976 125.194 25.656L125.226 26.92ZM130.589 27.272C128.253 27.272 126.573 25.48 126.573 23C126.573 20.536 128.253 18.728 130.573 18.728C133.325 18.728 134.669 21.208 134.381 23.432H128.109C128.157 24.984 129.181 26.088 130.605 26.088C131.709 26.088 132.637 25.448 132.941 24.488L134.237 24.696C133.885 26.168 132.445 27.272 130.589 27.272ZM128.125 22.296H132.909C132.909 20.936 131.965 19.88 130.573 19.88C129.245 19.88 128.253 20.872 128.125 22.296ZM141.006 27L138.894 24.024L136.766 27H135.134L138.078 22.984L135.134 19.016H136.846L138.958 21.992L141.086 19.016H142.702L139.774 23.016L142.75 27H141.006ZM148.722 26.92C147.17 27.416 145.346 27 145.346 24.536V20.28H143.81V19.016H145.346V17.016H146.866V19.016H148.93V20.28H146.866V24.424C146.866 25.832 147.81 25.976 148.69 25.656L148.722 26.92ZM149.619 23.144V21.896H154.211V23.144H149.619ZM156.126 30.04V19.016H157.646V20.36C158.238 19.368 159.23 18.808 160.462 18.808C162.606 18.808 164.158 20.552 164.158 23.016C164.158 25.464 162.606 27.208 160.462 27.208C159.23 27.208 158.238 26.648 157.646 25.656V30.04H156.126ZM160.078 20.056C158.59 20.056 157.55 21.256 157.55 23.016C157.55 24.76 158.59 25.96 160.078 25.96C161.55 25.96 162.622 24.728 162.622 23.016C162.622 21.304 161.55 20.056 160.078 20.056ZM165.911 27V19.016H167.431L167.383 21.4C167.719 19.432 169.095 18.728 170.471 18.984V20.472C168.791 20.248 167.431 21.24 167.431 23.56V27H165.911ZM171.93 27V19.016H173.45V27H171.93ZM172.698 17.656C172.074 17.656 171.61 17.192 171.61 16.568C171.61 15.96 172.074 15.48 172.698 15.48C173.306 15.48 173.77 15.96 173.77 16.568C173.77 17.192 173.306 17.656 172.698 17.656ZM175.496 27V19.016H177.016L176.968 21C177.288 19.624 178.2 18.808 179.624 18.808C180.984 18.808 181.96 19.592 182.312 20.904C182.648 19.576 183.592 18.808 185 18.808C186.712 18.808 187.8 20.04 187.8 22.008V27H186.28V22.312C186.28 20.856 185.64 20.04 184.488 20.04C183.192 20.04 182.456 21.048 182.456 22.872V27H180.952V22.312C180.952 20.856 180.28 20.04 179.096 20.04C177.752 20.04 177.016 21.048 177.016 22.872V27H175.496ZM192.006 27.176C190.502 27.176 189.414 26.344 189.414 24.952C189.414 23.464 190.694 22.664 193.11 22.392L194.742 22.216V21.896C194.742 20.728 194.086 19.992 192.966 19.992C191.942 19.992 191.222 20.648 191.126 21.752L189.654 21.704C189.782 19.96 191.126 18.776 193.014 18.776C194.934 18.776 196.23 20.024 196.23 21.944V24.712C196.23 25.576 196.326 26.44 196.438 27H194.966C194.87 26.632 194.806 26.184 194.806 25.352C194.438 26.456 193.35 27.176 192.006 27.176ZM192.47 26.12C193.75 26.12 194.758 25.144 194.758 23.736V23.128L193.222 23.32C191.734 23.496 190.934 23.896 190.934 24.824C190.934 25.704 191.606 26.12 192.47 26.12ZM198.223 27V19.016H199.743L199.695 21.4C200.031 19.432 201.407 18.728 202.783 18.984V20.472C201.103 20.248 199.743 21.24 199.743 23.56V27H198.223ZM204.177 28.888C205.137 29.144 206.177 28.952 206.817 27.576L207.153 26.776L203.729 19.016H205.329L207.985 25.096L210.433 19.016H211.969L208.385 27.576C207.489 29.752 206.033 30.632 204.177 30.168V28.888Z" fill="#414141"/>
<path d="M80.592 49.76V48.24C78.352 48.016 76.8 46.544 76.784 44.496L78.32 44.384C78.368 45.76 79.28 46.736 80.592 46.976V42.992L80.368 42.944C78.304 42.544 77.152 41.424 77.152 39.776C77.152 37.936 78.544 36.704 80.592 36.544V35.2H81.776V36.576C83.712 36.864 85.072 38.272 85.136 40.192L83.584 40.288C83.536 39.056 82.832 38.144 81.776 37.856V41.68L81.968 41.712C84.304 42.16 85.456 43.2 85.456 44.96C85.456 46.768 83.968 48.064 81.776 48.24V49.76H80.592ZM78.72 39.664C78.72 40.592 79.392 41.184 80.512 41.44L80.592 41.456V37.792C79.488 37.936 78.72 38.656 78.72 39.664ZM81.776 46.992C83.04 46.816 83.888 46.096 83.888 45.056C83.888 44.048 83.248 43.536 81.824 43.216L81.776 43.2V46.992ZM90.2057 50.928C88.0938 48.96 86.9738 46.368 86.9738 43.52C86.9738 40.672 88.0938 38.08 90.2057 36.112L91.1338 36.992C89.3098 38.688 88.3178 40.976 88.3178 43.52C88.3178 46.064 89.3098 48.352 91.1338 50.048L90.2057 50.928ZM95.1735 48.24C92.8055 48.24 91.0935 46.464 91.0935 44C91.0935 41.568 92.8215 39.776 95.1735 39.776C97.2055 39.776 98.8375 41.088 98.9655 42.976L97.4775 43.104C97.3495 41.936 96.3735 41.088 95.1575 41.088C93.6855 41.088 92.6135 42.32 92.6135 44C92.6135 45.888 93.8295 46.896 95.1575 46.896C96.3095 46.896 97.3495 46.128 97.4935 44.832L98.9815 44.944C98.8695 46.896 97.2375 48.24 95.1735 48.24ZM104.267 48.24C101.899 48.24 100.203 46.48 100.203 44C100.203 41.52 101.899 39.776 104.267 39.776C106.635 39.776 108.315 41.52 108.315 44C108.315 46.48 106.635 48.24 104.267 48.24ZM104.267 46.96C105.755 46.96 106.779 45.744 106.779 44C106.779 42.272 105.755 41.056 104.267 41.056C102.763 41.056 101.739 42.272 101.739 44C101.739 45.744 102.763 46.96 104.267 46.96ZM113.032 47.904C111.528 48.336 109.896 48.08 109.896 45.808V36.8H111.4V45.504C111.4 46.672 112.04 46.944 113 46.624L113.032 47.904ZM118.079 48.24C115.711 48.24 114.015 46.48 114.015 44C114.015 41.52 115.711 39.776 118.079 39.776C120.447 39.776 122.127 41.52 122.127 44C122.127 46.48 120.447 48.24 118.079 48.24ZM118.079 46.96C119.567 46.96 120.591 45.744 120.591 44C120.591 42.272 119.567 41.056 118.079 41.056C116.575 41.056 115.551 42.272 115.551 44C115.551 45.744 116.575 46.96 118.079 46.96ZM123.725 48V40.016H125.245L125.197 42.4C125.533 40.432 126.909 39.728 128.285 39.984V41.472C126.605 41.248 125.245 42.24 125.245 44.56V48H123.725ZM128.41 44.144V42.896H133.002V44.144H128.41ZM134.757 48V40.016H136.277L136.229 41.968C136.565 40.608 137.477 39.808 138.885 39.808C140.645 39.808 141.765 41.072 141.765 43.088V48H140.245V43.312C140.245 41.856 139.573 41.04 138.373 41.04C137.013 41.04 136.277 42.048 136.277 43.872V48H134.757ZM147.313 48.272C144.977 48.272 143.297 46.48 143.297 44C143.297 41.536 144.977 39.728 147.297 39.728C150.049 39.728 151.393 42.208 151.105 44.432H144.833C144.881 45.984 145.905 47.088 147.329 47.088C148.433 47.088 149.361 46.448 149.665 45.488L150.961 45.696C150.609 47.168 149.169 48.272 147.313 48.272ZM144.849 43.296H149.633C149.633 41.936 148.689 40.88 147.297 40.88C145.969 40.88 144.977 41.872 144.849 43.296ZM154.197 44.704C154.197 46.16 154.869 46.976 156.021 46.976C157.349 46.976 158.069 45.968 158.069 44.144V40.016H159.589V45.12V48H158.069L158.117 46.448C157.701 47.568 156.821 48.208 155.525 48.208C153.797 48.208 152.693 46.976 152.693 44.992V40.016H154.197V44.704ZM165.86 47.92C164.308 48.416 162.484 48 162.484 45.536V41.28H160.948V40.016H162.484V38.016H164.004V40.016H166.068V41.28H164.004V45.424C164.004 46.832 164.948 46.976 165.828 46.656L165.86 47.92ZM167.616 48V40.016H169.136L169.088 42.4C169.424 40.432 170.8 39.728 172.176 39.984V41.472C170.496 41.248 169.136 42.24 169.136 44.56V48H167.616ZM175.512 48.176C174.008 48.176 172.92 47.344 172.92 45.952C172.92 44.464 174.2 43.664 176.616 43.392L178.248 43.216V42.896C178.248 41.728 177.592 40.992 176.472 40.992C175.448 40.992 174.728 41.648 174.632 42.752L173.16 42.704C173.288 40.96 174.632 39.776 176.52 39.776C178.44 39.776 179.736 41.024 179.736 42.944V45.712C179.736 46.576 179.832 47.44 179.944 48H178.472C178.376 47.632 178.312 47.184 178.312 46.352C177.944 47.456 176.856 48.176 175.512 48.176ZM175.976 47.12C177.256 47.12 178.264 46.144 178.264 44.736V44.128L176.728 44.32C175.24 44.496 174.44 44.896 174.44 45.824C174.44 46.704 175.112 47.12 175.976 47.12ZM184.672 47.904C183.168 48.336 181.536 48.08 181.536 45.808V36.8H183.04V45.504C183.04 46.672 183.68 46.944 184.64 46.624L184.672 47.904ZM185.223 44.144V42.896H189.815V44.144H185.223ZM195.001 36.48C197.817 36.48 199.273 38.88 199.273 42.352C199.273 46.064 197.689 48.32 195.016 48.32C192.889 48.32 191.337 46.896 191.225 44.752L192.681 44.656C192.777 46.112 193.689 47.056 195.081 47.056C196.985 47.056 197.801 45.168 197.801 42.56C197.801 42.128 197.769 41.728 197.721 41.424C197.449 42.848 196.249 43.744 194.729 43.744C192.761 43.744 191.097 42.416 191.097 40.144C191.097 37.952 192.697 36.48 195.001 36.48ZM195.016 37.664C193.609 37.664 192.617 38.688 192.617 40.128C192.617 41.568 193.609 42.576 195.016 42.576C196.393 42.576 197.401 41.6 197.401 40.208C197.401 38.72 196.393 37.664 195.016 37.664ZM205.26 48.224C202.78 48.224 201.1 45.856 201.1 42.4C201.1 38.944 202.78 36.576 205.26 36.576C207.74 36.576 209.436 38.944 209.436 42.4C209.436 45.856 207.74 48.224 205.26 48.224ZM205.26 46.88C206.844 46.88 207.9 45.056 207.9 42.4C207.9 39.744 206.844 37.92 205.26 37.92C203.692 37.92 202.62 39.744 202.62 42.4C202.62 45.056 203.692 46.88 205.26 46.88ZM215.416 48.224C212.936 48.224 211.256 45.856 211.256 42.4C211.256 38.944 212.936 36.576 215.416 36.576C217.896 36.576 219.592 38.944 219.592 42.4C219.592 45.856 217.896 48.224 215.416 48.224ZM215.416 46.88C217 46.88 218.056 45.056 218.056 42.4C218.056 39.744 217 37.92 215.416 37.92C213.848 37.92 212.776 39.744 212.776 42.4C212.776 45.056 213.848 46.88 215.416 46.88ZM219.998 50.048C221.822 48.352 222.814 46.064 222.814 43.52C222.814 40.976 221.822 38.688 219.998 36.992L220.926 36.112C223.038 38.08 224.158 40.672 224.158 43.52C224.158 46.368 223.038 48.96 220.926 50.928L219.998 50.048Z" fill="#767676"/>
</svg>
