<svg width="360" height="72" viewBox="0 0 360 72" fill="none" xmlns="http://www.w3.org/2000/svg">
<mask id="path-1-inside-1_40_831" fill="white">
<path d="M0 0H360V72H0V0Z"/>
</mask>
<path d="M360 0H359V72H360H361V0H360Z" fill="#D9D9DB" mask="url(#path-1-inside-1_40_831)"/>
<rect x="16" y="12" width="48" height="48" rx="8" fill="black"/>
<path d="M80.736 27.24C78.368 27.24 76.656 25.464 76.656 23C76.656 20.568 78.384 18.776 80.736 18.776C82.768 18.776 84.4 20.088 84.528 21.976L83.04 22.104C82.912 20.936 81.936 20.088 80.72 20.088C79.248 20.088 78.176 21.32 78.176 23C78.176 24.888 79.392 25.896 80.72 25.896C81.872 25.896 82.912 25.128 83.056 23.832L84.544 23.944C84.432 25.896 82.8 27.24 80.736 27.24ZM89.9894 27.24C87.6214 27.24 85.9254 25.48 85.9254 23C85.9254 20.52 87.6214 18.776 89.9894 18.776C92.3574 18.776 94.0374 20.52 94.0374 23C94.0374 25.48 92.3574 27.24 89.9894 27.24ZM89.9894 25.96C91.4774 25.96 92.5014 24.744 92.5014 23C92.5014 21.272 91.4774 20.056 89.9894 20.056C88.4854 20.056 87.4614 21.272 87.4614 23C87.4614 24.744 88.4854 25.96 89.9894 25.96ZM98.9141 26.904C97.4101 27.336 95.7781 27.08 95.7781 24.808V15.8H97.2821V24.504C97.2821 25.672 97.9221 25.944 98.8821 25.624L98.9141 26.904ZM104.122 27.24C101.754 27.24 100.058 25.48 100.058 23C100.058 20.52 101.754 18.776 104.122 18.776C106.49 18.776 108.17 20.52 108.17 23C108.17 25.48 106.49 27.24 104.122 27.24ZM104.122 25.96C105.61 25.96 106.634 24.744 106.634 23C106.634 21.272 105.61 20.056 104.122 20.056C102.618 20.056 101.594 21.272 101.594 23C101.594 24.744 102.618 25.96 104.122 25.96ZM109.928 27V19.016H111.448L111.4 21.4C111.736 19.432 113.112 18.728 114.488 18.984V20.472C112.808 20.248 111.448 21.24 111.448 23.56V27H109.928ZM114.773 23.144V21.896H119.365V23.144H114.773ZM121.279 27V15.8H122.799V20.36C123.391 19.368 124.383 18.808 125.615 18.808C127.759 18.808 129.311 20.552 129.311 23.016C129.311 25.464 127.759 27.208 125.615 27.208C124.383 27.208 123.391 26.648 122.799 25.656V27H121.279ZM125.231 20.056C123.743 20.056 122.703 21.256 122.703 23.016C122.703 24.76 123.743 25.96 125.231 25.96C126.703 25.96 127.775 24.728 127.775 23.016C127.775 21.304 126.703 20.056 125.231 20.056ZM132.504 23.704C132.504 25.16 133.176 25.976 134.328 25.976C135.656 25.976 136.376 24.968 136.376 23.144V19.016H137.896V24.12V27H136.376L136.424 25.448C136.008 26.568 135.128 27.208 133.832 27.208C132.104 27.208 131 25.976 131 23.992V19.016H132.504V23.704ZM144.327 26.92C142.775 27.416 140.951 27 140.951 24.536V20.28H139.415V19.016H140.951V17.016H142.471V19.016H145.751V17.016H147.271V19.016H149.335V20.28H147.271V24.424C147.271 25.832 148.215 25.976 149.095 25.656L149.127 26.92C147.575 27.416 145.751 27 145.751 24.536V20.28H142.471V24.424C142.471 25.832 143.415 25.976 144.295 25.656L144.327 26.92ZM154.551 27.24C152.183 27.24 150.487 25.48 150.487 23C150.487 20.52 152.183 18.776 154.551 18.776C156.919 18.776 158.599 20.52 158.599 23C158.599 25.48 156.919 27.24 154.551 27.24ZM154.551 25.96C156.039 25.96 157.063 24.744 157.063 23C157.063 21.272 156.039 20.056 154.551 20.056C153.047 20.056 152.023 21.272 152.023 23C152.023 24.744 153.047 25.96 154.551 25.96ZM160.356 27V19.016H161.876L161.828 20.968C162.164 19.608 163.076 18.808 164.484 18.808C166.244 18.808 167.364 20.072 167.364 22.088V27H165.844V22.312C165.844 20.856 165.172 20.04 163.972 20.04C162.612 20.04 161.876 21.048 161.876 22.872V27H160.356ZM169.248 23.144V21.896H173.84V23.144H169.248ZM175.755 27V15.8H177.275V20.36C177.867 19.368 178.859 18.808 180.091 18.808C182.235 18.808 183.787 20.552 183.787 23.016C183.787 25.464 182.235 27.208 180.091 27.208C178.859 27.208 177.867 26.648 177.275 25.656V27H175.755ZM179.707 20.056C178.219 20.056 177.179 21.256 177.179 23.016C177.179 24.76 178.219 25.96 179.707 25.96C181.179 25.96 182.251 24.728 182.251 23.016C182.251 21.304 181.179 20.056 179.707 20.056ZM189.316 27.24C186.948 27.24 185.252 25.48 185.252 23C185.252 20.52 186.948 18.776 189.316 18.776C191.684 18.776 193.364 20.52 193.364 23C193.364 25.48 191.684 27.24 189.316 27.24ZM189.316 25.96C190.804 25.96 191.828 24.744 191.828 23C191.828 21.272 190.804 20.056 189.316 20.056C187.812 20.056 186.788 21.272 186.788 23C186.788 24.744 187.812 25.96 189.316 25.96ZM195.121 27V19.016H196.641L196.593 21.4C196.929 19.432 198.305 18.728 199.681 18.984V20.472C198.001 20.248 196.641 21.24 196.641 23.56V27H195.121ZM204.268 27.208C202.124 27.208 200.572 25.464 200.572 23C200.572 20.552 202.124 18.808 204.268 18.808C205.516 18.808 206.508 19.384 207.1 20.376V15.8H208.62V25.288V27H207.1V25.624C206.508 26.632 205.516 27.208 204.268 27.208ZM204.652 25.96C206.14 25.96 207.18 24.76 207.18 23C207.18 21.256 206.14 20.056 204.652 20.056C203.18 20.056 202.108 21.288 202.108 23C202.108 24.712 203.18 25.96 204.652 25.96ZM214.419 27.272C212.083 27.272 210.403 25.48 210.403 23C210.403 20.536 212.083 18.728 214.403 18.728C217.155 18.728 218.499 21.208 218.211 23.432H211.939C211.987 24.984 213.011 26.088 214.435 26.088C215.539 26.088 216.467 25.448 216.771 24.488L218.067 24.696C217.715 26.168 216.275 27.272 214.419 27.272ZM211.955 22.296H216.739C216.739 20.936 215.795 19.88 214.403 19.88C213.075 19.88 212.083 20.872 211.955 22.296ZM220.023 27V19.016H221.543L221.495 21.4C221.831 19.432 223.207 18.728 224.583 18.984V20.472C222.903 20.248 221.543 21.24 221.543 23.56V27H220.023ZM224.868 23.144V21.896H229.46V23.144H224.868ZM234.433 27.272C232.433 27.272 231.041 26.184 230.913 24.472L232.321 24.424C232.417 25.512 233.265 26.2 234.433 26.2C235.377 26.2 236.193 25.768 236.193 24.936C236.193 24.312 235.713 23.96 234.769 23.768L233.409 23.512C231.857 23.256 231.137 22.424 231.137 21.256C231.137 19.704 232.433 18.728 234.209 18.728C236.065 18.728 237.393 19.848 237.473 21.512L236.113 21.592C236.049 20.552 235.265 19.816 234.193 19.816C233.297 19.816 232.577 20.312 232.577 21.112C232.577 21.704 232.977 22.072 233.697 22.2L235.057 22.456C236.737 22.76 237.649 23.528 237.649 24.792C237.649 26.328 236.273 27.272 234.433 27.272ZM243.106 27.272C240.77 27.272 239.09 25.48 239.09 23C239.09 20.536 240.77 18.728 243.09 18.728C245.842 18.728 247.186 21.208 246.898 23.432H240.626C240.674 24.984 241.698 26.088 243.122 26.088C244.226 26.088 245.154 25.448 245.458 24.488L246.754 24.696C246.402 26.168 244.962 27.272 243.106 27.272ZM240.642 22.296H245.426C245.426 20.936 244.482 19.88 243.09 19.88C241.762 19.88 240.77 20.872 240.642 22.296ZM252.502 27.24C250.134 27.24 248.422 25.464 248.422 23C248.422 20.568 250.15 18.776 252.502 18.776C254.534 18.776 256.166 20.088 256.294 21.976L254.806 22.104C254.678 20.936 253.702 20.088 252.486 20.088C251.014 20.088 249.942 21.32 249.942 23C249.942 24.888 251.158 25.896 252.486 25.896C253.638 25.896 254.678 25.128 254.822 23.832L256.31 23.944C256.198 25.896 254.566 27.24 252.502 27.24ZM261.756 27.24C259.388 27.24 257.692 25.48 257.692 23C257.692 20.52 259.388 18.776 261.756 18.776C264.124 18.776 265.804 20.52 265.804 23C265.804 25.48 264.124 27.24 261.756 27.24ZM261.756 25.96C263.244 25.96 264.268 24.744 264.268 23C264.268 21.272 263.244 20.056 261.756 20.056C260.252 20.056 259.228 21.272 259.228 23C259.228 24.744 260.252 25.96 261.756 25.96ZM267.561 27V19.016H269.081L269.033 20.968C269.369 19.608 270.281 18.808 271.689 18.808C273.449 18.808 274.569 20.072 274.569 22.088V27H273.049V22.312C273.049 20.856 272.377 20.04 271.177 20.04C269.817 20.04 269.081 21.048 269.081 22.872V27H267.561ZM279.958 27.208C277.814 27.208 276.262 25.464 276.262 23C276.262 20.552 277.814 18.808 279.958 18.808C281.206 18.808 282.198 19.384 282.79 20.376V15.8H284.31V25.288V27H282.79V25.624C282.198 26.632 281.206 27.208 279.958 27.208ZM280.342 25.96C281.83 25.96 282.87 24.76 282.87 23C282.87 21.256 281.83 20.056 280.342 20.056C278.87 20.056 277.798 21.288 277.798 23C277.798 24.712 278.87 25.96 280.342 25.96ZM288.559 27.176C287.055 27.176 285.967 26.344 285.967 24.952C285.967 23.464 287.247 22.664 289.663 22.392L291.295 22.216V21.896C291.295 20.728 290.639 19.992 289.519 19.992C288.495 19.992 287.775 20.648 287.679 21.752L286.207 21.704C286.335 19.96 287.679 18.776 289.567 18.776C291.487 18.776 292.783 20.024 292.783 21.944V24.712C292.783 25.576 292.879 26.44 292.991 27H291.519C291.423 26.632 291.359 26.184 291.359 25.352C290.991 26.456 289.903 27.176 288.559 27.176ZM289.023 26.12C290.303 26.12 291.311 25.144 291.311 23.736V23.128L289.775 23.32C288.287 23.496 287.487 23.896 287.487 24.824C287.487 25.704 288.159 26.12 289.023 26.12ZM294.776 27V19.016H296.296L296.248 21.4C296.584 19.432 297.96 18.728 299.336 18.984V20.472C297.656 20.248 296.296 21.24 296.296 23.56V27H294.776ZM300.73 28.888C301.69 29.144 302.73 28.952 303.37 27.576L303.706 26.776L300.282 19.016H301.882L304.538 25.096L306.986 19.016H308.522L304.938 27.576C304.042 29.752 302.586 30.632 300.73 30.168V28.888Z" fill="#414141"/>
<path d="M80.592 49.76V48.24C78.352 48.016 76.8 46.544 76.784 44.496L78.32 44.384C78.368 45.76 79.28 46.736 80.592 46.976V42.992L80.368 42.944C78.304 42.544 77.152 41.424 77.152 39.776C77.152 37.936 78.544 36.704 80.592 36.544V35.2H81.776V36.576C83.712 36.864 85.072 38.272 85.136 40.192L83.584 40.288C83.536 39.056 82.832 38.144 81.776 37.856V41.68L81.968 41.712C84.304 42.16 85.456 43.2 85.456 44.96C85.456 46.768 83.968 48.064 81.776 48.24V49.76H80.592ZM78.72 39.664C78.72 40.592 79.392 41.184 80.512 41.44L80.592 41.456V37.792C79.488 37.936 78.72 38.656 78.72 39.664ZM81.776 46.992C83.04 46.816 83.888 46.096 83.888 45.056C83.888 44.048 83.248 43.536 81.824 43.216L81.776 43.2V46.992ZM90.2057 50.928C88.0938 48.96 86.9738 46.368 86.9738 43.52C86.9738 40.672 88.0938 38.08 90.2057 36.112L91.1338 36.992C89.3098 38.688 88.3178 40.976 88.3178 43.52C88.3178 46.064 89.3098 48.352 91.1338 50.048L90.2057 50.928ZM95.1735 48.24C92.8055 48.24 91.0935 46.464 91.0935 44C91.0935 41.568 92.8215 39.776 95.1735 39.776C97.2055 39.776 98.8375 41.088 98.9655 42.976L97.4775 43.104C97.3495 41.936 96.3735 41.088 95.1575 41.088C93.6855 41.088 92.6135 42.32 92.6135 44C92.6135 45.888 93.8295 46.896 95.1575 46.896C96.3095 46.896 97.3495 46.128 97.4935 44.832L98.9815 44.944C98.8695 46.896 97.2375 48.24 95.1735 48.24ZM104.267 48.24C101.899 48.24 100.203 46.48 100.203 44C100.203 41.52 101.899 39.776 104.267 39.776C106.635 39.776 108.315 41.52 108.315 44C108.315 46.48 106.635 48.24 104.267 48.24ZM104.267 46.96C105.755 46.96 106.779 45.744 106.779 44C106.779 42.272 105.755 41.056 104.267 41.056C102.763 41.056 101.739 42.272 101.739 44C101.739 45.744 102.763 46.96 104.267 46.96ZM113.032 47.904C111.528 48.336 109.896 48.08 109.896 45.808V36.8H111.4V45.504C111.4 46.672 112.04 46.944 113 46.624L113.032 47.904ZM118.079 48.24C115.711 48.24 114.015 46.48 114.015 44C114.015 41.52 115.711 39.776 118.079 39.776C120.447 39.776 122.127 41.52 122.127 44C122.127 46.48 120.447 48.24 118.079 48.24ZM118.079 46.96C119.567 46.96 120.591 45.744 120.591 44C120.591 42.272 119.567 41.056 118.079 41.056C116.575 41.056 115.551 42.272 115.551 44C115.551 45.744 116.575 46.96 118.079 46.96ZM123.725 48V40.016H125.245L125.197 42.4C125.533 40.432 126.909 39.728 128.285 39.984V41.472C126.605 41.248 125.245 42.24 125.245 44.56V48H123.725ZM128.41 44.144V42.896H133.002V44.144H128.41ZM134.757 48V40.016H136.277L136.229 41.968C136.565 40.608 137.477 39.808 138.885 39.808C140.645 39.808 141.765 41.072 141.765 43.088V48H140.245V43.312C140.245 41.856 139.573 41.04 138.373 41.04C137.013 41.04 136.277 42.048 136.277 43.872V48H134.757ZM147.313 48.272C144.977 48.272 143.297 46.48 143.297 44C143.297 41.536 144.977 39.728 147.297 39.728C150.049 39.728 151.393 42.208 151.105 44.432H144.833C144.881 45.984 145.905 47.088 147.329 47.088C148.433 47.088 149.361 46.448 149.665 45.488L150.961 45.696C150.609 47.168 149.169 48.272 147.313 48.272ZM144.849 43.296H149.633C149.633 41.936 148.689 40.88 147.297 40.88C145.969 40.88 144.977 41.872 144.849 43.296ZM154.197 44.704C154.197 46.16 154.869 46.976 156.021 46.976C157.349 46.976 158.069 45.968 158.069 44.144V40.016H159.589V45.12V48H158.069L158.117 46.448C157.701 47.568 156.821 48.208 155.525 48.208C153.797 48.208 152.693 46.976 152.693 44.992V40.016H154.197V44.704ZM165.86 47.92C164.308 48.416 162.484 48 162.484 45.536V41.28H160.948V40.016H162.484V38.016H164.004V40.016H166.068V41.28H164.004V45.424C164.004 46.832 164.948 46.976 165.828 46.656L165.86 47.92ZM167.616 48V40.016H169.136L169.088 42.4C169.424 40.432 170.8 39.728 172.176 39.984V41.472C170.496 41.248 169.136 42.24 169.136 44.56V48H167.616ZM175.512 48.176C174.008 48.176 172.92 47.344 172.92 45.952C172.92 44.464 174.2 43.664 176.616 43.392L178.248 43.216V42.896C178.248 41.728 177.592 40.992 176.472 40.992C175.448 40.992 174.728 41.648 174.632 42.752L173.16 42.704C173.288 40.96 174.632 39.776 176.52 39.776C178.44 39.776 179.736 41.024 179.736 42.944V45.712C179.736 46.576 179.832 47.44 179.944 48H178.472C178.376 47.632 178.312 47.184 178.312 46.352C177.944 47.456 176.856 48.176 175.512 48.176ZM175.976 47.12C177.256 47.12 178.264 46.144 178.264 44.736V44.128L176.728 44.32C175.24 44.496 174.44 44.896 174.44 45.824C174.44 46.704 175.112 47.12 175.976 47.12ZM184.672 47.904C183.168 48.336 181.536 48.08 181.536 45.808V36.8H183.04V45.504C183.04 46.672 183.68 46.944 184.64 46.624L184.672 47.904ZM185.223 44.144V42.896H189.815V44.144H185.223ZM191.569 48V36.8H193.089V41.36C193.681 40.368 194.673 39.808 195.905 39.808C198.049 39.808 199.601 41.552 199.601 44.016C199.601 46.464 198.049 48.208 195.905 48.208C194.673 48.208 193.681 47.648 193.089 46.656V48H191.569ZM195.521 41.056C194.033 41.056 192.993 42.256 192.993 44.016C192.993 45.76 194.033 46.96 195.521 46.96C196.993 46.96 198.065 45.728 198.065 44.016C198.065 42.304 196.993 41.056 195.521 41.056ZM204.266 47.904C202.762 48.336 201.13 48.08 201.13 45.808V36.8H202.634V45.504C202.634 46.672 203.274 46.944 204.234 46.624L204.266 47.904ZM207.856 48.176C206.352 48.176 205.264 47.344 205.264 45.952C205.264 44.464 206.544 43.664 208.96 43.392L210.592 43.216V42.896C210.592 41.728 209.936 40.992 208.816 40.992C207.792 40.992 207.072 41.648 206.976 42.752L205.504 42.704C205.632 40.96 206.976 39.776 208.864 39.776C210.784 39.776 212.08 41.024 212.08 42.944V45.712C212.08 46.576 212.176 47.44 212.288 48H210.816C210.72 47.632 210.656 47.184 210.656 46.352C210.288 47.456 209.2 48.176 207.856 48.176ZM208.32 47.12C209.6 47.12 210.608 46.144 210.608 44.736V44.128L209.072 44.32C207.584 44.496 206.784 44.896 206.784 45.824C206.784 46.704 207.456 47.12 208.32 47.12ZM217.705 48.24C215.337 48.24 213.625 46.464 213.625 44C213.625 41.568 215.353 39.776 217.705 39.776C219.737 39.776 221.369 41.088 221.497 42.976L220.009 43.104C219.881 41.936 218.905 41.088 217.689 41.088C216.217 41.088 215.145 42.32 215.145 44C215.145 45.888 216.361 46.896 217.689 46.896C218.841 46.896 219.881 46.128 220.025 44.832L221.513 44.944C221.401 46.896 219.769 48.24 217.705 48.24ZM223.022 48V36.8H224.526V43.616L228.446 40.016H230.254L227.006 43.008L230.334 48H228.638L225.982 43.952L224.526 45.28V48H223.022ZM230.529 50.048C232.353 48.352 233.345 46.064 233.345 43.52C233.345 40.976 232.353 38.688 230.529 36.992L231.457 36.112C233.569 38.08 234.689 40.672 234.689 43.52C234.689 46.368 233.569 48.96 231.457 50.928L230.529 50.048Z" fill="#767676"/>
</svg>
