<svg width="360" height="72" viewBox="0 0 360 72" fill="none" xmlns="http://www.w3.org/2000/svg">
<mask id="path-1-inside-1_40_756" fill="white">
<path d="M0 0H360V72H0V0Z"/>
</mask>
<path d="M360 0H359V72H360H361V0H360Z" fill="#D9D9DB" mask="url(#path-1-inside-1_40_756)"/>
<rect x="16" y="12" width="48" height="48" rx="8" fill="#BC0F0F"/>
<path d="M80.736 27.24C78.368 27.24 76.656 25.464 76.656 23C76.656 20.568 78.384 18.776 80.736 18.776C82.768 18.776 84.4 20.088 84.528 21.976L83.04 22.104C82.912 20.936 81.936 20.088 80.72 20.088C79.248 20.088 78.176 21.32 78.176 23C78.176 24.888 79.392 25.896 80.72 25.896C81.872 25.896 82.912 25.128 83.056 23.832L84.544 23.944C84.432 25.896 82.8 27.24 80.736 27.24ZM89.9894 27.24C87.6214 27.24 85.9254 25.48 85.9254 23C85.9254 20.52 87.6214 18.776 89.9894 18.776C92.3574 18.776 94.0374 20.52 94.0374 23C94.0374 25.48 92.3574 27.24 89.9894 27.24ZM89.9894 25.96C91.4774 25.96 92.5014 24.744 92.5014 23C92.5014 21.272 91.4774 20.056 89.9894 20.056C88.4854 20.056 87.4614 21.272 87.4614 23C87.4614 24.744 88.4854 25.96 89.9894 25.96ZM98.9141 26.904C97.4101 27.336 95.7781 27.08 95.7781 24.808V15.8H97.2821V24.504C97.2821 25.672 97.9221 25.944 98.8821 25.624L98.9141 26.904ZM104.122 27.24C101.754 27.24 100.058 25.48 100.058 23C100.058 20.52 101.754 18.776 104.122 18.776C106.49 18.776 108.17 20.52 108.17 23C108.17 25.48 106.49 27.24 104.122 27.24ZM104.122 25.96C105.61 25.96 106.634 24.744 106.634 23C106.634 21.272 105.61 20.056 104.122 20.056C102.618 20.056 101.594 21.272 101.594 23C101.594 24.744 102.618 25.96 104.122 25.96ZM109.928 27V19.016H111.448L111.4 21.4C111.736 19.432 113.112 18.728 114.488 18.984V20.472C112.808 20.248 111.448 21.24 111.448 23.56V27H109.928ZM114.773 23.144V21.896H119.365V23.144H114.773ZM121.279 27V15.8H122.799V20.36C123.391 19.368 124.383 18.808 125.615 18.808C127.759 18.808 129.311 20.552 129.311 23.016C129.311 25.464 127.759 27.208 125.615 27.208C124.383 27.208 123.391 26.648 122.799 25.656V27H121.279ZM125.231 20.056C123.743 20.056 122.703 21.256 122.703 23.016C122.703 24.76 123.743 25.96 125.231 25.96C126.703 25.96 127.775 24.728 127.775 23.016C127.775 21.304 126.703 20.056 125.231 20.056ZM132.504 23.704C132.504 25.16 133.176 25.976 134.328 25.976C135.656 25.976 136.376 24.968 136.376 23.144V19.016H137.896V24.12V27H136.376L136.424 25.448C136.008 26.568 135.128 27.208 133.832 27.208C132.104 27.208 131 25.976 131 23.992V19.016H132.504V23.704ZM144.327 26.92C142.775 27.416 140.951 27 140.951 24.536V20.28H139.415V19.016H140.951V17.016H142.471V19.016H145.751V17.016H147.271V19.016H149.335V20.28H147.271V24.424C147.271 25.832 148.215 25.976 149.095 25.656L149.127 26.92C147.575 27.416 145.751 27 145.751 24.536V20.28H142.471V24.424C142.471 25.832 143.415 25.976 144.295 25.656L144.327 26.92ZM154.551 27.24C152.183 27.24 150.487 25.48 150.487 23C150.487 20.52 152.183 18.776 154.551 18.776C156.919 18.776 158.599 20.52 158.599 23C158.599 25.48 156.919 27.24 154.551 27.24ZM154.551 25.96C156.039 25.96 157.063 24.744 157.063 23C157.063 21.272 156.039 20.056 154.551 20.056C153.047 20.056 152.023 21.272 152.023 23C152.023 24.744 153.047 25.96 154.551 25.96ZM160.356 27V19.016H161.876L161.828 20.968C162.164 19.608 163.076 18.808 164.484 18.808C166.244 18.808 167.364 20.072 167.364 22.088V27H165.844V22.312C165.844 20.856 165.172 20.04 163.972 20.04C162.612 20.04 161.876 21.048 161.876 22.872V27H160.356ZM169.248 23.144V21.896H173.84V23.144H169.248ZM178.813 27.272C176.813 27.272 175.421 26.184 175.293 24.472L176.701 24.424C176.797 25.512 177.645 26.2 178.813 26.2C179.757 26.2 180.573 25.768 180.573 24.936C180.573 24.312 180.093 23.96 179.149 23.768L177.789 23.512C176.237 23.256 175.517 22.424 175.517 21.256C175.517 19.704 176.813 18.728 178.589 18.728C180.445 18.728 181.773 19.848 181.853 21.512L180.493 21.592C180.429 20.552 179.645 19.816 178.573 19.816C177.677 19.816 176.957 20.312 176.957 21.112C176.957 21.704 177.357 22.072 178.077 22.2L179.437 22.456C181.117 22.76 182.029 23.528 182.029 24.792C182.029 26.328 180.653 27.272 178.813 27.272ZM185.198 23.704C185.198 25.16 185.87 25.976 187.022 25.976C188.35 25.976 189.07 24.968 189.07 23.144V19.016H190.59V24.12V27H189.07L189.118 25.448C188.702 26.568 187.822 27.208 186.526 27.208C184.798 27.208 183.694 25.976 183.694 23.992V19.016H185.198V23.704ZM192.637 27V19.016H194.157L194.109 21.4C194.445 19.432 195.821 18.728 197.197 18.984V20.472C195.517 20.248 194.157 21.24 194.157 23.56V27H192.637ZM199.649 18.104C199.649 15.992 201.425 15.384 202.961 15.704V16.92C202.081 16.648 201.169 16.84 201.169 18.104V19.016H203.025V20.28H201.169V27H199.649V20.28H198.161V19.016H199.649V18.104ZM206.665 27.176C205.161 27.176 204.073 26.344 204.073 24.952C204.073 23.464 205.353 22.664 207.769 22.392L209.401 22.216V21.896C209.401 20.728 208.745 19.992 207.625 19.992C206.601 19.992 205.881 20.648 205.785 21.752L204.313 21.704C204.441 19.96 205.785 18.776 207.673 18.776C209.593 18.776 210.889 20.024 210.889 21.944V24.712C210.889 25.576 210.985 26.44 211.097 27H209.625C209.529 26.632 209.465 26.184 209.465 25.352C209.097 26.456 208.009 27.176 206.665 27.176ZM207.129 26.12C208.409 26.12 209.417 25.144 209.417 23.736V23.128L207.881 23.32C206.393 23.496 205.593 23.896 205.593 24.824C205.593 25.704 206.265 26.12 207.129 26.12ZM216.675 27.24C214.307 27.24 212.595 25.464 212.595 23C212.595 20.568 214.323 18.776 216.675 18.776C218.707 18.776 220.339 20.088 220.467 21.976L218.979 22.104C218.851 20.936 217.875 20.088 216.659 20.088C215.187 20.088 214.115 21.32 214.115 23C214.115 24.888 215.331 25.896 216.659 25.896C217.811 25.896 218.851 25.128 218.995 23.832L220.483 23.944C220.371 25.896 218.739 27.24 216.675 27.24ZM225.88 27.272C223.544 27.272 221.864 25.48 221.864 23C221.864 20.536 223.544 18.728 225.864 18.728C228.616 18.728 229.96 21.208 229.672 23.432H223.4C223.448 24.984 224.472 26.088 225.896 26.088C227 26.088 227.928 25.448 228.232 24.488L229.528 24.696C229.176 26.168 227.736 27.272 225.88 27.272ZM223.416 22.296H228.2C228.2 20.936 227.256 19.88 225.864 19.88C224.536 19.88 223.544 20.872 223.416 22.296ZM231.45 23.144V21.896H236.042V23.144H231.45ZM237.956 30.04V19.016H239.476V20.36C240.068 19.368 241.06 18.808 242.292 18.808C244.436 18.808 245.988 20.552 245.988 23.016C245.988 25.464 244.436 27.208 242.292 27.208C241.06 27.208 240.068 26.648 239.476 25.656V30.04H237.956ZM241.908 20.056C240.42 20.056 239.38 21.256 239.38 23.016C239.38 24.76 240.42 25.96 241.908 25.96C243.38 25.96 244.452 24.728 244.452 23.016C244.452 21.304 243.38 20.056 241.908 20.056ZM247.742 27V19.016H249.262L249.214 21.4C249.55 19.432 250.926 18.728 252.302 18.984V20.472C250.622 20.248 249.262 21.24 249.262 23.56V27H247.742ZM253.761 27V19.016H255.281V27H253.761ZM254.529 17.656C253.905 17.656 253.441 17.192 253.441 16.568C253.441 15.96 253.905 15.48 254.529 15.48C255.137 15.48 255.601 15.96 255.601 16.568C255.601 17.192 255.137 17.656 254.529 17.656ZM257.327 27V19.016H258.847L258.799 21C259.119 19.624 260.031 18.808 261.455 18.808C262.815 18.808 263.791 19.592 264.143 20.904C264.479 19.576 265.423 18.808 266.831 18.808C268.543 18.808 269.631 20.04 269.631 22.008V27H268.111V22.312C268.111 20.856 267.471 20.04 266.319 20.04C265.023 20.04 264.287 21.048 264.287 22.872V27H262.783V22.312C262.783 20.856 262.111 20.04 260.927 20.04C259.583 20.04 258.847 21.048 258.847 22.872V27H257.327ZM273.836 27.176C272.332 27.176 271.244 26.344 271.244 24.952C271.244 23.464 272.524 22.664 274.94 22.392L276.572 22.216V21.896C276.572 20.728 275.916 19.992 274.796 19.992C273.772 19.992 273.052 20.648 272.956 21.752L271.484 21.704C271.612 19.96 272.956 18.776 274.844 18.776C276.764 18.776 278.06 20.024 278.06 21.944V24.712C278.06 25.576 278.156 26.44 278.268 27H276.796C276.7 26.632 276.636 26.184 276.636 25.352C276.268 26.456 275.18 27.176 273.836 27.176ZM274.3 26.12C275.58 26.12 276.588 25.144 276.588 23.736V23.128L275.052 23.32C273.564 23.496 272.764 23.896 272.764 24.824C272.764 25.704 273.436 26.12 274.3 26.12ZM280.053 27V19.016H281.573L281.525 21.4C281.861 19.432 283.237 18.728 284.613 18.984V20.472C282.933 20.248 281.573 21.24 281.573 23.56V27H280.053ZM286.008 28.888C286.968 29.144 288.008 28.952 288.648 27.576L288.984 26.776L285.56 19.016H287.16L289.816 25.096L292.264 19.016H293.8L290.216 27.576C289.32 29.752 287.864 30.632 286.008 30.168V28.888Z" fill="#414141"/>
<path d="M80.592 49.76V48.24C78.352 48.016 76.8 46.544 76.784 44.496L78.32 44.384C78.368 45.76 79.28 46.736 80.592 46.976V42.992L80.368 42.944C78.304 42.544 77.152 41.424 77.152 39.776C77.152 37.936 78.544 36.704 80.592 36.544V35.2H81.776V36.576C83.712 36.864 85.072 38.272 85.136 40.192L83.584 40.288C83.536 39.056 82.832 38.144 81.776 37.856V41.68L81.968 41.712C84.304 42.16 85.456 43.2 85.456 44.96C85.456 46.768 83.968 48.064 81.776 48.24V49.76H80.592ZM78.72 39.664C78.72 40.592 79.392 41.184 80.512 41.44L80.592 41.456V37.792C79.488 37.936 78.72 38.656 78.72 39.664ZM81.776 46.992C83.04 46.816 83.888 46.096 83.888 45.056C83.888 44.048 83.248 43.536 81.824 43.216L81.776 43.2V46.992ZM90.2057 50.928C88.0938 48.96 86.9738 46.368 86.9738 43.52C86.9738 40.672 88.0938 38.08 90.2057 36.112L91.1338 36.992C89.3098 38.688 88.3178 40.976 88.3178 43.52C88.3178 46.064 89.3098 48.352 91.1338 50.048L90.2057 50.928ZM95.1735 48.24C92.8055 48.24 91.0935 46.464 91.0935 44C91.0935 41.568 92.8215 39.776 95.1735 39.776C97.2055 39.776 98.8375 41.088 98.9655 42.976L97.4775 43.104C97.3495 41.936 96.3735 41.088 95.1575 41.088C93.6855 41.088 92.6135 42.32 92.6135 44C92.6135 45.888 93.8295 46.896 95.1575 46.896C96.3095 46.896 97.3495 46.128 97.4935 44.832L98.9815 44.944C98.8695 46.896 97.2375 48.24 95.1735 48.24ZM104.267 48.24C101.899 48.24 100.203 46.48 100.203 44C100.203 41.52 101.899 39.776 104.267 39.776C106.635 39.776 108.315 41.52 108.315 44C108.315 46.48 106.635 48.24 104.267 48.24ZM104.267 46.96C105.755 46.96 106.779 45.744 106.779 44C106.779 42.272 105.755 41.056 104.267 41.056C102.763 41.056 101.739 42.272 101.739 44C101.739 45.744 102.763 46.96 104.267 46.96ZM113.032 47.904C111.528 48.336 109.896 48.08 109.896 45.808V36.8H111.4V45.504C111.4 46.672 112.04 46.944 113 46.624L113.032 47.904ZM118.079 48.24C115.711 48.24 114.015 46.48 114.015 44C114.015 41.52 115.711 39.776 118.079 39.776C120.447 39.776 122.127 41.52 122.127 44C122.127 46.48 120.447 48.24 118.079 48.24ZM118.079 46.96C119.567 46.96 120.591 45.744 120.591 44C120.591 42.272 119.567 41.056 118.079 41.056C116.575 41.056 115.551 42.272 115.551 44C115.551 45.744 116.575 46.96 118.079 46.96ZM123.725 48V40.016H125.245L125.197 42.4C125.533 40.432 126.909 39.728 128.285 39.984V41.472C126.605 41.248 125.245 42.24 125.245 44.56V48H123.725ZM128.41 44.144V42.896H133.002V44.144H128.41ZM134.757 48V36.8H136.277V41.36C136.869 40.368 137.861 39.808 139.093 39.808C141.237 39.808 142.789 41.552 142.789 44.016C142.789 46.464 141.237 48.208 139.093 48.208C137.861 48.208 136.869 47.648 136.277 46.656V48H134.757ZM138.709 41.056C137.221 41.056 136.181 42.256 136.181 44.016C136.181 45.76 137.221 46.96 138.709 46.96C140.181 46.96 141.253 45.728 141.253 44.016C141.253 42.304 140.181 41.056 138.709 41.056ZM144.382 48V40.016H145.902L145.854 42.4C146.19 40.432 147.566 39.728 148.942 39.984V41.472C147.262 41.248 145.902 42.24 145.902 44.56V48H144.382ZM152.277 48.176C150.773 48.176 149.685 47.344 149.685 45.952C149.685 44.464 150.965 43.664 153.381 43.392L155.013 43.216V42.896C155.013 41.728 154.357 40.992 153.237 40.992C152.213 40.992 151.493 41.648 151.397 42.752L149.925 42.704C150.053 40.96 151.397 39.776 153.285 39.776C155.205 39.776 156.501 41.024 156.501 42.944V45.712C156.501 46.576 156.597 47.44 156.709 48H155.237C155.141 47.632 155.077 47.184 155.077 46.352C154.709 47.456 153.621 48.176 152.277 48.176ZM152.741 47.12C154.021 47.12 155.029 46.144 155.029 44.736V44.128L153.493 44.32C152.005 44.496 151.205 44.896 151.205 45.824C151.205 46.704 151.877 47.12 152.741 47.12ZM158.335 48V40.016H159.855L159.807 41.968C160.143 40.608 161.055 39.808 162.463 39.808C164.223 39.808 165.343 41.072 165.343 43.088V48H163.823V43.312C163.823 41.856 163.151 41.04 161.951 41.04C160.591 41.04 159.855 42.048 159.855 43.872V48H158.335ZM170.571 48.208C168.427 48.208 166.875 46.464 166.875 44C166.875 41.552 168.427 39.808 170.571 39.808C171.819 39.808 172.811 40.384 173.403 41.376V36.8H174.923V46.288V48H173.403V46.624C172.811 47.632 171.819 48.208 170.571 48.208ZM170.955 46.96C172.443 46.96 173.483 45.76 173.483 44C173.483 42.256 172.443 41.056 170.955 41.056C169.483 41.056 168.411 42.288 168.411 44C168.411 45.712 169.483 46.96 170.955 46.96ZM176.676 44.144V42.896H181.268V44.144H176.676ZM183.022 48V40.016H184.542L184.494 42.4C184.83 40.432 186.206 39.728 187.582 39.984V41.472C185.902 41.248 184.542 42.24 184.542 44.56V48H183.022ZM192.328 48.272C189.992 48.272 188.312 46.48 188.312 44C188.312 41.536 189.992 39.728 192.312 39.728C195.064 39.728 196.408 42.208 196.12 44.432H189.848C189.896 45.984 190.92 47.088 192.344 47.088C193.448 47.088 194.376 46.448 194.68 45.488L195.976 45.696C195.624 47.168 194.184 48.272 192.328 48.272ZM189.864 43.296H194.648C194.648 41.936 193.704 40.88 192.312 40.88C190.984 40.88 189.992 41.872 189.864 43.296ZM201.18 48.208C199.036 48.208 197.484 46.464 197.484 44C197.484 41.552 199.036 39.808 201.18 39.808C202.428 39.808 203.42 40.384 204.012 41.376V36.8H205.532V46.288V48H204.012V46.624C203.42 47.632 202.428 48.208 201.18 48.208ZM201.564 46.96C203.052 46.96 204.092 45.76 204.092 44C204.092 42.256 203.052 41.056 201.564 41.056C200.092 41.056 199.02 42.288 199.02 44C199.02 45.712 200.092 46.96 201.564 46.96ZM207.029 50.048C208.853 48.352 209.845 46.064 209.845 43.52C209.845 40.976 208.853 38.688 207.029 36.992L207.957 36.112C210.069 38.08 211.189 40.672 211.189 43.52C211.189 46.368 210.069 48.96 207.957 50.928L207.029 50.048Z" fill="#767676"/>
</svg>
