<svg width="360" height="72" viewBox="0 0 360 72" fill="none" xmlns="http://www.w3.org/2000/svg">
<mask id="path-1-inside-1_7_218" fill="white">
<path d="M0 0H360V72H0V0Z"/>
</mask>
<path d="M360 0H359V72H360H361V0H360Z" fill="#D9D9DB" mask="url(#path-1-inside-1_7_218)"/>
<rect x="16.5" y="12.5" width="47" height="47" rx="7.5" fill="white" stroke="#D9D9DB"/>
<path d="M80.736 27.24C78.368 27.24 76.656 25.464 76.656 23C76.656 20.568 78.384 18.776 80.736 18.776C82.768 18.776 84.4 20.088 84.528 21.976L83.04 22.104C82.912 20.936 81.936 20.088 80.72 20.088C79.248 20.088 78.176 21.32 78.176 23C78.176 24.888 79.392 25.896 80.72 25.896C81.872 25.896 82.912 25.128 83.056 23.832L84.544 23.944C84.432 25.896 82.8 27.24 80.736 27.24ZM89.9894 27.24C87.6214 27.24 85.9254 25.48 85.9254 23C85.9254 20.52 87.6214 18.776 89.9894 18.776C92.3574 18.776 94.0374 20.52 94.0374 23C94.0374 25.48 92.3574 27.24 89.9894 27.24ZM89.9894 25.96C91.4774 25.96 92.5014 24.744 92.5014 23C92.5014 21.272 91.4774 20.056 89.9894 20.056C88.4854 20.056 87.4614 21.272 87.4614 23C87.4614 24.744 88.4854 25.96 89.9894 25.96ZM98.9141 26.904C97.4101 27.336 95.7781 27.08 95.7781 24.808V15.8H97.2821V24.504C97.2821 25.672 97.9221 25.944 98.8821 25.624L98.9141 26.904ZM104.122 27.24C101.754 27.24 100.058 25.48 100.058 23C100.058 20.52 101.754 18.776 104.122 18.776C106.49 18.776 108.17 20.52 108.17 23C108.17 25.48 106.49 27.24 104.122 27.24ZM104.122 25.96C105.61 25.96 106.634 24.744 106.634 23C106.634 21.272 105.61 20.056 104.122 20.056C102.618 20.056 101.594 21.272 101.594 23C101.594 24.744 102.618 25.96 104.122 25.96ZM109.928 27V19.016H111.448L111.4 21.4C111.736 19.432 113.112 18.728 114.488 18.984V20.472C112.808 20.248 111.448 21.24 111.448 23.56V27H109.928ZM114.773 23.144V21.896H119.365V23.144H114.773ZM125.226 26.92C123.674 27.416 121.85 27 121.85 24.536V20.28H120.314V19.016H121.85V17.016H123.37V19.016H125.434V20.28H123.37V24.424C123.37 25.832 124.314 25.976 125.194 25.656L125.226 26.92ZM130.589 27.272C128.253 27.272 126.573 25.48 126.573 23C126.573 20.536 128.253 18.728 130.573 18.728C133.325 18.728 134.669 21.208 134.381 23.432H128.109C128.157 24.984 129.181 26.088 130.605 26.088C131.709 26.088 132.637 25.448 132.941 24.488L134.237 24.696C133.885 26.168 132.445 27.272 130.589 27.272ZM128.125 22.296H132.909C132.909 20.936 131.965 19.88 130.573 19.88C129.245 19.88 128.253 20.872 128.125 22.296ZM141.006 27L138.894 24.024L136.766 27H135.134L138.078 22.984L135.134 19.016H136.846L138.958 21.992L141.086 19.016H142.702L139.774 23.016L142.75 27H141.006ZM148.722 26.92C147.17 27.416 145.346 27 145.346 24.536V20.28H143.81V19.016H145.346V17.016H146.866V19.016H148.93V20.28H146.866V24.424C146.866 25.832 147.81 25.976 148.69 25.656L148.722 26.92ZM149.619 23.144V21.896H154.211V23.144H149.619ZM156.126 27V19.016H157.646V27H156.126ZM156.894 17.656C156.27 17.656 155.806 17.192 155.806 16.568C155.806 15.96 156.27 15.48 156.894 15.48C157.502 15.48 157.966 15.96 157.966 16.568C157.966 17.192 157.502 17.656 156.894 17.656ZM159.692 27V19.016H161.212L161.164 20.968C161.5 19.608 162.412 18.808 163.82 18.808C165.58 18.808 166.7 20.072 166.7 22.088V27H165.18V22.312C165.18 20.856 164.508 20.04 163.308 20.04C161.948 20.04 161.212 21.048 161.212 22.872V27H159.692ZM171.054 27L167.886 19.016H169.454L171.854 25.384L174.27 19.016H175.79L172.622 27H171.054ZM180.49 27.272C178.154 27.272 176.474 25.48 176.474 23C176.474 20.536 178.154 18.728 180.474 18.728C183.226 18.728 184.57 21.208 184.282 23.432H178.01C178.058 24.984 179.082 26.088 180.506 26.088C181.61 26.088 182.538 25.448 182.842 24.488L184.138 24.696C183.786 26.168 182.346 27.272 180.49 27.272ZM178.026 22.296H182.81C182.81 20.936 181.866 19.88 180.474 19.88C179.146 19.88 178.154 20.872 178.026 22.296ZM186.094 27V19.016H187.614L187.566 21.4C187.902 19.432 189.278 18.728 190.654 18.984V20.472C188.974 20.248 187.614 21.24 187.614 23.56V27H186.094ZM195.188 27.272C193.188 27.272 191.796 26.184 191.668 24.472L193.076 24.424C193.172 25.512 194.02 26.2 195.188 26.2C196.132 26.2 196.948 25.768 196.948 24.936C196.948 24.312 196.468 23.96 195.524 23.768L194.164 23.512C192.612 23.256 191.892 22.424 191.892 21.256C191.892 19.704 193.188 18.728 194.964 18.728C196.82 18.728 198.148 19.848 198.228 21.512L196.868 21.592C196.804 20.552 196.02 19.816 194.948 19.816C194.052 19.816 193.332 20.312 193.332 21.112C193.332 21.704 193.732 22.072 194.452 22.2L195.812 22.456C197.492 22.76 198.404 23.528 198.404 24.792C198.404 26.328 197.028 27.272 195.188 27.272ZM203.861 27.272C201.525 27.272 199.845 25.48 199.845 23C199.845 20.536 201.525 18.728 203.845 18.728C206.597 18.728 207.941 21.208 207.653 23.432H201.381C201.429 24.984 202.453 26.088 203.877 26.088C204.981 26.088 205.909 25.448 206.213 24.488L207.509 24.696C207.157 26.168 205.717 27.272 203.861 27.272ZM201.397 22.296H206.181C206.181 20.936 205.237 19.88 203.845 19.88C202.517 19.88 201.525 20.872 201.397 22.296Z" fill="#414141"/>
<path d="M80.592 49.76V48.24C78.352 48.016 76.8 46.544 76.784 44.496L78.32 44.384C78.368 45.76 79.28 46.736 80.592 46.976V42.992L80.368 42.944C78.304 42.544 77.152 41.424 77.152 39.776C77.152 37.936 78.544 36.704 80.592 36.544V35.2H81.776V36.576C83.712 36.864 85.072 38.272 85.136 40.192L83.584 40.288C83.536 39.056 82.832 38.144 81.776 37.856V41.68L81.968 41.712C84.304 42.16 85.456 43.2 85.456 44.96C85.456 46.768 83.968 48.064 81.776 48.24V49.76H80.592ZM78.72 39.664C78.72 40.592 79.392 41.184 80.512 41.44L80.592 41.456V37.792C79.488 37.936 78.72 38.656 78.72 39.664ZM81.776 46.992C83.04 46.816 83.888 46.096 83.888 45.056C83.888 44.048 83.248 43.536 81.824 43.216L81.776 43.2V46.992ZM90.2057 50.928C88.0938 48.96 86.9738 46.368 86.9738 43.52C86.9738 40.672 88.0938 38.08 90.2057 36.112L91.1338 36.992C89.3098 38.688 88.3178 40.976 88.3178 43.52C88.3178 46.064 89.3098 48.352 91.1338 50.048L90.2057 50.928ZM95.1735 48.24C92.8055 48.24 91.0935 46.464 91.0935 44C91.0935 41.568 92.8215 39.776 95.1735 39.776C97.2055 39.776 98.8375 41.088 98.9655 42.976L97.4775 43.104C97.3495 41.936 96.3735 41.088 95.1575 41.088C93.6855 41.088 92.6135 42.32 92.6135 44C92.6135 45.888 93.8295 46.896 95.1575 46.896C96.3095 46.896 97.3495 46.128 97.4935 44.832L98.9815 44.944C98.8695 46.896 97.2375 48.24 95.1735 48.24ZM104.267 48.24C101.899 48.24 100.203 46.48 100.203 44C100.203 41.52 101.899 39.776 104.267 39.776C106.635 39.776 108.315 41.52 108.315 44C108.315 46.48 106.635 48.24 104.267 48.24ZM104.267 46.96C105.755 46.96 106.779 45.744 106.779 44C106.779 42.272 105.755 41.056 104.267 41.056C102.763 41.056 101.739 42.272 101.739 44C101.739 45.744 102.763 46.96 104.267 46.96ZM113.032 47.904C111.528 48.336 109.896 48.08 109.896 45.808V36.8H111.4V45.504C111.4 46.672 112.04 46.944 113 46.624L113.032 47.904ZM118.079 48.24C115.711 48.24 114.015 46.48 114.015 44C114.015 41.52 115.711 39.776 118.079 39.776C120.447 39.776 122.127 41.52 122.127 44C122.127 46.48 120.447 48.24 118.079 48.24ZM118.079 46.96C119.567 46.96 120.591 45.744 120.591 44C120.591 42.272 119.567 41.056 118.079 41.056C116.575 41.056 115.551 42.272 115.551 44C115.551 45.744 116.575 46.96 118.079 46.96ZM123.725 48V40.016H125.245L125.197 42.4C125.533 40.432 126.909 39.728 128.285 39.984V41.472C126.605 41.248 125.245 42.24 125.245 44.56V48H123.725ZM128.41 44.144V42.896H133.002V44.144H128.41ZM134.757 48V40.016H136.277L136.229 41.968C136.565 40.608 137.477 39.808 138.885 39.808C140.645 39.808 141.765 41.072 141.765 43.088V48H140.245V43.312C140.245 41.856 139.573 41.04 138.373 41.04C137.013 41.04 136.277 42.048 136.277 43.872V48H134.757ZM147.313 48.272C144.977 48.272 143.297 46.48 143.297 44C143.297 41.536 144.977 39.728 147.297 39.728C150.049 39.728 151.393 42.208 151.105 44.432H144.833C144.881 45.984 145.905 47.088 147.329 47.088C148.433 47.088 149.361 46.448 149.665 45.488L150.961 45.696C150.609 47.168 149.169 48.272 147.313 48.272ZM144.849 43.296H149.633C149.633 41.936 148.689 40.88 147.297 40.88C145.969 40.88 144.977 41.872 144.849 43.296ZM154.197 44.704C154.197 46.16 154.869 46.976 156.021 46.976C157.349 46.976 158.069 45.968 158.069 44.144V40.016H159.589V45.12V48H158.069L158.117 46.448C157.701 47.568 156.821 48.208 155.525 48.208C153.797 48.208 152.693 46.976 152.693 44.992V40.016H154.197V44.704ZM165.86 47.92C164.308 48.416 162.484 48 162.484 45.536V41.28H160.948V40.016H162.484V38.016H164.004V40.016H166.068V41.28H164.004V45.424C164.004 46.832 164.948 46.976 165.828 46.656L165.86 47.92ZM167.616 48V40.016H169.136L169.088 42.4C169.424 40.432 170.8 39.728 172.176 39.984V41.472C170.496 41.248 169.136 42.24 169.136 44.56V48H167.616ZM175.512 48.176C174.008 48.176 172.92 47.344 172.92 45.952C172.92 44.464 174.2 43.664 176.616 43.392L178.248 43.216V42.896C178.248 41.728 177.592 40.992 176.472 40.992C175.448 40.992 174.728 41.648 174.632 42.752L173.16 42.704C173.288 40.96 174.632 39.776 176.52 39.776C178.44 39.776 179.736 41.024 179.736 42.944V45.712C179.736 46.576 179.832 47.44 179.944 48H178.472C178.376 47.632 178.312 47.184 178.312 46.352C177.944 47.456 176.856 48.176 175.512 48.176ZM175.976 47.12C177.256 47.12 178.264 46.144 178.264 44.736V44.128L176.728 44.32C175.24 44.496 174.44 44.896 174.44 45.824C174.44 46.704 175.112 47.12 175.976 47.12ZM184.672 47.904C183.168 48.336 181.536 48.08 181.536 45.808V36.8H183.04V45.504C183.04 46.672 183.68 46.944 184.64 46.624L184.672 47.904ZM185.223 44.144V42.896H189.815V44.144H185.223ZM193.448 48L190.712 40.016H192.344L194.36 46.304L196.28 40.016H197.96L199.896 46.304L201.912 40.016H203.512L200.776 48H199.08L197.128 41.664L195.16 48H193.448ZM204.913 48V36.8H206.433V41.792C206.801 40.544 207.697 39.808 209.041 39.808C210.801 39.808 211.921 41.072 211.921 43.088V48H210.401V43.312C210.401 41.856 209.729 41.04 208.529 41.04C207.169 41.04 206.433 42.048 206.433 43.872V48H204.913ZM213.741 48V40.016H215.261V48H213.741ZM214.509 38.656C213.885 38.656 213.421 38.192 213.421 37.568C213.421 36.96 213.885 36.48 214.509 36.48C215.117 36.48 215.581 36.96 215.581 37.568C215.581 38.192 215.117 38.656 214.509 38.656ZM221.532 47.92C219.98 48.416 218.156 48 218.156 45.536V41.28H216.62V40.016H218.156V38.016H219.676V40.016H221.74V41.28H219.676V45.424C219.676 46.832 220.62 46.976 221.5 46.656L221.532 47.92ZM226.735 48.272C224.399 48.272 222.719 46.48 222.719 44C222.719 41.536 224.399 39.728 226.719 39.728C229.471 39.728 230.815 42.208 230.527 44.432H224.255C224.303 45.984 225.327 47.088 226.751 47.088C227.855 47.088 228.783 46.448 229.087 45.488L230.383 45.696C230.031 47.168 228.591 48.272 226.735 48.272ZM224.271 43.296H229.055C229.055 41.936 228.111 40.88 226.719 40.88C225.391 40.88 224.399 41.872 224.271 43.296ZM230.342 50.048C232.166 48.352 233.158 46.064 233.158 43.52C233.158 40.976 232.166 38.688 230.342 36.992L231.27 36.112C233.382 38.08 234.502 40.672 234.502 43.52C234.502 46.368 233.382 48.96 231.27 50.928L230.342 50.048Z" fill="#767676"/>
</svg>
