<svg width="360" height="72" viewBox="0 0 360 72" fill="none" xmlns="http://www.w3.org/2000/svg">
<mask id="path-1-inside-1_40_757" fill="white">
<path d="M0 0H360V72H0V0Z"/>
</mask>
<path d="M360 0H359V72H360H361V0H360Z" fill="#D9D9DB" mask="url(#path-1-inside-1_40_757)"/>
<rect x="16" y="12" width="48" height="48" rx="8" fill="black"/>
<path d="M80.736 27.24C78.368 27.24 76.656 25.464 76.656 23C76.656 20.568 78.384 18.776 80.736 18.776C82.768 18.776 84.4 20.088 84.528 21.976L83.04 22.104C82.912 20.936 81.936 20.088 80.72 20.088C79.248 20.088 78.176 21.32 78.176 23C78.176 24.888 79.392 25.896 80.72 25.896C81.872 25.896 82.912 25.128 83.056 23.832L84.544 23.944C84.432 25.896 82.8 27.24 80.736 27.24ZM89.9894 27.24C87.6214 27.24 85.9254 25.48 85.9254 23C85.9254 20.52 87.6214 18.776 89.9894 18.776C92.3574 18.776 94.0374 20.52 94.0374 23C94.0374 25.48 92.3574 27.24 89.9894 27.24ZM89.9894 25.96C91.4774 25.96 92.5014 24.744 92.5014 23C92.5014 21.272 91.4774 20.056 89.9894 20.056C88.4854 20.056 87.4614 21.272 87.4614 23C87.4614 24.744 88.4854 25.96 89.9894 25.96ZM98.9141 26.904C97.4101 27.336 95.7781 27.08 95.7781 24.808V15.8H97.2821V24.504C97.2821 25.672 97.9221 25.944 98.8821 25.624L98.9141 26.904ZM104.122 27.24C101.754 27.24 100.058 25.48 100.058 23C100.058 20.52 101.754 18.776 104.122 18.776C106.49 18.776 108.17 20.52 108.17 23C108.17 25.48 106.49 27.24 104.122 27.24ZM104.122 25.96C105.61 25.96 106.634 24.744 106.634 23C106.634 21.272 105.61 20.056 104.122 20.056C102.618 20.056 101.594 21.272 101.594 23C101.594 24.744 102.618 25.96 104.122 25.96ZM109.928 27V19.016H111.448L111.4 21.4C111.736 19.432 113.112 18.728 114.488 18.984V20.472C112.808 20.248 111.448 21.24 111.448 23.56V27H109.928ZM114.773 23.144V21.896H119.365V23.144H114.773ZM121.279 27V15.8H122.799V20.36C123.391 19.368 124.383 18.808 125.615 18.808C127.759 18.808 129.311 20.552 129.311 23.016C129.311 25.464 127.759 27.208 125.615 27.208C124.383 27.208 123.391 26.648 122.799 25.656V27H121.279ZM125.231 20.056C123.743 20.056 122.703 21.256 122.703 23.016C122.703 24.76 123.743 25.96 125.231 25.96C126.703 25.96 127.775 24.728 127.775 23.016C127.775 21.304 126.703 20.056 125.231 20.056ZM132.504 23.704C132.504 25.16 133.176 25.976 134.328 25.976C135.656 25.976 136.376 24.968 136.376 23.144V19.016H137.896V24.12V27H136.376L136.424 25.448C136.008 26.568 135.128 27.208 133.832 27.208C132.104 27.208 131 25.976 131 23.992V19.016H132.504V23.704ZM144.327 26.92C142.775 27.416 140.951 27 140.951 24.536V20.28H139.415V19.016H140.951V17.016H142.471V19.016H145.751V17.016H147.271V19.016H149.335V20.28H147.271V24.424C147.271 25.832 148.215 25.976 149.095 25.656L149.127 26.92C147.575 27.416 145.751 27 145.751 24.536V20.28H142.471V24.424C142.471 25.832 143.415 25.976 144.295 25.656L144.327 26.92ZM154.551 27.24C152.183 27.24 150.487 25.48 150.487 23C150.487 20.52 152.183 18.776 154.551 18.776C156.919 18.776 158.599 20.52 158.599 23C158.599 25.48 156.919 27.24 154.551 27.24ZM154.551 25.96C156.039 25.96 157.063 24.744 157.063 23C157.063 21.272 156.039 20.056 154.551 20.056C153.047 20.056 152.023 21.272 152.023 23C152.023 24.744 153.047 25.96 154.551 25.96ZM160.356 27V19.016H161.876L161.828 20.968C162.164 19.608 163.076 18.808 164.484 18.808C166.244 18.808 167.364 20.072 167.364 22.088V27H165.844V22.312C165.844 20.856 165.172 20.04 163.972 20.04C162.612 20.04 161.876 21.048 161.876 22.872V27H160.356ZM169.248 23.144V21.896H173.84V23.144H169.248ZM178.813 27.272C176.813 27.272 175.421 26.184 175.293 24.472L176.701 24.424C176.797 25.512 177.645 26.2 178.813 26.2C179.757 26.2 180.573 25.768 180.573 24.936C180.573 24.312 180.093 23.96 179.149 23.768L177.789 23.512C176.237 23.256 175.517 22.424 175.517 21.256C175.517 19.704 176.813 18.728 178.589 18.728C180.445 18.728 181.773 19.848 181.853 21.512L180.493 21.592C180.429 20.552 179.645 19.816 178.573 19.816C177.677 19.816 176.957 20.312 176.957 21.112C176.957 21.704 177.357 22.072 178.077 22.2L179.437 22.456C181.117 22.76 182.029 23.528 182.029 24.792C182.029 26.328 180.653 27.272 178.813 27.272ZM185.198 23.704C185.198 25.16 185.87 25.976 187.022 25.976C188.35 25.976 189.07 24.968 189.07 23.144V19.016H190.59V24.12V27H189.07L189.118 25.448C188.702 26.568 187.822 27.208 186.526 27.208C184.798 27.208 183.694 25.976 183.694 23.992V19.016H185.198V23.704ZM192.637 27V19.016H194.157L194.109 21.4C194.445 19.432 195.821 18.728 197.197 18.984V20.472C195.517 20.248 194.157 21.24 194.157 23.56V27H192.637ZM199.649 18.104C199.649 15.992 201.425 15.384 202.961 15.704V16.92C202.081 16.648 201.169 16.84 201.169 18.104V19.016H203.025V20.28H201.169V27H199.649V20.28H198.161V19.016H199.649V18.104ZM206.665 27.176C205.161 27.176 204.073 26.344 204.073 24.952C204.073 23.464 205.353 22.664 207.769 22.392L209.401 22.216V21.896C209.401 20.728 208.745 19.992 207.625 19.992C206.601 19.992 205.881 20.648 205.785 21.752L204.313 21.704C204.441 19.96 205.785 18.776 207.673 18.776C209.593 18.776 210.889 20.024 210.889 21.944V24.712C210.889 25.576 210.985 26.44 211.097 27H209.625C209.529 26.632 209.465 26.184 209.465 25.352C209.097 26.456 208.009 27.176 206.665 27.176ZM207.129 26.12C208.409 26.12 209.417 25.144 209.417 23.736V23.128L207.881 23.32C206.393 23.496 205.593 23.896 205.593 24.824C205.593 25.704 206.265 26.12 207.129 26.12ZM216.675 27.24C214.307 27.24 212.595 25.464 212.595 23C212.595 20.568 214.323 18.776 216.675 18.776C218.707 18.776 220.339 20.088 220.467 21.976L218.979 22.104C218.851 20.936 217.875 20.088 216.659 20.088C215.187 20.088 214.115 21.32 214.115 23C214.115 24.888 215.331 25.896 216.659 25.896C217.811 25.896 218.851 25.128 218.995 23.832L220.483 23.944C220.371 25.896 218.739 27.24 216.675 27.24ZM225.88 27.272C223.544 27.272 221.864 25.48 221.864 23C221.864 20.536 223.544 18.728 225.864 18.728C228.616 18.728 229.96 21.208 229.672 23.432H223.4C223.448 24.984 224.472 26.088 225.896 26.088C227 26.088 227.928 25.448 228.232 24.488L229.528 24.696C229.176 26.168 227.736 27.272 225.88 27.272ZM223.416 22.296H228.2C228.2 20.936 227.256 19.88 225.864 19.88C224.536 19.88 223.544 20.872 223.416 22.296ZM231.45 23.144V21.896H236.042V23.144H231.45ZM241.015 27.272C239.015 27.272 237.623 26.184 237.495 24.472L238.903 24.424C238.999 25.512 239.847 26.2 241.015 26.2C241.959 26.2 242.775 25.768 242.775 24.936C242.775 24.312 242.295 23.96 241.351 23.768L239.991 23.512C238.439 23.256 237.719 22.424 237.719 21.256C237.719 19.704 239.015 18.728 240.791 18.728C242.647 18.728 243.975 19.848 244.055 21.512L242.695 21.592C242.631 20.552 241.847 19.816 240.775 19.816C239.879 19.816 239.159 20.312 239.159 21.112C239.159 21.704 239.559 22.072 240.279 22.2L241.639 22.456C243.319 22.76 244.231 23.528 244.231 24.792C244.231 26.328 242.855 27.272 241.015 27.272ZM249.688 27.272C247.352 27.272 245.672 25.48 245.672 23C245.672 20.536 247.352 18.728 249.672 18.728C252.424 18.728 253.768 21.208 253.48 23.432H247.208C247.256 24.984 248.28 26.088 249.704 26.088C250.808 26.088 251.736 25.448 252.04 24.488L253.336 24.696C252.984 26.168 251.544 27.272 249.688 27.272ZM247.224 22.296H252.008C252.008 20.936 251.064 19.88 249.672 19.88C248.344 19.88 247.352 20.872 247.224 22.296ZM259.084 27.24C256.716 27.24 255.004 25.464 255.004 23C255.004 20.568 256.732 18.776 259.084 18.776C261.116 18.776 262.748 20.088 262.876 21.976L261.388 22.104C261.26 20.936 260.284 20.088 259.068 20.088C257.596 20.088 256.524 21.32 256.524 23C256.524 24.888 257.74 25.896 259.068 25.896C260.22 25.896 261.26 25.128 261.404 23.832L262.892 23.944C262.78 25.896 261.148 27.24 259.084 27.24ZM268.337 27.24C265.969 27.24 264.273 25.48 264.273 23C264.273 20.52 265.969 18.776 268.337 18.776C270.705 18.776 272.385 20.52 272.385 23C272.385 25.48 270.705 27.24 268.337 27.24ZM268.337 25.96C269.825 25.96 270.849 24.744 270.849 23C270.849 21.272 269.825 20.056 268.337 20.056C266.833 20.056 265.809 21.272 265.809 23C265.809 24.744 266.833 25.96 268.337 25.96ZM274.143 27V19.016H275.663L275.615 20.968C275.951 19.608 276.863 18.808 278.271 18.808C280.031 18.808 281.151 20.072 281.151 22.088V27H279.631V22.312C279.631 20.856 278.959 20.04 277.759 20.04C276.399 20.04 275.663 21.048 275.663 22.872V27H274.143ZM286.54 27.208C284.396 27.208 282.844 25.464 282.844 23C282.844 20.552 284.396 18.808 286.54 18.808C287.788 18.808 288.78 19.384 289.372 20.376V15.8H290.892V25.288V27H289.372V25.624C288.78 26.632 287.788 27.208 286.54 27.208ZM286.924 25.96C288.412 25.96 289.452 24.76 289.452 23C289.452 21.256 288.412 20.056 286.924 20.056C285.452 20.056 284.38 21.288 284.38 23C284.38 24.712 285.452 25.96 286.924 25.96ZM295.141 27.176C293.637 27.176 292.549 26.344 292.549 24.952C292.549 23.464 293.829 22.664 296.245 22.392L297.877 22.216V21.896C297.877 20.728 297.221 19.992 296.101 19.992C295.077 19.992 294.357 20.648 294.261 21.752L292.789 21.704C292.917 19.96 294.261 18.776 296.149 18.776C298.069 18.776 299.365 20.024 299.365 21.944V24.712C299.365 25.576 299.461 26.44 299.573 27H298.101C298.005 26.632 297.941 26.184 297.941 25.352C297.573 26.456 296.485 27.176 295.141 27.176ZM295.605 26.12C296.885 26.12 297.893 25.144 297.893 23.736V23.128L296.357 23.32C294.869 23.496 294.069 23.896 294.069 24.824C294.069 25.704 294.741 26.12 295.605 26.12ZM301.358 27V19.016H302.878L302.83 21.4C303.166 19.432 304.542 18.728 305.918 18.984V20.472C304.238 20.248 302.878 21.24 302.878 23.56V27H301.358ZM307.312 28.888C308.272 29.144 309.312 28.952 309.952 27.576L310.288 26.776L306.864 19.016H308.464L311.12 25.096L313.568 19.016H315.104L311.52 27.576C310.624 29.752 309.168 30.632 307.312 30.168V28.888Z" fill="#414141"/>
<path d="M80.592 49.76V48.24C78.352 48.016 76.8 46.544 76.784 44.496L78.32 44.384C78.368 45.76 79.28 46.736 80.592 46.976V42.992L80.368 42.944C78.304 42.544 77.152 41.424 77.152 39.776C77.152 37.936 78.544 36.704 80.592 36.544V35.2H81.776V36.576C83.712 36.864 85.072 38.272 85.136 40.192L83.584 40.288C83.536 39.056 82.832 38.144 81.776 37.856V41.68L81.968 41.712C84.304 42.16 85.456 43.2 85.456 44.96C85.456 46.768 83.968 48.064 81.776 48.24V49.76H80.592ZM78.72 39.664C78.72 40.592 79.392 41.184 80.512 41.44L80.592 41.456V37.792C79.488 37.936 78.72 38.656 78.72 39.664ZM81.776 46.992C83.04 46.816 83.888 46.096 83.888 45.056C83.888 44.048 83.248 43.536 81.824 43.216L81.776 43.2V46.992ZM90.2057 50.928C88.0938 48.96 86.9738 46.368 86.9738 43.52C86.9738 40.672 88.0938 38.08 90.2057 36.112L91.1338 36.992C89.3098 38.688 88.3178 40.976 88.3178 43.52C88.3178 46.064 89.3098 48.352 91.1338 50.048L90.2057 50.928ZM95.1735 48.24C92.8055 48.24 91.0935 46.464 91.0935 44C91.0935 41.568 92.8215 39.776 95.1735 39.776C97.2055 39.776 98.8375 41.088 98.9655 42.976L97.4775 43.104C97.3495 41.936 96.3735 41.088 95.1575 41.088C93.6855 41.088 92.6135 42.32 92.6135 44C92.6135 45.888 93.8295 46.896 95.1575 46.896C96.3095 46.896 97.3495 46.128 97.4935 44.832L98.9815 44.944C98.8695 46.896 97.2375 48.24 95.1735 48.24ZM104.267 48.24C101.899 48.24 100.203 46.48 100.203 44C100.203 41.52 101.899 39.776 104.267 39.776C106.635 39.776 108.315 41.52 108.315 44C108.315 46.48 106.635 48.24 104.267 48.24ZM104.267 46.96C105.755 46.96 106.779 45.744 106.779 44C106.779 42.272 105.755 41.056 104.267 41.056C102.763 41.056 101.739 42.272 101.739 44C101.739 45.744 102.763 46.96 104.267 46.96ZM113.032 47.904C111.528 48.336 109.896 48.08 109.896 45.808V36.8H111.4V45.504C111.4 46.672 112.04 46.944 113 46.624L113.032 47.904ZM118.079 48.24C115.711 48.24 114.015 46.48 114.015 44C114.015 41.52 115.711 39.776 118.079 39.776C120.447 39.776 122.127 41.52 122.127 44C122.127 46.48 120.447 48.24 118.079 48.24ZM118.079 46.96C119.567 46.96 120.591 45.744 120.591 44C120.591 42.272 119.567 41.056 118.079 41.056C116.575 41.056 115.551 42.272 115.551 44C115.551 45.744 116.575 46.96 118.079 46.96ZM123.725 48V40.016H125.245L125.197 42.4C125.533 40.432 126.909 39.728 128.285 39.984V41.472C126.605 41.248 125.245 42.24 125.245 44.56V48H123.725ZM128.41 44.144V42.896H133.002V44.144H128.41ZM134.757 48V40.016H136.277L136.229 41.968C136.565 40.608 137.477 39.808 138.885 39.808C140.645 39.808 141.765 41.072 141.765 43.088V48H140.245V43.312C140.245 41.856 139.573 41.04 138.373 41.04C137.013 41.04 136.277 42.048 136.277 43.872V48H134.757ZM147.313 48.272C144.977 48.272 143.297 46.48 143.297 44C143.297 41.536 144.977 39.728 147.297 39.728C150.049 39.728 151.393 42.208 151.105 44.432H144.833C144.881 45.984 145.905 47.088 147.329 47.088C148.433 47.088 149.361 46.448 149.665 45.488L150.961 45.696C150.609 47.168 149.169 48.272 147.313 48.272ZM144.849 43.296H149.633C149.633 41.936 148.689 40.88 147.297 40.88C145.969 40.88 144.977 41.872 144.849 43.296ZM154.197 44.704C154.197 46.16 154.869 46.976 156.021 46.976C157.349 46.976 158.069 45.968 158.069 44.144V40.016H159.589V45.12V48H158.069L158.117 46.448C157.701 47.568 156.821 48.208 155.525 48.208C153.797 48.208 152.693 46.976 152.693 44.992V40.016H154.197V44.704ZM165.86 47.92C164.308 48.416 162.484 48 162.484 45.536V41.28H160.948V40.016H162.484V38.016H164.004V40.016H166.068V41.28H164.004V45.424C164.004 46.832 164.948 46.976 165.828 46.656L165.86 47.92ZM167.616 48V40.016H169.136L169.088 42.4C169.424 40.432 170.8 39.728 172.176 39.984V41.472C170.496 41.248 169.136 42.24 169.136 44.56V48H167.616ZM175.512 48.176C174.008 48.176 172.92 47.344 172.92 45.952C172.92 44.464 174.2 43.664 176.616 43.392L178.248 43.216V42.896C178.248 41.728 177.592 40.992 176.472 40.992C175.448 40.992 174.728 41.648 174.632 42.752L173.16 42.704C173.288 40.96 174.632 39.776 176.52 39.776C178.44 39.776 179.736 41.024 179.736 42.944V45.712C179.736 46.576 179.832 47.44 179.944 48H178.472C178.376 47.632 178.312 47.184 178.312 46.352C177.944 47.456 176.856 48.176 175.512 48.176ZM175.976 47.12C177.256 47.12 178.264 46.144 178.264 44.736V44.128L176.728 44.32C175.24 44.496 174.44 44.896 174.44 45.824C174.44 46.704 175.112 47.12 175.976 47.12ZM184.672 47.904C183.168 48.336 181.536 48.08 181.536 45.808V36.8H183.04V45.504C183.04 46.672 183.68 46.944 184.64 46.624L184.672 47.904ZM185.223 44.144V42.896H189.815V44.144H185.223ZM191.569 48V36.8H193.089V41.36C193.681 40.368 194.673 39.808 195.905 39.808C198.049 39.808 199.601 41.552 199.601 44.016C199.601 46.464 198.049 48.208 195.905 48.208C194.673 48.208 193.681 47.648 193.089 46.656V48H191.569ZM195.521 41.056C194.033 41.056 192.993 42.256 192.993 44.016C192.993 45.76 194.033 46.96 195.521 46.96C196.993 46.96 198.065 45.728 198.065 44.016C198.065 42.304 196.993 41.056 195.521 41.056ZM204.266 47.904C202.762 48.336 201.13 48.08 201.13 45.808V36.8H202.634V45.504C202.634 46.672 203.274 46.944 204.234 46.624L204.266 47.904ZM207.856 48.176C206.352 48.176 205.264 47.344 205.264 45.952C205.264 44.464 206.544 43.664 208.96 43.392L210.592 43.216V42.896C210.592 41.728 209.936 40.992 208.816 40.992C207.792 40.992 207.072 41.648 206.976 42.752L205.504 42.704C205.632 40.96 206.976 39.776 208.864 39.776C210.784 39.776 212.08 41.024 212.08 42.944V45.712C212.08 46.576 212.176 47.44 212.288 48H210.816C210.72 47.632 210.656 47.184 210.656 46.352C210.288 47.456 209.2 48.176 207.856 48.176ZM208.32 47.12C209.6 47.12 210.608 46.144 210.608 44.736V44.128L209.072 44.32C207.584 44.496 206.784 44.896 206.784 45.824C206.784 46.704 207.456 47.12 208.32 47.12ZM217.705 48.24C215.337 48.24 213.625 46.464 213.625 44C213.625 41.568 215.353 39.776 217.705 39.776C219.737 39.776 221.369 41.088 221.497 42.976L220.009 43.104C219.881 41.936 218.905 41.088 217.689 41.088C216.217 41.088 215.145 42.32 215.145 44C215.145 45.888 216.361 46.896 217.689 46.896C218.841 46.896 219.881 46.128 220.025 44.832L221.513 44.944C221.401 46.896 219.769 48.24 217.705 48.24ZM223.022 48V36.8H224.526V43.616L228.446 40.016H230.254L227.006 43.008L230.334 48H228.638L225.982 43.952L224.526 45.28V48H223.022ZM230.529 50.048C232.353 48.352 233.345 46.064 233.345 43.52C233.345 40.976 232.353 38.688 230.529 36.992L231.457 36.112C233.569 38.08 234.689 40.672 234.689 43.52C234.689 46.368 233.569 48.96 231.457 50.928L230.529 50.048Z" fill="#767676"/>
</svg>
