<svg width="360" height="72" viewBox="0 0 360 72" fill="none" xmlns="http://www.w3.org/2000/svg">
<mask id="path-1-inside-1_40_807" fill="white">
<path d="M0 0H360V72H0V0Z"/>
</mask>
<path d="M360 0H359V72H360H361V0H360Z" fill="#D9D9DB" mask="url(#path-1-inside-1_40_807)"/>
<rect x="16.5" y="12.5" width="47" height="47" rx="7.5" fill="white" stroke="#D9D9DB"/>
<path d="M80.736 27.24C78.368 27.24 76.656 25.464 76.656 23C76.656 20.568 78.384 18.776 80.736 18.776C82.768 18.776 84.4 20.088 84.528 21.976L83.04 22.104C82.912 20.936 81.936 20.088 80.72 20.088C79.248 20.088 78.176 21.32 78.176 23C78.176 24.888 79.392 25.896 80.72 25.896C81.872 25.896 82.912 25.128 83.056 23.832L84.544 23.944C84.432 25.896 82.8 27.24 80.736 27.24ZM89.9894 27.24C87.6214 27.24 85.9254 25.48 85.9254 23C85.9254 20.52 87.6214 18.776 89.9894 18.776C92.3574 18.776 94.0374 20.52 94.0374 23C94.0374 25.48 92.3574 27.24 89.9894 27.24ZM89.9894 25.96C91.4774 25.96 92.5014 24.744 92.5014 23C92.5014 21.272 91.4774 20.056 89.9894 20.056C88.4854 20.056 87.4614 21.272 87.4614 23C87.4614 24.744 88.4854 25.96 89.9894 25.96ZM98.9141 26.904C97.4101 27.336 95.7781 27.08 95.7781 24.808V15.8H97.2821V24.504C97.2821 25.672 97.9221 25.944 98.8821 25.624L98.9141 26.904ZM104.122 27.24C101.754 27.24 100.058 25.48 100.058 23C100.058 20.52 101.754 18.776 104.122 18.776C106.49 18.776 108.17 20.52 108.17 23C108.17 25.48 106.49 27.24 104.122 27.24ZM104.122 25.96C105.61 25.96 106.634 24.744 106.634 23C106.634 21.272 105.61 20.056 104.122 20.056C102.618 20.056 101.594 21.272 101.594 23C101.594 24.744 102.618 25.96 104.122 25.96ZM109.928 27V19.016H111.448L111.4 21.4C111.736 19.432 113.112 18.728 114.488 18.984V20.472C112.808 20.248 111.448 21.24 111.448 23.56V27H109.928ZM114.773 23.144V21.896H119.365V23.144H114.773ZM121.279 27V15.8H122.799V20.36C123.391 19.368 124.383 18.808 125.615 18.808C127.759 18.808 129.311 20.552 129.311 23.016C129.311 25.464 127.759 27.208 125.615 27.208C124.383 27.208 123.391 26.648 122.799 25.656V27H121.279ZM125.231 20.056C123.743 20.056 122.703 21.256 122.703 23.016C122.703 24.76 123.743 25.96 125.231 25.96C126.703 25.96 127.775 24.728 127.775 23.016C127.775 21.304 126.703 20.056 125.231 20.056ZM132.504 23.704C132.504 25.16 133.176 25.976 134.328 25.976C135.656 25.976 136.376 24.968 136.376 23.144V19.016H137.896V24.12V27H136.376L136.424 25.448C136.008 26.568 135.128 27.208 133.832 27.208C132.104 27.208 131 25.976 131 23.992V19.016H132.504V23.704ZM144.327 26.92C142.775 27.416 140.951 27 140.951 24.536V20.28H139.415V19.016H140.951V17.016H142.471V19.016H145.751V17.016H147.271V19.016H149.335V20.28H147.271V24.424C147.271 25.832 148.215 25.976 149.095 25.656L149.127 26.92C147.575 27.416 145.751 27 145.751 24.536V20.28H142.471V24.424C142.471 25.832 143.415 25.976 144.295 25.656L144.327 26.92ZM154.551 27.24C152.183 27.24 150.487 25.48 150.487 23C150.487 20.52 152.183 18.776 154.551 18.776C156.919 18.776 158.599 20.52 158.599 23C158.599 25.48 156.919 27.24 154.551 27.24ZM154.551 25.96C156.039 25.96 157.063 24.744 157.063 23C157.063 21.272 156.039 20.056 154.551 20.056C153.047 20.056 152.023 21.272 152.023 23C152.023 24.744 153.047 25.96 154.551 25.96ZM160.356 27V19.016H161.876L161.828 20.968C162.164 19.608 163.076 18.808 164.484 18.808C166.244 18.808 167.364 20.072 167.364 22.088V27H165.844V22.312C165.844 20.856 165.172 20.04 163.972 20.04C162.612 20.04 161.876 21.048 161.876 22.872V27H160.356ZM169.248 23.144V21.896H173.84V23.144H169.248ZM179.702 26.92C178.15 27.416 176.326 27 176.326 24.536V20.28H174.79V19.016H176.326V17.016H177.846V19.016H179.91V20.28H177.846V24.424C177.846 25.832 178.79 25.976 179.67 25.656L179.702 26.92ZM185.065 27.272C182.729 27.272 181.049 25.48 181.049 23C181.049 20.536 182.729 18.728 185.049 18.728C187.801 18.728 189.145 21.208 188.857 23.432H182.585C182.633 24.984 183.657 26.088 185.081 26.088C186.185 26.088 187.113 25.448 187.417 24.488L188.713 24.696C188.361 26.168 186.921 27.272 185.065 27.272ZM182.601 22.296H187.385C187.385 20.936 186.441 19.88 185.049 19.88C183.721 19.88 182.729 20.872 182.601 22.296ZM195.482 27L193.37 24.024L191.242 27H189.61L192.554 22.984L189.61 19.016H191.322L193.434 21.992L195.562 19.016H197.178L194.25 23.016L197.226 27H195.482ZM203.198 26.92C201.646 27.416 199.822 27 199.822 24.536V20.28H198.286V19.016H199.822V17.016H201.342V19.016H203.406V20.28H201.342V24.424C201.342 25.832 202.286 25.976 203.166 25.656L203.198 26.92ZM204.095 23.144V21.896H208.687V23.144H204.095ZM214.119 27.208C211.975 27.208 210.423 25.464 210.423 23C210.423 20.552 211.975 18.808 214.119 18.808C215.367 18.808 216.359 19.384 216.951 20.376V15.8H218.471V25.288V27H216.951V25.624C216.359 26.632 215.367 27.208 214.119 27.208ZM214.503 25.96C215.991 25.96 217.031 24.76 217.031 23C217.031 21.256 215.991 20.056 214.503 20.056C213.031 20.056 211.959 21.288 211.959 23C211.959 24.712 213.031 25.96 214.503 25.96ZM224.271 27.272C221.935 27.272 220.255 25.48 220.255 23C220.255 20.536 221.935 18.728 224.255 18.728C227.007 18.728 228.351 21.208 228.063 23.432H221.791C221.839 24.984 222.863 26.088 224.287 26.088C225.391 26.088 226.319 25.448 226.623 24.488L227.919 24.696C227.567 26.168 226.127 27.272 224.271 27.272ZM221.807 22.296H226.591C226.591 20.936 225.647 19.88 224.255 19.88C222.927 19.88 221.935 20.872 221.807 22.296ZM230.663 18.104C230.663 15.992 232.439 15.384 233.975 15.704V16.92C233.095 16.648 232.183 16.84 232.183 18.104V19.016H234.039V20.28H232.183V27H230.663V20.28H229.175V19.016H230.663V18.104ZM237.665 27.176C236.161 27.176 235.073 26.344 235.073 24.952C235.073 23.464 236.353 22.664 238.769 22.392L240.401 22.216V21.896C240.401 20.728 239.745 19.992 238.625 19.992C237.601 19.992 236.881 20.648 236.785 21.752L235.313 21.704C235.441 19.96 236.785 18.776 238.673 18.776C240.593 18.776 241.889 20.024 241.889 21.944V24.712C241.889 25.576 241.985 26.44 242.097 27H240.625C240.529 26.632 240.465 26.184 240.465 25.352C240.097 26.456 239.009 27.176 237.665 27.176ZM238.129 26.12C239.409 26.12 240.417 25.144 240.417 23.736V23.128L238.881 23.32C237.393 23.496 236.593 23.896 236.593 24.824C236.593 25.704 237.265 26.12 238.129 26.12ZM245.322 23.704C245.322 25.16 245.994 25.976 247.146 25.976C248.474 25.976 249.194 24.968 249.194 23.144V19.016H250.714V24.12V27H249.194L249.242 25.448C248.826 26.568 247.946 27.208 246.65 27.208C244.922 27.208 243.818 25.976 243.818 23.992V19.016H245.322V23.704ZM255.833 26.904C254.329 27.336 252.697 27.08 252.697 24.808V15.8H254.201V24.504C254.201 25.672 254.841 25.944 255.801 25.624L255.833 26.904ZM261.087 26.92C259.535 27.416 257.711 27 257.711 24.536V20.28H256.175V19.016H257.711V17.016H259.231V19.016H261.295V20.28H259.231V24.424C259.231 25.832 260.175 25.976 261.055 25.656L261.087 26.92Z" fill="#414141"/>
<path d="M80.592 49.76V48.24C78.352 48.016 76.8 46.544 76.784 44.496L78.32 44.384C78.368 45.76 79.28 46.736 80.592 46.976V42.992L80.368 42.944C78.304 42.544 77.152 41.424 77.152 39.776C77.152 37.936 78.544 36.704 80.592 36.544V35.2H81.776V36.576C83.712 36.864 85.072 38.272 85.136 40.192L83.584 40.288C83.536 39.056 82.832 38.144 81.776 37.856V41.68L81.968 41.712C84.304 42.16 85.456 43.2 85.456 44.96C85.456 46.768 83.968 48.064 81.776 48.24V49.76H80.592ZM78.72 39.664C78.72 40.592 79.392 41.184 80.512 41.44L80.592 41.456V37.792C79.488 37.936 78.72 38.656 78.72 39.664ZM81.776 46.992C83.04 46.816 83.888 46.096 83.888 45.056C83.888 44.048 83.248 43.536 81.824 43.216L81.776 43.2V46.992ZM90.2057 50.928C88.0938 48.96 86.9738 46.368 86.9738 43.52C86.9738 40.672 88.0938 38.08 90.2057 36.112L91.1338 36.992C89.3098 38.688 88.3178 40.976 88.3178 43.52C88.3178 46.064 89.3098 48.352 91.1338 50.048L90.2057 50.928ZM95.1735 48.24C92.8055 48.24 91.0935 46.464 91.0935 44C91.0935 41.568 92.8215 39.776 95.1735 39.776C97.2055 39.776 98.8375 41.088 98.9655 42.976L97.4775 43.104C97.3495 41.936 96.3735 41.088 95.1575 41.088C93.6855 41.088 92.6135 42.32 92.6135 44C92.6135 45.888 93.8295 46.896 95.1575 46.896C96.3095 46.896 97.3495 46.128 97.4935 44.832L98.9815 44.944C98.8695 46.896 97.2375 48.24 95.1735 48.24ZM104.267 48.24C101.899 48.24 100.203 46.48 100.203 44C100.203 41.52 101.899 39.776 104.267 39.776C106.635 39.776 108.315 41.52 108.315 44C108.315 46.48 106.635 48.24 104.267 48.24ZM104.267 46.96C105.755 46.96 106.779 45.744 106.779 44C106.779 42.272 105.755 41.056 104.267 41.056C102.763 41.056 101.739 42.272 101.739 44C101.739 45.744 102.763 46.96 104.267 46.96ZM113.032 47.904C111.528 48.336 109.896 48.08 109.896 45.808V36.8H111.4V45.504C111.4 46.672 112.04 46.944 113 46.624L113.032 47.904ZM118.079 48.24C115.711 48.24 114.015 46.48 114.015 44C114.015 41.52 115.711 39.776 118.079 39.776C120.447 39.776 122.127 41.52 122.127 44C122.127 46.48 120.447 48.24 118.079 48.24ZM118.079 46.96C119.567 46.96 120.591 45.744 120.591 44C120.591 42.272 119.567 41.056 118.079 41.056C116.575 41.056 115.551 42.272 115.551 44C115.551 45.744 116.575 46.96 118.079 46.96ZM123.725 48V40.016H125.245L125.197 42.4C125.533 40.432 126.909 39.728 128.285 39.984V41.472C126.605 41.248 125.245 42.24 125.245 44.56V48H123.725ZM128.41 44.144V42.896H133.002V44.144H128.41ZM134.757 48V40.016H136.277L136.229 41.968C136.565 40.608 137.477 39.808 138.885 39.808C140.645 39.808 141.765 41.072 141.765 43.088V48H140.245V43.312C140.245 41.856 139.573 41.04 138.373 41.04C137.013 41.04 136.277 42.048 136.277 43.872V48H134.757ZM147.313 48.272C144.977 48.272 143.297 46.48 143.297 44C143.297 41.536 144.977 39.728 147.297 39.728C150.049 39.728 151.393 42.208 151.105 44.432H144.833C144.881 45.984 145.905 47.088 147.329 47.088C148.433 47.088 149.361 46.448 149.665 45.488L150.961 45.696C150.609 47.168 149.169 48.272 147.313 48.272ZM144.849 43.296H149.633C149.633 41.936 148.689 40.88 147.297 40.88C145.969 40.88 144.977 41.872 144.849 43.296ZM154.197 44.704C154.197 46.16 154.869 46.976 156.021 46.976C157.349 46.976 158.069 45.968 158.069 44.144V40.016H159.589V45.12V48H158.069L158.117 46.448C157.701 47.568 156.821 48.208 155.525 48.208C153.797 48.208 152.693 46.976 152.693 44.992V40.016H154.197V44.704ZM165.86 47.92C164.308 48.416 162.484 48 162.484 45.536V41.28H160.948V40.016H162.484V38.016H164.004V40.016H166.068V41.28H164.004V45.424C164.004 46.832 164.948 46.976 165.828 46.656L165.86 47.92ZM167.616 48V40.016H169.136L169.088 42.4C169.424 40.432 170.8 39.728 172.176 39.984V41.472C170.496 41.248 169.136 42.24 169.136 44.56V48H167.616ZM175.512 48.176C174.008 48.176 172.92 47.344 172.92 45.952C172.92 44.464 174.2 43.664 176.616 43.392L178.248 43.216V42.896C178.248 41.728 177.592 40.992 176.472 40.992C175.448 40.992 174.728 41.648 174.632 42.752L173.16 42.704C173.288 40.96 174.632 39.776 176.52 39.776C178.44 39.776 179.736 41.024 179.736 42.944V45.712C179.736 46.576 179.832 47.44 179.944 48H178.472C178.376 47.632 178.312 47.184 178.312 46.352C177.944 47.456 176.856 48.176 175.512 48.176ZM175.976 47.12C177.256 47.12 178.264 46.144 178.264 44.736V44.128L176.728 44.32C175.24 44.496 174.44 44.896 174.44 45.824C174.44 46.704 175.112 47.12 175.976 47.12ZM184.672 47.904C183.168 48.336 181.536 48.08 181.536 45.808V36.8H183.04V45.504C183.04 46.672 183.68 46.944 184.64 46.624L184.672 47.904ZM185.223 44.144V42.896H189.815V44.144H185.223ZM193.448 48L190.712 40.016H192.344L194.36 46.304L196.28 40.016H197.96L199.896 46.304L201.912 40.016H203.512L200.776 48H199.08L197.128 41.664L195.16 48H193.448ZM204.913 48V36.8H206.433V41.792C206.801 40.544 207.697 39.808 209.041 39.808C210.801 39.808 211.921 41.072 211.921 43.088V48H210.401V43.312C210.401 41.856 209.729 41.04 208.529 41.04C207.169 41.04 206.433 42.048 206.433 43.872V48H204.913ZM213.741 48V40.016H215.261V48H213.741ZM214.509 38.656C213.885 38.656 213.421 38.192 213.421 37.568C213.421 36.96 213.885 36.48 214.509 36.48C215.117 36.48 215.581 36.96 215.581 37.568C215.581 38.192 215.117 38.656 214.509 38.656ZM221.532 47.92C219.98 48.416 218.156 48 218.156 45.536V41.28H216.62V40.016H218.156V38.016H219.676V40.016H221.74V41.28H219.676V45.424C219.676 46.832 220.62 46.976 221.5 46.656L221.532 47.92ZM226.735 48.272C224.399 48.272 222.719 46.48 222.719 44C222.719 41.536 224.399 39.728 226.719 39.728C229.471 39.728 230.815 42.208 230.527 44.432H224.255C224.303 45.984 225.327 47.088 226.751 47.088C227.855 47.088 228.783 46.448 229.087 45.488L230.383 45.696C230.031 47.168 228.591 48.272 226.735 48.272ZM224.271 43.296H229.055C229.055 41.936 228.111 40.88 226.719 40.88C225.391 40.88 224.399 41.872 224.271 43.296ZM230.342 50.048C232.166 48.352 233.158 46.064 233.158 43.52C233.158 40.976 232.166 38.688 230.342 36.992L231.27 36.112C233.382 38.08 234.502 40.672 234.502 43.52C234.502 46.368 233.382 48.96 231.27 50.928L230.342 50.048Z" fill="#767676"/>
</svg>
