<svg width="360" height="72" viewBox="0 0 360 72" fill="none" xmlns="http://www.w3.org/2000/svg">
<mask id="path-1-inside-1_40_819" fill="white">
<path d="M0 0H360V72H0V0Z"/>
</mask>
<path d="M360 0H359V72H360H361V0H360Z" fill="#D9D9DB" mask="url(#path-1-inside-1_40_819)"/>
<rect x="16" y="12" width="48" height="48" rx="8" fill="black"/>
<path d="M80.736 27.24C78.368 27.24 76.656 25.464 76.656 23C76.656 20.568 78.384 18.776 80.736 18.776C82.768 18.776 84.4 20.088 84.528 21.976L83.04 22.104C82.912 20.936 81.936 20.088 80.72 20.088C79.248 20.088 78.176 21.32 78.176 23C78.176 24.888 79.392 25.896 80.72 25.896C81.872 25.896 82.912 25.128 83.056 23.832L84.544 23.944C84.432 25.896 82.8 27.24 80.736 27.24ZM89.9894 27.24C87.6214 27.24 85.9254 25.48 85.9254 23C85.9254 20.52 87.6214 18.776 89.9894 18.776C92.3574 18.776 94.0374 20.52 94.0374 23C94.0374 25.48 92.3574 27.24 89.9894 27.24ZM89.9894 25.96C91.4774 25.96 92.5014 24.744 92.5014 23C92.5014 21.272 91.4774 20.056 89.9894 20.056C88.4854 20.056 87.4614 21.272 87.4614 23C87.4614 24.744 88.4854 25.96 89.9894 25.96ZM98.9141 26.904C97.4101 27.336 95.7781 27.08 95.7781 24.808V15.8H97.2821V24.504C97.2821 25.672 97.9221 25.944 98.8821 25.624L98.9141 26.904ZM104.122 27.24C101.754 27.24 100.058 25.48 100.058 23C100.058 20.52 101.754 18.776 104.122 18.776C106.49 18.776 108.17 20.52 108.17 23C108.17 25.48 106.49 27.24 104.122 27.24ZM104.122 25.96C105.61 25.96 106.634 24.744 106.634 23C106.634 21.272 105.61 20.056 104.122 20.056C102.618 20.056 101.594 21.272 101.594 23C101.594 24.744 102.618 25.96 104.122 25.96ZM109.928 27V19.016H111.448L111.4 21.4C111.736 19.432 113.112 18.728 114.488 18.984V20.472C112.808 20.248 111.448 21.24 111.448 23.56V27H109.928ZM114.773 23.144V21.896H119.365V23.144H114.773ZM121.279 27V15.8H122.799V20.36C123.391 19.368 124.383 18.808 125.615 18.808C127.759 18.808 129.311 20.552 129.311 23.016C129.311 25.464 127.759 27.208 125.615 27.208C124.383 27.208 123.391 26.648 122.799 25.656V27H121.279ZM125.231 20.056C123.743 20.056 122.703 21.256 122.703 23.016C122.703 24.76 123.743 25.96 125.231 25.96C126.703 25.96 127.775 24.728 127.775 23.016C127.775 21.304 126.703 20.056 125.231 20.056ZM132.504 23.704C132.504 25.16 133.176 25.976 134.328 25.976C135.656 25.976 136.376 24.968 136.376 23.144V19.016H137.896V24.12V27H136.376L136.424 25.448C136.008 26.568 135.128 27.208 133.832 27.208C132.104 27.208 131 25.976 131 23.992V19.016H132.504V23.704ZM144.327 26.92C142.775 27.416 140.951 27 140.951 24.536V20.28H139.415V19.016H140.951V17.016H142.471V19.016H145.751V17.016H147.271V19.016H149.335V20.28H147.271V24.424C147.271 25.832 148.215 25.976 149.095 25.656L149.127 26.92C147.575 27.416 145.751 27 145.751 24.536V20.28H142.471V24.424C142.471 25.832 143.415 25.976 144.295 25.656L144.327 26.92ZM154.551 27.24C152.183 27.24 150.487 25.48 150.487 23C150.487 20.52 152.183 18.776 154.551 18.776C156.919 18.776 158.599 20.52 158.599 23C158.599 25.48 156.919 27.24 154.551 27.24ZM154.551 25.96C156.039 25.96 157.063 24.744 157.063 23C157.063 21.272 156.039 20.056 154.551 20.056C153.047 20.056 152.023 21.272 152.023 23C152.023 24.744 153.047 25.96 154.551 25.96ZM160.356 27V19.016H161.876L161.828 20.968C162.164 19.608 163.076 18.808 164.484 18.808C166.244 18.808 167.364 20.072 167.364 22.088V27H165.844V22.312C165.844 20.856 165.172 20.04 163.972 20.04C162.612 20.04 161.876 21.048 161.876 22.872V27H160.356ZM169.248 23.144V21.896H173.84V23.144H169.248ZM179.702 26.92C178.15 27.416 176.326 27 176.326 24.536V20.28H174.79V19.016H176.326V17.016H177.846V19.016H179.91V20.28H177.846V24.424C177.846 25.832 178.79 25.976 179.67 25.656L179.702 26.92ZM185.065 27.272C182.729 27.272 181.049 25.48 181.049 23C181.049 20.536 182.729 18.728 185.049 18.728C187.801 18.728 189.145 21.208 188.857 23.432H182.585C182.633 24.984 183.657 26.088 185.081 26.088C186.185 26.088 187.113 25.448 187.417 24.488L188.713 24.696C188.361 26.168 186.921 27.272 185.065 27.272ZM182.601 22.296H187.385C187.385 20.936 186.441 19.88 185.049 19.88C183.721 19.88 182.729 20.872 182.601 22.296ZM195.482 27L193.37 24.024L191.242 27H189.61L192.554 22.984L189.61 19.016H191.322L193.434 21.992L195.562 19.016H197.178L194.25 23.016L197.226 27H195.482ZM203.198 26.92C201.646 27.416 199.822 27 199.822 24.536V20.28H198.286V19.016H199.822V17.016H201.342V19.016H203.406V20.28H201.342V24.424C201.342 25.832 202.286 25.976 203.166 25.656L203.198 26.92ZM204.095 23.144V21.896H208.687V23.144H204.095ZM210.602 27V19.016H212.122V27H210.602ZM211.37 17.656C210.746 17.656 210.282 17.192 210.282 16.568C210.282 15.96 210.746 15.48 211.37 15.48C211.978 15.48 212.442 15.96 212.442 16.568C212.442 17.192 211.978 17.656 211.37 17.656ZM214.168 27V19.016H215.688L215.64 20.968C215.976 19.608 216.888 18.808 218.296 18.808C220.056 18.808 221.176 20.072 221.176 22.088V27H219.656V22.312C219.656 20.856 218.984 20.04 217.784 20.04C216.424 20.04 215.688 21.048 215.688 22.872V27H214.168ZM225.529 27L222.361 19.016H223.929L226.329 25.384L228.745 19.016H230.265L227.097 27H225.529ZM234.966 27.272C232.63 27.272 230.95 25.48 230.95 23C230.95 20.536 232.63 18.728 234.95 18.728C237.702 18.728 239.046 21.208 238.758 23.432H232.486C232.534 24.984 233.558 26.088 234.982 26.088C236.086 26.088 237.014 25.448 237.318 24.488L238.614 24.696C238.262 26.168 236.822 27.272 234.966 27.272ZM232.502 22.296H237.286C237.286 20.936 236.342 19.88 234.95 19.88C233.622 19.88 232.63 20.872 232.502 22.296ZM240.57 27V19.016H242.09L242.042 21.4C242.378 19.432 243.754 18.728 245.13 18.984V20.472C243.45 20.248 242.09 21.24 242.09 23.56V27H240.57ZM249.663 27.272C247.663 27.272 246.271 26.184 246.143 24.472L247.551 24.424C247.647 25.512 248.495 26.2 249.663 26.2C250.607 26.2 251.423 25.768 251.423 24.936C251.423 24.312 250.943 23.96 249.999 23.768L248.639 23.512C247.087 23.256 246.367 22.424 246.367 21.256C246.367 19.704 247.663 18.728 249.439 18.728C251.295 18.728 252.623 19.848 252.703 21.512L251.343 21.592C251.279 20.552 250.495 19.816 249.423 19.816C248.527 19.816 247.807 20.312 247.807 21.112C247.807 21.704 248.207 22.072 248.927 22.2L250.287 22.456C251.967 22.76 252.879 23.528 252.879 24.792C252.879 26.328 251.503 27.272 249.663 27.272ZM258.336 27.272C256 27.272 254.32 25.48 254.32 23C254.32 20.536 256 18.728 258.32 18.728C261.072 18.728 262.416 21.208 262.128 23.432H255.856C255.904 24.984 256.928 26.088 258.352 26.088C259.456 26.088 260.384 25.448 260.688 24.488L261.984 24.696C261.632 26.168 260.192 27.272 258.336 27.272ZM255.872 22.296H260.656C260.656 20.936 259.712 19.88 258.32 19.88C256.992 19.88 256 20.872 255.872 22.296ZM267.348 27.208C265.204 27.208 263.652 25.464 263.652 23C263.652 20.552 265.204 18.808 267.348 18.808C268.596 18.808 269.588 19.384 270.18 20.376V15.8H271.7V25.288V27H270.18V25.624C269.588 26.632 268.596 27.208 267.348 27.208ZM267.732 25.96C269.22 25.96 270.26 24.76 270.26 23C270.26 21.256 269.22 20.056 267.732 20.056C266.26 20.056 265.188 21.288 265.188 23C265.188 24.712 266.26 25.96 267.732 25.96Z" fill="#414141"/>
<path d="M80.592 49.76V48.24C78.352 48.016 76.8 46.544 76.784 44.496L78.32 44.384C78.368 45.76 79.28 46.736 80.592 46.976V42.992L80.368 42.944C78.304 42.544 77.152 41.424 77.152 39.776C77.152 37.936 78.544 36.704 80.592 36.544V35.2H81.776V36.576C83.712 36.864 85.072 38.272 85.136 40.192L83.584 40.288C83.536 39.056 82.832 38.144 81.776 37.856V41.68L81.968 41.712C84.304 42.16 85.456 43.2 85.456 44.96C85.456 46.768 83.968 48.064 81.776 48.24V49.76H80.592ZM78.72 39.664C78.72 40.592 79.392 41.184 80.512 41.44L80.592 41.456V37.792C79.488 37.936 78.72 38.656 78.72 39.664ZM81.776 46.992C83.04 46.816 83.888 46.096 83.888 45.056C83.888 44.048 83.248 43.536 81.824 43.216L81.776 43.2V46.992ZM90.2057 50.928C88.0938 48.96 86.9738 46.368 86.9738 43.52C86.9738 40.672 88.0938 38.08 90.2057 36.112L91.1338 36.992C89.3098 38.688 88.3178 40.976 88.3178 43.52C88.3178 46.064 89.3098 48.352 91.1338 50.048L90.2057 50.928ZM95.1735 48.24C92.8055 48.24 91.0935 46.464 91.0935 44C91.0935 41.568 92.8215 39.776 95.1735 39.776C97.2055 39.776 98.8375 41.088 98.9655 42.976L97.4775 43.104C97.3495 41.936 96.3735 41.088 95.1575 41.088C93.6855 41.088 92.6135 42.32 92.6135 44C92.6135 45.888 93.8295 46.896 95.1575 46.896C96.3095 46.896 97.3495 46.128 97.4935 44.832L98.9815 44.944C98.8695 46.896 97.2375 48.24 95.1735 48.24ZM104.267 48.24C101.899 48.24 100.203 46.48 100.203 44C100.203 41.52 101.899 39.776 104.267 39.776C106.635 39.776 108.315 41.52 108.315 44C108.315 46.48 106.635 48.24 104.267 48.24ZM104.267 46.96C105.755 46.96 106.779 45.744 106.779 44C106.779 42.272 105.755 41.056 104.267 41.056C102.763 41.056 101.739 42.272 101.739 44C101.739 45.744 102.763 46.96 104.267 46.96ZM113.032 47.904C111.528 48.336 109.896 48.08 109.896 45.808V36.8H111.4V45.504C111.4 46.672 112.04 46.944 113 46.624L113.032 47.904ZM118.079 48.24C115.711 48.24 114.015 46.48 114.015 44C114.015 41.52 115.711 39.776 118.079 39.776C120.447 39.776 122.127 41.52 122.127 44C122.127 46.48 120.447 48.24 118.079 48.24ZM118.079 46.96C119.567 46.96 120.591 45.744 120.591 44C120.591 42.272 119.567 41.056 118.079 41.056C116.575 41.056 115.551 42.272 115.551 44C115.551 45.744 116.575 46.96 118.079 46.96ZM123.725 48V40.016H125.245L125.197 42.4C125.533 40.432 126.909 39.728 128.285 39.984V41.472C126.605 41.248 125.245 42.24 125.245 44.56V48H123.725ZM128.41 44.144V42.896H133.002V44.144H128.41ZM134.757 48V40.016H136.277L136.229 41.968C136.565 40.608 137.477 39.808 138.885 39.808C140.645 39.808 141.765 41.072 141.765 43.088V48H140.245V43.312C140.245 41.856 139.573 41.04 138.373 41.04C137.013 41.04 136.277 42.048 136.277 43.872V48H134.757ZM147.313 48.272C144.977 48.272 143.297 46.48 143.297 44C143.297 41.536 144.977 39.728 147.297 39.728C150.049 39.728 151.393 42.208 151.105 44.432H144.833C144.881 45.984 145.905 47.088 147.329 47.088C148.433 47.088 149.361 46.448 149.665 45.488L150.961 45.696C150.609 47.168 149.169 48.272 147.313 48.272ZM144.849 43.296H149.633C149.633 41.936 148.689 40.88 147.297 40.88C145.969 40.88 144.977 41.872 144.849 43.296ZM154.197 44.704C154.197 46.16 154.869 46.976 156.021 46.976C157.349 46.976 158.069 45.968 158.069 44.144V40.016H159.589V45.12V48H158.069L158.117 46.448C157.701 47.568 156.821 48.208 155.525 48.208C153.797 48.208 152.693 46.976 152.693 44.992V40.016H154.197V44.704ZM165.86 47.92C164.308 48.416 162.484 48 162.484 45.536V41.28H160.948V40.016H162.484V38.016H164.004V40.016H166.068V41.28H164.004V45.424C164.004 46.832 164.948 46.976 165.828 46.656L165.86 47.92ZM167.616 48V40.016H169.136L169.088 42.4C169.424 40.432 170.8 39.728 172.176 39.984V41.472C170.496 41.248 169.136 42.24 169.136 44.56V48H167.616ZM175.512 48.176C174.008 48.176 172.92 47.344 172.92 45.952C172.92 44.464 174.2 43.664 176.616 43.392L178.248 43.216V42.896C178.248 41.728 177.592 40.992 176.472 40.992C175.448 40.992 174.728 41.648 174.632 42.752L173.16 42.704C173.288 40.96 174.632 39.776 176.52 39.776C178.44 39.776 179.736 41.024 179.736 42.944V45.712C179.736 46.576 179.832 47.44 179.944 48H178.472C178.376 47.632 178.312 47.184 178.312 46.352C177.944 47.456 176.856 48.176 175.512 48.176ZM175.976 47.12C177.256 47.12 178.264 46.144 178.264 44.736V44.128L176.728 44.32C175.24 44.496 174.44 44.896 174.44 45.824C174.44 46.704 175.112 47.12 175.976 47.12ZM184.672 47.904C183.168 48.336 181.536 48.08 181.536 45.808V36.8H183.04V45.504C183.04 46.672 183.68 46.944 184.64 46.624L184.672 47.904ZM185.223 44.144V42.896H189.815V44.144H185.223ZM191.569 48V36.8H193.089V41.36C193.681 40.368 194.673 39.808 195.905 39.808C198.049 39.808 199.601 41.552 199.601 44.016C199.601 46.464 198.049 48.208 195.905 48.208C194.673 48.208 193.681 47.648 193.089 46.656V48H191.569ZM195.521 41.056C194.033 41.056 192.993 42.256 192.993 44.016C192.993 45.76 194.033 46.96 195.521 46.96C196.993 46.96 198.065 45.728 198.065 44.016C198.065 42.304 196.993 41.056 195.521 41.056ZM204.266 47.904C202.762 48.336 201.13 48.08 201.13 45.808V36.8H202.634V45.504C202.634 46.672 203.274 46.944 204.234 46.624L204.266 47.904ZM207.856 48.176C206.352 48.176 205.264 47.344 205.264 45.952C205.264 44.464 206.544 43.664 208.96 43.392L210.592 43.216V42.896C210.592 41.728 209.936 40.992 208.816 40.992C207.792 40.992 207.072 41.648 206.976 42.752L205.504 42.704C205.632 40.96 206.976 39.776 208.864 39.776C210.784 39.776 212.08 41.024 212.08 42.944V45.712C212.08 46.576 212.176 47.44 212.288 48H210.816C210.72 47.632 210.656 47.184 210.656 46.352C210.288 47.456 209.2 48.176 207.856 48.176ZM208.32 47.12C209.6 47.12 210.608 46.144 210.608 44.736V44.128L209.072 44.32C207.584 44.496 206.784 44.896 206.784 45.824C206.784 46.704 207.456 47.12 208.32 47.12ZM217.705 48.24C215.337 48.24 213.625 46.464 213.625 44C213.625 41.568 215.353 39.776 217.705 39.776C219.737 39.776 221.369 41.088 221.497 42.976L220.009 43.104C219.881 41.936 218.905 41.088 217.689 41.088C216.217 41.088 215.145 42.32 215.145 44C215.145 45.888 216.361 46.896 217.689 46.896C218.841 46.896 219.881 46.128 220.025 44.832L221.513 44.944C221.401 46.896 219.769 48.24 217.705 48.24ZM223.022 48V36.8H224.526V43.616L228.446 40.016H230.254L227.006 43.008L230.334 48H228.638L225.982 43.952L224.526 45.28V48H223.022ZM230.529 50.048C232.353 48.352 233.345 46.064 233.345 43.52C233.345 40.976 232.353 38.688 230.529 36.992L231.457 36.112C233.569 38.08 234.689 40.672 234.689 43.52C234.689 46.368 233.569 48.96 231.457 50.928L230.529 50.048Z" fill="#767676"/>
</svg>
