<svg width="360" height="72" viewBox="0 0 360 72" fill="none" xmlns="http://www.w3.org/2000/svg">
<mask id="path-1-inside-1_7_196" fill="white">
<path d="M0 0H360V72H0V0Z"/>
</mask>
<path d="M360 0H359V72H360H361V0H360Z" fill="#D9D9DB" mask="url(#path-1-inside-1_7_196)"/>
<rect x="16" y="12" width="48" height="48" rx="8" fill="#F5F5F5"/>
<path d="M80.736 27.24C78.368 27.24 76.656 25.464 76.656 23C76.656 20.568 78.384 18.776 80.736 18.776C82.768 18.776 84.4 20.088 84.528 21.976L83.04 22.104C82.912 20.936 81.936 20.088 80.72 20.088C79.248 20.088 78.176 21.32 78.176 23C78.176 24.888 79.392 25.896 80.72 25.896C81.872 25.896 82.912 25.128 83.056 23.832L84.544 23.944C84.432 25.896 82.8 27.24 80.736 27.24ZM89.9894 27.24C87.6214 27.24 85.9254 25.48 85.9254 23C85.9254 20.52 87.6214 18.776 89.9894 18.776C92.3574 18.776 94.0374 20.52 94.0374 23C94.0374 25.48 92.3574 27.24 89.9894 27.24ZM89.9894 25.96C91.4774 25.96 92.5014 24.744 92.5014 23C92.5014 21.272 91.4774 20.056 89.9894 20.056C88.4854 20.056 87.4614 21.272 87.4614 23C87.4614 24.744 88.4854 25.96 89.9894 25.96ZM98.9141 26.904C97.4101 27.336 95.7781 27.08 95.7781 24.808V15.8H97.2821V24.504C97.2821 25.672 97.9221 25.944 98.8821 25.624L98.9141 26.904ZM104.122 27.24C101.754 27.24 100.058 25.48 100.058 23C100.058 20.52 101.754 18.776 104.122 18.776C106.49 18.776 108.17 20.52 108.17 23C108.17 25.48 106.49 27.24 104.122 27.24ZM104.122 25.96C105.61 25.96 106.634 24.744 106.634 23C106.634 21.272 105.61 20.056 104.122 20.056C102.618 20.056 101.594 21.272 101.594 23C101.594 24.744 102.618 25.96 104.122 25.96ZM109.928 27V19.016H111.448L111.4 21.4C111.736 19.432 113.112 18.728 114.488 18.984V20.472C112.808 20.248 111.448 21.24 111.448 23.56V27H109.928ZM114.773 23.144V21.896H119.365V23.144H114.773ZM124.338 27.272C122.338 27.272 120.946 26.184 120.818 24.472L122.226 24.424C122.322 25.512 123.17 26.2 124.338 26.2C125.282 26.2 126.098 25.768 126.098 24.936C126.098 24.312 125.618 23.96 124.674 23.768L123.314 23.512C121.762 23.256 121.042 22.424 121.042 21.256C121.042 19.704 122.338 18.728 124.114 18.728C125.97 18.728 127.298 19.848 127.378 21.512L126.018 21.592C125.954 20.552 125.17 19.816 124.098 19.816C123.202 19.816 122.482 20.312 122.482 21.112C122.482 21.704 122.882 22.072 123.602 22.2L124.962 22.456C126.642 22.76 127.554 23.528 127.554 24.792C127.554 26.328 126.178 27.272 124.338 27.272ZM130.723 23.704C130.723 25.16 131.395 25.976 132.547 25.976C133.875 25.976 134.595 24.968 134.595 23.144V19.016H136.115V24.12V27H134.595L134.643 25.448C134.227 26.568 133.347 27.208 132.051 27.208C130.323 27.208 129.219 25.976 129.219 23.992V19.016H130.723V23.704ZM138.161 27V19.016H139.681L139.633 21.4C139.969 19.432 141.345 18.728 142.721 18.984V20.472C141.041 20.248 139.681 21.24 139.681 23.56V27H138.161ZM145.173 18.104C145.173 15.992 146.949 15.384 148.485 15.704V16.92C147.605 16.648 146.693 16.84 146.693 18.104V19.016H148.549V20.28H146.693V27H145.173V20.28H143.685V19.016H145.173V18.104ZM152.19 27.176C150.686 27.176 149.598 26.344 149.598 24.952C149.598 23.464 150.878 22.664 153.294 22.392L154.926 22.216V21.896C154.926 20.728 154.27 19.992 153.15 19.992C152.126 19.992 151.406 20.648 151.31 21.752L149.838 21.704C149.966 19.96 151.31 18.776 153.198 18.776C155.118 18.776 156.414 20.024 156.414 21.944V24.712C156.414 25.576 156.51 26.44 156.622 27H155.15C155.054 26.632 154.99 26.184 154.99 25.352C154.622 26.456 153.534 27.176 152.19 27.176ZM152.654 26.12C153.934 26.12 154.942 25.144 154.942 23.736V23.128L153.406 23.32C151.918 23.496 151.118 23.896 151.118 24.824C151.118 25.704 151.79 26.12 152.654 26.12ZM162.199 27.24C159.831 27.24 158.119 25.464 158.119 23C158.119 20.568 159.847 18.776 162.199 18.776C164.231 18.776 165.863 20.088 165.991 21.976L164.503 22.104C164.375 20.936 163.399 20.088 162.183 20.088C160.711 20.088 159.639 21.32 159.639 23C159.639 24.888 160.855 25.896 162.183 25.896C163.335 25.896 164.375 25.128 164.519 23.832L166.007 23.944C165.895 25.896 164.263 27.24 162.199 27.24ZM171.404 27.272C169.068 27.272 167.388 25.48 167.388 23C167.388 20.536 169.068 18.728 171.388 18.728C174.14 18.728 175.484 21.208 175.196 23.432H168.924C168.972 24.984 169.996 26.088 171.42 26.088C172.524 26.088 173.452 25.448 173.756 24.488L175.052 24.696C174.7 26.168 173.26 27.272 171.404 27.272ZM168.94 22.296H173.724C173.724 20.936 172.78 19.88 171.388 19.88C170.06 19.88 169.068 20.872 168.94 22.296ZM176.975 23.144V21.896H181.567V23.144H176.975ZM186.539 27.272C184.539 27.272 183.147 26.184 183.019 24.472L184.427 24.424C184.523 25.512 185.371 26.2 186.539 26.2C187.483 26.2 188.299 25.768 188.299 24.936C188.299 24.312 187.819 23.96 186.875 23.768L185.515 23.512C183.963 23.256 183.243 22.424 183.243 21.256C183.243 19.704 184.539 18.728 186.315 18.728C188.171 18.728 189.499 19.848 189.579 21.512L188.219 21.592C188.155 20.552 187.371 19.816 186.299 19.816C185.403 19.816 184.683 20.312 184.683 21.112C184.683 21.704 185.083 22.072 185.803 22.2L187.163 22.456C188.843 22.76 189.755 23.528 189.755 24.792C189.755 26.328 188.379 27.272 186.539 27.272ZM192.925 23.704C192.925 25.16 193.597 25.976 194.749 25.976C196.077 25.976 196.797 24.968 196.797 23.144V19.016H198.317V24.12V27H196.797L196.845 25.448C196.429 26.568 195.549 27.208 194.253 27.208C192.525 27.208 191.421 25.976 191.421 23.992V19.016H192.925V23.704ZM200.363 27V15.8H201.883V20.36C202.475 19.368 203.467 18.808 204.699 18.808C206.843 18.808 208.395 20.552 208.395 23.016C208.395 25.464 206.843 27.208 204.699 27.208C203.467 27.208 202.475 26.648 201.883 25.656V27H200.363ZM204.315 20.056C202.827 20.056 201.787 21.256 201.787 23.016C201.787 24.76 202.827 25.96 204.315 25.96C205.787 25.96 206.859 24.728 206.859 23.016C206.859 21.304 205.787 20.056 204.315 20.056ZM214.361 26.92C212.809 27.416 210.985 27 210.985 24.536V20.28H209.449V19.016H210.985V17.016H212.505V19.016H214.569V20.28H212.505V24.424C212.505 25.832 213.449 25.976 214.329 25.656L214.361 26.92ZM219.349 26.904C217.845 27.336 216.213 27.08 216.213 24.808V15.8H217.717V24.504C217.717 25.672 218.357 25.944 219.317 25.624L219.349 26.904ZM224.509 27.272C222.173 27.272 220.493 25.48 220.493 23C220.493 20.536 222.173 18.728 224.493 18.728C227.245 18.728 228.589 21.208 228.301 23.432H222.029C222.077 24.984 223.101 26.088 224.525 26.088C225.629 26.088 226.557 25.448 226.861 24.488L228.157 24.696C227.805 26.168 226.365 27.272 224.509 27.272ZM222.045 22.296H226.829C226.829 20.936 225.885 19.88 224.493 19.88C223.165 19.88 222.173 20.872 222.045 22.296Z" fill="#414141"/>
<path d="M80.592 49.76V48.24C78.352 48.016 76.8 46.544 76.784 44.496L78.32 44.384C78.368 45.76 79.28 46.736 80.592 46.976V42.992L80.368 42.944C78.304 42.544 77.152 41.424 77.152 39.776C77.152 37.936 78.544 36.704 80.592 36.544V35.2H81.776V36.576C83.712 36.864 85.072 38.272 85.136 40.192L83.584 40.288C83.536 39.056 82.832 38.144 81.776 37.856V41.68L81.968 41.712C84.304 42.16 85.456 43.2 85.456 44.96C85.456 46.768 83.968 48.064 81.776 48.24V49.76H80.592ZM78.72 39.664C78.72 40.592 79.392 41.184 80.512 41.44L80.592 41.456V37.792C79.488 37.936 78.72 38.656 78.72 39.664ZM81.776 46.992C83.04 46.816 83.888 46.096 83.888 45.056C83.888 44.048 83.248 43.536 81.824 43.216L81.776 43.2V46.992ZM90.2057 50.928C88.0938 48.96 86.9738 46.368 86.9738 43.52C86.9738 40.672 88.0938 38.08 90.2057 36.112L91.1338 36.992C89.3098 38.688 88.3178 40.976 88.3178 43.52C88.3178 46.064 89.3098 48.352 91.1338 50.048L90.2057 50.928ZM95.1735 48.24C92.8055 48.24 91.0935 46.464 91.0935 44C91.0935 41.568 92.8215 39.776 95.1735 39.776C97.2055 39.776 98.8375 41.088 98.9655 42.976L97.4775 43.104C97.3495 41.936 96.3735 41.088 95.1575 41.088C93.6855 41.088 92.6135 42.32 92.6135 44C92.6135 45.888 93.8295 46.896 95.1575 46.896C96.3095 46.896 97.3495 46.128 97.4935 44.832L98.9815 44.944C98.8695 46.896 97.2375 48.24 95.1735 48.24ZM104.267 48.24C101.899 48.24 100.203 46.48 100.203 44C100.203 41.52 101.899 39.776 104.267 39.776C106.635 39.776 108.315 41.52 108.315 44C108.315 46.48 106.635 48.24 104.267 48.24ZM104.267 46.96C105.755 46.96 106.779 45.744 106.779 44C106.779 42.272 105.755 41.056 104.267 41.056C102.763 41.056 101.739 42.272 101.739 44C101.739 45.744 102.763 46.96 104.267 46.96ZM113.032 47.904C111.528 48.336 109.896 48.08 109.896 45.808V36.8H111.4V45.504C111.4 46.672 112.04 46.944 113 46.624L113.032 47.904ZM118.079 48.24C115.711 48.24 114.015 46.48 114.015 44C114.015 41.52 115.711 39.776 118.079 39.776C120.447 39.776 122.127 41.52 122.127 44C122.127 46.48 120.447 48.24 118.079 48.24ZM118.079 46.96C119.567 46.96 120.591 45.744 120.591 44C120.591 42.272 119.567 41.056 118.079 41.056C116.575 41.056 115.551 42.272 115.551 44C115.551 45.744 116.575 46.96 118.079 46.96ZM123.725 48V40.016H125.245L125.197 42.4C125.533 40.432 126.909 39.728 128.285 39.984V41.472C126.605 41.248 125.245 42.24 125.245 44.56V48H123.725ZM128.41 44.144V42.896H133.002V44.144H128.41ZM134.757 48V40.016H136.277L136.229 41.968C136.565 40.608 137.477 39.808 138.885 39.808C140.645 39.808 141.765 41.072 141.765 43.088V48H140.245V43.312C140.245 41.856 139.573 41.04 138.373 41.04C137.013 41.04 136.277 42.048 136.277 43.872V48H134.757ZM147.313 48.272C144.977 48.272 143.297 46.48 143.297 44C143.297 41.536 144.977 39.728 147.297 39.728C150.049 39.728 151.393 42.208 151.105 44.432H144.833C144.881 45.984 145.905 47.088 147.329 47.088C148.433 47.088 149.361 46.448 149.665 45.488L150.961 45.696C150.609 47.168 149.169 48.272 147.313 48.272ZM144.849 43.296H149.633C149.633 41.936 148.689 40.88 147.297 40.88C145.969 40.88 144.977 41.872 144.849 43.296ZM154.197 44.704C154.197 46.16 154.869 46.976 156.021 46.976C157.349 46.976 158.069 45.968 158.069 44.144V40.016H159.589V45.12V48H158.069L158.117 46.448C157.701 47.568 156.821 48.208 155.525 48.208C153.797 48.208 152.693 46.976 152.693 44.992V40.016H154.197V44.704ZM165.86 47.92C164.308 48.416 162.484 48 162.484 45.536V41.28H160.948V40.016H162.484V38.016H164.004V40.016H166.068V41.28H164.004V45.424C164.004 46.832 164.948 46.976 165.828 46.656L165.86 47.92ZM167.616 48V40.016H169.136L169.088 42.4C169.424 40.432 170.8 39.728 172.176 39.984V41.472C170.496 41.248 169.136 42.24 169.136 44.56V48H167.616ZM175.512 48.176C174.008 48.176 172.92 47.344 172.92 45.952C172.92 44.464 174.2 43.664 176.616 43.392L178.248 43.216V42.896C178.248 41.728 177.592 40.992 176.472 40.992C175.448 40.992 174.728 41.648 174.632 42.752L173.16 42.704C173.288 40.96 174.632 39.776 176.52 39.776C178.44 39.776 179.736 41.024 179.736 42.944V45.712C179.736 46.576 179.832 47.44 179.944 48H178.472C178.376 47.632 178.312 47.184 178.312 46.352C177.944 47.456 176.856 48.176 175.512 48.176ZM175.976 47.12C177.256 47.12 178.264 46.144 178.264 44.736V44.128L176.728 44.32C175.24 44.496 174.44 44.896 174.44 45.824C174.44 46.704 175.112 47.12 175.976 47.12ZM184.672 47.904C183.168 48.336 181.536 48.08 181.536 45.808V36.8H183.04V45.504C183.04 46.672 183.68 46.944 184.64 46.624L184.672 47.904ZM185.223 44.144V42.896H189.815V44.144H185.223ZM192.583 39.376C192.103 40.4 191.111 41.024 189.639 41.024V39.728C191.559 39.728 192.567 38.608 192.727 36.72H194.087V48H192.583V39.376ZM200.228 48.224C197.748 48.224 196.068 45.856 196.068 42.4C196.068 38.944 197.748 36.576 200.228 36.576C202.708 36.576 204.404 38.944 204.404 42.4C204.404 45.856 202.708 48.224 200.228 48.224ZM200.228 46.88C201.812 46.88 202.868 45.056 202.868 42.4C202.868 39.744 201.812 37.92 200.228 37.92C198.66 37.92 197.588 39.744 197.588 42.4C197.588 45.056 198.66 46.88 200.228 46.88ZM210.385 48.224C207.905 48.224 206.225 45.856 206.225 42.4C206.225 38.944 207.905 36.576 210.385 36.576C212.865 36.576 214.561 38.944 214.561 42.4C214.561 45.856 212.865 48.224 210.385 48.224ZM210.385 46.88C211.969 46.88 213.025 45.056 213.025 42.4C213.025 39.744 211.969 37.92 210.385 37.92C208.817 37.92 207.745 39.744 207.745 42.4C207.745 45.056 208.817 46.88 210.385 46.88ZM214.967 50.048C216.791 48.352 217.783 46.064 217.783 43.52C217.783 40.976 216.791 38.688 214.967 36.992L215.895 36.112C218.007 38.08 219.127 40.672 219.127 43.52C219.127 46.368 218.007 48.96 215.895 50.928L214.967 50.048Z" fill="#767676"/>
</svg>
