<svg width="360" height="72" viewBox="0 0 360 72" fill="none" xmlns="http://www.w3.org/2000/svg">
<mask id="path-1-inside-1_40_843" fill="white">
<path d="M0 0H360V72H0V0Z"/>
</mask>
<path d="M360 0H359V72H360H361V0H360Z" fill="#D9D9DB" mask="url(#path-1-inside-1_40_843)"/>
<rect x="16.5" y="12.5" width="47" height="47" rx="7.5" fill="white" stroke="#D9D9DB"/>
<path d="M80.736 27.24C78.368 27.24 76.656 25.464 76.656 23C76.656 20.568 78.384 18.776 80.736 18.776C82.768 18.776 84.4 20.088 84.528 21.976L83.04 22.104C82.912 20.936 81.936 20.088 80.72 20.088C79.248 20.088 78.176 21.32 78.176 23C78.176 24.888 79.392 25.896 80.72 25.896C81.872 25.896 82.912 25.128 83.056 23.832L84.544 23.944C84.432 25.896 82.8 27.24 80.736 27.24ZM89.9894 27.24C87.6214 27.24 85.9254 25.48 85.9254 23C85.9254 20.52 87.6214 18.776 89.9894 18.776C92.3574 18.776 94.0374 20.52 94.0374 23C94.0374 25.48 92.3574 27.24 89.9894 27.24ZM89.9894 25.96C91.4774 25.96 92.5014 24.744 92.5014 23C92.5014 21.272 91.4774 20.056 89.9894 20.056C88.4854 20.056 87.4614 21.272 87.4614 23C87.4614 24.744 88.4854 25.96 89.9894 25.96ZM98.9141 26.904C97.4101 27.336 95.7781 27.08 95.7781 24.808V15.8H97.2821V24.504C97.2821 25.672 97.9221 25.944 98.8821 25.624L98.9141 26.904ZM104.122 27.24C101.754 27.24 100.058 25.48 100.058 23C100.058 20.52 101.754 18.776 104.122 18.776C106.49 18.776 108.17 20.52 108.17 23C108.17 25.48 106.49 27.24 104.122 27.24ZM104.122 25.96C105.61 25.96 106.634 24.744 106.634 23C106.634 21.272 105.61 20.056 104.122 20.056C102.618 20.056 101.594 21.272 101.594 23C101.594 24.744 102.618 25.96 104.122 25.96ZM109.928 27V19.016H111.448L111.4 21.4C111.736 19.432 113.112 18.728 114.488 18.984V20.472C112.808 20.248 111.448 21.24 111.448 23.56V27H109.928ZM114.773 23.144V21.896H119.365V23.144H114.773ZM121.279 27V15.8H122.799V20.36C123.391 19.368 124.383 18.808 125.615 18.808C127.759 18.808 129.311 20.552 129.311 23.016C129.311 25.464 127.759 27.208 125.615 27.208C124.383 27.208 123.391 26.648 122.799 25.656V27H121.279ZM125.231 20.056C123.743 20.056 122.703 21.256 122.703 23.016C122.703 24.76 123.743 25.96 125.231 25.96C126.703 25.96 127.775 24.728 127.775 23.016C127.775 21.304 126.703 20.056 125.231 20.056ZM132.504 23.704C132.504 25.16 133.176 25.976 134.328 25.976C135.656 25.976 136.376 24.968 136.376 23.144V19.016H137.896V24.12V27H136.376L136.424 25.448C136.008 26.568 135.128 27.208 133.832 27.208C132.104 27.208 131 25.976 131 23.992V19.016H132.504V23.704ZM144.327 26.92C142.775 27.416 140.951 27 140.951 24.536V20.28H139.415V19.016H140.951V17.016H142.471V19.016H145.751V17.016H147.271V19.016H149.335V20.28H147.271V24.424C147.271 25.832 148.215 25.976 149.095 25.656L149.127 26.92C147.575 27.416 145.751 27 145.751 24.536V20.28H142.471V24.424C142.471 25.832 143.415 25.976 144.295 25.656L144.327 26.92ZM154.551 27.24C152.183 27.24 150.487 25.48 150.487 23C150.487 20.52 152.183 18.776 154.551 18.776C156.919 18.776 158.599 20.52 158.599 23C158.599 25.48 156.919 27.24 154.551 27.24ZM154.551 25.96C156.039 25.96 157.063 24.744 157.063 23C157.063 21.272 156.039 20.056 154.551 20.056C153.047 20.056 152.023 21.272 152.023 23C152.023 24.744 153.047 25.96 154.551 25.96ZM160.356 27V19.016H161.876L161.828 20.968C162.164 19.608 163.076 18.808 164.484 18.808C166.244 18.808 167.364 20.072 167.364 22.088V27H165.844V22.312C165.844 20.856 165.172 20.04 163.972 20.04C162.612 20.04 161.876 21.048 161.876 22.872V27H160.356ZM169.248 23.144V21.896H173.84V23.144H169.248ZM175.755 27V15.8H177.275V20.36C177.867 19.368 178.859 18.808 180.091 18.808C182.235 18.808 183.787 20.552 183.787 23.016C183.787 25.464 182.235 27.208 180.091 27.208C178.859 27.208 177.867 26.648 177.275 25.656V27H175.755ZM179.707 20.056C178.219 20.056 177.179 21.256 177.179 23.016C177.179 24.76 178.219 25.96 179.707 25.96C181.179 25.96 182.251 24.728 182.251 23.016C182.251 21.304 181.179 20.056 179.707 20.056ZM189.316 27.24C186.948 27.24 185.252 25.48 185.252 23C185.252 20.52 186.948 18.776 189.316 18.776C191.684 18.776 193.364 20.52 193.364 23C193.364 25.48 191.684 27.24 189.316 27.24ZM189.316 25.96C190.804 25.96 191.828 24.744 191.828 23C191.828 21.272 190.804 20.056 189.316 20.056C187.812 20.056 186.788 21.272 186.788 23C186.788 24.744 187.812 25.96 189.316 25.96ZM195.121 27V19.016H196.641L196.593 21.4C196.929 19.432 198.305 18.728 199.681 18.984V20.472C198.001 20.248 196.641 21.24 196.641 23.56V27H195.121ZM204.268 27.208C202.124 27.208 200.572 25.464 200.572 23C200.572 20.552 202.124 18.808 204.268 18.808C205.516 18.808 206.508 19.384 207.1 20.376V15.8H208.62V25.288V27H207.1V25.624C206.508 26.632 205.516 27.208 204.268 27.208ZM204.652 25.96C206.14 25.96 207.18 24.76 207.18 23C207.18 21.256 206.14 20.056 204.652 20.056C203.18 20.056 202.108 21.288 202.108 23C202.108 24.712 203.18 25.96 204.652 25.96ZM214.419 27.272C212.083 27.272 210.403 25.48 210.403 23C210.403 20.536 212.083 18.728 214.403 18.728C217.155 18.728 218.499 21.208 218.211 23.432H211.939C211.987 24.984 213.011 26.088 214.435 26.088C215.539 26.088 216.467 25.448 216.771 24.488L218.067 24.696C217.715 26.168 216.275 27.272 214.419 27.272ZM211.955 22.296H216.739C216.739 20.936 215.795 19.88 214.403 19.88C213.075 19.88 212.083 20.872 211.955 22.296ZM220.023 27V19.016H221.543L221.495 21.4C221.831 19.432 223.207 18.728 224.583 18.984V20.472C222.903 20.248 221.543 21.24 221.543 23.56V27H220.023ZM224.868 23.144V21.896H229.46V23.144H224.868ZM231.375 27V19.016H232.895V27H231.375ZM232.143 17.656C231.519 17.656 231.055 17.192 231.055 16.568C231.055 15.96 231.519 15.48 232.143 15.48C232.751 15.48 233.215 15.96 233.215 16.568C233.215 17.192 232.751 17.656 232.143 17.656ZM234.941 27V19.016H236.461L236.413 20.968C236.749 19.608 237.661 18.808 239.069 18.808C240.829 18.808 241.949 20.072 241.949 22.088V27H240.429V22.312C240.429 20.856 239.757 20.04 238.557 20.04C237.197 20.04 236.461 21.048 236.461 22.872V27H234.941ZM246.303 27L243.135 19.016H244.703L247.103 25.384L249.519 19.016H251.039L247.871 27H246.303ZM255.739 27.272C253.403 27.272 251.723 25.48 251.723 23C251.723 20.536 253.403 18.728 255.723 18.728C258.475 18.728 259.819 21.208 259.531 23.432H253.259C253.307 24.984 254.331 26.088 255.755 26.088C256.859 26.088 257.787 25.448 258.091 24.488L259.387 24.696C259.035 26.168 257.595 27.272 255.739 27.272ZM253.275 22.296H258.059C258.059 20.936 257.115 19.88 255.723 19.88C254.395 19.88 253.403 20.872 253.275 22.296ZM261.343 27V19.016H262.863L262.815 21.4C263.151 19.432 264.527 18.728 265.903 18.984V20.472C264.223 20.248 262.863 21.24 262.863 23.56V27H261.343ZM270.436 27.272C268.436 27.272 267.044 26.184 266.916 24.472L268.324 24.424C268.42 25.512 269.268 26.2 270.436 26.2C271.38 26.2 272.196 25.768 272.196 24.936C272.196 24.312 271.716 23.96 270.772 23.768L269.412 23.512C267.86 23.256 267.14 22.424 267.14 21.256C267.14 19.704 268.436 18.728 270.212 18.728C272.068 18.728 273.396 19.848 273.476 21.512L272.116 21.592C272.052 20.552 271.268 19.816 270.196 19.816C269.3 19.816 268.58 20.312 268.58 21.112C268.58 21.704 268.98 22.072 269.7 22.2L271.06 22.456C272.74 22.76 273.652 23.528 273.652 24.792C273.652 26.328 272.276 27.272 270.436 27.272ZM279.11 27.272C276.774 27.272 275.094 25.48 275.094 23C275.094 20.536 276.774 18.728 279.094 18.728C281.846 18.728 283.19 21.208 282.902 23.432H276.63C276.678 24.984 277.702 26.088 279.126 26.088C280.23 26.088 281.158 25.448 281.462 24.488L282.758 24.696C282.406 26.168 280.966 27.272 279.11 27.272ZM276.646 22.296H281.43C281.43 20.936 280.486 19.88 279.094 19.88C277.766 19.88 276.774 20.872 276.646 22.296Z" fill="#414141"/>
<path d="M80.592 49.76V48.24C78.352 48.016 76.8 46.544 76.784 44.496L78.32 44.384C78.368 45.76 79.28 46.736 80.592 46.976V42.992L80.368 42.944C78.304 42.544 77.152 41.424 77.152 39.776C77.152 37.936 78.544 36.704 80.592 36.544V35.2H81.776V36.576C83.712 36.864 85.072 38.272 85.136 40.192L83.584 40.288C83.536 39.056 82.832 38.144 81.776 37.856V41.68L81.968 41.712C84.304 42.16 85.456 43.2 85.456 44.96C85.456 46.768 83.968 48.064 81.776 48.24V49.76H80.592ZM78.72 39.664C78.72 40.592 79.392 41.184 80.512 41.44L80.592 41.456V37.792C79.488 37.936 78.72 38.656 78.72 39.664ZM81.776 46.992C83.04 46.816 83.888 46.096 83.888 45.056C83.888 44.048 83.248 43.536 81.824 43.216L81.776 43.2V46.992ZM90.2057 50.928C88.0938 48.96 86.9738 46.368 86.9738 43.52C86.9738 40.672 88.0938 38.08 90.2057 36.112L91.1338 36.992C89.3098 38.688 88.3178 40.976 88.3178 43.52C88.3178 46.064 89.3098 48.352 91.1338 50.048L90.2057 50.928ZM95.1735 48.24C92.8055 48.24 91.0935 46.464 91.0935 44C91.0935 41.568 92.8215 39.776 95.1735 39.776C97.2055 39.776 98.8375 41.088 98.9655 42.976L97.4775 43.104C97.3495 41.936 96.3735 41.088 95.1575 41.088C93.6855 41.088 92.6135 42.32 92.6135 44C92.6135 45.888 93.8295 46.896 95.1575 46.896C96.3095 46.896 97.3495 46.128 97.4935 44.832L98.9815 44.944C98.8695 46.896 97.2375 48.24 95.1735 48.24ZM104.267 48.24C101.899 48.24 100.203 46.48 100.203 44C100.203 41.52 101.899 39.776 104.267 39.776C106.635 39.776 108.315 41.52 108.315 44C108.315 46.48 106.635 48.24 104.267 48.24ZM104.267 46.96C105.755 46.96 106.779 45.744 106.779 44C106.779 42.272 105.755 41.056 104.267 41.056C102.763 41.056 101.739 42.272 101.739 44C101.739 45.744 102.763 46.96 104.267 46.96ZM113.032 47.904C111.528 48.336 109.896 48.08 109.896 45.808V36.8H111.4V45.504C111.4 46.672 112.04 46.944 113 46.624L113.032 47.904ZM118.079 48.24C115.711 48.24 114.015 46.48 114.015 44C114.015 41.52 115.711 39.776 118.079 39.776C120.447 39.776 122.127 41.52 122.127 44C122.127 46.48 120.447 48.24 118.079 48.24ZM118.079 46.96C119.567 46.96 120.591 45.744 120.591 44C120.591 42.272 119.567 41.056 118.079 41.056C116.575 41.056 115.551 42.272 115.551 44C115.551 45.744 116.575 46.96 118.079 46.96ZM123.725 48V40.016H125.245L125.197 42.4C125.533 40.432 126.909 39.728 128.285 39.984V41.472C126.605 41.248 125.245 42.24 125.245 44.56V48H123.725ZM128.41 44.144V42.896H133.002V44.144H128.41ZM134.757 48V40.016H136.277L136.229 41.968C136.565 40.608 137.477 39.808 138.885 39.808C140.645 39.808 141.765 41.072 141.765 43.088V48H140.245V43.312C140.245 41.856 139.573 41.04 138.373 41.04C137.013 41.04 136.277 42.048 136.277 43.872V48H134.757ZM147.313 48.272C144.977 48.272 143.297 46.48 143.297 44C143.297 41.536 144.977 39.728 147.297 39.728C150.049 39.728 151.393 42.208 151.105 44.432H144.833C144.881 45.984 145.905 47.088 147.329 47.088C148.433 47.088 149.361 46.448 149.665 45.488L150.961 45.696C150.609 47.168 149.169 48.272 147.313 48.272ZM144.849 43.296H149.633C149.633 41.936 148.689 40.88 147.297 40.88C145.969 40.88 144.977 41.872 144.849 43.296ZM154.197 44.704C154.197 46.16 154.869 46.976 156.021 46.976C157.349 46.976 158.069 45.968 158.069 44.144V40.016H159.589V45.12V48H158.069L158.117 46.448C157.701 47.568 156.821 48.208 155.525 48.208C153.797 48.208 152.693 46.976 152.693 44.992V40.016H154.197V44.704ZM165.86 47.92C164.308 48.416 162.484 48 162.484 45.536V41.28H160.948V40.016H162.484V38.016H164.004V40.016H166.068V41.28H164.004V45.424C164.004 46.832 164.948 46.976 165.828 46.656L165.86 47.92ZM167.616 48V40.016H169.136L169.088 42.4C169.424 40.432 170.8 39.728 172.176 39.984V41.472C170.496 41.248 169.136 42.24 169.136 44.56V48H167.616ZM175.512 48.176C174.008 48.176 172.92 47.344 172.92 45.952C172.92 44.464 174.2 43.664 176.616 43.392L178.248 43.216V42.896C178.248 41.728 177.592 40.992 176.472 40.992C175.448 40.992 174.728 41.648 174.632 42.752L173.16 42.704C173.288 40.96 174.632 39.776 176.52 39.776C178.44 39.776 179.736 41.024 179.736 42.944V45.712C179.736 46.576 179.832 47.44 179.944 48H178.472C178.376 47.632 178.312 47.184 178.312 46.352C177.944 47.456 176.856 48.176 175.512 48.176ZM175.976 47.12C177.256 47.12 178.264 46.144 178.264 44.736V44.128L176.728 44.32C175.24 44.496 174.44 44.896 174.44 45.824C174.44 46.704 175.112 47.12 175.976 47.12ZM184.672 47.904C183.168 48.336 181.536 48.08 181.536 45.808V36.8H183.04V45.504C183.04 46.672 183.68 46.944 184.64 46.624L184.672 47.904ZM185.223 44.144V42.896H189.815V44.144H185.223ZM193.448 48L190.712 40.016H192.344L194.36 46.304L196.28 40.016H197.96L199.896 46.304L201.912 40.016H203.512L200.776 48H199.08L197.128 41.664L195.16 48H193.448ZM204.913 48V36.8H206.433V41.792C206.801 40.544 207.697 39.808 209.041 39.808C210.801 39.808 211.921 41.072 211.921 43.088V48H210.401V43.312C210.401 41.856 209.729 41.04 208.529 41.04C207.169 41.04 206.433 42.048 206.433 43.872V48H204.913ZM213.741 48V40.016H215.261V48H213.741ZM214.509 38.656C213.885 38.656 213.421 38.192 213.421 37.568C213.421 36.96 213.885 36.48 214.509 36.48C215.117 36.48 215.581 36.96 215.581 37.568C215.581 38.192 215.117 38.656 214.509 38.656ZM221.532 47.92C219.98 48.416 218.156 48 218.156 45.536V41.28H216.62V40.016H218.156V38.016H219.676V40.016H221.74V41.28H219.676V45.424C219.676 46.832 220.62 46.976 221.5 46.656L221.532 47.92ZM226.735 48.272C224.399 48.272 222.719 46.48 222.719 44C222.719 41.536 224.399 39.728 226.719 39.728C229.471 39.728 230.815 42.208 230.527 44.432H224.255C224.303 45.984 225.327 47.088 226.751 47.088C227.855 47.088 228.783 46.448 229.087 45.488L230.383 45.696C230.031 47.168 228.591 48.272 226.735 48.272ZM224.271 43.296H229.055C229.055 41.936 228.111 40.88 226.719 40.88C225.391 40.88 224.399 41.872 224.271 43.296ZM230.342 50.048C232.166 48.352 233.158 46.064 233.158 43.52C233.158 40.976 232.166 38.688 230.342 36.992L231.27 36.112C233.382 38.08 234.502 40.672 234.502 43.52C234.502 46.368 233.382 48.96 231.27 50.928L230.342 50.048Z" fill="#767676"/>
</svg>
