<svg width="360" height="72" viewBox="0 0 360 72" fill="none" xmlns="http://www.w3.org/2000/svg">
<mask id="path-1-inside-1_7_78" fill="white">
<path d="M0 0H360V72H0V0Z"/>
</mask>
<path d="M360 0H359V72H360H361V0H360Z" fill="#D9D9DB" mask="url(#path-1-inside-1_7_78)"/>
<rect x="16" y="12" width="48" height="48" rx="8" fill="#F5F5F5"/>
<path d="M80.736 27.24C78.368 27.24 76.656 25.464 76.656 23C76.656 20.568 78.384 18.776 80.736 18.776C82.768 18.776 84.4 20.088 84.528 21.976L83.04 22.104C82.912 20.936 81.936 20.088 80.72 20.088C79.248 20.088 78.176 21.32 78.176 23C78.176 24.888 79.392 25.896 80.72 25.896C81.872 25.896 82.912 25.128 83.056 23.832L84.544 23.944C84.432 25.896 82.8 27.24 80.736 27.24ZM89.9894 27.24C87.6214 27.24 85.9254 25.48 85.9254 23C85.9254 20.52 87.6214 18.776 89.9894 18.776C92.3574 18.776 94.0374 20.52 94.0374 23C94.0374 25.48 92.3574 27.24 89.9894 27.24ZM89.9894 25.96C91.4774 25.96 92.5014 24.744 92.5014 23C92.5014 21.272 91.4774 20.056 89.9894 20.056C88.4854 20.056 87.4614 21.272 87.4614 23C87.4614 24.744 88.4854 25.96 89.9894 25.96ZM98.9141 26.904C97.4101 27.336 95.7781 27.08 95.7781 24.808V15.8H97.2821V24.504C97.2821 25.672 97.9221 25.944 98.8821 25.624L98.9141 26.904ZM104.122 27.24C101.754 27.24 100.058 25.48 100.058 23C100.058 20.52 101.754 18.776 104.122 18.776C106.49 18.776 108.17 20.52 108.17 23C108.17 25.48 106.49 27.24 104.122 27.24ZM104.122 25.96C105.61 25.96 106.634 24.744 106.634 23C106.634 21.272 105.61 20.056 104.122 20.056C102.618 20.056 101.594 21.272 101.594 23C101.594 24.744 102.618 25.96 104.122 25.96ZM109.928 27V19.016H111.448L111.4 21.4C111.736 19.432 113.112 18.728 114.488 18.984V20.472C112.808 20.248 111.448 21.24 111.448 23.56V27H109.928ZM114.773 23.144V21.896H119.365V23.144H114.773ZM121.279 27V19.016H122.799L122.751 20.968C123.087 19.608 123.999 18.808 125.407 18.808C127.167 18.808 128.287 20.072 128.287 22.088V27H126.767V22.312C126.767 20.856 126.095 20.04 124.895 20.04C123.535 20.04 122.799 21.048 122.799 22.872V27H121.279ZM133.995 27.272C131.659 27.272 129.979 25.48 129.979 23C129.979 20.536 131.659 18.728 133.979 18.728C136.731 18.728 138.075 21.208 137.787 23.432H131.515C131.563 24.984 132.587 26.088 134.011 26.088C135.115 26.088 136.043 25.448 136.347 24.488L137.643 24.696C137.291 26.168 135.851 27.272 133.995 27.272ZM131.531 22.296H136.315C136.315 20.936 135.371 19.88 133.979 19.88C132.651 19.88 131.659 20.872 131.531 22.296ZM141.039 23.704C141.039 25.16 141.711 25.976 142.863 25.976C144.191 25.976 144.911 24.968 144.911 23.144V19.016H146.431V24.12V27H144.911L144.959 25.448C144.543 26.568 143.663 27.208 142.367 27.208C140.639 27.208 139.535 25.976 139.535 23.992V19.016H141.039V23.704ZM152.863 26.92C151.311 27.416 149.487 27 149.487 24.536V20.28H147.951V19.016H149.487V17.016H151.007V19.016H153.071V20.28H151.007V24.424C151.007 25.832 151.951 25.976 152.831 25.656L152.863 26.92ZM154.778 27V19.016H156.298L156.25 21.4C156.586 19.432 157.962 18.728 159.338 18.984V20.472C157.658 20.248 156.298 21.24 156.298 23.56V27H154.778ZM162.834 27.176C161.33 27.176 160.242 26.344 160.242 24.952C160.242 23.464 161.522 22.664 163.938 22.392L165.57 22.216V21.896C165.57 20.728 164.914 19.992 163.794 19.992C162.77 19.992 162.05 20.648 161.954 21.752L160.482 21.704C160.61 19.96 161.954 18.776 163.842 18.776C165.762 18.776 167.058 20.024 167.058 21.944V24.712C167.058 25.576 167.154 26.44 167.266 27H165.794C165.698 26.632 165.634 26.184 165.634 25.352C165.266 26.456 164.178 27.176 162.834 27.176ZM163.298 26.12C164.578 26.12 165.586 25.144 165.586 23.736V23.128L164.05 23.32C162.562 23.496 161.762 23.896 161.762 24.824C161.762 25.704 162.434 26.12 163.298 26.12ZM172.155 26.904C170.651 27.336 169.019 27.08 169.019 24.808V15.8H170.523V24.504C170.523 25.672 171.163 25.944 172.123 25.624L172.155 26.904ZM172.865 23.144V21.896H177.457V23.144H172.865ZM180.386 18.376C179.906 19.4 178.914 20.024 177.442 20.024V18.728C179.362 18.728 180.37 17.608 180.53 15.72H181.89V27H180.386V18.376ZM188.191 27.224C185.711 27.224 184.031 24.856 184.031 21.4C184.031 17.944 185.711 15.576 188.191 15.576C190.671 15.576 192.367 17.944 192.367 21.4C192.367 24.856 190.671 27.224 188.191 27.224ZM188.191 25.88C189.775 25.88 190.831 24.056 190.831 21.4C190.831 18.744 189.775 16.92 188.191 16.92C186.623 16.92 185.551 18.744 185.551 21.4C185.551 24.056 186.623 25.88 188.191 25.88ZM198.507 27.224C196.027 27.224 194.347 24.856 194.347 21.4C194.347 17.944 196.027 15.576 198.507 15.576C200.987 15.576 202.683 17.944 202.683 21.4C202.683 24.856 200.987 27.224 198.507 27.224ZM198.507 25.88C200.091 25.88 201.147 24.056 201.147 21.4C201.147 18.744 200.091 16.92 198.507 16.92C196.939 16.92 195.867 18.744 195.867 21.4C195.867 24.056 196.939 25.88 198.507 25.88Z" fill="#414141"/>
<path d="M78.032 48L78.816 44.704H76.736V43.76H79.04L79.696 40.96H76.736V40.016H79.92L80.688 36.8H81.968L81.2 40.016H83.904L84.672 36.8H85.936L85.168 40.016H87.232V40.96H84.944L84.288 43.76H87.232V44.704H84.064L83.28 48H82L82.784 44.704H80.08L79.296 48H78.032ZM80.304 43.76H83.008L83.68 40.96H80.976L80.304 43.76ZM88.9314 48V36.8H96.0994V38.064H90.5154V41.824H95.7794V43.056H90.5154V48H88.9314ZM101.202 48.32C98.9457 48.32 97.4578 46.928 97.3298 44.992L98.8338 44.88C98.9457 46.32 100.018 47.072 101.218 47.072C102.466 47.072 103.602 46.192 103.602 44.576C103.602 43.008 102.482 42.08 101.186 42.08C100.354 42.08 99.5538 42.48 99.0738 43.232L97.5858 43.04L98.1298 36.8H104.85V38.064H99.4898L99.1378 42.048C99.6818 41.28 100.642 40.912 101.618 40.912C103.378 40.912 105.122 42.144 105.122 44.512C105.122 46.752 103.506 48.32 101.202 48.32ZM106.994 48V36.8H114.162V38.064H108.578V41.824H113.842V43.056H108.578V48H106.994ZM119.264 48.32C117.008 48.32 115.52 46.928 115.392 44.992L116.896 44.88C117.008 46.32 118.08 47.072 119.28 47.072C120.528 47.072 121.664 46.192 121.664 44.576C121.664 43.008 120.544 42.08 119.248 42.08C118.416 42.08 117.616 42.48 117.136 43.232L115.648 43.04L116.192 36.8H122.912V38.064H117.552L117.2 42.048C117.744 41.28 118.704 40.912 119.68 40.912C121.44 40.912 123.184 42.144 123.184 44.512C123.184 46.752 121.568 48.32 119.264 48.32ZM125.056 48V36.8H132.224V38.064H126.64V41.824H131.904V43.056H126.64V48H125.056ZM137.327 48.32C135.071 48.32 133.583 46.928 133.455 44.992L134.959 44.88C135.071 46.32 136.143 47.072 137.343 47.072C138.591 47.072 139.727 46.192 139.727 44.576C139.727 43.008 138.607 42.08 137.311 42.08C136.479 42.08 135.679 42.48 135.199 43.232L133.711 43.04L134.255 36.8H140.975V38.064H135.615L135.263 42.048C135.807 41.28 136.767 40.912 137.743 40.912C139.503 40.912 141.247 42.144 141.247 44.512C141.247 46.752 139.631 48.32 137.327 48.32Z" fill="#767676"/>
</svg>
