<svg width="360" height="72" viewBox="0 0 360 72" fill="none" xmlns="http://www.w3.org/2000/svg">
<mask id="path-1-inside-1_7_150" fill="white">
<path d="M0 0H360V72H0V0Z"/>
</mask>
<path d="M360 0H359V72H360H361V0H360Z" fill="#D9D9DB" mask="url(#path-1-inside-1_7_150)"/>
<rect x="16" y="12" width="48" height="48" rx="8" fill="#808080"/>
<path d="M80.736 27.24C78.368 27.24 76.656 25.464 76.656 23C76.656 20.568 78.384 18.776 80.736 18.776C82.768 18.776 84.4 20.088 84.528 21.976L83.04 22.104C82.912 20.936 81.936 20.088 80.72 20.088C79.248 20.088 78.176 21.32 78.176 23C78.176 24.888 79.392 25.896 80.72 25.896C81.872 25.896 82.912 25.128 83.056 23.832L84.544 23.944C84.432 25.896 82.8 27.24 80.736 27.24ZM89.9894 27.24C87.6214 27.24 85.9254 25.48 85.9254 23C85.9254 20.52 87.6214 18.776 89.9894 18.776C92.3574 18.776 94.0374 20.52 94.0374 23C94.0374 25.48 92.3574 27.24 89.9894 27.24ZM89.9894 25.96C91.4774 25.96 92.5014 24.744 92.5014 23C92.5014 21.272 91.4774 20.056 89.9894 20.056C88.4854 20.056 87.4614 21.272 87.4614 23C87.4614 24.744 88.4854 25.96 89.9894 25.96ZM98.9141 26.904C97.4101 27.336 95.7781 27.08 95.7781 24.808V15.8H97.2821V24.504C97.2821 25.672 97.9221 25.944 98.8821 25.624L98.9141 26.904ZM104.122 27.24C101.754 27.24 100.058 25.48 100.058 23C100.058 20.52 101.754 18.776 104.122 18.776C106.49 18.776 108.17 20.52 108.17 23C108.17 25.48 106.49 27.24 104.122 27.24ZM104.122 25.96C105.61 25.96 106.634 24.744 106.634 23C106.634 21.272 105.61 20.056 104.122 20.056C102.618 20.056 101.594 21.272 101.594 23C101.594 24.744 102.618 25.96 104.122 25.96ZM109.928 27V19.016H111.448L111.4 21.4C111.736 19.432 113.112 18.728 114.488 18.984V20.472C112.808 20.248 111.448 21.24 111.448 23.56V27H109.928ZM114.773 23.144V21.896H119.365V23.144H114.773ZM121.279 27V19.016H122.799L122.751 20.968C123.087 19.608 123.999 18.808 125.407 18.808C127.167 18.808 128.287 20.072 128.287 22.088V27H126.767V22.312C126.767 20.856 126.095 20.04 124.895 20.04C123.535 20.04 122.799 21.048 122.799 22.872V27H121.279ZM133.995 27.272C131.659 27.272 129.979 25.48 129.979 23C129.979 20.536 131.659 18.728 133.979 18.728C136.731 18.728 138.075 21.208 137.787 23.432H131.515C131.563 24.984 132.587 26.088 134.011 26.088C135.115 26.088 136.043 25.448 136.347 24.488L137.643 24.696C137.291 26.168 135.851 27.272 133.995 27.272ZM131.531 22.296H136.315C136.315 20.936 135.371 19.88 133.979 19.88C132.651 19.88 131.659 20.872 131.531 22.296ZM141.039 23.704C141.039 25.16 141.711 25.976 142.863 25.976C144.191 25.976 144.911 24.968 144.911 23.144V19.016H146.431V24.12V27H144.911L144.959 25.448C144.543 26.568 143.663 27.208 142.367 27.208C140.639 27.208 139.535 25.976 139.535 23.992V19.016H141.039V23.704ZM152.863 26.92C151.311 27.416 149.487 27 149.487 24.536V20.28H147.951V19.016H149.487V17.016H151.007V19.016H153.071V20.28H151.007V24.424C151.007 25.832 151.951 25.976 152.831 25.656L152.863 26.92ZM154.778 27V19.016H156.298L156.25 21.4C156.586 19.432 157.962 18.728 159.338 18.984V20.472C157.658 20.248 156.298 21.24 156.298 23.56V27H154.778ZM162.834 27.176C161.33 27.176 160.242 26.344 160.242 24.952C160.242 23.464 161.522 22.664 163.938 22.392L165.57 22.216V21.896C165.57 20.728 164.914 19.992 163.794 19.992C162.77 19.992 162.05 20.648 161.954 21.752L160.482 21.704C160.61 19.96 161.954 18.776 163.842 18.776C165.762 18.776 167.058 20.024 167.058 21.944V24.712C167.058 25.576 167.154 26.44 167.266 27H165.794C165.698 26.632 165.634 26.184 165.634 25.352C165.266 26.456 164.178 27.176 162.834 27.176ZM163.298 26.12C164.578 26.12 165.586 25.144 165.586 23.736V23.128L164.05 23.32C162.562 23.496 161.762 23.896 161.762 24.824C161.762 25.704 162.434 26.12 163.298 26.12ZM172.155 26.904C170.651 27.336 169.019 27.08 169.019 24.808V15.8H170.523V24.504C170.523 25.672 171.163 25.944 172.123 25.624L172.155 26.904ZM172.865 23.144V21.896H177.457V23.144H172.865ZM179.369 27C179.369 23.176 180.905 19.288 183.449 17.096H177.097V15.8H184.745V17.016C182.377 19.24 180.953 23.208 180.953 27H179.369ZM190.003 27.224C187.523 27.224 185.843 24.856 185.843 21.4C185.843 17.944 187.523 15.576 190.003 15.576C192.483 15.576 194.179 17.944 194.179 21.4C194.179 24.856 192.483 27.224 190.003 27.224ZM190.003 25.88C191.587 25.88 192.643 24.056 192.643 21.4C192.643 18.744 191.587 16.92 190.003 16.92C188.435 16.92 187.363 18.744 187.363 21.4C187.363 24.056 188.435 25.88 190.003 25.88ZM200.319 27.224C197.839 27.224 196.159 24.856 196.159 21.4C196.159 17.944 197.839 15.576 200.319 15.576C202.799 15.576 204.495 17.944 204.495 21.4C204.495 24.856 202.799 27.224 200.319 27.224ZM200.319 25.88C201.903 25.88 202.959 24.056 202.959 21.4C202.959 18.744 201.903 16.92 200.319 16.92C198.751 16.92 197.679 18.744 197.679 21.4C197.679 24.056 198.751 25.88 200.319 25.88Z" fill="#414141"/>
<path d="M78.032 48L78.816 44.704H76.736V43.76H79.04L79.696 40.96H76.736V40.016H79.92L80.688 36.8H81.968L81.2 40.016H83.904L84.672 36.8H85.936L85.168 40.016H87.232V40.96H84.944L84.288 43.76H87.232V44.704H84.064L83.28 48H82L82.784 44.704H80.08L79.296 48H78.032ZM80.304 43.76H83.008L83.68 40.96H80.976L80.304 43.76ZM90.1136 48C90.1136 44.176 91.6496 40.288 94.1936 38.096H87.8416V36.8H95.4896V38.016C93.1216 40.24 91.6976 44.208 91.6976 48H90.1136ZM100.762 48.32C97.9461 48.32 96.4901 45.92 96.4901 42.448C96.4901 38.736 98.0741 36.48 100.746 36.48C102.874 36.48 104.426 37.904 104.538 40.048L103.082 40.144C102.986 38.688 102.074 37.744 100.682 37.744C98.7781 37.744 97.9621 39.632 97.9621 42.24C97.9621 42.672 97.9941 43.072 98.0421 43.376C98.3141 41.952 99.5141 41.056 101.034 41.056C103.002 41.056 104.666 42.384 104.666 44.656C104.666 46.848 103.066 48.32 100.762 48.32ZM100.746 47.136C102.154 47.136 103.146 46.112 103.146 44.672C103.146 43.232 102.154 42.224 100.746 42.224C99.3701 42.224 98.3621 43.2 98.3621 44.592C98.3621 46.08 99.3701 47.136 100.746 47.136ZM108.051 48C108.051 44.176 109.587 40.288 112.131 38.096H105.779V36.8H113.427V38.016C111.059 40.24 109.635 44.208 109.635 48H108.051ZM118.7 48.32C115.884 48.32 114.428 45.92 114.428 42.448C114.428 38.736 116.012 36.48 118.684 36.48C120.812 36.48 122.364 37.904 122.476 40.048L121.02 40.144C120.924 38.688 120.012 37.744 118.62 37.744C116.716 37.744 115.9 39.632 115.9 42.24C115.9 42.672 115.932 43.072 115.98 43.376C116.252 41.952 117.452 41.056 118.972 41.056C120.94 41.056 122.604 42.384 122.604 44.656C122.604 46.848 121.004 48.32 118.7 48.32ZM118.684 47.136C120.092 47.136 121.084 46.112 121.084 44.672C121.084 43.232 120.092 42.224 118.684 42.224C117.308 42.224 116.3 43.2 116.3 44.592C116.3 46.08 117.308 47.136 118.684 47.136ZM125.989 48C125.989 44.176 127.525 40.288 130.069 38.096H123.717V36.8H131.365V38.016C128.997 40.24 127.573 44.208 127.573 48H125.989ZM136.637 48.32C133.821 48.32 132.365 45.92 132.365 42.448C132.365 38.736 133.949 36.48 136.621 36.48C138.749 36.48 140.301 37.904 140.413 40.048L138.957 40.144C138.861 38.688 137.949 37.744 136.557 37.744C134.653 37.744 133.837 39.632 133.837 42.24C133.837 42.672 133.869 43.072 133.917 43.376C134.189 41.952 135.389 41.056 136.909 41.056C138.877 41.056 140.541 42.384 140.541 44.656C140.541 46.848 138.941 48.32 136.637 48.32ZM136.621 47.136C138.029 47.136 139.021 46.112 139.021 44.672C139.021 43.232 138.029 42.224 136.621 42.224C135.245 42.224 134.237 43.2 134.237 44.592C134.237 46.08 135.245 47.136 136.621 47.136Z" fill="#767676"/>
</svg>
