<svg width="360" height="72" viewBox="0 0 360 72" fill="none" xmlns="http://www.w3.org/2000/svg">
<mask id="path-1-inside-1_7_90" fill="white">
<path d="M0 0H360V72H0V0Z"/>
</mask>
<path d="M360 0H359V72H360H361V0H360Z" fill="#D9D9DB" mask="url(#path-1-inside-1_7_90)"/>
<rect x="16" y="12" width="48" height="48" rx="8" fill="#A0A0A0"/>
<path d="M80.736 27.24C78.368 27.24 76.656 25.464 76.656 23C76.656 20.568 78.384 18.776 80.736 18.776C82.768 18.776 84.4 20.088 84.528 21.976L83.04 22.104C82.912 20.936 81.936 20.088 80.72 20.088C79.248 20.088 78.176 21.32 78.176 23C78.176 24.888 79.392 25.896 80.72 25.896C81.872 25.896 82.912 25.128 83.056 23.832L84.544 23.944C84.432 25.896 82.8 27.24 80.736 27.24ZM89.9894 27.24C87.6214 27.24 85.9254 25.48 85.9254 23C85.9254 20.52 87.6214 18.776 89.9894 18.776C92.3574 18.776 94.0374 20.52 94.0374 23C94.0374 25.48 92.3574 27.24 89.9894 27.24ZM89.9894 25.96C91.4774 25.96 92.5014 24.744 92.5014 23C92.5014 21.272 91.4774 20.056 89.9894 20.056C88.4854 20.056 87.4614 21.272 87.4614 23C87.4614 24.744 88.4854 25.96 89.9894 25.96ZM98.9141 26.904C97.4101 27.336 95.7781 27.08 95.7781 24.808V15.8H97.2821V24.504C97.2821 25.672 97.9221 25.944 98.8821 25.624L98.9141 26.904ZM104.122 27.24C101.754 27.24 100.058 25.48 100.058 23C100.058 20.52 101.754 18.776 104.122 18.776C106.49 18.776 108.17 20.52 108.17 23C108.17 25.48 106.49 27.24 104.122 27.24ZM104.122 25.96C105.61 25.96 106.634 24.744 106.634 23C106.634 21.272 105.61 20.056 104.122 20.056C102.618 20.056 101.594 21.272 101.594 23C101.594 24.744 102.618 25.96 104.122 25.96ZM109.928 27V19.016H111.448L111.4 21.4C111.736 19.432 113.112 18.728 114.488 18.984V20.472C112.808 20.248 111.448 21.24 111.448 23.56V27H109.928ZM114.773 23.144V21.896H119.365V23.144H114.773ZM121.279 27V19.016H122.799L122.751 20.968C123.087 19.608 123.999 18.808 125.407 18.808C127.167 18.808 128.287 20.072 128.287 22.088V27H126.767V22.312C126.767 20.856 126.095 20.04 124.895 20.04C123.535 20.04 122.799 21.048 122.799 22.872V27H121.279ZM133.995 27.272C131.659 27.272 129.979 25.48 129.979 23C129.979 20.536 131.659 18.728 133.979 18.728C136.731 18.728 138.075 21.208 137.787 23.432H131.515C131.563 24.984 132.587 26.088 134.011 26.088C135.115 26.088 136.043 25.448 136.347 24.488L137.643 24.696C137.291 26.168 135.851 27.272 133.995 27.272ZM131.531 22.296H136.315C136.315 20.936 135.371 19.88 133.979 19.88C132.651 19.88 131.659 20.872 131.531 22.296ZM141.039 23.704C141.039 25.16 141.711 25.976 142.863 25.976C144.191 25.976 144.911 24.968 144.911 23.144V19.016H146.431V24.12V27H144.911L144.959 25.448C144.543 26.568 143.663 27.208 142.367 27.208C140.639 27.208 139.535 25.976 139.535 23.992V19.016H141.039V23.704ZM152.863 26.92C151.311 27.416 149.487 27 149.487 24.536V20.28H147.951V19.016H149.487V17.016H151.007V19.016H153.071V20.28H151.007V24.424C151.007 25.832 151.951 25.976 152.831 25.656L152.863 26.92ZM154.778 27V19.016H156.298L156.25 21.4C156.586 19.432 157.962 18.728 159.338 18.984V20.472C157.658 20.248 156.298 21.24 156.298 23.56V27H154.778ZM162.834 27.176C161.33 27.176 160.242 26.344 160.242 24.952C160.242 23.464 161.522 22.664 163.938 22.392L165.57 22.216V21.896C165.57 20.728 164.914 19.992 163.794 19.992C162.77 19.992 162.05 20.648 161.954 21.752L160.482 21.704C160.61 19.96 161.954 18.776 163.842 18.776C165.762 18.776 167.058 20.024 167.058 21.944V24.712C167.058 25.576 167.154 26.44 167.266 27H165.794C165.698 26.632 165.634 26.184 165.634 25.352C165.266 26.456 164.178 27.176 162.834 27.176ZM163.298 26.12C164.578 26.12 165.586 25.144 165.586 23.736V23.128L164.05 23.32C162.562 23.496 161.762 23.896 161.762 24.824C161.762 25.704 162.434 26.12 163.298 26.12ZM172.155 26.904C170.651 27.336 169.019 27.08 169.019 24.808V15.8H170.523V24.504C170.523 25.672 171.163 25.944 172.123 25.624L172.155 26.904ZM172.865 23.144V21.896H177.457V23.144H172.865ZM182.864 27.32C180.608 27.32 179.12 25.928 178.992 23.992L180.496 23.88C180.608 25.32 181.68 26.072 182.88 26.072C184.128 26.072 185.264 25.192 185.264 23.576C185.264 22.008 184.144 21.08 182.848 21.08C182.016 21.08 181.216 21.48 180.736 22.232L179.248 22.04L179.792 15.8H186.512V17.064H181.152L180.8 21.048C181.344 20.28 182.304 19.912 183.28 19.912C185.04 19.912 186.784 21.144 186.784 23.512C186.784 25.752 185.168 27.32 182.864 27.32ZM192.816 27.224C190.336 27.224 188.656 24.856 188.656 21.4C188.656 17.944 190.336 15.576 192.816 15.576C195.296 15.576 196.992 17.944 196.992 21.4C196.992 24.856 195.296 27.224 192.816 27.224ZM192.816 25.88C194.4 25.88 195.456 24.056 195.456 21.4C195.456 18.744 194.4 16.92 192.816 16.92C191.248 16.92 190.176 18.744 190.176 21.4C190.176 24.056 191.248 25.88 192.816 25.88ZM203.132 27.224C200.652 27.224 198.972 24.856 198.972 21.4C198.972 17.944 200.652 15.576 203.132 15.576C205.612 15.576 207.308 17.944 207.308 21.4C207.308 24.856 205.612 27.224 203.132 27.224ZM203.132 25.88C204.716 25.88 205.772 24.056 205.772 21.4C205.772 18.744 204.716 16.92 203.132 16.92C201.564 16.92 200.492 18.744 200.492 21.4C200.492 24.056 201.564 25.88 203.132 25.88Z" fill="#414141"/>
<path d="M78.032 48L78.816 44.704H76.736V43.76H79.04L79.696 40.96H76.736V40.016H79.92L80.688 36.8H81.968L81.2 40.016H83.904L84.672 36.8H85.936L85.168 40.016H87.232V40.96H84.944L84.288 43.76H87.232V44.704H84.064L83.28 48H82L82.784 44.704H80.08L79.296 48H78.032ZM80.304 43.76H83.008L83.68 40.96H80.976L80.304 43.76ZM87.698 48L92.018 36.8H94.05L98.354 48H96.722L95.522 44.848H90.45L89.25 48H87.698ZM90.914 43.616H95.058L92.994 38.176L90.914 43.616ZM103.244 48.224C100.764 48.224 99.0839 45.856 99.0839 42.4C99.0839 38.944 100.764 36.576 103.244 36.576C105.724 36.576 107.42 38.944 107.42 42.4C107.42 45.856 105.724 48.224 103.244 48.224ZM103.244 46.88C104.828 46.88 105.884 45.056 105.884 42.4C105.884 39.744 104.828 37.92 103.244 37.92C101.676 37.92 100.604 39.744 100.604 42.4C100.604 45.056 101.676 46.88 103.244 46.88ZM108.089 48L112.409 36.8H114.441L118.745 48H117.113L115.913 44.848H110.841L109.641 48H108.089ZM111.305 43.616H115.449L113.385 38.176L111.305 43.616ZM123.635 48.224C121.155 48.224 119.475 45.856 119.475 42.4C119.475 38.944 121.155 36.576 123.635 36.576C126.115 36.576 127.811 38.944 127.811 42.4C127.811 45.856 126.115 48.224 123.635 48.224ZM123.635 46.88C125.219 46.88 126.275 45.056 126.275 42.4C126.275 39.744 125.219 37.92 123.635 37.92C122.067 37.92 120.995 39.744 120.995 42.4C120.995 45.056 122.067 46.88 123.635 46.88ZM128.479 48L132.799 36.8H134.831L139.135 48H137.503L136.303 44.848H131.231L130.031 48H128.479ZM131.695 43.616H135.839L133.775 38.176L131.695 43.616ZM144.025 48.224C141.545 48.224 139.865 45.856 139.865 42.4C139.865 38.944 141.545 36.576 144.025 36.576C146.505 36.576 148.201 38.944 148.201 42.4C148.201 45.856 146.505 48.224 144.025 48.224ZM144.025 46.88C145.609 46.88 146.665 45.056 146.665 42.4C146.665 39.744 145.609 37.92 144.025 37.92C142.457 37.92 141.385 39.744 141.385 42.4C141.385 45.056 142.457 46.88 144.025 46.88Z" fill="#767676"/>
</svg>
