<svg width="360" height="72" viewBox="0 0 360 72" fill="none" xmlns="http://www.w3.org/2000/svg">
<mask id="path-1-inside-1_40_825" fill="white">
<path d="M0 0H360V72H0V0Z"/>
</mask>
<path d="M360 0H359V72H360H361V0H360Z" fill="#D9D9DB" mask="url(#path-1-inside-1_40_825)"/>
<rect x="16" y="12" width="48" height="48" rx="8" fill="#BC0F0F"/>
<path d="M80.736 27.24C78.368 27.24 76.656 25.464 76.656 23C76.656 20.568 78.384 18.776 80.736 18.776C82.768 18.776 84.4 20.088 84.528 21.976L83.04 22.104C82.912 20.936 81.936 20.088 80.72 20.088C79.248 20.088 78.176 21.32 78.176 23C78.176 24.888 79.392 25.896 80.72 25.896C81.872 25.896 82.912 25.128 83.056 23.832L84.544 23.944C84.432 25.896 82.8 27.24 80.736 27.24ZM89.9894 27.24C87.6214 27.24 85.9254 25.48 85.9254 23C85.9254 20.52 87.6214 18.776 89.9894 18.776C92.3574 18.776 94.0374 20.52 94.0374 23C94.0374 25.48 92.3574 27.24 89.9894 27.24ZM89.9894 25.96C91.4774 25.96 92.5014 24.744 92.5014 23C92.5014 21.272 91.4774 20.056 89.9894 20.056C88.4854 20.056 87.4614 21.272 87.4614 23C87.4614 24.744 88.4854 25.96 89.9894 25.96ZM98.9141 26.904C97.4101 27.336 95.7781 27.08 95.7781 24.808V15.8H97.2821V24.504C97.2821 25.672 97.9221 25.944 98.8821 25.624L98.9141 26.904ZM104.122 27.24C101.754 27.24 100.058 25.48 100.058 23C100.058 20.52 101.754 18.776 104.122 18.776C106.49 18.776 108.17 20.52 108.17 23C108.17 25.48 106.49 27.24 104.122 27.24ZM104.122 25.96C105.61 25.96 106.634 24.744 106.634 23C106.634 21.272 105.61 20.056 104.122 20.056C102.618 20.056 101.594 21.272 101.594 23C101.594 24.744 102.618 25.96 104.122 25.96ZM109.928 27V19.016H111.448L111.4 21.4C111.736 19.432 113.112 18.728 114.488 18.984V20.472C112.808 20.248 111.448 21.24 111.448 23.56V27H109.928ZM114.773 23.144V21.896H119.365V23.144H114.773ZM121.279 27V15.8H122.799V20.36C123.391 19.368 124.383 18.808 125.615 18.808C127.759 18.808 129.311 20.552 129.311 23.016C129.311 25.464 127.759 27.208 125.615 27.208C124.383 27.208 123.391 26.648 122.799 25.656V27H121.279ZM125.231 20.056C123.743 20.056 122.703 21.256 122.703 23.016C122.703 24.76 123.743 25.96 125.231 25.96C126.703 25.96 127.775 24.728 127.775 23.016C127.775 21.304 126.703 20.056 125.231 20.056ZM132.504 23.704C132.504 25.16 133.176 25.976 134.328 25.976C135.656 25.976 136.376 24.968 136.376 23.144V19.016H137.896V24.12V27H136.376L136.424 25.448C136.008 26.568 135.128 27.208 133.832 27.208C132.104 27.208 131 25.976 131 23.992V19.016H132.504V23.704ZM144.327 26.92C142.775 27.416 140.951 27 140.951 24.536V20.28H139.415V19.016H140.951V17.016H142.471V19.016H145.751V17.016H147.271V19.016H149.335V20.28H147.271V24.424C147.271 25.832 148.215 25.976 149.095 25.656L149.127 26.92C147.575 27.416 145.751 27 145.751 24.536V20.28H142.471V24.424C142.471 25.832 143.415 25.976 144.295 25.656L144.327 26.92ZM154.551 27.24C152.183 27.24 150.487 25.48 150.487 23C150.487 20.52 152.183 18.776 154.551 18.776C156.919 18.776 158.599 20.52 158.599 23C158.599 25.48 156.919 27.24 154.551 27.24ZM154.551 25.96C156.039 25.96 157.063 24.744 157.063 23C157.063 21.272 156.039 20.056 154.551 20.056C153.047 20.056 152.023 21.272 152.023 23C152.023 24.744 153.047 25.96 154.551 25.96ZM160.356 27V19.016H161.876L161.828 20.968C162.164 19.608 163.076 18.808 164.484 18.808C166.244 18.808 167.364 20.072 167.364 22.088V27H165.844V22.312C165.844 20.856 165.172 20.04 163.972 20.04C162.612 20.04 161.876 21.048 161.876 22.872V27H160.356ZM169.248 23.144V21.896H173.84V23.144H169.248ZM175.755 27V15.8H177.275V20.36C177.867 19.368 178.859 18.808 180.091 18.808C182.235 18.808 183.787 20.552 183.787 23.016C183.787 25.464 182.235 27.208 180.091 27.208C178.859 27.208 177.867 26.648 177.275 25.656V27H175.755ZM179.707 20.056C178.219 20.056 177.179 21.256 177.179 23.016C177.179 24.76 178.219 25.96 179.707 25.96C181.179 25.96 182.251 24.728 182.251 23.016C182.251 21.304 181.179 20.056 179.707 20.056ZM189.316 27.24C186.948 27.24 185.252 25.48 185.252 23C185.252 20.52 186.948 18.776 189.316 18.776C191.684 18.776 193.364 20.52 193.364 23C193.364 25.48 191.684 27.24 189.316 27.24ZM189.316 25.96C190.804 25.96 191.828 24.744 191.828 23C191.828 21.272 190.804 20.056 189.316 20.056C187.812 20.056 186.788 21.272 186.788 23C186.788 24.744 187.812 25.96 189.316 25.96ZM195.121 27V19.016H196.641L196.593 21.4C196.929 19.432 198.305 18.728 199.681 18.984V20.472C198.001 20.248 196.641 21.24 196.641 23.56V27H195.121ZM204.268 27.208C202.124 27.208 200.572 25.464 200.572 23C200.572 20.552 202.124 18.808 204.268 18.808C205.516 18.808 206.508 19.384 207.1 20.376V15.8H208.62V25.288V27H207.1V25.624C206.508 26.632 205.516 27.208 204.268 27.208ZM204.652 25.96C206.14 25.96 207.18 24.76 207.18 23C207.18 21.256 206.14 20.056 204.652 20.056C203.18 20.056 202.108 21.288 202.108 23C202.108 24.712 203.18 25.96 204.652 25.96ZM214.419 27.272C212.083 27.272 210.403 25.48 210.403 23C210.403 20.536 212.083 18.728 214.403 18.728C217.155 18.728 218.499 21.208 218.211 23.432H211.939C211.987 24.984 213.011 26.088 214.435 26.088C215.539 26.088 216.467 25.448 216.771 24.488L218.067 24.696C217.715 26.168 216.275 27.272 214.419 27.272ZM211.955 22.296H216.739C216.739 20.936 215.795 19.88 214.403 19.88C213.075 19.88 212.083 20.872 211.955 22.296ZM220.023 27V19.016H221.543L221.495 21.4C221.831 19.432 223.207 18.728 224.583 18.984V20.472C222.903 20.248 221.543 21.24 221.543 23.56V27H220.023ZM224.868 23.144V21.896H229.46V23.144H224.868ZM231.375 30.04V19.016H232.895V20.36C233.487 19.368 234.479 18.808 235.711 18.808C237.855 18.808 239.407 20.552 239.407 23.016C239.407 25.464 237.855 27.208 235.711 27.208C234.479 27.208 233.487 26.648 232.895 25.656V30.04H231.375ZM235.327 20.056C233.839 20.056 232.799 21.256 232.799 23.016C232.799 24.76 233.839 25.96 235.327 25.96C236.799 25.96 237.871 24.728 237.871 23.016C237.871 21.304 236.799 20.056 235.327 20.056ZM241.16 27V19.016H242.68L242.632 21.4C242.968 19.432 244.344 18.728 245.72 18.984V20.472C244.04 20.248 242.68 21.24 242.68 23.56V27H241.16ZM247.179 27V19.016H248.699V27H247.179ZM247.947 17.656C247.323 17.656 246.859 17.192 246.859 16.568C246.859 15.96 247.323 15.48 247.947 15.48C248.555 15.48 249.019 15.96 249.019 16.568C249.019 17.192 248.555 17.656 247.947 17.656ZM250.745 27V19.016H252.265L252.217 21C252.537 19.624 253.449 18.808 254.873 18.808C256.233 18.808 257.209 19.592 257.561 20.904C257.897 19.576 258.841 18.808 260.249 18.808C261.961 18.808 263.049 20.04 263.049 22.008V27H261.529V22.312C261.529 20.856 260.889 20.04 259.737 20.04C258.441 20.04 257.705 21.048 257.705 22.872V27H256.201V22.312C256.201 20.856 255.529 20.04 254.345 20.04C253.001 20.04 252.265 21.048 252.265 22.872V27H250.745ZM267.254 27.176C265.75 27.176 264.662 26.344 264.662 24.952C264.662 23.464 265.942 22.664 268.358 22.392L269.99 22.216V21.896C269.99 20.728 269.334 19.992 268.214 19.992C267.19 19.992 266.47 20.648 266.374 21.752L264.902 21.704C265.03 19.96 266.374 18.776 268.262 18.776C270.182 18.776 271.478 20.024 271.478 21.944V24.712C271.478 25.576 271.574 26.44 271.686 27H270.214C270.118 26.632 270.054 26.184 270.054 25.352C269.686 26.456 268.598 27.176 267.254 27.176ZM267.718 26.12C268.998 26.12 270.006 25.144 270.006 23.736V23.128L268.47 23.32C266.982 23.496 266.182 23.896 266.182 24.824C266.182 25.704 266.854 26.12 267.718 26.12ZM273.471 27V19.016H274.991L274.943 21.4C275.279 19.432 276.655 18.728 278.031 18.984V20.472C276.351 20.248 274.991 21.24 274.991 23.56V27H273.471ZM279.426 28.888C280.386 29.144 281.426 28.952 282.066 27.576L282.402 26.776L278.978 19.016H280.578L283.234 25.096L285.682 19.016H287.218L283.634 27.576C282.738 29.752 281.282 30.632 279.426 30.168V28.888Z" fill="#414141"/>
<path d="M80.592 49.76V48.24C78.352 48.016 76.8 46.544 76.784 44.496L78.32 44.384C78.368 45.76 79.28 46.736 80.592 46.976V42.992L80.368 42.944C78.304 42.544 77.152 41.424 77.152 39.776C77.152 37.936 78.544 36.704 80.592 36.544V35.2H81.776V36.576C83.712 36.864 85.072 38.272 85.136 40.192L83.584 40.288C83.536 39.056 82.832 38.144 81.776 37.856V41.68L81.968 41.712C84.304 42.16 85.456 43.2 85.456 44.96C85.456 46.768 83.968 48.064 81.776 48.24V49.76H80.592ZM78.72 39.664C78.72 40.592 79.392 41.184 80.512 41.44L80.592 41.456V37.792C79.488 37.936 78.72 38.656 78.72 39.664ZM81.776 46.992C83.04 46.816 83.888 46.096 83.888 45.056C83.888 44.048 83.248 43.536 81.824 43.216L81.776 43.2V46.992ZM90.2057 50.928C88.0938 48.96 86.9738 46.368 86.9738 43.52C86.9738 40.672 88.0938 38.08 90.2057 36.112L91.1338 36.992C89.3098 38.688 88.3178 40.976 88.3178 43.52C88.3178 46.064 89.3098 48.352 91.1338 50.048L90.2057 50.928ZM95.1735 48.24C92.8055 48.24 91.0935 46.464 91.0935 44C91.0935 41.568 92.8215 39.776 95.1735 39.776C97.2055 39.776 98.8375 41.088 98.9655 42.976L97.4775 43.104C97.3495 41.936 96.3735 41.088 95.1575 41.088C93.6855 41.088 92.6135 42.32 92.6135 44C92.6135 45.888 93.8295 46.896 95.1575 46.896C96.3095 46.896 97.3495 46.128 97.4935 44.832L98.9815 44.944C98.8695 46.896 97.2375 48.24 95.1735 48.24ZM104.267 48.24C101.899 48.24 100.203 46.48 100.203 44C100.203 41.52 101.899 39.776 104.267 39.776C106.635 39.776 108.315 41.52 108.315 44C108.315 46.48 106.635 48.24 104.267 48.24ZM104.267 46.96C105.755 46.96 106.779 45.744 106.779 44C106.779 42.272 105.755 41.056 104.267 41.056C102.763 41.056 101.739 42.272 101.739 44C101.739 45.744 102.763 46.96 104.267 46.96ZM113.032 47.904C111.528 48.336 109.896 48.08 109.896 45.808V36.8H111.4V45.504C111.4 46.672 112.04 46.944 113 46.624L113.032 47.904ZM118.079 48.24C115.711 48.24 114.015 46.48 114.015 44C114.015 41.52 115.711 39.776 118.079 39.776C120.447 39.776 122.127 41.52 122.127 44C122.127 46.48 120.447 48.24 118.079 48.24ZM118.079 46.96C119.567 46.96 120.591 45.744 120.591 44C120.591 42.272 119.567 41.056 118.079 41.056C116.575 41.056 115.551 42.272 115.551 44C115.551 45.744 116.575 46.96 118.079 46.96ZM123.725 48V40.016H125.245L125.197 42.4C125.533 40.432 126.909 39.728 128.285 39.984V41.472C126.605 41.248 125.245 42.24 125.245 44.56V48H123.725ZM128.41 44.144V42.896H133.002V44.144H128.41ZM134.757 48V36.8H136.277V41.36C136.869 40.368 137.861 39.808 139.093 39.808C141.237 39.808 142.789 41.552 142.789 44.016C142.789 46.464 141.237 48.208 139.093 48.208C137.861 48.208 136.869 47.648 136.277 46.656V48H134.757ZM138.709 41.056C137.221 41.056 136.181 42.256 136.181 44.016C136.181 45.76 137.221 46.96 138.709 46.96C140.181 46.96 141.253 45.728 141.253 44.016C141.253 42.304 140.181 41.056 138.709 41.056ZM144.382 48V40.016H145.902L145.854 42.4C146.19 40.432 147.566 39.728 148.942 39.984V41.472C147.262 41.248 145.902 42.24 145.902 44.56V48H144.382ZM152.277 48.176C150.773 48.176 149.685 47.344 149.685 45.952C149.685 44.464 150.965 43.664 153.381 43.392L155.013 43.216V42.896C155.013 41.728 154.357 40.992 153.237 40.992C152.213 40.992 151.493 41.648 151.397 42.752L149.925 42.704C150.053 40.96 151.397 39.776 153.285 39.776C155.205 39.776 156.501 41.024 156.501 42.944V45.712C156.501 46.576 156.597 47.44 156.709 48H155.237C155.141 47.632 155.077 47.184 155.077 46.352C154.709 47.456 153.621 48.176 152.277 48.176ZM152.741 47.12C154.021 47.12 155.029 46.144 155.029 44.736V44.128L153.493 44.32C152.005 44.496 151.205 44.896 151.205 45.824C151.205 46.704 151.877 47.12 152.741 47.12ZM158.335 48V40.016H159.855L159.807 41.968C160.143 40.608 161.055 39.808 162.463 39.808C164.223 39.808 165.343 41.072 165.343 43.088V48H163.823V43.312C163.823 41.856 163.151 41.04 161.951 41.04C160.591 41.04 159.855 42.048 159.855 43.872V48H158.335ZM170.571 48.208C168.427 48.208 166.875 46.464 166.875 44C166.875 41.552 168.427 39.808 170.571 39.808C171.819 39.808 172.811 40.384 173.403 41.376V36.8H174.923V46.288V48H173.403V46.624C172.811 47.632 171.819 48.208 170.571 48.208ZM170.955 46.96C172.443 46.96 173.483 45.76 173.483 44C173.483 42.256 172.443 41.056 170.955 41.056C169.483 41.056 168.411 42.288 168.411 44C168.411 45.712 169.483 46.96 170.955 46.96ZM176.676 44.144V42.896H181.268V44.144H176.676ZM183.022 48V40.016H184.542L184.494 42.4C184.83 40.432 186.206 39.728 187.582 39.984V41.472C185.902 41.248 184.542 42.24 184.542 44.56V48H183.022ZM192.328 48.272C189.992 48.272 188.312 46.48 188.312 44C188.312 41.536 189.992 39.728 192.312 39.728C195.064 39.728 196.408 42.208 196.12 44.432H189.848C189.896 45.984 190.92 47.088 192.344 47.088C193.448 47.088 194.376 46.448 194.68 45.488L195.976 45.696C195.624 47.168 194.184 48.272 192.328 48.272ZM189.864 43.296H194.648C194.648 41.936 193.704 40.88 192.312 40.88C190.984 40.88 189.992 41.872 189.864 43.296ZM201.18 48.208C199.036 48.208 197.484 46.464 197.484 44C197.484 41.552 199.036 39.808 201.18 39.808C202.428 39.808 203.42 40.384 204.012 41.376V36.8H205.532V46.288V48H204.012V46.624C203.42 47.632 202.428 48.208 201.18 48.208ZM201.564 46.96C203.052 46.96 204.092 45.76 204.092 44C204.092 42.256 203.052 41.056 201.564 41.056C200.092 41.056 199.02 42.288 199.02 44C199.02 45.712 200.092 46.96 201.564 46.96ZM207.029 50.048C208.853 48.352 209.845 46.064 209.845 43.52C209.845 40.976 208.853 38.688 207.029 36.992L207.957 36.112C210.069 38.08 211.189 40.672 211.189 43.52C211.189 46.368 210.069 48.96 207.957 50.928L207.029 50.048Z" fill="#767676"/>
</svg>
