<svg width="360" height="72" viewBox="0 0 360 72" fill="none" xmlns="http://www.w3.org/2000/svg">
<mask id="path-1-inside-1_7_184" fill="white">
<path d="M0 0H360V72H0V0Z"/>
</mask>
<path d="M360 0H359V72H360H361V0H360Z" fill="#D9D9DB" mask="url(#path-1-inside-1_7_184)"/>
<rect x="16.5" y="12.5" width="47" height="47" rx="7.5" fill="white" stroke="#D9D9DB"/>
<path d="M80.736 27.24C78.368 27.24 76.656 25.464 76.656 23C76.656 20.568 78.384 18.776 80.736 18.776C82.768 18.776 84.4 20.088 84.528 21.976L83.04 22.104C82.912 20.936 81.936 20.088 80.72 20.088C79.248 20.088 78.176 21.32 78.176 23C78.176 24.888 79.392 25.896 80.72 25.896C81.872 25.896 82.912 25.128 83.056 23.832L84.544 23.944C84.432 25.896 82.8 27.24 80.736 27.24ZM89.9894 27.24C87.6214 27.24 85.9254 25.48 85.9254 23C85.9254 20.52 87.6214 18.776 89.9894 18.776C92.3574 18.776 94.0374 20.52 94.0374 23C94.0374 25.48 92.3574 27.24 89.9894 27.24ZM89.9894 25.96C91.4774 25.96 92.5014 24.744 92.5014 23C92.5014 21.272 91.4774 20.056 89.9894 20.056C88.4854 20.056 87.4614 21.272 87.4614 23C87.4614 24.744 88.4854 25.96 89.9894 25.96ZM98.9141 26.904C97.4101 27.336 95.7781 27.08 95.7781 24.808V15.8H97.2821V24.504C97.2821 25.672 97.9221 25.944 98.8821 25.624L98.9141 26.904ZM104.122 27.24C101.754 27.24 100.058 25.48 100.058 23C100.058 20.52 101.754 18.776 104.122 18.776C106.49 18.776 108.17 20.52 108.17 23C108.17 25.48 106.49 27.24 104.122 27.24ZM104.122 25.96C105.61 25.96 106.634 24.744 106.634 23C106.634 21.272 105.61 20.056 104.122 20.056C102.618 20.056 101.594 21.272 101.594 23C101.594 24.744 102.618 25.96 104.122 25.96ZM109.928 27V19.016H111.448L111.4 21.4C111.736 19.432 113.112 18.728 114.488 18.984V20.472C112.808 20.248 111.448 21.24 111.448 23.56V27H109.928ZM114.773 23.144V21.896H119.365V23.144H114.773ZM124.338 27.272C122.338 27.272 120.946 26.184 120.818 24.472L122.226 24.424C122.322 25.512 123.17 26.2 124.338 26.2C125.282 26.2 126.098 25.768 126.098 24.936C126.098 24.312 125.618 23.96 124.674 23.768L123.314 23.512C121.762 23.256 121.042 22.424 121.042 21.256C121.042 19.704 122.338 18.728 124.114 18.728C125.97 18.728 127.298 19.848 127.378 21.512L126.018 21.592C125.954 20.552 125.17 19.816 124.098 19.816C123.202 19.816 122.482 20.312 122.482 21.112C122.482 21.704 122.882 22.072 123.602 22.2L124.962 22.456C126.642 22.76 127.554 23.528 127.554 24.792C127.554 26.328 126.178 27.272 124.338 27.272ZM130.723 23.704C130.723 25.16 131.395 25.976 132.547 25.976C133.875 25.976 134.595 24.968 134.595 23.144V19.016H136.115V24.12V27H134.595L134.643 25.448C134.227 26.568 133.347 27.208 132.051 27.208C130.323 27.208 129.219 25.976 129.219 23.992V19.016H130.723V23.704ZM138.161 27V19.016H139.681L139.633 21.4C139.969 19.432 141.345 18.728 142.721 18.984V20.472C141.041 20.248 139.681 21.24 139.681 23.56V27H138.161ZM145.173 18.104C145.173 15.992 146.949 15.384 148.485 15.704V16.92C147.605 16.648 146.693 16.84 146.693 18.104V19.016H148.549V20.28H146.693V27H145.173V20.28H143.685V19.016H145.173V18.104ZM152.19 27.176C150.686 27.176 149.598 26.344 149.598 24.952C149.598 23.464 150.878 22.664 153.294 22.392L154.926 22.216V21.896C154.926 20.728 154.27 19.992 153.15 19.992C152.126 19.992 151.406 20.648 151.31 21.752L149.838 21.704C149.966 19.96 151.31 18.776 153.198 18.776C155.118 18.776 156.414 20.024 156.414 21.944V24.712C156.414 25.576 156.51 26.44 156.622 27H155.15C155.054 26.632 154.99 26.184 154.99 25.352C154.622 26.456 153.534 27.176 152.19 27.176ZM152.654 26.12C153.934 26.12 154.942 25.144 154.942 23.736V23.128L153.406 23.32C151.918 23.496 151.118 23.896 151.118 24.824C151.118 25.704 151.79 26.12 152.654 26.12ZM162.199 27.24C159.831 27.24 158.119 25.464 158.119 23C158.119 20.568 159.847 18.776 162.199 18.776C164.231 18.776 165.863 20.088 165.991 21.976L164.503 22.104C164.375 20.936 163.399 20.088 162.183 20.088C160.711 20.088 159.639 21.32 159.639 23C159.639 24.888 160.855 25.896 162.183 25.896C163.335 25.896 164.375 25.128 164.519 23.832L166.007 23.944C165.895 25.896 164.263 27.24 162.199 27.24ZM171.404 27.272C169.068 27.272 167.388 25.48 167.388 23C167.388 20.536 169.068 18.728 171.388 18.728C174.14 18.728 175.484 21.208 175.196 23.432H168.924C168.972 24.984 169.996 26.088 171.42 26.088C172.524 26.088 173.452 25.448 173.756 24.488L175.052 24.696C174.7 26.168 173.26 27.272 171.404 27.272ZM168.94 22.296H173.724C173.724 20.936 172.78 19.88 171.388 19.88C170.06 19.88 169.068 20.872 168.94 22.296ZM176.975 23.144V21.896H181.567V23.144H176.975ZM186.998 27.208C184.854 27.208 183.302 25.464 183.302 23C183.302 20.552 184.854 18.808 186.998 18.808C188.246 18.808 189.238 19.384 189.83 20.376V15.8H191.35V25.288V27H189.83V25.624C189.238 26.632 188.246 27.208 186.998 27.208ZM187.382 25.96C188.87 25.96 189.91 24.76 189.91 23C189.91 21.256 188.87 20.056 187.382 20.056C185.91 20.056 184.838 21.288 184.838 23C184.838 24.712 185.91 25.96 187.382 25.96ZM197.15 27.272C194.814 27.272 193.134 25.48 193.134 23C193.134 20.536 194.814 18.728 197.134 18.728C199.886 18.728 201.23 21.208 200.942 23.432H194.67C194.718 24.984 195.742 26.088 197.166 26.088C198.27 26.088 199.198 25.448 199.502 24.488L200.798 24.696C200.446 26.168 199.006 27.272 197.15 27.272ZM194.686 22.296H199.47C199.47 20.936 198.526 19.88 197.134 19.88C195.806 19.88 194.814 20.872 194.686 22.296ZM203.543 18.104C203.543 15.992 205.319 15.384 206.855 15.704V16.92C205.975 16.648 205.063 16.84 205.063 18.104V19.016H206.919V20.28H205.063V27H203.543V20.28H202.055V19.016H203.543V18.104ZM210.544 27.176C209.04 27.176 207.952 26.344 207.952 24.952C207.952 23.464 209.232 22.664 211.648 22.392L213.28 22.216V21.896C213.28 20.728 212.624 19.992 211.504 19.992C210.48 19.992 209.76 20.648 209.664 21.752L208.192 21.704C208.32 19.96 209.664 18.776 211.552 18.776C213.472 18.776 214.768 20.024 214.768 21.944V24.712C214.768 25.576 214.864 26.44 214.976 27H213.504C213.408 26.632 213.344 26.184 213.344 25.352C212.976 26.456 211.888 27.176 210.544 27.176ZM211.008 26.12C212.288 26.12 213.296 25.144 213.296 23.736V23.128L211.76 23.32C210.272 23.496 209.472 23.896 209.472 24.824C209.472 25.704 210.144 26.12 211.008 26.12ZM218.202 23.704C218.202 25.16 218.874 25.976 220.026 25.976C221.354 25.976 222.074 24.968 222.074 23.144V19.016H223.594V24.12V27H222.074L222.122 25.448C221.706 26.568 220.826 27.208 219.53 27.208C217.802 27.208 216.698 25.976 216.698 23.992V19.016H218.202V23.704ZM228.712 26.904C227.208 27.336 225.576 27.08 225.576 24.808V15.8H227.08V24.504C227.08 25.672 227.72 25.944 228.68 25.624L228.712 26.904ZM233.966 26.92C232.414 27.416 230.59 27 230.59 24.536V20.28H229.054V19.016H230.59V17.016H232.11V19.016H234.174V20.28H232.11V24.424C232.11 25.832 233.054 25.976 233.934 25.656L233.966 26.92Z" fill="#414141"/>
<path d="M80.592 49.76V48.24C78.352 48.016 76.8 46.544 76.784 44.496L78.32 44.384C78.368 45.76 79.28 46.736 80.592 46.976V42.992L80.368 42.944C78.304 42.544 77.152 41.424 77.152 39.776C77.152 37.936 78.544 36.704 80.592 36.544V35.2H81.776V36.576C83.712 36.864 85.072 38.272 85.136 40.192L83.584 40.288C83.536 39.056 82.832 38.144 81.776 37.856V41.68L81.968 41.712C84.304 42.16 85.456 43.2 85.456 44.96C85.456 46.768 83.968 48.064 81.776 48.24V49.76H80.592ZM78.72 39.664C78.72 40.592 79.392 41.184 80.512 41.44L80.592 41.456V37.792C79.488 37.936 78.72 38.656 78.72 39.664ZM81.776 46.992C83.04 46.816 83.888 46.096 83.888 45.056C83.888 44.048 83.248 43.536 81.824 43.216L81.776 43.2V46.992ZM90.2057 50.928C88.0938 48.96 86.9738 46.368 86.9738 43.52C86.9738 40.672 88.0938 38.08 90.2057 36.112L91.1338 36.992C89.3098 38.688 88.3178 40.976 88.3178 43.52C88.3178 46.064 89.3098 48.352 91.1338 50.048L90.2057 50.928ZM95.1735 48.24C92.8055 48.24 91.0935 46.464 91.0935 44C91.0935 41.568 92.8215 39.776 95.1735 39.776C97.2055 39.776 98.8375 41.088 98.9655 42.976L97.4775 43.104C97.3495 41.936 96.3735 41.088 95.1575 41.088C93.6855 41.088 92.6135 42.32 92.6135 44C92.6135 45.888 93.8295 46.896 95.1575 46.896C96.3095 46.896 97.3495 46.128 97.4935 44.832L98.9815 44.944C98.8695 46.896 97.2375 48.24 95.1735 48.24ZM104.267 48.24C101.899 48.24 100.203 46.48 100.203 44C100.203 41.52 101.899 39.776 104.267 39.776C106.635 39.776 108.315 41.52 108.315 44C108.315 46.48 106.635 48.24 104.267 48.24ZM104.267 46.96C105.755 46.96 106.779 45.744 106.779 44C106.779 42.272 105.755 41.056 104.267 41.056C102.763 41.056 101.739 42.272 101.739 44C101.739 45.744 102.763 46.96 104.267 46.96ZM113.032 47.904C111.528 48.336 109.896 48.08 109.896 45.808V36.8H111.4V45.504C111.4 46.672 112.04 46.944 113 46.624L113.032 47.904ZM118.079 48.24C115.711 48.24 114.015 46.48 114.015 44C114.015 41.52 115.711 39.776 118.079 39.776C120.447 39.776 122.127 41.52 122.127 44C122.127 46.48 120.447 48.24 118.079 48.24ZM118.079 46.96C119.567 46.96 120.591 45.744 120.591 44C120.591 42.272 119.567 41.056 118.079 41.056C116.575 41.056 115.551 42.272 115.551 44C115.551 45.744 116.575 46.96 118.079 46.96ZM123.725 48V40.016H125.245L125.197 42.4C125.533 40.432 126.909 39.728 128.285 39.984V41.472C126.605 41.248 125.245 42.24 125.245 44.56V48H123.725ZM128.41 44.144V42.896H133.002V44.144H128.41ZM134.757 48V40.016H136.277L136.229 41.968C136.565 40.608 137.477 39.808 138.885 39.808C140.645 39.808 141.765 41.072 141.765 43.088V48H140.245V43.312C140.245 41.856 139.573 41.04 138.373 41.04C137.013 41.04 136.277 42.048 136.277 43.872V48H134.757ZM147.313 48.272C144.977 48.272 143.297 46.48 143.297 44C143.297 41.536 144.977 39.728 147.297 39.728C150.049 39.728 151.393 42.208 151.105 44.432H144.833C144.881 45.984 145.905 47.088 147.329 47.088C148.433 47.088 149.361 46.448 149.665 45.488L150.961 45.696C150.609 47.168 149.169 48.272 147.313 48.272ZM144.849 43.296H149.633C149.633 41.936 148.689 40.88 147.297 40.88C145.969 40.88 144.977 41.872 144.849 43.296ZM154.197 44.704C154.197 46.16 154.869 46.976 156.021 46.976C157.349 46.976 158.069 45.968 158.069 44.144V40.016H159.589V45.12V48H158.069L158.117 46.448C157.701 47.568 156.821 48.208 155.525 48.208C153.797 48.208 152.693 46.976 152.693 44.992V40.016H154.197V44.704ZM165.86 47.92C164.308 48.416 162.484 48 162.484 45.536V41.28H160.948V40.016H162.484V38.016H164.004V40.016H166.068V41.28H164.004V45.424C164.004 46.832 164.948 46.976 165.828 46.656L165.86 47.92ZM167.616 48V40.016H169.136L169.088 42.4C169.424 40.432 170.8 39.728 172.176 39.984V41.472C170.496 41.248 169.136 42.24 169.136 44.56V48H167.616ZM175.512 48.176C174.008 48.176 172.92 47.344 172.92 45.952C172.92 44.464 174.2 43.664 176.616 43.392L178.248 43.216V42.896C178.248 41.728 177.592 40.992 176.472 40.992C175.448 40.992 174.728 41.648 174.632 42.752L173.16 42.704C173.288 40.96 174.632 39.776 176.52 39.776C178.44 39.776 179.736 41.024 179.736 42.944V45.712C179.736 46.576 179.832 47.44 179.944 48H178.472C178.376 47.632 178.312 47.184 178.312 46.352C177.944 47.456 176.856 48.176 175.512 48.176ZM175.976 47.12C177.256 47.12 178.264 46.144 178.264 44.736V44.128L176.728 44.32C175.24 44.496 174.44 44.896 174.44 45.824C174.44 46.704 175.112 47.12 175.976 47.12ZM184.672 47.904C183.168 48.336 181.536 48.08 181.536 45.808V36.8H183.04V45.504C183.04 46.672 183.68 46.944 184.64 46.624L184.672 47.904ZM185.223 44.144V42.896H189.815V44.144H185.223ZM193.448 48L190.712 40.016H192.344L194.36 46.304L196.28 40.016H197.96L199.896 46.304L201.912 40.016H203.512L200.776 48H199.08L197.128 41.664L195.16 48H193.448ZM204.913 48V36.8H206.433V41.792C206.801 40.544 207.697 39.808 209.041 39.808C210.801 39.808 211.921 41.072 211.921 43.088V48H210.401V43.312C210.401 41.856 209.729 41.04 208.529 41.04C207.169 41.04 206.433 42.048 206.433 43.872V48H204.913ZM213.741 48V40.016H215.261V48H213.741ZM214.509 38.656C213.885 38.656 213.421 38.192 213.421 37.568C213.421 36.96 213.885 36.48 214.509 36.48C215.117 36.48 215.581 36.96 215.581 37.568C215.581 38.192 215.117 38.656 214.509 38.656ZM221.532 47.92C219.98 48.416 218.156 48 218.156 45.536V41.28H216.62V40.016H218.156V38.016H219.676V40.016H221.74V41.28H219.676V45.424C219.676 46.832 220.62 46.976 221.5 46.656L221.532 47.92ZM226.735 48.272C224.399 48.272 222.719 46.48 222.719 44C222.719 41.536 224.399 39.728 226.719 39.728C229.471 39.728 230.815 42.208 230.527 44.432H224.255C224.303 45.984 225.327 47.088 226.751 47.088C227.855 47.088 228.783 46.448 229.087 45.488L230.383 45.696C230.031 47.168 228.591 48.272 226.735 48.272ZM224.271 43.296H229.055C229.055 41.936 228.111 40.88 226.719 40.88C225.391 40.88 224.399 41.872 224.271 43.296ZM230.342 50.048C232.166 48.352 233.158 46.064 233.158 43.52C233.158 40.976 232.166 38.688 230.342 36.992L231.27 36.112C233.382 38.08 234.502 40.672 234.502 43.52C234.502 46.368 233.382 48.96 231.27 50.928L230.342 50.048Z" fill="#767676"/>
</svg>
