<svg width="360" height="72" viewBox="0 0 360 72" fill="none" xmlns="http://www.w3.org/2000/svg">
<mask id="path-1-inside-1_7_219" fill="white">
<path d="M0 0H360V72H0V0Z"/>
</mask>
<path d="M360 0H359V72H360H361V0H360Z" fill="#D9D9DB" mask="url(#path-1-inside-1_7_219)"/>
<rect x="16" y="12" width="48" height="48" rx="8" fill="#BC0F0F"/>
<path d="M80.736 27.24C78.368 27.24 76.656 25.464 76.656 23C76.656 20.568 78.384 18.776 80.736 18.776C82.768 18.776 84.4 20.088 84.528 21.976L83.04 22.104C82.912 20.936 81.936 20.088 80.72 20.088C79.248 20.088 78.176 21.32 78.176 23C78.176 24.888 79.392 25.896 80.72 25.896C81.872 25.896 82.912 25.128 83.056 23.832L84.544 23.944C84.432 25.896 82.8 27.24 80.736 27.24ZM89.9894 27.24C87.6214 27.24 85.9254 25.48 85.9254 23C85.9254 20.52 87.6214 18.776 89.9894 18.776C92.3574 18.776 94.0374 20.52 94.0374 23C94.0374 25.48 92.3574 27.24 89.9894 27.24ZM89.9894 25.96C91.4774 25.96 92.5014 24.744 92.5014 23C92.5014 21.272 91.4774 20.056 89.9894 20.056C88.4854 20.056 87.4614 21.272 87.4614 23C87.4614 24.744 88.4854 25.96 89.9894 25.96ZM98.9141 26.904C97.4101 27.336 95.7781 27.08 95.7781 24.808V15.8H97.2821V24.504C97.2821 25.672 97.9221 25.944 98.8821 25.624L98.9141 26.904ZM104.122 27.24C101.754 27.24 100.058 25.48 100.058 23C100.058 20.52 101.754 18.776 104.122 18.776C106.49 18.776 108.17 20.52 108.17 23C108.17 25.48 106.49 27.24 104.122 27.24ZM104.122 25.96C105.61 25.96 106.634 24.744 106.634 23C106.634 21.272 105.61 20.056 104.122 20.056C102.618 20.056 101.594 21.272 101.594 23C101.594 24.744 102.618 25.96 104.122 25.96ZM109.928 27V19.016H111.448L111.4 21.4C111.736 19.432 113.112 18.728 114.488 18.984V20.472C112.808 20.248 111.448 21.24 111.448 23.56V27H109.928ZM114.773 23.144V21.896H119.365V23.144H114.773ZM125.226 26.92C123.674 27.416 121.85 27 121.85 24.536V20.28H120.314V19.016H121.85V17.016H123.37V19.016H125.434V20.28H123.37V24.424C123.37 25.832 124.314 25.976 125.194 25.656L125.226 26.92ZM130.589 27.272C128.253 27.272 126.573 25.48 126.573 23C126.573 20.536 128.253 18.728 130.573 18.728C133.325 18.728 134.669 21.208 134.381 23.432H128.109C128.157 24.984 129.181 26.088 130.605 26.088C131.709 26.088 132.637 25.448 132.941 24.488L134.237 24.696C133.885 26.168 132.445 27.272 130.589 27.272ZM128.125 22.296H132.909C132.909 20.936 131.965 19.88 130.573 19.88C129.245 19.88 128.253 20.872 128.125 22.296ZM141.006 27L138.894 24.024L136.766 27H135.134L138.078 22.984L135.134 19.016H136.846L138.958 21.992L141.086 19.016H142.702L139.774 23.016L142.75 27H141.006ZM148.722 26.92C147.17 27.416 145.346 27 145.346 24.536V20.28H143.81V19.016H145.346V17.016H146.866V19.016H148.93V20.28H146.866V24.424C146.866 25.832 147.81 25.976 148.69 25.656L148.722 26.92ZM149.619 23.144V21.896H154.211V23.144H149.619ZM156.126 27V15.8H157.646V20.36C158.238 19.368 159.23 18.808 160.462 18.808C162.606 18.808 164.158 20.552 164.158 23.016C164.158 25.464 162.606 27.208 160.462 27.208C159.23 27.208 158.238 26.648 157.646 25.656V27H156.126ZM160.078 20.056C158.59 20.056 157.55 21.256 157.55 23.016C157.55 24.76 158.59 25.96 160.078 25.96C161.55 25.96 162.622 24.728 162.622 23.016C162.622 21.304 161.55 20.056 160.078 20.056ZM165.911 27V19.016H167.431L167.383 21.4C167.719 19.432 169.095 18.728 170.471 18.984V20.472C168.791 20.248 167.431 21.24 167.431 23.56V27H165.911ZM173.967 27.176C172.463 27.176 171.375 26.344 171.375 24.952C171.375 23.464 172.655 22.664 175.071 22.392L176.703 22.216V21.896C176.703 20.728 176.047 19.992 174.927 19.992C173.903 19.992 173.183 20.648 173.087 21.752L171.615 21.704C171.743 19.96 173.087 18.776 174.975 18.776C176.895 18.776 178.191 20.024 178.191 21.944V24.712C178.191 25.576 178.287 26.44 178.399 27H176.927C176.831 26.632 176.767 26.184 176.767 25.352C176.399 26.456 175.311 27.176 173.967 27.176ZM174.431 26.12C175.711 26.12 176.719 25.144 176.719 23.736V23.128L175.183 23.32C173.695 23.496 172.895 23.896 172.895 24.824C172.895 25.704 173.567 26.12 174.431 26.12ZM180.184 27V19.016H181.704L181.656 20.968C181.992 19.608 182.904 18.808 184.312 18.808C186.072 18.808 187.192 20.072 187.192 22.088V27H185.672V22.312C185.672 20.856 185 20.04 183.8 20.04C182.44 20.04 181.704 21.048 181.704 22.872V27H180.184ZM192.58 27.208C190.436 27.208 188.884 25.464 188.884 23C188.884 20.552 190.436 18.808 192.58 18.808C193.828 18.808 194.82 19.384 195.412 20.376V15.8H196.932V25.288V27H195.412V25.624C194.82 26.632 193.828 27.208 192.58 27.208ZM192.964 25.96C194.452 25.96 195.492 24.76 195.492 23C195.492 21.256 194.452 20.056 192.964 20.056C191.492 20.056 190.42 21.288 190.42 23C190.42 24.712 191.492 25.96 192.964 25.96Z" fill="#414141"/>
<path d="M80.592 49.76V48.24C78.352 48.016 76.8 46.544 76.784 44.496L78.32 44.384C78.368 45.76 79.28 46.736 80.592 46.976V42.992L80.368 42.944C78.304 42.544 77.152 41.424 77.152 39.776C77.152 37.936 78.544 36.704 80.592 36.544V35.2H81.776V36.576C83.712 36.864 85.072 38.272 85.136 40.192L83.584 40.288C83.536 39.056 82.832 38.144 81.776 37.856V41.68L81.968 41.712C84.304 42.16 85.456 43.2 85.456 44.96C85.456 46.768 83.968 48.064 81.776 48.24V49.76H80.592ZM78.72 39.664C78.72 40.592 79.392 41.184 80.512 41.44L80.592 41.456V37.792C79.488 37.936 78.72 38.656 78.72 39.664ZM81.776 46.992C83.04 46.816 83.888 46.096 83.888 45.056C83.888 44.048 83.248 43.536 81.824 43.216L81.776 43.2V46.992ZM90.2057 50.928C88.0938 48.96 86.9738 46.368 86.9738 43.52C86.9738 40.672 88.0938 38.08 90.2057 36.112L91.1338 36.992C89.3098 38.688 88.3178 40.976 88.3178 43.52C88.3178 46.064 89.3098 48.352 91.1338 50.048L90.2057 50.928ZM95.1735 48.24C92.8055 48.24 91.0935 46.464 91.0935 44C91.0935 41.568 92.8215 39.776 95.1735 39.776C97.2055 39.776 98.8375 41.088 98.9655 42.976L97.4775 43.104C97.3495 41.936 96.3735 41.088 95.1575 41.088C93.6855 41.088 92.6135 42.32 92.6135 44C92.6135 45.888 93.8295 46.896 95.1575 46.896C96.3095 46.896 97.3495 46.128 97.4935 44.832L98.9815 44.944C98.8695 46.896 97.2375 48.24 95.1735 48.24ZM104.267 48.24C101.899 48.24 100.203 46.48 100.203 44C100.203 41.52 101.899 39.776 104.267 39.776C106.635 39.776 108.315 41.52 108.315 44C108.315 46.48 106.635 48.24 104.267 48.24ZM104.267 46.96C105.755 46.96 106.779 45.744 106.779 44C106.779 42.272 105.755 41.056 104.267 41.056C102.763 41.056 101.739 42.272 101.739 44C101.739 45.744 102.763 46.96 104.267 46.96ZM113.032 47.904C111.528 48.336 109.896 48.08 109.896 45.808V36.8H111.4V45.504C111.4 46.672 112.04 46.944 113 46.624L113.032 47.904ZM118.079 48.24C115.711 48.24 114.015 46.48 114.015 44C114.015 41.52 115.711 39.776 118.079 39.776C120.447 39.776 122.127 41.52 122.127 44C122.127 46.48 120.447 48.24 118.079 48.24ZM118.079 46.96C119.567 46.96 120.591 45.744 120.591 44C120.591 42.272 119.567 41.056 118.079 41.056C116.575 41.056 115.551 42.272 115.551 44C115.551 45.744 116.575 46.96 118.079 46.96ZM123.725 48V40.016H125.245L125.197 42.4C125.533 40.432 126.909 39.728 128.285 39.984V41.472C126.605 41.248 125.245 42.24 125.245 44.56V48H123.725ZM128.41 44.144V42.896H133.002V44.144H128.41ZM134.757 48V36.8H136.277V41.36C136.869 40.368 137.861 39.808 139.093 39.808C141.237 39.808 142.789 41.552 142.789 44.016C142.789 46.464 141.237 48.208 139.093 48.208C137.861 48.208 136.869 47.648 136.277 46.656V48H134.757ZM138.709 41.056C137.221 41.056 136.181 42.256 136.181 44.016C136.181 45.76 137.221 46.96 138.709 46.96C140.181 46.96 141.253 45.728 141.253 44.016C141.253 42.304 140.181 41.056 138.709 41.056ZM144.382 48V40.016H145.902L145.854 42.4C146.19 40.432 147.566 39.728 148.942 39.984V41.472C147.262 41.248 145.902 42.24 145.902 44.56V48H144.382ZM152.277 48.176C150.773 48.176 149.685 47.344 149.685 45.952C149.685 44.464 150.965 43.664 153.381 43.392L155.013 43.216V42.896C155.013 41.728 154.357 40.992 153.237 40.992C152.213 40.992 151.493 41.648 151.397 42.752L149.925 42.704C150.053 40.96 151.397 39.776 153.285 39.776C155.205 39.776 156.501 41.024 156.501 42.944V45.712C156.501 46.576 156.597 47.44 156.709 48H155.237C155.141 47.632 155.077 47.184 155.077 46.352C154.709 47.456 153.621 48.176 152.277 48.176ZM152.741 47.12C154.021 47.12 155.029 46.144 155.029 44.736V44.128L153.493 44.32C152.005 44.496 151.205 44.896 151.205 45.824C151.205 46.704 151.877 47.12 152.741 47.12ZM158.335 48V40.016H159.855L159.807 41.968C160.143 40.608 161.055 39.808 162.463 39.808C164.223 39.808 165.343 41.072 165.343 43.088V48H163.823V43.312C163.823 41.856 163.151 41.04 161.951 41.04C160.591 41.04 159.855 42.048 159.855 43.872V48H158.335ZM170.571 48.208C168.427 48.208 166.875 46.464 166.875 44C166.875 41.552 168.427 39.808 170.571 39.808C171.819 39.808 172.811 40.384 173.403 41.376V36.8H174.923V46.288V48H173.403V46.624C172.811 47.632 171.819 48.208 170.571 48.208ZM170.955 46.96C172.443 46.96 173.483 45.76 173.483 44C173.483 42.256 172.443 41.056 170.955 41.056C169.483 41.056 168.411 42.288 168.411 44C168.411 45.712 169.483 46.96 170.955 46.96ZM176.676 44.144V42.896H181.268V44.144H176.676ZM183.022 48V40.016H184.542L184.494 42.4C184.83 40.432 186.206 39.728 187.582 39.984V41.472C185.902 41.248 184.542 42.24 184.542 44.56V48H183.022ZM192.328 48.272C189.992 48.272 188.312 46.48 188.312 44C188.312 41.536 189.992 39.728 192.312 39.728C195.064 39.728 196.408 42.208 196.12 44.432H189.848C189.896 45.984 190.92 47.088 192.344 47.088C193.448 47.088 194.376 46.448 194.68 45.488L195.976 45.696C195.624 47.168 194.184 48.272 192.328 48.272ZM189.864 43.296H194.648C194.648 41.936 193.704 40.88 192.312 40.88C190.984 40.88 189.992 41.872 189.864 43.296ZM201.18 48.208C199.036 48.208 197.484 46.464 197.484 44C197.484 41.552 199.036 39.808 201.18 39.808C202.428 39.808 203.42 40.384 204.012 41.376V36.8H205.532V46.288V48H204.012V46.624C203.42 47.632 202.428 48.208 201.18 48.208ZM201.564 46.96C203.052 46.96 204.092 45.76 204.092 44C204.092 42.256 203.052 41.056 201.564 41.056C200.092 41.056 199.02 42.288 199.02 44C199.02 45.712 200.092 46.96 201.564 46.96ZM207.029 50.048C208.853 48.352 209.845 46.064 209.845 43.52C209.845 40.976 208.853 38.688 207.029 36.992L207.957 36.112C210.069 38.08 211.189 40.672 211.189 43.52C211.189 46.368 210.069 48.96 207.957 50.928L207.029 50.048Z" fill="#767676"/>
</svg>
