<svg width="360" height="72" viewBox="0 0 360 72" fill="none" xmlns="http://www.w3.org/2000/svg">
<mask id="path-1-inside-1_7_273" fill="white">
<path d="M0 0H360V72H0V0Z"/>
</mask>
<path d="M360 0H359V72H360H361V0H360Z" fill="#D9D9DB" mask="url(#path-1-inside-1_7_273)"/>
<rect x="16" y="12" width="48" height="48" rx="8" fill="#A0A0A0"/>
<path d="M80.736 27.24C78.368 27.24 76.656 25.464 76.656 23C76.656 20.568 78.384 18.776 80.736 18.776C82.768 18.776 84.4 20.088 84.528 21.976L83.04 22.104C82.912 20.936 81.936 20.088 80.72 20.088C79.248 20.088 78.176 21.32 78.176 23C78.176 24.888 79.392 25.896 80.72 25.896C81.872 25.896 82.912 25.128 83.056 23.832L84.544 23.944C84.432 25.896 82.8 27.24 80.736 27.24ZM89.9894 27.24C87.6214 27.24 85.9254 25.48 85.9254 23C85.9254 20.52 87.6214 18.776 89.9894 18.776C92.3574 18.776 94.0374 20.52 94.0374 23C94.0374 25.48 92.3574 27.24 89.9894 27.24ZM89.9894 25.96C91.4774 25.96 92.5014 24.744 92.5014 23C92.5014 21.272 91.4774 20.056 89.9894 20.056C88.4854 20.056 87.4614 21.272 87.4614 23C87.4614 24.744 88.4854 25.96 89.9894 25.96ZM98.9141 26.904C97.4101 27.336 95.7781 27.08 95.7781 24.808V15.8H97.2821V24.504C97.2821 25.672 97.9221 25.944 98.8821 25.624L98.9141 26.904ZM104.122 27.24C101.754 27.24 100.058 25.48 100.058 23C100.058 20.52 101.754 18.776 104.122 18.776C106.49 18.776 108.17 20.52 108.17 23C108.17 25.48 106.49 27.24 104.122 27.24ZM104.122 25.96C105.61 25.96 106.634 24.744 106.634 23C106.634 21.272 105.61 20.056 104.122 20.056C102.618 20.056 101.594 21.272 101.594 23C101.594 24.744 102.618 25.96 104.122 25.96ZM109.928 27V19.016H111.448L111.4 21.4C111.736 19.432 113.112 18.728 114.488 18.984V20.472C112.808 20.248 111.448 21.24 111.448 23.56V27H109.928ZM114.773 23.144V21.896H119.365V23.144H114.773ZM121.279 27V15.8H122.799V20.36C123.391 19.368 124.383 18.808 125.615 18.808C127.759 18.808 129.311 20.552 129.311 23.016C129.311 25.464 127.759 27.208 125.615 27.208C124.383 27.208 123.391 26.648 122.799 25.656V27H121.279ZM125.231 20.056C123.743 20.056 122.703 21.256 122.703 23.016C122.703 24.76 123.743 25.96 125.231 25.96C126.703 25.96 127.775 24.728 127.775 23.016C127.775 21.304 126.703 20.056 125.231 20.056ZM134.84 27.24C132.472 27.24 130.776 25.48 130.776 23C130.776 20.52 132.472 18.776 134.84 18.776C137.208 18.776 138.888 20.52 138.888 23C138.888 25.48 137.208 27.24 134.84 27.24ZM134.84 25.96C136.328 25.96 137.352 24.744 137.352 23C137.352 21.272 136.328 20.056 134.84 20.056C133.336 20.056 132.312 21.272 132.312 23C132.312 24.744 133.336 25.96 134.84 25.96ZM140.646 27V19.016H142.166L142.118 21.4C142.454 19.432 143.83 18.728 145.206 18.984V20.472C143.526 20.248 142.166 21.24 142.166 23.56V27H140.646ZM149.792 27.208C147.648 27.208 146.096 25.464 146.096 23C146.096 20.552 147.648 18.808 149.792 18.808C151.04 18.808 152.032 19.384 152.624 20.376V15.8H154.144V25.288V27H152.624V25.624C152.032 26.632 151.04 27.208 149.792 27.208ZM150.176 25.96C151.664 25.96 152.704 24.76 152.704 23C152.704 21.256 151.664 20.056 150.176 20.056C148.704 20.056 147.632 21.288 147.632 23C147.632 24.712 148.704 25.96 150.176 25.96ZM159.944 27.272C157.608 27.272 155.928 25.48 155.928 23C155.928 20.536 157.608 18.728 159.928 18.728C162.68 18.728 164.024 21.208 163.736 23.432H157.464C157.512 24.984 158.536 26.088 159.96 26.088C161.064 26.088 161.992 25.448 162.296 24.488L163.592 24.696C163.24 26.168 161.8 27.272 159.944 27.272ZM157.48 22.296H162.264C162.264 20.936 161.32 19.88 159.928 19.88C158.6 19.88 157.608 20.872 157.48 22.296ZM165.548 27V19.016H167.068L167.02 21.4C167.356 19.432 168.732 18.728 170.108 18.984V20.472C168.428 20.248 167.068 21.24 167.068 23.56V27H165.548ZM170.393 23.144V21.896H174.985V23.144H170.393ZM180.416 27.208C178.272 27.208 176.72 25.464 176.72 23C176.72 20.552 178.272 18.808 180.416 18.808C181.664 18.808 182.656 19.384 183.248 20.376V15.8H184.768V25.288V27H183.248V25.624C182.656 26.632 181.664 27.208 180.416 27.208ZM180.8 25.96C182.288 25.96 183.328 24.76 183.328 23C183.328 21.256 182.288 20.056 180.8 20.056C179.328 20.056 178.256 21.288 178.256 23C178.256 24.712 179.328 25.96 180.8 25.96ZM190.568 27.272C188.232 27.272 186.552 25.48 186.552 23C186.552 20.536 188.232 18.728 190.552 18.728C193.304 18.728 194.648 21.208 194.36 23.432H188.088C188.136 24.984 189.16 26.088 190.584 26.088C191.688 26.088 192.616 25.448 192.92 24.488L194.216 24.696C193.864 26.168 192.424 27.272 190.568 27.272ZM188.104 22.296H192.888C192.888 20.936 191.944 19.88 190.552 19.88C189.224 19.88 188.232 20.872 188.104 22.296ZM196.961 18.104C196.961 15.992 198.737 15.384 200.273 15.704V16.92C199.393 16.648 198.481 16.84 198.481 18.104V19.016H200.337V20.28H198.481V27H196.961V20.28H195.473V19.016H196.961V18.104ZM203.962 27.176C202.458 27.176 201.37 26.344 201.37 24.952C201.37 23.464 202.65 22.664 205.066 22.392L206.698 22.216V21.896C206.698 20.728 206.042 19.992 204.922 19.992C203.898 19.992 203.178 20.648 203.082 21.752L201.61 21.704C201.738 19.96 203.082 18.776 204.97 18.776C206.89 18.776 208.186 20.024 208.186 21.944V24.712C208.186 25.576 208.282 26.44 208.394 27H206.922C206.826 26.632 206.762 26.184 206.762 25.352C206.394 26.456 205.306 27.176 203.962 27.176ZM204.426 26.12C205.706 26.12 206.714 25.144 206.714 23.736V23.128L205.178 23.32C203.69 23.496 202.89 23.896 202.89 24.824C202.89 25.704 203.562 26.12 204.426 26.12ZM211.62 23.704C211.62 25.16 212.292 25.976 213.444 25.976C214.772 25.976 215.492 24.968 215.492 23.144V19.016H217.012V24.12V27H215.492L215.54 25.448C215.124 26.568 214.244 27.208 212.948 27.208C211.22 27.208 210.116 25.976 210.116 23.992V19.016H211.62V23.704ZM222.13 26.904C220.626 27.336 218.994 27.08 218.994 24.808V15.8H220.498V24.504C220.498 25.672 221.138 25.944 222.098 25.624L222.13 26.904ZM227.384 26.92C225.832 27.416 224.008 27 224.008 24.536V20.28H222.472V19.016H224.008V17.016H225.528V19.016H227.592V20.28H225.528V24.424C225.528 25.832 226.472 25.976 227.352 25.656L227.384 26.92Z" fill="#414141"/>
<path d="M80.592 49.76V48.24C78.352 48.016 76.8 46.544 76.784 44.496L78.32 44.384C78.368 45.76 79.28 46.736 80.592 46.976V42.992L80.368 42.944C78.304 42.544 77.152 41.424 77.152 39.776C77.152 37.936 78.544 36.704 80.592 36.544V35.2H81.776V36.576C83.712 36.864 85.072 38.272 85.136 40.192L83.584 40.288C83.536 39.056 82.832 38.144 81.776 37.856V41.68L81.968 41.712C84.304 42.16 85.456 43.2 85.456 44.96C85.456 46.768 83.968 48.064 81.776 48.24V49.76H80.592ZM78.72 39.664C78.72 40.592 79.392 41.184 80.512 41.44L80.592 41.456V37.792C79.488 37.936 78.72 38.656 78.72 39.664ZM81.776 46.992C83.04 46.816 83.888 46.096 83.888 45.056C83.888 44.048 83.248 43.536 81.824 43.216L81.776 43.2V46.992ZM90.2057 50.928C88.0938 48.96 86.9738 46.368 86.9738 43.52C86.9738 40.672 88.0938 38.08 90.2057 36.112L91.1338 36.992C89.3098 38.688 88.3178 40.976 88.3178 43.52C88.3178 46.064 89.3098 48.352 91.1338 50.048L90.2057 50.928ZM95.1735 48.24C92.8055 48.24 91.0935 46.464 91.0935 44C91.0935 41.568 92.8215 39.776 95.1735 39.776C97.2055 39.776 98.8375 41.088 98.9655 42.976L97.4775 43.104C97.3495 41.936 96.3735 41.088 95.1575 41.088C93.6855 41.088 92.6135 42.32 92.6135 44C92.6135 45.888 93.8295 46.896 95.1575 46.896C96.3095 46.896 97.3495 46.128 97.4935 44.832L98.9815 44.944C98.8695 46.896 97.2375 48.24 95.1735 48.24ZM104.267 48.24C101.899 48.24 100.203 46.48 100.203 44C100.203 41.52 101.899 39.776 104.267 39.776C106.635 39.776 108.315 41.52 108.315 44C108.315 46.48 106.635 48.24 104.267 48.24ZM104.267 46.96C105.755 46.96 106.779 45.744 106.779 44C106.779 42.272 105.755 41.056 104.267 41.056C102.763 41.056 101.739 42.272 101.739 44C101.739 45.744 102.763 46.96 104.267 46.96ZM113.032 47.904C111.528 48.336 109.896 48.08 109.896 45.808V36.8H111.4V45.504C111.4 46.672 112.04 46.944 113 46.624L113.032 47.904ZM118.079 48.24C115.711 48.24 114.015 46.48 114.015 44C114.015 41.52 115.711 39.776 118.079 39.776C120.447 39.776 122.127 41.52 122.127 44C122.127 46.48 120.447 48.24 118.079 48.24ZM118.079 46.96C119.567 46.96 120.591 45.744 120.591 44C120.591 42.272 119.567 41.056 118.079 41.056C116.575 41.056 115.551 42.272 115.551 44C115.551 45.744 116.575 46.96 118.079 46.96ZM123.725 48V40.016H125.245L125.197 42.4C125.533 40.432 126.909 39.728 128.285 39.984V41.472C126.605 41.248 125.245 42.24 125.245 44.56V48H123.725ZM128.41 44.144V42.896H133.002V44.144H128.41ZM134.757 48V40.016H136.277L136.229 41.968C136.565 40.608 137.477 39.808 138.885 39.808C140.645 39.808 141.765 41.072 141.765 43.088V48H140.245V43.312C140.245 41.856 139.573 41.04 138.373 41.04C137.013 41.04 136.277 42.048 136.277 43.872V48H134.757ZM147.313 48.272C144.977 48.272 143.297 46.48 143.297 44C143.297 41.536 144.977 39.728 147.297 39.728C150.049 39.728 151.393 42.208 151.105 44.432H144.833C144.881 45.984 145.905 47.088 147.329 47.088C148.433 47.088 149.361 46.448 149.665 45.488L150.961 45.696C150.609 47.168 149.169 48.272 147.313 48.272ZM144.849 43.296H149.633C149.633 41.936 148.689 40.88 147.297 40.88C145.969 40.88 144.977 41.872 144.849 43.296ZM154.197 44.704C154.197 46.16 154.869 46.976 156.021 46.976C157.349 46.976 158.069 45.968 158.069 44.144V40.016H159.589V45.12V48H158.069L158.117 46.448C157.701 47.568 156.821 48.208 155.525 48.208C153.797 48.208 152.693 46.976 152.693 44.992V40.016H154.197V44.704ZM165.86 47.92C164.308 48.416 162.484 48 162.484 45.536V41.28H160.948V40.016H162.484V38.016H164.004V40.016H166.068V41.28H164.004V45.424C164.004 46.832 164.948 46.976 165.828 46.656L165.86 47.92ZM167.616 48V40.016H169.136L169.088 42.4C169.424 40.432 170.8 39.728 172.176 39.984V41.472C170.496 41.248 169.136 42.24 169.136 44.56V48H167.616ZM175.512 48.176C174.008 48.176 172.92 47.344 172.92 45.952C172.92 44.464 174.2 43.664 176.616 43.392L178.248 43.216V42.896C178.248 41.728 177.592 40.992 176.472 40.992C175.448 40.992 174.728 41.648 174.632 42.752L173.16 42.704C173.288 40.96 174.632 39.776 176.52 39.776C178.44 39.776 179.736 41.024 179.736 42.944V45.712C179.736 46.576 179.832 47.44 179.944 48H178.472C178.376 47.632 178.312 47.184 178.312 46.352C177.944 47.456 176.856 48.176 175.512 48.176ZM175.976 47.12C177.256 47.12 178.264 46.144 178.264 44.736V44.128L176.728 44.32C175.24 44.496 174.44 44.896 174.44 45.824C174.44 46.704 175.112 47.12 175.976 47.12ZM184.672 47.904C183.168 48.336 181.536 48.08 181.536 45.808V36.8H183.04V45.504C183.04 46.672 183.68 46.944 184.64 46.624L184.672 47.904ZM185.223 44.144V42.896H189.815V44.144H185.223ZM195.061 48.32C192.805 48.32 191.317 46.928 191.189 44.992L192.693 44.88C192.805 46.32 193.877 47.072 195.077 47.072C196.325 47.072 197.461 46.192 197.461 44.576C197.461 43.008 196.341 42.08 195.045 42.08C194.213 42.08 193.413 42.48 192.933 43.232L191.445 43.04L191.989 36.8H198.709V38.064H193.349L192.997 42.048C193.541 41.28 194.501 40.912 195.477 40.912C197.237 40.912 198.981 42.144 198.981 44.512C198.981 46.752 197.365 48.32 195.061 48.32ZM204.853 48.224C202.373 48.224 200.693 45.856 200.693 42.4C200.693 38.944 202.373 36.576 204.853 36.576C207.333 36.576 209.029 38.944 209.029 42.4C209.029 45.856 207.333 48.224 204.853 48.224ZM204.853 46.88C206.437 46.88 207.493 45.056 207.493 42.4C207.493 39.744 206.437 37.92 204.853 37.92C203.285 37.92 202.213 39.744 202.213 42.4C202.213 45.056 203.285 46.88 204.853 46.88ZM215.01 48.224C212.53 48.224 210.85 45.856 210.85 42.4C210.85 38.944 212.53 36.576 215.01 36.576C217.49 36.576 219.186 38.944 219.186 42.4C219.186 45.856 217.49 48.224 215.01 48.224ZM215.01 46.88C216.594 46.88 217.65 45.056 217.65 42.4C217.65 39.744 216.594 37.92 215.01 37.92C213.442 37.92 212.37 39.744 212.37 42.4C212.37 45.056 213.442 46.88 215.01 46.88ZM219.592 50.048C221.416 48.352 222.408 46.064 222.408 43.52C222.408 40.976 221.416 38.688 219.592 36.992L220.52 36.112C222.632 38.08 223.752 40.672 223.752 43.52C223.752 46.368 222.632 48.96 220.52 50.928L219.592 50.048Z" fill="#767676"/>
</svg>
