<svg width="360" height="72" viewBox="0 0 360 72" fill="none" xmlns="http://www.w3.org/2000/svg">
<mask id="path-1-inside-1_1348_9931" fill="white">
<path d="M0 0H360V72H0V0Z"/>
</mask>
<path d="M360 0H359V72H360H361V0H360Z" fill="#D9D9DB" mask="url(#path-1-inside-1_1348_9931)"/>
<rect x="16" y="12" width="48" height="48" rx="8" fill="#F5F5F5" fill-opacity="0.7"/>
<path d="M80.736 27.24C78.368 27.24 76.656 25.464 76.656 23C76.656 20.568 78.384 18.776 80.736 18.776C82.768 18.776 84.4 20.088 84.528 21.976L83.04 22.104C82.912 20.936 81.936 20.088 80.72 20.088C79.248 20.088 78.176 21.32 78.176 23C78.176 24.888 79.392 25.896 80.72 25.896C81.872 25.896 82.912 25.128 83.056 23.832L84.544 23.944C84.432 25.896 82.8 27.24 80.736 27.24ZM89.9894 27.24C87.6214 27.24 85.9254 25.48 85.9254 23C85.9254 20.52 87.6214 18.776 89.9894 18.776C92.3574 18.776 94.0374 20.52 94.0374 23C94.0374 25.48 92.3574 27.24 89.9894 27.24ZM89.9894 25.96C91.4774 25.96 92.5014 24.744 92.5014 23C92.5014 21.272 91.4774 20.056 89.9894 20.056C88.4854 20.056 87.4614 21.272 87.4614 23C87.4614 24.744 88.4854 25.96 89.9894 25.96ZM98.9141 26.904C97.4101 27.336 95.7781 27.08 95.7781 24.808V15.8H97.2821V24.504C97.2821 25.672 97.9221 25.944 98.8821 25.624L98.9141 26.904ZM104.122 27.24C101.754 27.24 100.058 25.48 100.058 23C100.058 20.52 101.754 18.776 104.122 18.776C106.49 18.776 108.17 20.52 108.17 23C108.17 25.48 106.49 27.24 104.122 27.24ZM104.122 25.96C105.61 25.96 106.634 24.744 106.634 23C106.634 21.272 105.61 20.056 104.122 20.056C102.618 20.056 101.594 21.272 101.594 23C101.594 24.744 102.618 25.96 104.122 25.96ZM109.928 27V19.016H111.448L111.4 21.4C111.736 19.432 113.112 18.728 114.488 18.984V20.472C112.808 20.248 111.448 21.24 111.448 23.56V27H109.928ZM114.773 23.144V21.896H119.365V23.144H114.773ZM121.279 27V19.016H122.799L122.751 20.968C123.087 19.608 123.999 18.808 125.407 18.808C127.167 18.808 128.287 20.072 128.287 22.088V27H126.767V22.312C126.767 20.856 126.095 20.04 124.895 20.04C123.535 20.04 122.799 21.048 122.799 22.872V27H121.279ZM133.995 27.272C131.659 27.272 129.979 25.48 129.979 23C129.979 20.536 131.659 18.728 133.979 18.728C136.731 18.728 138.075 21.208 137.787 23.432H131.515C131.563 24.984 132.587 26.088 134.011 26.088C135.115 26.088 136.043 25.448 136.347 24.488L137.643 24.696C137.291 26.168 135.851 27.272 133.995 27.272ZM131.531 22.296H136.315C136.315 20.936 135.371 19.88 133.979 19.88C132.651 19.88 131.659 20.872 131.531 22.296ZM141.039 23.704C141.039 25.16 141.711 25.976 142.863 25.976C144.191 25.976 144.911 24.968 144.911 23.144V19.016H146.431V24.12V27H144.911L144.959 25.448C144.543 26.568 143.663 27.208 142.367 27.208C140.639 27.208 139.535 25.976 139.535 23.992V19.016H141.039V23.704ZM152.863 26.92C151.311 27.416 149.487 27 149.487 24.536V20.28H147.951V19.016H149.487V17.016H151.007V19.016H153.071V20.28H151.007V24.424C151.007 25.832 151.951 25.976 152.831 25.656L152.863 26.92ZM154.778 27V19.016H156.298L156.25 21.4C156.586 19.432 157.962 18.728 159.338 18.984V20.472C157.658 20.248 156.298 21.24 156.298 23.56V27H154.778ZM162.834 27.176C161.33 27.176 160.242 26.344 160.242 24.952C160.242 23.464 161.522 22.664 163.938 22.392L165.57 22.216V21.896C165.57 20.728 164.914 19.992 163.794 19.992C162.77 19.992 162.05 20.648 161.954 21.752L160.482 21.704C160.61 19.96 161.954 18.776 163.842 18.776C165.762 18.776 167.058 20.024 167.058 21.944V24.712C167.058 25.576 167.154 26.44 167.266 27H165.794C165.698 26.632 165.634 26.184 165.634 25.352C165.266 26.456 164.178 27.176 162.834 27.176ZM163.298 26.12C164.578 26.12 165.586 25.144 165.586 23.736V23.128L164.05 23.32C162.562 23.496 161.762 23.896 161.762 24.824C161.762 25.704 162.434 26.12 163.298 26.12ZM172.155 26.904C170.651 27.336 169.019 27.08 169.019 24.808V15.8H170.523V24.504C170.523 25.672 171.163 25.944 172.123 25.624L172.155 26.904ZM172.865 23.144V21.896H177.457V23.144H172.865ZM182.864 27.32C180.608 27.32 179.12 25.928 178.992 23.992L180.496 23.88C180.608 25.32 181.68 26.072 182.88 26.072C184.128 26.072 185.264 25.192 185.264 23.576C185.264 22.008 184.144 21.08 182.848 21.08C182.016 21.08 181.216 21.48 180.736 22.232L179.248 22.04L179.792 15.8H186.512V17.064H181.152L180.8 21.048C181.344 20.28 182.304 19.912 183.28 19.912C185.04 19.912 186.784 21.144 186.784 23.512C186.784 25.752 185.168 27.32 182.864 27.32ZM192.816 27.224C190.336 27.224 188.656 24.856 188.656 21.4C188.656 17.944 190.336 15.576 192.816 15.576C195.296 15.576 196.992 17.944 196.992 21.4C196.992 24.856 195.296 27.224 192.816 27.224ZM192.816 25.88C194.4 25.88 195.456 24.056 195.456 21.4C195.456 18.744 194.4 16.92 192.816 16.92C191.248 16.92 190.176 18.744 190.176 21.4C190.176 24.056 191.248 25.88 192.816 25.88Z" fill="#414141"/>
<path d="M78.032 48L78.816 44.704H76.736V43.76H79.04L79.696 40.96H76.736V40.016H79.92L80.688 36.8H81.968L81.2 40.016H83.904L84.672 36.8H85.936L85.168 40.016H87.232V40.96H84.944L84.288 43.76H87.232V44.704H84.064L83.28 48H82L82.784 44.704H80.08L79.296 48H78.032ZM80.304 43.76H83.008L83.68 40.96H80.976L80.304 43.76ZM88.9314 48V36.8H96.0994V38.064H90.5154V41.824H95.7794V43.056H90.5154V48H88.9314ZM97.822 48V36.8H104.99V38.064H99.406V41.824H104.67V43.056H99.406V48H97.822ZM106.713 48V36.8H113.881V38.064H108.297V41.824H113.561V43.056H108.297V48H106.713ZM115.603 48V36.8H122.771V38.064H117.187V41.824H122.451V43.056H117.187V48H115.603ZM124.494 48V36.8H131.662V38.064H126.078V41.824H131.342V43.056H126.078V48H124.494ZM133.385 48V36.8H140.553V38.064H134.969V41.824H140.233V43.056H134.969V48H133.385ZM140.631 48.592C141.303 48.592 141.719 48.24 141.719 47.808C141.591 47.872 141.431 47.92 141.287 47.92C140.791 47.92 140.407 47.536 140.407 47.008C140.407 46.448 140.839 46.032 141.415 46.032C142.119 46.032 142.599 46.656 142.599 47.504C142.599 48.608 141.799 49.28 140.631 49.28V48.592ZM149.364 48C149.364 44.176 150.9 40.288 153.444 38.096H147.092V36.8H154.74V38.016C152.372 40.24 150.948 44.208 150.948 48H149.364ZM159.838 48.224C157.358 48.224 155.678 45.856 155.678 42.4C155.678 38.944 157.358 36.576 159.838 36.576C162.318 36.576 164.014 38.944 164.014 42.4C164.014 45.856 162.318 48.224 159.838 48.224ZM159.838 46.88C161.422 46.88 162.478 45.056 162.478 42.4C162.478 39.744 161.422 37.92 159.838 37.92C158.27 37.92 157.198 39.744 157.198 42.4C157.198 45.056 158.27 46.88 159.838 46.88ZM168.585 42.336C166.921 42.336 165.609 41.04 165.609 39.408C165.609 37.76 166.921 36.48 168.585 36.48C170.265 36.48 171.577 37.76 171.577 39.408C171.577 41.04 170.265 42.336 168.585 42.336ZM168.585 41.216C169.577 41.216 170.329 40.416 170.329 39.408C170.329 38.384 169.577 37.6 168.585 37.6C167.609 37.6 166.841 38.384 166.841 39.408C166.841 40.416 167.609 41.216 168.585 41.216ZM167.705 48.16L166.857 47.328L176.585 36.64L177.433 37.472L167.705 48.16ZM175.529 42.464C177.193 42.464 178.505 43.76 178.505 45.392C178.505 47.04 177.193 48.32 175.529 48.32C173.849 48.32 172.537 47.04 172.537 45.392C172.537 43.76 173.849 42.464 175.529 42.464ZM175.529 43.584C174.537 43.584 173.785 44.384 173.785 45.392C173.785 46.416 174.537 47.2 175.529 47.2C176.505 47.2 177.273 46.416 177.273 45.392C177.273 44.384 176.505 43.584 175.529 43.584Z" fill="#767676"/>
</svg>
