<svg width="360" height="72" viewBox="0 0 360 72" fill="none" xmlns="http://www.w3.org/2000/svg">
<mask id="path-1-inside-1_7_274" fill="white">
<path d="M0 0H360V72H0V0Z"/>
</mask>
<path d="M360 0H359V72H360H361V0H360Z" fill="#D9D9DB" mask="url(#path-1-inside-1_7_274)"/>
<rect x="16" y="12" width="48" height="48" rx="8" fill="#BC0F0F"/>
<path d="M80.736 27.24C78.368 27.24 76.656 25.464 76.656 23C76.656 20.568 78.384 18.776 80.736 18.776C82.768 18.776 84.4 20.088 84.528 21.976L83.04 22.104C82.912 20.936 81.936 20.088 80.72 20.088C79.248 20.088 78.176 21.32 78.176 23C78.176 24.888 79.392 25.896 80.72 25.896C81.872 25.896 82.912 25.128 83.056 23.832L84.544 23.944C84.432 25.896 82.8 27.24 80.736 27.24ZM89.9894 27.24C87.6214 27.24 85.9254 25.48 85.9254 23C85.9254 20.52 87.6214 18.776 89.9894 18.776C92.3574 18.776 94.0374 20.52 94.0374 23C94.0374 25.48 92.3574 27.24 89.9894 27.24ZM89.9894 25.96C91.4774 25.96 92.5014 24.744 92.5014 23C92.5014 21.272 91.4774 20.056 89.9894 20.056C88.4854 20.056 87.4614 21.272 87.4614 23C87.4614 24.744 88.4854 25.96 89.9894 25.96ZM98.9141 26.904C97.4101 27.336 95.7781 27.08 95.7781 24.808V15.8H97.2821V24.504C97.2821 25.672 97.9221 25.944 98.8821 25.624L98.9141 26.904ZM104.122 27.24C101.754 27.24 100.058 25.48 100.058 23C100.058 20.52 101.754 18.776 104.122 18.776C106.49 18.776 108.17 20.52 108.17 23C108.17 25.48 106.49 27.24 104.122 27.24ZM104.122 25.96C105.61 25.96 106.634 24.744 106.634 23C106.634 21.272 105.61 20.056 104.122 20.056C102.618 20.056 101.594 21.272 101.594 23C101.594 24.744 102.618 25.96 104.122 25.96ZM109.928 27V19.016H111.448L111.4 21.4C111.736 19.432 113.112 18.728 114.488 18.984V20.472C112.808 20.248 111.448 21.24 111.448 23.56V27H109.928ZM114.773 23.144V21.896H119.365V23.144H114.773ZM121.279 27V15.8H122.799V20.36C123.391 19.368 124.383 18.808 125.615 18.808C127.759 18.808 129.311 20.552 129.311 23.016C129.311 25.464 127.759 27.208 125.615 27.208C124.383 27.208 123.391 26.648 122.799 25.656V27H121.279ZM125.231 20.056C123.743 20.056 122.703 21.256 122.703 23.016C122.703 24.76 123.743 25.96 125.231 25.96C126.703 25.96 127.775 24.728 127.775 23.016C127.775 21.304 126.703 20.056 125.231 20.056ZM134.84 27.24C132.472 27.24 130.776 25.48 130.776 23C130.776 20.52 132.472 18.776 134.84 18.776C137.208 18.776 138.888 20.52 138.888 23C138.888 25.48 137.208 27.24 134.84 27.24ZM134.84 25.96C136.328 25.96 137.352 24.744 137.352 23C137.352 21.272 136.328 20.056 134.84 20.056C133.336 20.056 132.312 21.272 132.312 23C132.312 24.744 133.336 25.96 134.84 25.96ZM140.646 27V19.016H142.166L142.118 21.4C142.454 19.432 143.83 18.728 145.206 18.984V20.472C143.526 20.248 142.166 21.24 142.166 23.56V27H140.646ZM149.792 27.208C147.648 27.208 146.096 25.464 146.096 23C146.096 20.552 147.648 18.808 149.792 18.808C151.04 18.808 152.032 19.384 152.624 20.376V15.8H154.144V25.288V27H152.624V25.624C152.032 26.632 151.04 27.208 149.792 27.208ZM150.176 25.96C151.664 25.96 152.704 24.76 152.704 23C152.704 21.256 151.664 20.056 150.176 20.056C148.704 20.056 147.632 21.288 147.632 23C147.632 24.712 148.704 25.96 150.176 25.96ZM159.944 27.272C157.608 27.272 155.928 25.48 155.928 23C155.928 20.536 157.608 18.728 159.928 18.728C162.68 18.728 164.024 21.208 163.736 23.432H157.464C157.512 24.984 158.536 26.088 159.96 26.088C161.064 26.088 161.992 25.448 162.296 24.488L163.592 24.696C163.24 26.168 161.8 27.272 159.944 27.272ZM157.48 22.296H162.264C162.264 20.936 161.32 19.88 159.928 19.88C158.6 19.88 157.608 20.872 157.48 22.296ZM165.548 27V19.016H167.068L167.02 21.4C167.356 19.432 168.732 18.728 170.108 18.984V20.472C168.428 20.248 167.068 21.24 167.068 23.56V27H165.548ZM170.393 23.144V21.896H174.985V23.144H170.393ZM176.899 30.04V19.016H178.419V20.36C179.011 19.368 180.003 18.808 181.235 18.808C183.379 18.808 184.931 20.552 184.931 23.016C184.931 25.464 183.379 27.208 181.235 27.208C180.003 27.208 179.011 26.648 178.419 25.656V30.04H176.899ZM180.851 20.056C179.363 20.056 178.323 21.256 178.323 23.016C178.323 24.76 179.363 25.96 180.851 25.96C182.323 25.96 183.395 24.728 183.395 23.016C183.395 21.304 182.323 20.056 180.851 20.056ZM186.684 27V19.016H188.204L188.156 21.4C188.492 19.432 189.868 18.728 191.244 18.984V20.472C189.564 20.248 188.204 21.24 188.204 23.56V27H186.684ZM192.703 27V19.016H194.223V27H192.703ZM193.471 17.656C192.847 17.656 192.383 17.192 192.383 16.568C192.383 15.96 192.847 15.48 193.471 15.48C194.079 15.48 194.543 15.96 194.543 16.568C194.543 17.192 194.079 17.656 193.471 17.656ZM196.27 27V19.016H197.79L197.742 21C198.062 19.624 198.974 18.808 200.398 18.808C201.758 18.808 202.734 19.592 203.086 20.904C203.422 19.576 204.366 18.808 205.774 18.808C207.486 18.808 208.574 20.04 208.574 22.008V27H207.054V22.312C207.054 20.856 206.414 20.04 205.262 20.04C203.966 20.04 203.23 21.048 203.23 22.872V27H201.726V22.312C201.726 20.856 201.054 20.04 199.87 20.04C198.526 20.04 197.79 21.048 197.79 22.872V27H196.27ZM212.779 27.176C211.275 27.176 210.187 26.344 210.187 24.952C210.187 23.464 211.467 22.664 213.883 22.392L215.515 22.216V21.896C215.515 20.728 214.859 19.992 213.739 19.992C212.715 19.992 211.995 20.648 211.899 21.752L210.427 21.704C210.555 19.96 211.899 18.776 213.787 18.776C215.707 18.776 217.003 20.024 217.003 21.944V24.712C217.003 25.576 217.099 26.44 217.211 27H215.739C215.643 26.632 215.579 26.184 215.579 25.352C215.211 26.456 214.123 27.176 212.779 27.176ZM213.243 26.12C214.523 26.12 215.531 25.144 215.531 23.736V23.128L213.995 23.32C212.507 23.496 211.707 23.896 211.707 24.824C211.707 25.704 212.379 26.12 213.243 26.12ZM218.996 27V19.016H220.516L220.468 21.4C220.804 19.432 222.18 18.728 223.556 18.984V20.472C221.876 20.248 220.516 21.24 220.516 23.56V27H218.996ZM224.95 28.888C225.91 29.144 226.95 28.952 227.59 27.576L227.926 26.776L224.502 19.016H226.102L228.758 25.096L231.206 19.016H232.742L229.158 27.576C228.262 29.752 226.806 30.632 224.95 30.168V28.888Z" fill="#414141"/>
<path d="M80.592 49.76V48.24C78.352 48.016 76.8 46.544 76.784 44.496L78.32 44.384C78.368 45.76 79.28 46.736 80.592 46.976V42.992L80.368 42.944C78.304 42.544 77.152 41.424 77.152 39.776C77.152 37.936 78.544 36.704 80.592 36.544V35.2H81.776V36.576C83.712 36.864 85.072 38.272 85.136 40.192L83.584 40.288C83.536 39.056 82.832 38.144 81.776 37.856V41.68L81.968 41.712C84.304 42.16 85.456 43.2 85.456 44.96C85.456 46.768 83.968 48.064 81.776 48.24V49.76H80.592ZM78.72 39.664C78.72 40.592 79.392 41.184 80.512 41.44L80.592 41.456V37.792C79.488 37.936 78.72 38.656 78.72 39.664ZM81.776 46.992C83.04 46.816 83.888 46.096 83.888 45.056C83.888 44.048 83.248 43.536 81.824 43.216L81.776 43.2V46.992ZM90.2057 50.928C88.0938 48.96 86.9738 46.368 86.9738 43.52C86.9738 40.672 88.0938 38.08 90.2057 36.112L91.1338 36.992C89.3098 38.688 88.3178 40.976 88.3178 43.52C88.3178 46.064 89.3098 48.352 91.1338 50.048L90.2057 50.928ZM95.1735 48.24C92.8055 48.24 91.0935 46.464 91.0935 44C91.0935 41.568 92.8215 39.776 95.1735 39.776C97.2055 39.776 98.8375 41.088 98.9655 42.976L97.4775 43.104C97.3495 41.936 96.3735 41.088 95.1575 41.088C93.6855 41.088 92.6135 42.32 92.6135 44C92.6135 45.888 93.8295 46.896 95.1575 46.896C96.3095 46.896 97.3495 46.128 97.4935 44.832L98.9815 44.944C98.8695 46.896 97.2375 48.24 95.1735 48.24ZM104.267 48.24C101.899 48.24 100.203 46.48 100.203 44C100.203 41.52 101.899 39.776 104.267 39.776C106.635 39.776 108.315 41.52 108.315 44C108.315 46.48 106.635 48.24 104.267 48.24ZM104.267 46.96C105.755 46.96 106.779 45.744 106.779 44C106.779 42.272 105.755 41.056 104.267 41.056C102.763 41.056 101.739 42.272 101.739 44C101.739 45.744 102.763 46.96 104.267 46.96ZM113.032 47.904C111.528 48.336 109.896 48.08 109.896 45.808V36.8H111.4V45.504C111.4 46.672 112.04 46.944 113 46.624L113.032 47.904ZM118.079 48.24C115.711 48.24 114.015 46.48 114.015 44C114.015 41.52 115.711 39.776 118.079 39.776C120.447 39.776 122.127 41.52 122.127 44C122.127 46.48 120.447 48.24 118.079 48.24ZM118.079 46.96C119.567 46.96 120.591 45.744 120.591 44C120.591 42.272 119.567 41.056 118.079 41.056C116.575 41.056 115.551 42.272 115.551 44C115.551 45.744 116.575 46.96 118.079 46.96ZM123.725 48V40.016H125.245L125.197 42.4C125.533 40.432 126.909 39.728 128.285 39.984V41.472C126.605 41.248 125.245 42.24 125.245 44.56V48H123.725ZM128.41 44.144V42.896H133.002V44.144H128.41ZM134.757 48V36.8H136.277V41.36C136.869 40.368 137.861 39.808 139.093 39.808C141.237 39.808 142.789 41.552 142.789 44.016C142.789 46.464 141.237 48.208 139.093 48.208C137.861 48.208 136.869 47.648 136.277 46.656V48H134.757ZM138.709 41.056C137.221 41.056 136.181 42.256 136.181 44.016C136.181 45.76 137.221 46.96 138.709 46.96C140.181 46.96 141.253 45.728 141.253 44.016C141.253 42.304 140.181 41.056 138.709 41.056ZM144.382 48V40.016H145.902L145.854 42.4C146.19 40.432 147.566 39.728 148.942 39.984V41.472C147.262 41.248 145.902 42.24 145.902 44.56V48H144.382ZM152.277 48.176C150.773 48.176 149.685 47.344 149.685 45.952C149.685 44.464 150.965 43.664 153.381 43.392L155.013 43.216V42.896C155.013 41.728 154.357 40.992 153.237 40.992C152.213 40.992 151.493 41.648 151.397 42.752L149.925 42.704C150.053 40.96 151.397 39.776 153.285 39.776C155.205 39.776 156.501 41.024 156.501 42.944V45.712C156.501 46.576 156.597 47.44 156.709 48H155.237C155.141 47.632 155.077 47.184 155.077 46.352C154.709 47.456 153.621 48.176 152.277 48.176ZM152.741 47.12C154.021 47.12 155.029 46.144 155.029 44.736V44.128L153.493 44.32C152.005 44.496 151.205 44.896 151.205 45.824C151.205 46.704 151.877 47.12 152.741 47.12ZM158.335 48V40.016H159.855L159.807 41.968C160.143 40.608 161.055 39.808 162.463 39.808C164.223 39.808 165.343 41.072 165.343 43.088V48H163.823V43.312C163.823 41.856 163.151 41.04 161.951 41.04C160.591 41.04 159.855 42.048 159.855 43.872V48H158.335ZM170.571 48.208C168.427 48.208 166.875 46.464 166.875 44C166.875 41.552 168.427 39.808 170.571 39.808C171.819 39.808 172.811 40.384 173.403 41.376V36.8H174.923V46.288V48H173.403V46.624C172.811 47.632 171.819 48.208 170.571 48.208ZM170.955 46.96C172.443 46.96 173.483 45.76 173.483 44C173.483 42.256 172.443 41.056 170.955 41.056C169.483 41.056 168.411 42.288 168.411 44C168.411 45.712 169.483 46.96 170.955 46.96ZM176.676 44.144V42.896H181.268V44.144H176.676ZM183.022 48V40.016H184.542L184.494 42.4C184.83 40.432 186.206 39.728 187.582 39.984V41.472C185.902 41.248 184.542 42.24 184.542 44.56V48H183.022ZM192.328 48.272C189.992 48.272 188.312 46.48 188.312 44C188.312 41.536 189.992 39.728 192.312 39.728C195.064 39.728 196.408 42.208 196.12 44.432H189.848C189.896 45.984 190.92 47.088 192.344 47.088C193.448 47.088 194.376 46.448 194.68 45.488L195.976 45.696C195.624 47.168 194.184 48.272 192.328 48.272ZM189.864 43.296H194.648C194.648 41.936 193.704 40.88 192.312 40.88C190.984 40.88 189.992 41.872 189.864 43.296ZM201.18 48.208C199.036 48.208 197.484 46.464 197.484 44C197.484 41.552 199.036 39.808 201.18 39.808C202.428 39.808 203.42 40.384 204.012 41.376V36.8H205.532V46.288V48H204.012V46.624C203.42 47.632 202.428 48.208 201.18 48.208ZM201.564 46.96C203.052 46.96 204.092 45.76 204.092 44C204.092 42.256 203.052 41.056 201.564 41.056C200.092 41.056 199.02 42.288 199.02 44C199.02 45.712 200.092 46.96 201.564 46.96ZM207.029 50.048C208.853 48.352 209.845 46.064 209.845 43.52C209.845 40.976 208.853 38.688 207.029 36.992L207.957 36.112C210.069 38.08 211.189 40.672 211.189 43.52C211.189 46.368 210.069 48.96 207.957 50.928L207.029 50.048Z" fill="#767676"/>
</svg>
