<svg width="360" height="72" viewBox="0 0 360 72" fill="none" xmlns="http://www.w3.org/2000/svg">
<mask id="path-1-inside-1_7_84" fill="white">
<path d="M0 0H360V72H0V0Z"/>
</mask>
<path d="M360 0H359V72H360H361V0H360Z" fill="#D9D9DB" mask="url(#path-1-inside-1_7_84)"/>
<rect x="16" y="12" width="48" height="48" rx="8" fill="#D9D9DB"/>
<path d="M80.736 27.24C78.368 27.24 76.656 25.464 76.656 23C76.656 20.568 78.384 18.776 80.736 18.776C82.768 18.776 84.4 20.088 84.528 21.976L83.04 22.104C82.912 20.936 81.936 20.088 80.72 20.088C79.248 20.088 78.176 21.32 78.176 23C78.176 24.888 79.392 25.896 80.72 25.896C81.872 25.896 82.912 25.128 83.056 23.832L84.544 23.944C84.432 25.896 82.8 27.24 80.736 27.24ZM89.9894 27.24C87.6214 27.24 85.9254 25.48 85.9254 23C85.9254 20.52 87.6214 18.776 89.9894 18.776C92.3574 18.776 94.0374 20.52 94.0374 23C94.0374 25.48 92.3574 27.24 89.9894 27.24ZM89.9894 25.96C91.4774 25.96 92.5014 24.744 92.5014 23C92.5014 21.272 91.4774 20.056 89.9894 20.056C88.4854 20.056 87.4614 21.272 87.4614 23C87.4614 24.744 88.4854 25.96 89.9894 25.96ZM98.9141 26.904C97.4101 27.336 95.7781 27.08 95.7781 24.808V15.8H97.2821V24.504C97.2821 25.672 97.9221 25.944 98.8821 25.624L98.9141 26.904ZM104.122 27.24C101.754 27.24 100.058 25.48 100.058 23C100.058 20.52 101.754 18.776 104.122 18.776C106.49 18.776 108.17 20.52 108.17 23C108.17 25.48 106.49 27.24 104.122 27.24ZM104.122 25.96C105.61 25.96 106.634 24.744 106.634 23C106.634 21.272 105.61 20.056 104.122 20.056C102.618 20.056 101.594 21.272 101.594 23C101.594 24.744 102.618 25.96 104.122 25.96ZM109.928 27V19.016H111.448L111.4 21.4C111.736 19.432 113.112 18.728 114.488 18.984V20.472C112.808 20.248 111.448 21.24 111.448 23.56V27H109.928ZM114.773 23.144V21.896H119.365V23.144H114.773ZM121.279 27V19.016H122.799L122.751 20.968C123.087 19.608 123.999 18.808 125.407 18.808C127.167 18.808 128.287 20.072 128.287 22.088V27H126.767V22.312C126.767 20.856 126.095 20.04 124.895 20.04C123.535 20.04 122.799 21.048 122.799 22.872V27H121.279ZM133.995 27.272C131.659 27.272 129.979 25.48 129.979 23C129.979 20.536 131.659 18.728 133.979 18.728C136.731 18.728 138.075 21.208 137.787 23.432H131.515C131.563 24.984 132.587 26.088 134.011 26.088C135.115 26.088 136.043 25.448 136.347 24.488L137.643 24.696C137.291 26.168 135.851 27.272 133.995 27.272ZM131.531 22.296H136.315C136.315 20.936 135.371 19.88 133.979 19.88C132.651 19.88 131.659 20.872 131.531 22.296ZM141.039 23.704C141.039 25.16 141.711 25.976 142.863 25.976C144.191 25.976 144.911 24.968 144.911 23.144V19.016H146.431V24.12V27H144.911L144.959 25.448C144.543 26.568 143.663 27.208 142.367 27.208C140.639 27.208 139.535 25.976 139.535 23.992V19.016H141.039V23.704ZM152.863 26.92C151.311 27.416 149.487 27 149.487 24.536V20.28H147.951V19.016H149.487V17.016H151.007V19.016H153.071V20.28H151.007V24.424C151.007 25.832 151.951 25.976 152.831 25.656L152.863 26.92ZM154.778 27V19.016H156.298L156.25 21.4C156.586 19.432 157.962 18.728 159.338 18.984V20.472C157.658 20.248 156.298 21.24 156.298 23.56V27H154.778ZM162.834 27.176C161.33 27.176 160.242 26.344 160.242 24.952C160.242 23.464 161.522 22.664 163.938 22.392L165.57 22.216V21.896C165.57 20.728 164.914 19.992 163.794 19.992C162.77 19.992 162.05 20.648 161.954 21.752L160.482 21.704C160.61 19.96 161.954 18.776 163.842 18.776C165.762 18.776 167.058 20.024 167.058 21.944V24.712C167.058 25.576 167.154 26.44 167.266 27H165.794C165.698 26.632 165.634 26.184 165.634 25.352C165.266 26.456 164.178 27.176 162.834 27.176ZM163.298 26.12C164.578 26.12 165.586 25.144 165.586 23.736V23.128L164.05 23.32C162.562 23.496 161.762 23.896 161.762 24.824C161.762 25.704 162.434 26.12 163.298 26.12ZM172.155 26.904C170.651 27.336 169.019 27.08 169.019 24.808V15.8H170.523V24.504C170.523 25.672 171.163 25.944 172.123 25.624L172.155 26.904ZM172.865 23.144V21.896H177.457V23.144H172.865ZM177.572 25.896C181.764 22.376 183.364 20.952 183.364 19.112C183.364 17.752 182.5 16.824 181.252 16.824C179.94 16.824 179.044 17.912 179.044 19.48L177.524 19.448C177.524 17.16 179.012 15.48 181.284 15.48C183.46 15.48 184.916 16.936 184.916 19.032C184.916 21.192 183.268 23.016 179.524 25.768H184.868V27H177.572V25.896ZM190.894 27.224C188.414 27.224 186.734 24.856 186.734 21.4C186.734 17.944 188.414 15.576 190.894 15.576C193.374 15.576 195.07 17.944 195.07 21.4C195.07 24.856 193.374 27.224 190.894 27.224ZM190.894 25.88C192.478 25.88 193.534 24.056 193.534 21.4C193.534 18.744 192.478 16.92 190.894 16.92C189.326 16.92 188.254 18.744 188.254 21.4C188.254 24.056 189.326 25.88 190.894 25.88ZM201.21 27.224C198.73 27.224 197.05 24.856 197.05 21.4C197.05 17.944 198.73 15.576 201.21 15.576C203.69 15.576 205.386 17.944 205.386 21.4C205.386 24.856 203.69 27.224 201.21 27.224ZM201.21 25.88C202.794 25.88 203.85 24.056 203.85 21.4C203.85 18.744 202.794 16.92 201.21 16.92C199.642 16.92 198.57 18.744 198.57 21.4C198.57 24.056 199.642 25.88 201.21 25.88Z" fill="#414141"/>
<path d="M78.032 48L78.816 44.704H76.736V43.76H79.04L79.696 40.96H76.736V40.016H79.92L80.688 36.8H81.968L81.2 40.016H83.904L84.672 36.8H85.936L85.168 40.016H87.232V40.96H84.944L84.288 43.76H87.232V44.704H84.064L83.28 48H82L82.784 44.704H80.08L79.296 48H78.032ZM80.304 43.76H83.008L83.68 40.96H80.976L80.304 43.76ZM88.9314 48V36.8H93.0914C96.4674 36.8 98.7234 39.04 98.7234 42.4C98.7234 45.76 96.4674 48 93.0914 48H88.9314ZM93.0594 46.736C95.4914 46.736 97.1074 45.008 97.1074 42.4C97.1074 39.792 95.4914 38.064 93.0594 38.064H90.4994V46.736H93.0594ZM104.282 36.48C107.098 36.48 108.554 38.88 108.554 42.352C108.554 46.064 106.97 48.32 104.298 48.32C102.17 48.32 100.618 46.896 100.506 44.752L101.962 44.656C102.058 46.112 102.97 47.056 104.362 47.056C106.266 47.056 107.082 45.168 107.082 42.56C107.082 42.128 107.05 41.728 107.002 41.424C106.73 42.848 105.53 43.744 104.01 43.744C102.042 43.744 100.378 42.416 100.378 40.144C100.378 37.952 101.978 36.48 104.282 36.48ZM104.298 37.664C102.89 37.664 101.898 38.688 101.898 40.128C101.898 41.568 102.89 42.576 104.298 42.576C105.674 42.576 106.682 41.6 106.682 40.208C106.682 38.72 105.674 37.664 104.298 37.664ZM110.541 48V36.8H114.701C118.077 36.8 120.333 39.04 120.333 42.4C120.333 45.76 118.077 48 114.701 48H110.541ZM114.669 46.736C117.101 46.736 118.717 45.008 118.717 42.4C118.717 39.792 117.101 38.064 114.669 38.064H112.109V46.736H114.669ZM125.891 36.48C128.707 36.48 130.163 38.88 130.163 42.352C130.163 46.064 128.579 48.32 125.907 48.32C123.779 48.32 122.227 46.896 122.115 44.752L123.571 44.656C123.667 46.112 124.579 47.056 125.971 47.056C127.875 47.056 128.691 45.168 128.691 42.56C128.691 42.128 128.659 41.728 128.611 41.424C128.339 42.848 127.139 43.744 125.619 43.744C123.651 43.744 121.987 42.416 121.987 40.144C121.987 37.952 123.587 36.48 125.891 36.48ZM125.907 37.664C124.499 37.664 123.507 38.688 123.507 40.128C123.507 41.568 124.499 42.576 125.907 42.576C127.283 42.576 128.291 41.6 128.291 40.208C128.291 38.72 127.283 37.664 125.907 37.664ZM132.15 48V36.8H136.31C139.686 36.8 141.942 39.04 141.942 42.4C141.942 45.76 139.686 48 136.31 48H132.15ZM136.278 46.736C138.71 46.736 140.326 45.008 140.326 42.4C140.326 39.792 138.71 38.064 136.278 38.064H133.718V46.736H136.278ZM143.885 48V36.8H148.733C150.749 36.8 152.157 38.032 152.157 39.728C152.157 41.072 151.245 42.096 149.917 42.304C151.485 42.448 152.509 43.536 152.509 45.024C152.509 46.8 151.101 48 149.069 48H143.885ZM148.909 46.784C150.109 46.784 150.957 45.984 150.957 44.864C150.957 43.712 150.109 42.928 148.909 42.928H145.437V46.784H148.909ZM148.557 41.76C149.789 41.76 150.637 40.976 150.637 39.872C150.637 38.784 149.789 38 148.557 38H145.437V41.76H148.557Z" fill="#767676"/>
</svg>
