<svg width="360" height="72" viewBox="0 0 360 72" fill="none" xmlns="http://www.w3.org/2000/svg">
<mask id="path-1-inside-1_7_68" fill="white">
<path d="M0 0H360V72H0V0Z"/>
</mask>
<path d="M360 0H359V72H360H361V0H360Z" fill="#D9D9DB" mask="url(#path-1-inside-1_7_68)"/>
<rect x="16" y="12" width="48" height="48" rx="8" fill="#BC0F0F"/>
<path d="M80.736 27.24C78.368 27.24 76.656 25.464 76.656 23C76.656 20.568 78.384 18.776 80.736 18.776C82.768 18.776 84.4 20.088 84.528 21.976L83.04 22.104C82.912 20.936 81.936 20.088 80.72 20.088C79.248 20.088 78.176 21.32 78.176 23C78.176 24.888 79.392 25.896 80.72 25.896C81.872 25.896 82.912 25.128 83.056 23.832L84.544 23.944C84.432 25.896 82.8 27.24 80.736 27.24ZM89.9894 27.24C87.6214 27.24 85.9254 25.48 85.9254 23C85.9254 20.52 87.6214 18.776 89.9894 18.776C92.3574 18.776 94.0374 20.52 94.0374 23C94.0374 25.48 92.3574 27.24 89.9894 27.24ZM89.9894 25.96C91.4774 25.96 92.5014 24.744 92.5014 23C92.5014 21.272 91.4774 20.056 89.9894 20.056C88.4854 20.056 87.4614 21.272 87.4614 23C87.4614 24.744 88.4854 25.96 89.9894 25.96ZM98.9141 26.904C97.4101 27.336 95.7781 27.08 95.7781 24.808V15.8H97.2821V24.504C97.2821 25.672 97.9221 25.944 98.8821 25.624L98.9141 26.904ZM104.122 27.24C101.754 27.24 100.058 25.48 100.058 23C100.058 20.52 101.754 18.776 104.122 18.776C106.49 18.776 108.17 20.52 108.17 23C108.17 25.48 106.49 27.24 104.122 27.24ZM104.122 25.96C105.61 25.96 106.634 24.744 106.634 23C106.634 21.272 105.61 20.056 104.122 20.056C102.618 20.056 101.594 21.272 101.594 23C101.594 24.744 102.618 25.96 104.122 25.96ZM109.928 27V19.016H111.448L111.4 21.4C111.736 19.432 113.112 18.728 114.488 18.984V20.472C112.808 20.248 111.448 21.24 111.448 23.56V27H109.928ZM114.773 23.144V21.896H119.365V23.144H114.773ZM121.279 27V15.8H122.799V20.36C123.391 19.368 124.383 18.808 125.615 18.808C127.759 18.808 129.311 20.552 129.311 23.016C129.311 25.464 127.759 27.208 125.615 27.208C124.383 27.208 123.391 26.648 122.799 25.656V27H121.279ZM125.231 20.056C123.743 20.056 122.703 21.256 122.703 23.016C122.703 24.76 123.743 25.96 125.231 25.96C126.703 25.96 127.775 24.728 127.775 23.016C127.775 21.304 126.703 20.056 125.231 20.056ZM131.064 27V19.016H132.584L132.536 21.4C132.872 19.432 134.248 18.728 135.624 18.984V20.472C133.944 20.248 132.584 21.24 132.584 23.56V27H131.064ZM139.12 27.176C137.616 27.176 136.528 26.344 136.528 24.952C136.528 23.464 137.808 22.664 140.224 22.392L141.856 22.216V21.896C141.856 20.728 141.2 19.992 140.08 19.992C139.056 19.992 138.336 20.648 138.24 21.752L136.768 21.704C136.896 19.96 138.24 18.776 140.128 18.776C142.048 18.776 143.344 20.024 143.344 21.944V24.712C143.344 25.576 143.44 26.44 143.552 27H142.08C141.984 26.632 141.92 26.184 141.92 25.352C141.552 26.456 140.464 27.176 139.12 27.176ZM139.584 26.12C140.864 26.12 141.872 25.144 141.872 23.736V23.128L140.336 23.32C138.848 23.496 138.048 23.896 138.048 24.824C138.048 25.704 138.72 26.12 139.584 26.12ZM145.337 27V19.016H146.857L146.809 20.968C147.145 19.608 148.057 18.808 149.465 18.808C151.225 18.808 152.345 20.072 152.345 22.088V27H150.825V22.312C150.825 20.856 150.153 20.04 148.953 20.04C147.593 20.04 146.857 21.048 146.857 22.872V27H145.337ZM157.733 27.208C155.589 27.208 154.037 25.464 154.037 23C154.037 20.552 155.589 18.808 157.733 18.808C158.981 18.808 159.973 19.384 160.565 20.376V15.8H162.085V25.288V27H160.565V25.624C159.973 26.632 158.981 27.208 157.733 27.208ZM158.117 25.96C159.605 25.96 160.645 24.76 160.645 23C160.645 21.256 159.605 20.056 158.117 20.056C156.645 20.056 155.573 21.288 155.573 23C155.573 24.712 156.645 25.96 158.117 25.96ZM163.998 23.144V21.896H168.59V23.144H163.998ZM170.505 27V19.016H172.025L171.977 21.4C172.313 19.432 173.689 18.728 175.065 18.984V20.472C173.385 20.248 172.025 21.24 172.025 23.56V27H170.505ZM179.971 27.272C177.635 27.272 175.955 25.48 175.955 23C175.955 20.536 177.635 18.728 179.955 18.728C182.707 18.728 184.051 21.208 183.763 23.432H177.491C177.539 24.984 178.563 26.088 179.987 26.088C181.091 26.088 182.019 25.448 182.323 24.488L183.619 24.696C183.267 26.168 181.827 27.272 179.971 27.272ZM177.507 22.296H182.291C182.291 20.936 181.347 19.88 179.955 19.88C178.627 19.88 177.635 20.872 177.507 22.296ZM188.983 27.208C186.839 27.208 185.287 25.464 185.287 23C185.287 20.552 186.839 18.808 188.983 18.808C190.231 18.808 191.223 19.384 191.815 20.376V15.8H193.335V25.288V27H191.815V25.624C191.223 26.632 190.231 27.208 188.983 27.208ZM189.367 25.96C190.855 25.96 191.895 24.76 191.895 23C191.895 21.256 190.855 20.056 189.367 20.056C187.895 20.056 186.823 21.288 186.823 23C186.823 24.712 187.895 25.96 189.367 25.96Z" fill="#414141"/>
<path d="M78.032 48L78.816 44.704H76.736V43.76H79.04L79.696 40.96H76.736V40.016H79.92L80.688 36.8H81.968L81.2 40.016H83.904L84.672 36.8H85.936L85.168 40.016H87.232V40.96H84.944L84.288 43.76H87.232V44.704H84.064L83.28 48H82L82.784 44.704H80.08L79.296 48H78.032ZM80.304 43.76H83.008L83.68 40.96H80.976L80.304 43.76ZM88.9314 48V36.8H93.7794C95.7954 36.8 97.2034 38.032 97.2034 39.728C97.2034 41.072 96.2914 42.096 94.9634 42.304C96.5314 42.448 97.5554 43.536 97.5554 45.024C97.5554 46.8 96.1474 48 94.1154 48H88.9314ZM93.9554 46.784C95.1554 46.784 96.0034 45.984 96.0034 44.864C96.0034 43.712 95.1554 42.928 93.9554 42.928H90.4834V46.784H93.9554ZM93.6034 41.76C94.8354 41.76 95.6834 40.976 95.6834 39.872C95.6834 38.784 94.8354 38 93.6034 38H90.4834V41.76H93.6034ZM104.872 48.32C101.592 48.32 99.2081 45.824 99.2081 42.4C99.2081 38.976 101.592 36.48 104.872 36.48C107.656 36.48 109.864 38.304 110.088 40.8L108.52 40.928C108.312 39.168 106.776 37.872 104.872 37.872C102.52 37.872 100.808 39.792 100.808 42.4C100.808 45.008 102.52 46.912 104.872 46.912C106.792 46.912 108.36 45.552 108.568 43.712L110.12 43.84C109.896 46.432 107.672 48.32 104.872 48.32ZM115.963 48.224C113.483 48.224 111.803 45.856 111.803 42.4C111.803 38.944 113.483 36.576 115.963 36.576C118.443 36.576 120.139 38.944 120.139 42.4C120.139 45.856 118.443 48.224 115.963 48.224ZM115.963 46.88C117.547 46.88 118.603 45.056 118.603 42.4C118.603 39.744 117.547 37.92 115.963 37.92C114.395 37.92 113.323 39.744 113.323 42.4C113.323 45.056 114.395 46.88 115.963 46.88ZM122.119 48V36.8H129.287V38.064H123.703V41.824H128.967V43.056H123.703V48H122.119ZM134.916 48.224C132.436 48.224 130.756 45.856 130.756 42.4C130.756 38.944 132.436 36.576 134.916 36.576C137.396 36.576 139.092 38.944 139.092 42.4C139.092 45.856 137.396 48.224 134.916 48.224ZM134.916 46.88C136.5 46.88 137.556 45.056 137.556 42.4C137.556 39.744 136.5 37.92 134.916 37.92C133.348 37.92 132.276 39.744 132.276 42.4C132.276 45.056 133.348 46.88 134.916 46.88ZM141.072 48V36.8H148.24V38.064H142.656V41.824H147.92V43.056H142.656V48H141.072Z" fill="#767676"/>
</svg>
