<svg width="360" height="72" viewBox="0 0 360 72" fill="none" xmlns="http://www.w3.org/2000/svg">
<mask id="path-1-inside-1_577_1955" fill="white">
<path d="M0 0H360V72H0V0Z"/>
</mask>
<path d="M360 0H359V72H360H361V0H360Z" fill="#D9D9DB" mask="url(#path-1-inside-1_577_1955)"/>
<rect x="16" y="12" width="48" height="48" rx="8" fill="#D9D9DB"/>
<path d="M80.736 27.24C78.368 27.24 76.656 25.464 76.656 23C76.656 20.568 78.384 18.776 80.736 18.776C82.768 18.776 84.4 20.088 84.528 21.976L83.04 22.104C82.912 20.936 81.936 20.088 80.72 20.088C79.248 20.088 78.176 21.32 78.176 23C78.176 24.888 79.392 25.896 80.72 25.896C81.872 25.896 82.912 25.128 83.056 23.832L84.544 23.944C84.432 25.896 82.8 27.24 80.736 27.24ZM89.9894 27.24C87.6214 27.24 85.9254 25.48 85.9254 23C85.9254 20.52 87.6214 18.776 89.9894 18.776C92.3574 18.776 94.0374 20.52 94.0374 23C94.0374 25.48 92.3574 27.24 89.9894 27.24ZM89.9894 25.96C91.4774 25.96 92.5014 24.744 92.5014 23C92.5014 21.272 91.4774 20.056 89.9894 20.056C88.4854 20.056 87.4614 21.272 87.4614 23C87.4614 24.744 88.4854 25.96 89.9894 25.96ZM98.9141 26.904C97.4101 27.336 95.7781 27.08 95.7781 24.808V15.8H97.2821V24.504C97.2821 25.672 97.9221 25.944 98.8821 25.624L98.9141 26.904ZM104.122 27.24C101.754 27.24 100.058 25.48 100.058 23C100.058 20.52 101.754 18.776 104.122 18.776C106.49 18.776 108.17 20.52 108.17 23C108.17 25.48 106.49 27.24 104.122 27.24ZM104.122 25.96C105.61 25.96 106.634 24.744 106.634 23C106.634 21.272 105.61 20.056 104.122 20.056C102.618 20.056 101.594 21.272 101.594 23C101.594 24.744 102.618 25.96 104.122 25.96ZM109.928 27V19.016H111.448L111.4 21.4C111.736 19.432 113.112 18.728 114.488 18.984V20.472C112.808 20.248 111.448 21.24 111.448 23.56V27H109.928ZM114.773 23.144V21.896H119.365V23.144H114.773ZM121.279 27V15.8H122.799V20.36C123.391 19.368 124.383 18.808 125.615 18.808C127.759 18.808 129.311 20.552 129.311 23.016C129.311 25.464 127.759 27.208 125.615 27.208C124.383 27.208 123.391 26.648 122.799 25.656V27H121.279ZM125.231 20.056C123.743 20.056 122.703 21.256 122.703 23.016C122.703 24.76 123.743 25.96 125.231 25.96C126.703 25.96 127.775 24.728 127.775 23.016C127.775 21.304 126.703 20.056 125.231 20.056ZM134.84 27.24C132.472 27.24 130.776 25.48 130.776 23C130.776 20.52 132.472 18.776 134.84 18.776C137.208 18.776 138.888 20.52 138.888 23C138.888 25.48 137.208 27.24 134.84 27.24ZM134.84 25.96C136.328 25.96 137.352 24.744 137.352 23C137.352 21.272 136.328 20.056 134.84 20.056C133.336 20.056 132.312 21.272 132.312 23C132.312 24.744 133.336 25.96 134.84 25.96ZM140.646 27V19.016H142.166L142.118 21.4C142.454 19.432 143.83 18.728 145.206 18.984V20.472C143.526 20.248 142.166 21.24 142.166 23.56V27H140.646ZM149.792 27.208C147.648 27.208 146.096 25.464 146.096 23C146.096 20.552 147.648 18.808 149.792 18.808C151.04 18.808 152.032 19.384 152.624 20.376V15.8H154.144V25.288V27H152.624V25.624C152.032 26.632 151.04 27.208 149.792 27.208ZM150.176 25.96C151.664 25.96 152.704 24.76 152.704 23C152.704 21.256 151.664 20.056 150.176 20.056C148.704 20.056 147.632 21.288 147.632 23C147.632 24.712 148.704 25.96 150.176 25.96ZM159.944 27.272C157.608 27.272 155.928 25.48 155.928 23C155.928 20.536 157.608 18.728 159.928 18.728C162.68 18.728 164.024 21.208 163.736 23.432H157.464C157.512 24.984 158.536 26.088 159.96 26.088C161.064 26.088 161.992 25.448 162.296 24.488L163.592 24.696C163.24 26.168 161.8 27.272 159.944 27.272ZM157.48 22.296H162.264C162.264 20.936 161.32 19.88 159.928 19.88C158.6 19.88 157.608 20.872 157.48 22.296ZM165.548 27V19.016H167.068L167.02 21.4C167.356 19.432 168.732 18.728 170.108 18.984V20.472C168.428 20.248 167.068 21.24 167.068 23.56V27H165.548ZM170.393 23.144V21.896H174.985V23.144H170.393ZM179.958 27.272C177.958 27.272 176.566 26.184 176.438 24.472L177.846 24.424C177.942 25.512 178.79 26.2 179.958 26.2C180.902 26.2 181.718 25.768 181.718 24.936C181.718 24.312 181.238 23.96 180.294 23.768L178.934 23.512C177.382 23.256 176.662 22.424 176.662 21.256C176.662 19.704 177.958 18.728 179.734 18.728C181.59 18.728 182.918 19.848 182.998 21.512L181.638 21.592C181.574 20.552 180.79 19.816 179.718 19.816C178.822 19.816 178.102 20.312 178.102 21.112C178.102 21.704 178.502 22.072 179.222 22.2L180.582 22.456C182.262 22.76 183.174 23.528 183.174 24.792C183.174 26.328 181.798 27.272 179.958 27.272ZM186.343 23.704C186.343 25.16 187.015 25.976 188.167 25.976C189.495 25.976 190.215 24.968 190.215 23.144V19.016H191.735V24.12V27H190.215L190.263 25.448C189.847 26.568 188.967 27.208 187.671 27.208C185.943 27.208 184.839 25.976 184.839 23.992V19.016H186.343V23.704ZM193.782 27V15.8H195.302V20.36C195.894 19.368 196.886 18.808 198.118 18.808C200.262 18.808 201.814 20.552 201.814 23.016C201.814 25.464 200.262 27.208 198.118 27.208C196.886 27.208 195.894 26.648 195.302 25.656V27H193.782ZM197.734 20.056C196.246 20.056 195.206 21.256 195.206 23.016C195.206 24.76 196.246 25.96 197.734 25.96C199.206 25.96 200.278 24.728 200.278 23.016C200.278 21.304 199.206 20.056 197.734 20.056ZM207.779 26.92C206.227 27.416 204.403 27 204.403 24.536V20.28H202.867V19.016H204.403V17.016H205.923V19.016H207.987V20.28H205.923V24.424C205.923 25.832 206.867 25.976 207.747 25.656L207.779 26.92ZM212.767 26.904C211.263 27.336 209.631 27.08 209.631 24.808V15.8H211.135V24.504C211.135 25.672 211.775 25.944 212.735 25.624L212.767 26.904ZM217.927 27.272C215.591 27.272 213.911 25.48 213.911 23C213.911 20.536 215.591 18.728 217.911 18.728C220.663 18.728 222.007 21.208 221.719 23.432H215.447C215.495 24.984 216.519 26.088 217.943 26.088C219.047 26.088 219.975 25.448 220.279 24.488L221.575 24.696C221.223 26.168 219.783 27.272 217.927 27.272ZM215.463 22.296H220.247C220.247 20.936 219.303 19.88 217.911 19.88C216.583 19.88 215.591 20.872 215.463 22.296Z" fill="#414141"/>
<path d="M80.592 49.76V48.24C78.352 48.016 76.8 46.544 76.784 44.496L78.32 44.384C78.368 45.76 79.28 46.736 80.592 46.976V42.992L80.368 42.944C78.304 42.544 77.152 41.424 77.152 39.776C77.152 37.936 78.544 36.704 80.592 36.544V35.2H81.776V36.576C83.712 36.864 85.072 38.272 85.136 40.192L83.584 40.288C83.536 39.056 82.832 38.144 81.776 37.856V41.68L81.968 41.712C84.304 42.16 85.456 43.2 85.456 44.96C85.456 46.768 83.968 48.064 81.776 48.24V49.76H80.592ZM78.72 39.664C78.72 40.592 79.392 41.184 80.512 41.44L80.592 41.456V37.792C79.488 37.936 78.72 38.656 78.72 39.664ZM81.776 46.992C83.04 46.816 83.888 46.096 83.888 45.056C83.888 44.048 83.248 43.536 81.824 43.216L81.776 43.2V46.992ZM90.2057 50.928C88.0938 48.96 86.9738 46.368 86.9738 43.52C86.9738 40.672 88.0938 38.08 90.2057 36.112L91.1338 36.992C89.3098 38.688 88.3178 40.976 88.3178 43.52C88.3178 46.064 89.3098 48.352 91.1338 50.048L90.2057 50.928ZM95.1735 48.24C92.8055 48.24 91.0935 46.464 91.0935 44C91.0935 41.568 92.8215 39.776 95.1735 39.776C97.2055 39.776 98.8375 41.088 98.9655 42.976L97.4775 43.104C97.3495 41.936 96.3735 41.088 95.1575 41.088C93.6855 41.088 92.6135 42.32 92.6135 44C92.6135 45.888 93.8295 46.896 95.1575 46.896C96.3095 46.896 97.3495 46.128 97.4935 44.832L98.9815 44.944C98.8695 46.896 97.2375 48.24 95.1735 48.24ZM104.267 48.24C101.899 48.24 100.203 46.48 100.203 44C100.203 41.52 101.899 39.776 104.267 39.776C106.635 39.776 108.315 41.52 108.315 44C108.315 46.48 106.635 48.24 104.267 48.24ZM104.267 46.96C105.755 46.96 106.779 45.744 106.779 44C106.779 42.272 105.755 41.056 104.267 41.056C102.763 41.056 101.739 42.272 101.739 44C101.739 45.744 102.763 46.96 104.267 46.96ZM113.032 47.904C111.528 48.336 109.896 48.08 109.896 45.808V36.8H111.4V45.504C111.4 46.672 112.04 46.944 113 46.624L113.032 47.904ZM118.079 48.24C115.711 48.24 114.015 46.48 114.015 44C114.015 41.52 115.711 39.776 118.079 39.776C120.447 39.776 122.127 41.52 122.127 44C122.127 46.48 120.447 48.24 118.079 48.24ZM118.079 46.96C119.567 46.96 120.591 45.744 120.591 44C120.591 42.272 119.567 41.056 118.079 41.056C116.575 41.056 115.551 42.272 115.551 44C115.551 45.744 116.575 46.96 118.079 46.96ZM123.725 48V40.016H125.245L125.197 42.4C125.533 40.432 126.909 39.728 128.285 39.984V41.472C126.605 41.248 125.245 42.24 125.245 44.56V48H123.725ZM128.41 44.144V42.896H133.002V44.144H128.41ZM134.757 48V40.016H136.277L136.229 41.968C136.565 40.608 137.477 39.808 138.885 39.808C140.645 39.808 141.765 41.072 141.765 43.088V48H140.245V43.312C140.245 41.856 139.573 41.04 138.373 41.04C137.013 41.04 136.277 42.048 136.277 43.872V48H134.757ZM147.313 48.272C144.977 48.272 143.297 46.48 143.297 44C143.297 41.536 144.977 39.728 147.297 39.728C150.049 39.728 151.393 42.208 151.105 44.432H144.833C144.881 45.984 145.905 47.088 147.329 47.088C148.433 47.088 149.361 46.448 149.665 45.488L150.961 45.696C150.609 47.168 149.169 48.272 147.313 48.272ZM144.849 43.296H149.633C149.633 41.936 148.689 40.88 147.297 40.88C145.969 40.88 144.977 41.872 144.849 43.296ZM154.197 44.704C154.197 46.16 154.869 46.976 156.021 46.976C157.349 46.976 158.069 45.968 158.069 44.144V40.016H159.589V45.12V48H158.069L158.117 46.448C157.701 47.568 156.821 48.208 155.525 48.208C153.797 48.208 152.693 46.976 152.693 44.992V40.016H154.197V44.704ZM165.86 47.92C164.308 48.416 162.484 48 162.484 45.536V41.28H160.948V40.016H162.484V38.016H164.004V40.016H166.068V41.28H164.004V45.424C164.004 46.832 164.948 46.976 165.828 46.656L165.86 47.92ZM167.616 48V40.016H169.136L169.088 42.4C169.424 40.432 170.8 39.728 172.176 39.984V41.472C170.496 41.248 169.136 42.24 169.136 44.56V48H167.616ZM175.512 48.176C174.008 48.176 172.92 47.344 172.92 45.952C172.92 44.464 174.2 43.664 176.616 43.392L178.248 43.216V42.896C178.248 41.728 177.592 40.992 176.472 40.992C175.448 40.992 174.728 41.648 174.632 42.752L173.16 42.704C173.288 40.96 174.632 39.776 176.52 39.776C178.44 39.776 179.736 41.024 179.736 42.944V45.712C179.736 46.576 179.832 47.44 179.944 48H178.472C178.376 47.632 178.312 47.184 178.312 46.352C177.944 47.456 176.856 48.176 175.512 48.176ZM175.976 47.12C177.256 47.12 178.264 46.144 178.264 44.736V44.128L176.728 44.32C175.24 44.496 174.44 44.896 174.44 45.824C174.44 46.704 175.112 47.12 175.976 47.12ZM184.672 47.904C183.168 48.336 181.536 48.08 181.536 45.808V36.8H183.04V45.504C183.04 46.672 183.68 46.944 184.64 46.624L184.672 47.904ZM185.223 44.144V42.896H189.815V44.144H185.223ZM189.77 46.896C193.962 43.376 195.562 41.952 195.562 40.112C195.562 38.752 194.698 37.824 193.45 37.824C192.138 37.824 191.242 38.912 191.242 40.48L189.722 40.448C189.722 38.16 191.21 36.48 193.482 36.48C195.658 36.48 197.114 37.936 197.114 40.032C197.114 42.192 195.466 44.016 191.722 46.768H197.066V48H189.77V46.896ZM202.931 48.224C200.451 48.224 198.771 45.856 198.771 42.4C198.771 38.944 200.451 36.576 202.931 36.576C205.411 36.576 207.107 38.944 207.107 42.4C207.107 45.856 205.411 48.224 202.931 48.224ZM202.931 46.88C204.515 46.88 205.571 45.056 205.571 42.4C205.571 39.744 204.515 37.92 202.931 37.92C201.363 37.92 200.291 39.744 200.291 42.4C200.291 45.056 201.363 46.88 202.931 46.88ZM213.088 48.224C210.608 48.224 208.928 45.856 208.928 42.4C208.928 38.944 210.608 36.576 213.088 36.576C215.568 36.576 217.264 38.944 217.264 42.4C217.264 45.856 215.568 48.224 213.088 48.224ZM213.088 46.88C214.672 46.88 215.728 45.056 215.728 42.4C215.728 39.744 214.672 37.92 213.088 37.92C211.52 37.92 210.448 39.744 210.448 42.4C210.448 45.056 211.52 46.88 213.088 46.88ZM217.67 50.048C219.494 48.352 220.486 46.064 220.486 43.52C220.486 40.976 219.494 38.688 217.67 36.992L218.598 36.112C220.71 38.08 221.83 40.672 221.83 43.52C221.83 46.368 220.71 48.96 218.598 50.928L217.67 50.048Z" fill="#767676"/>
</svg>
