<svg width="360" height="72" viewBox="0 0 360 72" fill="none" xmlns="http://www.w3.org/2000/svg">
<mask id="path-1-inside-1_7_216" fill="white">
<path d="M0 0H360V72H0V0Z"/>
</mask>
<path d="M360 0H359V72H360H361V0H360Z" fill="#D9D9DB" mask="url(#path-1-inside-1_7_216)"/>
<rect x="16" y="12" width="48" height="48" rx="8" fill="#767676"/>
<path d="M80.736 27.24C78.368 27.24 76.656 25.464 76.656 23C76.656 20.568 78.384 18.776 80.736 18.776C82.768 18.776 84.4 20.088 84.528 21.976L83.04 22.104C82.912 20.936 81.936 20.088 80.72 20.088C79.248 20.088 78.176 21.32 78.176 23C78.176 24.888 79.392 25.896 80.72 25.896C81.872 25.896 82.912 25.128 83.056 23.832L84.544 23.944C84.432 25.896 82.8 27.24 80.736 27.24ZM89.9894 27.24C87.6214 27.24 85.9254 25.48 85.9254 23C85.9254 20.52 87.6214 18.776 89.9894 18.776C92.3574 18.776 94.0374 20.52 94.0374 23C94.0374 25.48 92.3574 27.24 89.9894 27.24ZM89.9894 25.96C91.4774 25.96 92.5014 24.744 92.5014 23C92.5014 21.272 91.4774 20.056 89.9894 20.056C88.4854 20.056 87.4614 21.272 87.4614 23C87.4614 24.744 88.4854 25.96 89.9894 25.96ZM98.9141 26.904C97.4101 27.336 95.7781 27.08 95.7781 24.808V15.8H97.2821V24.504C97.2821 25.672 97.9221 25.944 98.8821 25.624L98.9141 26.904ZM104.122 27.24C101.754 27.24 100.058 25.48 100.058 23C100.058 20.52 101.754 18.776 104.122 18.776C106.49 18.776 108.17 20.52 108.17 23C108.17 25.48 106.49 27.24 104.122 27.24ZM104.122 25.96C105.61 25.96 106.634 24.744 106.634 23C106.634 21.272 105.61 20.056 104.122 20.056C102.618 20.056 101.594 21.272 101.594 23C101.594 24.744 102.618 25.96 104.122 25.96ZM109.928 27V19.016H111.448L111.4 21.4C111.736 19.432 113.112 18.728 114.488 18.984V20.472C112.808 20.248 111.448 21.24 111.448 23.56V27H109.928ZM114.773 23.144V21.896H119.365V23.144H114.773ZM125.226 26.92C123.674 27.416 121.85 27 121.85 24.536V20.28H120.314V19.016H121.85V17.016H123.37V19.016H125.434V20.28H123.37V24.424C123.37 25.832 124.314 25.976 125.194 25.656L125.226 26.92ZM130.589 27.272C128.253 27.272 126.573 25.48 126.573 23C126.573 20.536 128.253 18.728 130.573 18.728C133.325 18.728 134.669 21.208 134.381 23.432H128.109C128.157 24.984 129.181 26.088 130.605 26.088C131.709 26.088 132.637 25.448 132.941 24.488L134.237 24.696C133.885 26.168 132.445 27.272 130.589 27.272ZM128.125 22.296H132.909C132.909 20.936 131.965 19.88 130.573 19.88C129.245 19.88 128.253 20.872 128.125 22.296ZM141.006 27L138.894 24.024L136.766 27H135.134L138.078 22.984L135.134 19.016H136.846L138.958 21.992L141.086 19.016H142.702L139.774 23.016L142.75 27H141.006ZM148.722 26.92C147.17 27.416 145.346 27 145.346 24.536V20.28H143.81V19.016H145.346V17.016H146.866V19.016H148.93V20.28H146.866V24.424C146.866 25.832 147.81 25.976 148.69 25.656L148.722 26.92ZM149.619 23.144V21.896H154.211V23.144H149.619ZM159.185 27.272C157.185 27.272 155.793 26.184 155.665 24.472L157.073 24.424C157.169 25.512 158.017 26.2 159.185 26.2C160.129 26.2 160.945 25.768 160.945 24.936C160.945 24.312 160.465 23.96 159.521 23.768L158.161 23.512C156.609 23.256 155.889 22.424 155.889 21.256C155.889 19.704 157.185 18.728 158.961 18.728C160.817 18.728 162.145 19.848 162.225 21.512L160.865 21.592C160.801 20.552 160.017 19.816 158.945 19.816C158.049 19.816 157.329 20.312 157.329 21.112C157.329 21.704 157.729 22.072 158.449 22.2L159.809 22.456C161.489 22.76 162.401 23.528 162.401 24.792C162.401 26.328 161.025 27.272 159.185 27.272ZM167.858 27.272C165.522 27.272 163.842 25.48 163.842 23C163.842 20.536 165.522 18.728 167.842 18.728C170.594 18.728 171.938 21.208 171.65 23.432H165.378C165.426 24.984 166.45 26.088 167.874 26.088C168.978 26.088 169.906 25.448 170.21 24.488L171.506 24.696C171.154 26.168 169.714 27.272 167.858 27.272ZM165.394 22.296H170.178C170.178 20.936 169.234 19.88 167.842 19.88C166.514 19.88 165.522 20.872 165.394 22.296ZM177.254 27.24C174.886 27.24 173.174 25.464 173.174 23C173.174 20.568 174.902 18.776 177.254 18.776C179.286 18.776 180.918 20.088 181.046 21.976L179.558 22.104C179.43 20.936 178.454 20.088 177.238 20.088C175.766 20.088 174.694 21.32 174.694 23C174.694 24.888 175.91 25.896 177.238 25.896C178.39 25.896 179.43 25.128 179.574 23.832L181.062 23.944C180.95 25.896 179.318 27.24 177.254 27.24ZM186.507 27.24C184.139 27.24 182.443 25.48 182.443 23C182.443 20.52 184.139 18.776 186.507 18.776C188.875 18.776 190.555 20.52 190.555 23C190.555 25.48 188.875 27.24 186.507 27.24ZM186.507 25.96C187.995 25.96 189.019 24.744 189.019 23C189.019 21.272 187.995 20.056 186.507 20.056C185.003 20.056 183.979 21.272 183.979 23C183.979 24.744 185.003 25.96 186.507 25.96ZM192.313 27V19.016H193.833L193.785 20.968C194.121 19.608 195.033 18.808 196.441 18.808C198.201 18.808 199.321 20.072 199.321 22.088V27H197.801V22.312C197.801 20.856 197.129 20.04 195.929 20.04C194.569 20.04 193.833 21.048 193.833 22.872V27H192.313ZM204.709 27.208C202.565 27.208 201.013 25.464 201.013 23C201.013 20.552 202.565 18.808 204.709 18.808C205.957 18.808 206.949 19.384 207.541 20.376V15.8H209.061V25.288V27H207.541V25.624C206.949 26.632 205.957 27.208 204.709 27.208ZM205.093 25.96C206.581 25.96 207.621 24.76 207.621 23C207.621 21.256 206.581 20.056 205.093 20.056C203.621 20.056 202.549 21.288 202.549 23C202.549 24.712 203.621 25.96 205.093 25.96ZM213.31 27.176C211.806 27.176 210.718 26.344 210.718 24.952C210.718 23.464 211.998 22.664 214.414 22.392L216.046 22.216V21.896C216.046 20.728 215.39 19.992 214.27 19.992C213.246 19.992 212.526 20.648 212.43 21.752L210.958 21.704C211.086 19.96 212.43 18.776 214.318 18.776C216.238 18.776 217.534 20.024 217.534 21.944V24.712C217.534 25.576 217.63 26.44 217.742 27H216.27C216.174 26.632 216.11 26.184 216.11 25.352C215.742 26.456 214.654 27.176 213.31 27.176ZM213.774 26.12C215.054 26.12 216.062 25.144 216.062 23.736V23.128L214.526 23.32C213.038 23.496 212.238 23.896 212.238 24.824C212.238 25.704 212.91 26.12 213.774 26.12ZM219.527 27V19.016H221.047L220.999 21.4C221.335 19.432 222.711 18.728 224.087 18.984V20.472C222.407 20.248 221.047 21.24 221.047 23.56V27H219.527ZM225.481 28.888C226.441 29.144 227.481 28.952 228.121 27.576L228.457 26.776L225.033 19.016H226.633L229.289 25.096L231.737 19.016H233.273L229.689 27.576C228.793 29.752 227.337 30.632 225.481 30.168V28.888Z" fill="#414141"/>
<path d="M80.592 49.76V48.24C78.352 48.016 76.8 46.544 76.784 44.496L78.32 44.384C78.368 45.76 79.28 46.736 80.592 46.976V42.992L80.368 42.944C78.304 42.544 77.152 41.424 77.152 39.776C77.152 37.936 78.544 36.704 80.592 36.544V35.2H81.776V36.576C83.712 36.864 85.072 38.272 85.136 40.192L83.584 40.288C83.536 39.056 82.832 38.144 81.776 37.856V41.68L81.968 41.712C84.304 42.16 85.456 43.2 85.456 44.96C85.456 46.768 83.968 48.064 81.776 48.24V49.76H80.592ZM78.72 39.664C78.72 40.592 79.392 41.184 80.512 41.44L80.592 41.456V37.792C79.488 37.936 78.72 38.656 78.72 39.664ZM81.776 46.992C83.04 46.816 83.888 46.096 83.888 45.056C83.888 44.048 83.248 43.536 81.824 43.216L81.776 43.2V46.992ZM90.2057 50.928C88.0938 48.96 86.9738 46.368 86.9738 43.52C86.9738 40.672 88.0938 38.08 90.2057 36.112L91.1338 36.992C89.3098 38.688 88.3178 40.976 88.3178 43.52C88.3178 46.064 89.3098 48.352 91.1338 50.048L90.2057 50.928ZM95.1735 48.24C92.8055 48.24 91.0935 46.464 91.0935 44C91.0935 41.568 92.8215 39.776 95.1735 39.776C97.2055 39.776 98.8375 41.088 98.9655 42.976L97.4775 43.104C97.3495 41.936 96.3735 41.088 95.1575 41.088C93.6855 41.088 92.6135 42.32 92.6135 44C92.6135 45.888 93.8295 46.896 95.1575 46.896C96.3095 46.896 97.3495 46.128 97.4935 44.832L98.9815 44.944C98.8695 46.896 97.2375 48.24 95.1735 48.24ZM104.267 48.24C101.899 48.24 100.203 46.48 100.203 44C100.203 41.52 101.899 39.776 104.267 39.776C106.635 39.776 108.315 41.52 108.315 44C108.315 46.48 106.635 48.24 104.267 48.24ZM104.267 46.96C105.755 46.96 106.779 45.744 106.779 44C106.779 42.272 105.755 41.056 104.267 41.056C102.763 41.056 101.739 42.272 101.739 44C101.739 45.744 102.763 46.96 104.267 46.96ZM113.032 47.904C111.528 48.336 109.896 48.08 109.896 45.808V36.8H111.4V45.504C111.4 46.672 112.04 46.944 113 46.624L113.032 47.904ZM118.079 48.24C115.711 48.24 114.015 46.48 114.015 44C114.015 41.52 115.711 39.776 118.079 39.776C120.447 39.776 122.127 41.52 122.127 44C122.127 46.48 120.447 48.24 118.079 48.24ZM118.079 46.96C119.567 46.96 120.591 45.744 120.591 44C120.591 42.272 119.567 41.056 118.079 41.056C116.575 41.056 115.551 42.272 115.551 44C115.551 45.744 116.575 46.96 118.079 46.96ZM123.725 48V40.016H125.245L125.197 42.4C125.533 40.432 126.909 39.728 128.285 39.984V41.472C126.605 41.248 125.245 42.24 125.245 44.56V48H123.725ZM128.41 44.144V42.896H133.002V44.144H128.41ZM134.757 48V40.016H136.277L136.229 41.968C136.565 40.608 137.477 39.808 138.885 39.808C140.645 39.808 141.765 41.072 141.765 43.088V48H140.245V43.312C140.245 41.856 139.573 41.04 138.373 41.04C137.013 41.04 136.277 42.048 136.277 43.872V48H134.757ZM147.313 48.272C144.977 48.272 143.297 46.48 143.297 44C143.297 41.536 144.977 39.728 147.297 39.728C150.049 39.728 151.393 42.208 151.105 44.432H144.833C144.881 45.984 145.905 47.088 147.329 47.088C148.433 47.088 149.361 46.448 149.665 45.488L150.961 45.696C150.609 47.168 149.169 48.272 147.313 48.272ZM144.849 43.296H149.633C149.633 41.936 148.689 40.88 147.297 40.88C145.969 40.88 144.977 41.872 144.849 43.296ZM154.197 44.704C154.197 46.16 154.869 46.976 156.021 46.976C157.349 46.976 158.069 45.968 158.069 44.144V40.016H159.589V45.12V48H158.069L158.117 46.448C157.701 47.568 156.821 48.208 155.525 48.208C153.797 48.208 152.693 46.976 152.693 44.992V40.016H154.197V44.704ZM165.86 47.92C164.308 48.416 162.484 48 162.484 45.536V41.28H160.948V40.016H162.484V38.016H164.004V40.016H166.068V41.28H164.004V45.424C164.004 46.832 164.948 46.976 165.828 46.656L165.86 47.92ZM167.616 48V40.016H169.136L169.088 42.4C169.424 40.432 170.8 39.728 172.176 39.984V41.472C170.496 41.248 169.136 42.24 169.136 44.56V48H167.616ZM175.512 48.176C174.008 48.176 172.92 47.344 172.92 45.952C172.92 44.464 174.2 43.664 176.616 43.392L178.248 43.216V42.896C178.248 41.728 177.592 40.992 176.472 40.992C175.448 40.992 174.728 41.648 174.632 42.752L173.16 42.704C173.288 40.96 174.632 39.776 176.52 39.776C178.44 39.776 179.736 41.024 179.736 42.944V45.712C179.736 46.576 179.832 47.44 179.944 48H178.472C178.376 47.632 178.312 47.184 178.312 46.352C177.944 47.456 176.856 48.176 175.512 48.176ZM175.976 47.12C177.256 47.12 178.264 46.144 178.264 44.736V44.128L176.728 44.32C175.24 44.496 174.44 44.896 174.44 45.824C174.44 46.704 175.112 47.12 175.976 47.12ZM184.672 47.904C183.168 48.336 181.536 48.08 181.536 45.808V36.8H183.04V45.504C183.04 46.672 183.68 46.944 184.64 46.624L184.672 47.904ZM185.223 44.144V42.896H189.815V44.144H185.223ZM191.567 48C191.567 44.176 193.103 40.288 195.647 38.096H189.295V36.8H196.943V38.016C194.575 40.24 193.151 44.208 193.151 48H191.567ZM202.041 48.224C199.561 48.224 197.881 45.856 197.881 42.4C197.881 38.944 199.561 36.576 202.041 36.576C204.521 36.576 206.217 38.944 206.217 42.4C206.217 45.856 204.521 48.224 202.041 48.224ZM202.041 46.88C203.625 46.88 204.681 45.056 204.681 42.4C204.681 39.744 203.625 37.92 202.041 37.92C200.473 37.92 199.401 39.744 199.401 42.4C199.401 45.056 200.473 46.88 202.041 46.88ZM212.197 48.224C209.717 48.224 208.037 45.856 208.037 42.4C208.037 38.944 209.717 36.576 212.197 36.576C214.677 36.576 216.373 38.944 216.373 42.4C216.373 45.856 214.677 48.224 212.197 48.224ZM212.197 46.88C213.781 46.88 214.837 45.056 214.837 42.4C214.837 39.744 213.781 37.92 212.197 37.92C210.629 37.92 209.557 39.744 209.557 42.4C209.557 45.056 210.629 46.88 212.197 46.88ZM216.779 50.048C218.603 48.352 219.595 46.064 219.595 43.52C219.595 40.976 218.603 38.688 216.779 36.992L217.707 36.112C219.819 38.08 220.939 40.672 220.939 43.52C220.939 46.368 219.819 48.96 217.707 50.928L216.779 50.048Z" fill="#767676"/>
</svg>
