<svg width="360" height="72" viewBox="0 0 360 72" fill="none" xmlns="http://www.w3.org/2000/svg">
<mask id="path-1-inside-1_40_758" fill="white">
<path d="M0 0H360V72H0V0Z"/>
</mask>
<path d="M360 0H359V72H360H361V0H360Z" fill="#D9D9DB" mask="url(#path-1-inside-1_40_758)"/>
<rect x="16" y="12" width="48" height="48" rx="8" fill="#F5F5F5"/>
<path d="M80.736 27.24C78.368 27.24 76.656 25.464 76.656 23C76.656 20.568 78.384 18.776 80.736 18.776C82.768 18.776 84.4 20.088 84.528 21.976L83.04 22.104C82.912 20.936 81.936 20.088 80.72 20.088C79.248 20.088 78.176 21.32 78.176 23C78.176 24.888 79.392 25.896 80.72 25.896C81.872 25.896 82.912 25.128 83.056 23.832L84.544 23.944C84.432 25.896 82.8 27.24 80.736 27.24ZM89.9894 27.24C87.6214 27.24 85.9254 25.48 85.9254 23C85.9254 20.52 87.6214 18.776 89.9894 18.776C92.3574 18.776 94.0374 20.52 94.0374 23C94.0374 25.48 92.3574 27.24 89.9894 27.24ZM89.9894 25.96C91.4774 25.96 92.5014 24.744 92.5014 23C92.5014 21.272 91.4774 20.056 89.9894 20.056C88.4854 20.056 87.4614 21.272 87.4614 23C87.4614 24.744 88.4854 25.96 89.9894 25.96ZM98.9141 26.904C97.4101 27.336 95.7781 27.08 95.7781 24.808V15.8H97.2821V24.504C97.2821 25.672 97.9221 25.944 98.8821 25.624L98.9141 26.904ZM104.122 27.24C101.754 27.24 100.058 25.48 100.058 23C100.058 20.52 101.754 18.776 104.122 18.776C106.49 18.776 108.17 20.52 108.17 23C108.17 25.48 106.49 27.24 104.122 27.24ZM104.122 25.96C105.61 25.96 106.634 24.744 106.634 23C106.634 21.272 105.61 20.056 104.122 20.056C102.618 20.056 101.594 21.272 101.594 23C101.594 24.744 102.618 25.96 104.122 25.96ZM109.928 27V19.016H111.448L111.4 21.4C111.736 19.432 113.112 18.728 114.488 18.984V20.472C112.808 20.248 111.448 21.24 111.448 23.56V27H109.928ZM114.773 23.144V21.896H119.365V23.144H114.773ZM121.279 27V15.8H122.799V20.36C123.391 19.368 124.383 18.808 125.615 18.808C127.759 18.808 129.311 20.552 129.311 23.016C129.311 25.464 127.759 27.208 125.615 27.208C124.383 27.208 123.391 26.648 122.799 25.656V27H121.279ZM125.231 20.056C123.743 20.056 122.703 21.256 122.703 23.016C122.703 24.76 123.743 25.96 125.231 25.96C126.703 25.96 127.775 24.728 127.775 23.016C127.775 21.304 126.703 20.056 125.231 20.056ZM132.504 23.704C132.504 25.16 133.176 25.976 134.328 25.976C135.656 25.976 136.376 24.968 136.376 23.144V19.016H137.896V24.12V27H136.376L136.424 25.448C136.008 26.568 135.128 27.208 133.832 27.208C132.104 27.208 131 25.976 131 23.992V19.016H132.504V23.704ZM144.327 26.92C142.775 27.416 140.951 27 140.951 24.536V20.28H139.415V19.016H140.951V17.016H142.471V19.016H145.751V17.016H147.271V19.016H149.335V20.28H147.271V24.424C147.271 25.832 148.215 25.976 149.095 25.656L149.127 26.92C147.575 27.416 145.751 27 145.751 24.536V20.28H142.471V24.424C142.471 25.832 143.415 25.976 144.295 25.656L144.327 26.92ZM154.551 27.24C152.183 27.24 150.487 25.48 150.487 23C150.487 20.52 152.183 18.776 154.551 18.776C156.919 18.776 158.599 20.52 158.599 23C158.599 25.48 156.919 27.24 154.551 27.24ZM154.551 25.96C156.039 25.96 157.063 24.744 157.063 23C157.063 21.272 156.039 20.056 154.551 20.056C153.047 20.056 152.023 21.272 152.023 23C152.023 24.744 153.047 25.96 154.551 25.96ZM160.356 27V19.016H161.876L161.828 20.968C162.164 19.608 163.076 18.808 164.484 18.808C166.244 18.808 167.364 20.072 167.364 22.088V27H165.844V22.312C165.844 20.856 165.172 20.04 163.972 20.04C162.612 20.04 161.876 21.048 161.876 22.872V27H160.356ZM169.248 23.144V21.896H173.84V23.144H169.248ZM178.813 27.272C176.813 27.272 175.421 26.184 175.293 24.472L176.701 24.424C176.797 25.512 177.645 26.2 178.813 26.2C179.757 26.2 180.573 25.768 180.573 24.936C180.573 24.312 180.093 23.96 179.149 23.768L177.789 23.512C176.237 23.256 175.517 22.424 175.517 21.256C175.517 19.704 176.813 18.728 178.589 18.728C180.445 18.728 181.773 19.848 181.853 21.512L180.493 21.592C180.429 20.552 179.645 19.816 178.573 19.816C177.677 19.816 176.957 20.312 176.957 21.112C176.957 21.704 177.357 22.072 178.077 22.2L179.437 22.456C181.117 22.76 182.029 23.528 182.029 24.792C182.029 26.328 180.653 27.272 178.813 27.272ZM185.198 23.704C185.198 25.16 185.87 25.976 187.022 25.976C188.35 25.976 189.07 24.968 189.07 23.144V19.016H190.59V24.12V27H189.07L189.118 25.448C188.702 26.568 187.822 27.208 186.526 27.208C184.798 27.208 183.694 25.976 183.694 23.992V19.016H185.198V23.704ZM192.637 27V19.016H194.157L194.109 21.4C194.445 19.432 195.821 18.728 197.197 18.984V20.472C195.517 20.248 194.157 21.24 194.157 23.56V27H192.637ZM199.649 18.104C199.649 15.992 201.425 15.384 202.961 15.704V16.92C202.081 16.648 201.169 16.84 201.169 18.104V19.016H203.025V20.28H201.169V27H199.649V20.28H198.161V19.016H199.649V18.104ZM206.665 27.176C205.161 27.176 204.073 26.344 204.073 24.952C204.073 23.464 205.353 22.664 207.769 22.392L209.401 22.216V21.896C209.401 20.728 208.745 19.992 207.625 19.992C206.601 19.992 205.881 20.648 205.785 21.752L204.313 21.704C204.441 19.96 205.785 18.776 207.673 18.776C209.593 18.776 210.889 20.024 210.889 21.944V24.712C210.889 25.576 210.985 26.44 211.097 27H209.625C209.529 26.632 209.465 26.184 209.465 25.352C209.097 26.456 208.009 27.176 206.665 27.176ZM207.129 26.12C208.409 26.12 209.417 25.144 209.417 23.736V23.128L207.881 23.32C206.393 23.496 205.593 23.896 205.593 24.824C205.593 25.704 206.265 26.12 207.129 26.12ZM216.675 27.24C214.307 27.24 212.595 25.464 212.595 23C212.595 20.568 214.323 18.776 216.675 18.776C218.707 18.776 220.339 20.088 220.467 21.976L218.979 22.104C218.851 20.936 217.875 20.088 216.659 20.088C215.187 20.088 214.115 21.32 214.115 23C214.115 24.888 215.331 25.896 216.659 25.896C217.811 25.896 218.851 25.128 218.995 23.832L220.483 23.944C220.371 25.896 218.739 27.24 216.675 27.24ZM225.88 27.272C223.544 27.272 221.864 25.48 221.864 23C221.864 20.536 223.544 18.728 225.864 18.728C228.616 18.728 229.96 21.208 229.672 23.432H223.4C223.448 24.984 224.472 26.088 225.896 26.088C227 26.088 227.928 25.448 228.232 24.488L229.528 24.696C229.176 26.168 227.736 27.272 225.88 27.272ZM223.416 22.296H228.2C228.2 20.936 227.256 19.88 225.864 19.88C224.536 19.88 223.544 20.872 223.416 22.296ZM231.45 23.144V21.896H236.042V23.144H231.45ZM241.904 26.92C240.352 27.416 238.528 27 238.528 24.536V20.28H236.992V19.016H238.528V17.016H240.048V19.016H242.112V20.28H240.048V24.424C240.048 25.832 240.992 25.976 241.872 25.656L241.904 26.92ZM247.266 27.272C244.93 27.272 243.25 25.48 243.25 23C243.25 20.536 244.93 18.728 247.25 18.728C250.002 18.728 251.346 21.208 251.058 23.432H244.786C244.834 24.984 245.858 26.088 247.282 26.088C248.386 26.088 249.314 25.448 249.618 24.488L250.914 24.696C250.562 26.168 249.122 27.272 247.266 27.272ZM244.802 22.296H249.586C249.586 20.936 248.642 19.88 247.25 19.88C245.922 19.88 244.93 20.872 244.802 22.296ZM252.87 27V19.016H254.39L254.342 21.4C254.678 19.432 256.054 18.728 257.43 18.984V20.472C255.75 20.248 254.39 21.24 254.39 23.56V27H252.87ZM263.399 26.92C261.847 27.416 260.023 27 260.023 24.536V20.28H258.487V19.016H260.023V17.016H261.543V19.016H263.607V20.28H261.543V24.424C261.543 25.832 262.487 25.976 263.367 25.656L263.399 26.92ZM265.315 27V19.016H266.835V27H265.315ZM266.083 17.656C265.459 17.656 264.995 17.192 264.995 16.568C264.995 15.96 265.459 15.48 266.083 15.48C266.691 15.48 267.155 15.96 267.155 16.568C267.155 17.192 266.691 17.656 266.083 17.656ZM271.106 27.176C269.602 27.176 268.514 26.344 268.514 24.952C268.514 23.464 269.794 22.664 272.21 22.392L273.842 22.216V21.896C273.842 20.728 273.186 19.992 272.066 19.992C271.042 19.992 270.322 20.648 270.226 21.752L268.754 21.704C268.882 19.96 270.226 18.776 272.114 18.776C274.034 18.776 275.33 20.024 275.33 21.944V24.712C275.33 25.576 275.426 26.44 275.538 27H274.066C273.97 26.632 273.906 26.184 273.906 25.352C273.538 26.456 272.45 27.176 271.106 27.176ZM271.57 26.12C272.85 26.12 273.858 25.144 273.858 23.736V23.128L272.322 23.32C270.834 23.496 270.034 23.896 270.034 24.824C270.034 25.704 270.706 26.12 271.57 26.12ZM277.323 27V19.016H278.843L278.795 21.4C279.131 19.432 280.507 18.728 281.883 18.984V20.472C280.203 20.248 278.843 21.24 278.843 23.56V27H277.323ZM283.277 28.888C284.237 29.144 285.277 28.952 285.917 27.576L286.253 26.776L282.829 19.016H284.429L287.085 25.096L289.533 19.016H291.069L287.485 27.576C286.589 29.752 285.133 30.632 283.277 30.168V28.888Z" fill="#414141"/>
<path d="M80.592 49.76V48.24C78.352 48.016 76.8 46.544 76.784 44.496L78.32 44.384C78.368 45.76 79.28 46.736 80.592 46.976V42.992L80.368 42.944C78.304 42.544 77.152 41.424 77.152 39.776C77.152 37.936 78.544 36.704 80.592 36.544V35.2H81.776V36.576C83.712 36.864 85.072 38.272 85.136 40.192L83.584 40.288C83.536 39.056 82.832 38.144 81.776 37.856V41.68L81.968 41.712C84.304 42.16 85.456 43.2 85.456 44.96C85.456 46.768 83.968 48.064 81.776 48.24V49.76H80.592ZM78.72 39.664C78.72 40.592 79.392 41.184 80.512 41.44L80.592 41.456V37.792C79.488 37.936 78.72 38.656 78.72 39.664ZM81.776 46.992C83.04 46.816 83.888 46.096 83.888 45.056C83.888 44.048 83.248 43.536 81.824 43.216L81.776 43.2V46.992ZM90.2057 50.928C88.0938 48.96 86.9738 46.368 86.9738 43.52C86.9738 40.672 88.0938 38.08 90.2057 36.112L91.1338 36.992C89.3098 38.688 88.3178 40.976 88.3178 43.52C88.3178 46.064 89.3098 48.352 91.1338 50.048L90.2057 50.928ZM95.1735 48.24C92.8055 48.24 91.0935 46.464 91.0935 44C91.0935 41.568 92.8215 39.776 95.1735 39.776C97.2055 39.776 98.8375 41.088 98.9655 42.976L97.4775 43.104C97.3495 41.936 96.3735 41.088 95.1575 41.088C93.6855 41.088 92.6135 42.32 92.6135 44C92.6135 45.888 93.8295 46.896 95.1575 46.896C96.3095 46.896 97.3495 46.128 97.4935 44.832L98.9815 44.944C98.8695 46.896 97.2375 48.24 95.1735 48.24ZM104.267 48.24C101.899 48.24 100.203 46.48 100.203 44C100.203 41.52 101.899 39.776 104.267 39.776C106.635 39.776 108.315 41.52 108.315 44C108.315 46.48 106.635 48.24 104.267 48.24ZM104.267 46.96C105.755 46.96 106.779 45.744 106.779 44C106.779 42.272 105.755 41.056 104.267 41.056C102.763 41.056 101.739 42.272 101.739 44C101.739 45.744 102.763 46.96 104.267 46.96ZM113.032 47.904C111.528 48.336 109.896 48.08 109.896 45.808V36.8H111.4V45.504C111.4 46.672 112.04 46.944 113 46.624L113.032 47.904ZM118.079 48.24C115.711 48.24 114.015 46.48 114.015 44C114.015 41.52 115.711 39.776 118.079 39.776C120.447 39.776 122.127 41.52 122.127 44C122.127 46.48 120.447 48.24 118.079 48.24ZM118.079 46.96C119.567 46.96 120.591 45.744 120.591 44C120.591 42.272 119.567 41.056 118.079 41.056C116.575 41.056 115.551 42.272 115.551 44C115.551 45.744 116.575 46.96 118.079 46.96ZM123.725 48V40.016H125.245L125.197 42.4C125.533 40.432 126.909 39.728 128.285 39.984V41.472C126.605 41.248 125.245 42.24 125.245 44.56V48H123.725ZM128.41 44.144V42.896H133.002V44.144H128.41ZM134.757 48V40.016H136.277L136.229 41.968C136.565 40.608 137.477 39.808 138.885 39.808C140.645 39.808 141.765 41.072 141.765 43.088V48H140.245V43.312C140.245 41.856 139.573 41.04 138.373 41.04C137.013 41.04 136.277 42.048 136.277 43.872V48H134.757ZM147.313 48.272C144.977 48.272 143.297 46.48 143.297 44C143.297 41.536 144.977 39.728 147.297 39.728C150.049 39.728 151.393 42.208 151.105 44.432H144.833C144.881 45.984 145.905 47.088 147.329 47.088C148.433 47.088 149.361 46.448 149.665 45.488L150.961 45.696C150.609 47.168 149.169 48.272 147.313 48.272ZM144.849 43.296H149.633C149.633 41.936 148.689 40.88 147.297 40.88C145.969 40.88 144.977 41.872 144.849 43.296ZM154.197 44.704C154.197 46.16 154.869 46.976 156.021 46.976C157.349 46.976 158.069 45.968 158.069 44.144V40.016H159.589V45.12V48H158.069L158.117 46.448C157.701 47.568 156.821 48.208 155.525 48.208C153.797 48.208 152.693 46.976 152.693 44.992V40.016H154.197V44.704ZM165.86 47.92C164.308 48.416 162.484 48 162.484 45.536V41.28H160.948V40.016H162.484V38.016H164.004V40.016H166.068V41.28H164.004V45.424C164.004 46.832 164.948 46.976 165.828 46.656L165.86 47.92ZM167.616 48V40.016H169.136L169.088 42.4C169.424 40.432 170.8 39.728 172.176 39.984V41.472C170.496 41.248 169.136 42.24 169.136 44.56V48H167.616ZM175.512 48.176C174.008 48.176 172.92 47.344 172.92 45.952C172.92 44.464 174.2 43.664 176.616 43.392L178.248 43.216V42.896C178.248 41.728 177.592 40.992 176.472 40.992C175.448 40.992 174.728 41.648 174.632 42.752L173.16 42.704C173.288 40.96 174.632 39.776 176.52 39.776C178.44 39.776 179.736 41.024 179.736 42.944V45.712C179.736 46.576 179.832 47.44 179.944 48H178.472C178.376 47.632 178.312 47.184 178.312 46.352C177.944 47.456 176.856 48.176 175.512 48.176ZM175.976 47.12C177.256 47.12 178.264 46.144 178.264 44.736V44.128L176.728 44.32C175.24 44.496 174.44 44.896 174.44 45.824C174.44 46.704 175.112 47.12 175.976 47.12ZM184.672 47.904C183.168 48.336 181.536 48.08 181.536 45.808V36.8H183.04V45.504C183.04 46.672 183.68 46.944 184.64 46.624L184.672 47.904ZM185.223 44.144V42.896H189.815V44.144H185.223ZM192.583 39.376C192.103 40.4 191.111 41.024 189.639 41.024V39.728C191.559 39.728 192.567 38.608 192.727 36.72H194.087V48H192.583V39.376ZM200.228 48.224C197.748 48.224 196.068 45.856 196.068 42.4C196.068 38.944 197.748 36.576 200.228 36.576C202.708 36.576 204.404 38.944 204.404 42.4C204.404 45.856 202.708 48.224 200.228 48.224ZM200.228 46.88C201.812 46.88 202.868 45.056 202.868 42.4C202.868 39.744 201.812 37.92 200.228 37.92C198.66 37.92 197.588 39.744 197.588 42.4C197.588 45.056 198.66 46.88 200.228 46.88ZM210.385 48.224C207.905 48.224 206.225 45.856 206.225 42.4C206.225 38.944 207.905 36.576 210.385 36.576C212.865 36.576 214.561 38.944 214.561 42.4C214.561 45.856 212.865 48.224 210.385 48.224ZM210.385 46.88C211.969 46.88 213.025 45.056 213.025 42.4C213.025 39.744 211.969 37.92 210.385 37.92C208.817 37.92 207.745 39.744 207.745 42.4C207.745 45.056 208.817 46.88 210.385 46.88ZM214.967 50.048C216.791 48.352 217.783 46.064 217.783 43.52C217.783 40.976 216.791 38.688 214.967 36.992L215.895 36.112C218.007 38.08 219.127 40.672 219.127 43.52C219.127 46.368 218.007 48.96 215.895 50.928L214.967 50.048Z" fill="#767676"/>
</svg>
