<svg width="360" height="72" viewBox="0 0 360 72" fill="none" xmlns="http://www.w3.org/2000/svg">
<mask id="path-1-inside-1_7_201" fill="white">
<path d="M0 0H360V72H0V0Z"/>
</mask>
<path d="M360 0H359V72H360H361V0H360Z" fill="#D9D9DB" mask="url(#path-1-inside-1_7_201)"/>
<rect x="16" y="12" width="48" height="48" rx="8" fill="#BC0F0F"/>
<path d="M80.736 27.24C78.368 27.24 76.656 25.464 76.656 23C76.656 20.568 78.384 18.776 80.736 18.776C82.768 18.776 84.4 20.088 84.528 21.976L83.04 22.104C82.912 20.936 81.936 20.088 80.72 20.088C79.248 20.088 78.176 21.32 78.176 23C78.176 24.888 79.392 25.896 80.72 25.896C81.872 25.896 82.912 25.128 83.056 23.832L84.544 23.944C84.432 25.896 82.8 27.24 80.736 27.24ZM89.9894 27.24C87.6214 27.24 85.9254 25.48 85.9254 23C85.9254 20.52 87.6214 18.776 89.9894 18.776C92.3574 18.776 94.0374 20.52 94.0374 23C94.0374 25.48 92.3574 27.24 89.9894 27.24ZM89.9894 25.96C91.4774 25.96 92.5014 24.744 92.5014 23C92.5014 21.272 91.4774 20.056 89.9894 20.056C88.4854 20.056 87.4614 21.272 87.4614 23C87.4614 24.744 88.4854 25.96 89.9894 25.96ZM98.9141 26.904C97.4101 27.336 95.7781 27.08 95.7781 24.808V15.8H97.2821V24.504C97.2821 25.672 97.9221 25.944 98.8821 25.624L98.9141 26.904ZM104.122 27.24C101.754 27.24 100.058 25.48 100.058 23C100.058 20.52 101.754 18.776 104.122 18.776C106.49 18.776 108.17 20.52 108.17 23C108.17 25.48 106.49 27.24 104.122 27.24ZM104.122 25.96C105.61 25.96 106.634 24.744 106.634 23C106.634 21.272 105.61 20.056 104.122 20.056C102.618 20.056 101.594 21.272 101.594 23C101.594 24.744 102.618 25.96 104.122 25.96ZM109.928 27V19.016H111.448L111.4 21.4C111.736 19.432 113.112 18.728 114.488 18.984V20.472C112.808 20.248 111.448 21.24 111.448 23.56V27H109.928ZM114.773 23.144V21.896H119.365V23.144H114.773ZM124.338 27.272C122.338 27.272 120.946 26.184 120.818 24.472L122.226 24.424C122.322 25.512 123.17 26.2 124.338 26.2C125.282 26.2 126.098 25.768 126.098 24.936C126.098 24.312 125.618 23.96 124.674 23.768L123.314 23.512C121.762 23.256 121.042 22.424 121.042 21.256C121.042 19.704 122.338 18.728 124.114 18.728C125.97 18.728 127.298 19.848 127.378 21.512L126.018 21.592C125.954 20.552 125.17 19.816 124.098 19.816C123.202 19.816 122.482 20.312 122.482 21.112C122.482 21.704 122.882 22.072 123.602 22.2L124.962 22.456C126.642 22.76 127.554 23.528 127.554 24.792C127.554 26.328 126.178 27.272 124.338 27.272ZM130.723 23.704C130.723 25.16 131.395 25.976 132.547 25.976C133.875 25.976 134.595 24.968 134.595 23.144V19.016H136.115V24.12V27H134.595L134.643 25.448C134.227 26.568 133.347 27.208 132.051 27.208C130.323 27.208 129.219 25.976 129.219 23.992V19.016H130.723V23.704ZM138.161 27V19.016H139.681L139.633 21.4C139.969 19.432 141.345 18.728 142.721 18.984V20.472C141.041 20.248 139.681 21.24 139.681 23.56V27H138.161ZM145.173 18.104C145.173 15.992 146.949 15.384 148.485 15.704V16.92C147.605 16.648 146.693 16.84 146.693 18.104V19.016H148.549V20.28H146.693V27H145.173V20.28H143.685V19.016H145.173V18.104ZM152.19 27.176C150.686 27.176 149.598 26.344 149.598 24.952C149.598 23.464 150.878 22.664 153.294 22.392L154.926 22.216V21.896C154.926 20.728 154.27 19.992 153.15 19.992C152.126 19.992 151.406 20.648 151.31 21.752L149.838 21.704C149.966 19.96 151.31 18.776 153.198 18.776C155.118 18.776 156.414 20.024 156.414 21.944V24.712C156.414 25.576 156.51 26.44 156.622 27H155.15C155.054 26.632 154.99 26.184 154.99 25.352C154.622 26.456 153.534 27.176 152.19 27.176ZM152.654 26.12C153.934 26.12 154.942 25.144 154.942 23.736V23.128L153.406 23.32C151.918 23.496 151.118 23.896 151.118 24.824C151.118 25.704 151.79 26.12 152.654 26.12ZM162.199 27.24C159.831 27.24 158.119 25.464 158.119 23C158.119 20.568 159.847 18.776 162.199 18.776C164.231 18.776 165.863 20.088 165.991 21.976L164.503 22.104C164.375 20.936 163.399 20.088 162.183 20.088C160.711 20.088 159.639 21.32 159.639 23C159.639 24.888 160.855 25.896 162.183 25.896C163.335 25.896 164.375 25.128 164.519 23.832L166.007 23.944C165.895 25.896 164.263 27.24 162.199 27.24ZM171.404 27.272C169.068 27.272 167.388 25.48 167.388 23C167.388 20.536 169.068 18.728 171.388 18.728C174.14 18.728 175.484 21.208 175.196 23.432H168.924C168.972 24.984 169.996 26.088 171.42 26.088C172.524 26.088 173.452 25.448 173.756 24.488L175.052 24.696C174.7 26.168 173.26 27.272 171.404 27.272ZM168.94 22.296H173.724C173.724 20.936 172.78 19.88 171.388 19.88C170.06 19.88 169.068 20.872 168.94 22.296ZM176.975 23.144V21.896H181.567V23.144H176.975ZM183.481 27V15.8H185.001V20.36C185.593 19.368 186.585 18.808 187.817 18.808C189.961 18.808 191.513 20.552 191.513 23.016C191.513 25.464 189.961 27.208 187.817 27.208C186.585 27.208 185.593 26.648 185.001 25.656V27H183.481ZM187.433 20.056C185.945 20.056 184.905 21.256 184.905 23.016C184.905 24.76 185.945 25.96 187.433 25.96C188.905 25.96 189.977 24.728 189.977 23.016C189.977 21.304 188.905 20.056 187.433 20.056ZM193.266 27V19.016H194.786L194.738 21.4C195.074 19.432 196.45 18.728 197.826 18.984V20.472C196.146 20.248 194.786 21.24 194.786 23.56V27H193.266ZM201.322 27.176C199.818 27.176 198.73 26.344 198.73 24.952C198.73 23.464 200.01 22.664 202.426 22.392L204.058 22.216V21.896C204.058 20.728 203.402 19.992 202.282 19.992C201.258 19.992 200.538 20.648 200.442 21.752L198.97 21.704C199.098 19.96 200.442 18.776 202.33 18.776C204.25 18.776 205.546 20.024 205.546 21.944V24.712C205.546 25.576 205.642 26.44 205.754 27H204.282C204.186 26.632 204.122 26.184 204.122 25.352C203.754 26.456 202.666 27.176 201.322 27.176ZM201.786 26.12C203.066 26.12 204.074 25.144 204.074 23.736V23.128L202.538 23.32C201.05 23.496 200.25 23.896 200.25 24.824C200.25 25.704 200.922 26.12 201.786 26.12ZM207.539 27V19.016H209.059L209.011 20.968C209.347 19.608 210.259 18.808 211.667 18.808C213.427 18.808 214.547 20.072 214.547 22.088V27H213.027V22.312C213.027 20.856 212.355 20.04 211.155 20.04C209.795 20.04 209.059 21.048 209.059 22.872V27H207.539ZM219.935 27.208C217.791 27.208 216.239 25.464 216.239 23C216.239 20.552 217.791 18.808 219.935 18.808C221.183 18.808 222.175 19.384 222.767 20.376V15.8H224.287V25.288V27H222.767V25.624C222.175 26.632 221.183 27.208 219.935 27.208ZM220.319 25.96C221.807 25.96 222.847 24.76 222.847 23C222.847 21.256 221.807 20.056 220.319 20.056C218.847 20.056 217.775 21.288 217.775 23C217.775 24.712 218.847 25.96 220.319 25.96Z" fill="#414141"/>
<path d="M80.592 49.76V48.24C78.352 48.016 76.8 46.544 76.784 44.496L78.32 44.384C78.368 45.76 79.28 46.736 80.592 46.976V42.992L80.368 42.944C78.304 42.544 77.152 41.424 77.152 39.776C77.152 37.936 78.544 36.704 80.592 36.544V35.2H81.776V36.576C83.712 36.864 85.072 38.272 85.136 40.192L83.584 40.288C83.536 39.056 82.832 38.144 81.776 37.856V41.68L81.968 41.712C84.304 42.16 85.456 43.2 85.456 44.96C85.456 46.768 83.968 48.064 81.776 48.24V49.76H80.592ZM78.72 39.664C78.72 40.592 79.392 41.184 80.512 41.44L80.592 41.456V37.792C79.488 37.936 78.72 38.656 78.72 39.664ZM81.776 46.992C83.04 46.816 83.888 46.096 83.888 45.056C83.888 44.048 83.248 43.536 81.824 43.216L81.776 43.2V46.992ZM90.2057 50.928C88.0938 48.96 86.9738 46.368 86.9738 43.52C86.9738 40.672 88.0938 38.08 90.2057 36.112L91.1338 36.992C89.3098 38.688 88.3178 40.976 88.3178 43.52C88.3178 46.064 89.3098 48.352 91.1338 50.048L90.2057 50.928ZM95.1735 48.24C92.8055 48.24 91.0935 46.464 91.0935 44C91.0935 41.568 92.8215 39.776 95.1735 39.776C97.2055 39.776 98.8375 41.088 98.9655 42.976L97.4775 43.104C97.3495 41.936 96.3735 41.088 95.1575 41.088C93.6855 41.088 92.6135 42.32 92.6135 44C92.6135 45.888 93.8295 46.896 95.1575 46.896C96.3095 46.896 97.3495 46.128 97.4935 44.832L98.9815 44.944C98.8695 46.896 97.2375 48.24 95.1735 48.24ZM104.267 48.24C101.899 48.24 100.203 46.48 100.203 44C100.203 41.52 101.899 39.776 104.267 39.776C106.635 39.776 108.315 41.52 108.315 44C108.315 46.48 106.635 48.24 104.267 48.24ZM104.267 46.96C105.755 46.96 106.779 45.744 106.779 44C106.779 42.272 105.755 41.056 104.267 41.056C102.763 41.056 101.739 42.272 101.739 44C101.739 45.744 102.763 46.96 104.267 46.96ZM113.032 47.904C111.528 48.336 109.896 48.08 109.896 45.808V36.8H111.4V45.504C111.4 46.672 112.04 46.944 113 46.624L113.032 47.904ZM118.079 48.24C115.711 48.24 114.015 46.48 114.015 44C114.015 41.52 115.711 39.776 118.079 39.776C120.447 39.776 122.127 41.52 122.127 44C122.127 46.48 120.447 48.24 118.079 48.24ZM118.079 46.96C119.567 46.96 120.591 45.744 120.591 44C120.591 42.272 119.567 41.056 118.079 41.056C116.575 41.056 115.551 42.272 115.551 44C115.551 45.744 116.575 46.96 118.079 46.96ZM123.725 48V40.016H125.245L125.197 42.4C125.533 40.432 126.909 39.728 128.285 39.984V41.472C126.605 41.248 125.245 42.24 125.245 44.56V48H123.725ZM128.41 44.144V42.896H133.002V44.144H128.41ZM134.757 48V36.8H136.277V41.36C136.869 40.368 137.861 39.808 139.093 39.808C141.237 39.808 142.789 41.552 142.789 44.016C142.789 46.464 141.237 48.208 139.093 48.208C137.861 48.208 136.869 47.648 136.277 46.656V48H134.757ZM138.709 41.056C137.221 41.056 136.181 42.256 136.181 44.016C136.181 45.76 137.221 46.96 138.709 46.96C140.181 46.96 141.253 45.728 141.253 44.016C141.253 42.304 140.181 41.056 138.709 41.056ZM144.382 48V40.016H145.902L145.854 42.4C146.19 40.432 147.566 39.728 148.942 39.984V41.472C147.262 41.248 145.902 42.24 145.902 44.56V48H144.382ZM152.277 48.176C150.773 48.176 149.685 47.344 149.685 45.952C149.685 44.464 150.965 43.664 153.381 43.392L155.013 43.216V42.896C155.013 41.728 154.357 40.992 153.237 40.992C152.213 40.992 151.493 41.648 151.397 42.752L149.925 42.704C150.053 40.96 151.397 39.776 153.285 39.776C155.205 39.776 156.501 41.024 156.501 42.944V45.712C156.501 46.576 156.597 47.44 156.709 48H155.237C155.141 47.632 155.077 47.184 155.077 46.352C154.709 47.456 153.621 48.176 152.277 48.176ZM152.741 47.12C154.021 47.12 155.029 46.144 155.029 44.736V44.128L153.493 44.32C152.005 44.496 151.205 44.896 151.205 45.824C151.205 46.704 151.877 47.12 152.741 47.12ZM158.335 48V40.016H159.855L159.807 41.968C160.143 40.608 161.055 39.808 162.463 39.808C164.223 39.808 165.343 41.072 165.343 43.088V48H163.823V43.312C163.823 41.856 163.151 41.04 161.951 41.04C160.591 41.04 159.855 42.048 159.855 43.872V48H158.335ZM170.571 48.208C168.427 48.208 166.875 46.464 166.875 44C166.875 41.552 168.427 39.808 170.571 39.808C171.819 39.808 172.811 40.384 173.403 41.376V36.8H174.923V46.288V48H173.403V46.624C172.811 47.632 171.819 48.208 170.571 48.208ZM170.955 46.96C172.443 46.96 173.483 45.76 173.483 44C173.483 42.256 172.443 41.056 170.955 41.056C169.483 41.056 168.411 42.288 168.411 44C168.411 45.712 169.483 46.96 170.955 46.96ZM176.676 44.144V42.896H181.268V44.144H176.676ZM183.022 48V40.016H184.542L184.494 42.4C184.83 40.432 186.206 39.728 187.582 39.984V41.472C185.902 41.248 184.542 42.24 184.542 44.56V48H183.022ZM192.328 48.272C189.992 48.272 188.312 46.48 188.312 44C188.312 41.536 189.992 39.728 192.312 39.728C195.064 39.728 196.408 42.208 196.12 44.432H189.848C189.896 45.984 190.92 47.088 192.344 47.088C193.448 47.088 194.376 46.448 194.68 45.488L195.976 45.696C195.624 47.168 194.184 48.272 192.328 48.272ZM189.864 43.296H194.648C194.648 41.936 193.704 40.88 192.312 40.88C190.984 40.88 189.992 41.872 189.864 43.296ZM201.18 48.208C199.036 48.208 197.484 46.464 197.484 44C197.484 41.552 199.036 39.808 201.18 39.808C202.428 39.808 203.42 40.384 204.012 41.376V36.8H205.532V46.288V48H204.012V46.624C203.42 47.632 202.428 48.208 201.18 48.208ZM201.564 46.96C203.052 46.96 204.092 45.76 204.092 44C204.092 42.256 203.052 41.056 201.564 41.056C200.092 41.056 199.02 42.288 199.02 44C199.02 45.712 200.092 46.96 201.564 46.96ZM207.029 50.048C208.853 48.352 209.845 46.064 209.845 43.52C209.845 40.976 208.853 38.688 207.029 36.992L207.957 36.112C210.069 38.08 211.189 40.672 211.189 43.52C211.189 46.368 210.069 48.96 207.957 50.928L207.029 50.048Z" fill="#767676"/>
</svg>
