<svg width="360" height="72" viewBox="0 0 360 72" fill="none" xmlns="http://www.w3.org/2000/svg">
<mask id="path-1-inside-1_7_72" fill="white">
<path d="M0 0H360V72H0V0Z"/>
</mask>
<path d="M360 0H359V72H360H361V0H360Z" fill="#D9D9DB" mask="url(#path-1-inside-1_7_72)"/>
<rect x="16.5" y="12.5" width="47" height="47" rx="7.5" fill="white" stroke="#D9D9DB"/>
<path d="M80.736 27.24C78.368 27.24 76.656 25.464 76.656 23C76.656 20.568 78.384 18.776 80.736 18.776C82.768 18.776 84.4 20.088 84.528 21.976L83.04 22.104C82.912 20.936 81.936 20.088 80.72 20.088C79.248 20.088 78.176 21.32 78.176 23C78.176 24.888 79.392 25.896 80.72 25.896C81.872 25.896 82.912 25.128 83.056 23.832L84.544 23.944C84.432 25.896 82.8 27.24 80.736 27.24ZM89.9894 27.24C87.6214 27.24 85.9254 25.48 85.9254 23C85.9254 20.52 87.6214 18.776 89.9894 18.776C92.3574 18.776 94.0374 20.52 94.0374 23C94.0374 25.48 92.3574 27.24 89.9894 27.24ZM89.9894 25.96C91.4774 25.96 92.5014 24.744 92.5014 23C92.5014 21.272 91.4774 20.056 89.9894 20.056C88.4854 20.056 87.4614 21.272 87.4614 23C87.4614 24.744 88.4854 25.96 89.9894 25.96ZM98.9141 26.904C97.4101 27.336 95.7781 27.08 95.7781 24.808V15.8H97.2821V24.504C97.2821 25.672 97.9221 25.944 98.8821 25.624L98.9141 26.904ZM104.122 27.24C101.754 27.24 100.058 25.48 100.058 23C100.058 20.52 101.754 18.776 104.122 18.776C106.49 18.776 108.17 20.52 108.17 23C108.17 25.48 106.49 27.24 104.122 27.24ZM104.122 25.96C105.61 25.96 106.634 24.744 106.634 23C106.634 21.272 105.61 20.056 104.122 20.056C102.618 20.056 101.594 21.272 101.594 23C101.594 24.744 102.618 25.96 104.122 25.96ZM109.928 27V19.016H111.448L111.4 21.4C111.736 19.432 113.112 18.728 114.488 18.984V20.472C112.808 20.248 111.448 21.24 111.448 23.56V27H109.928ZM114.773 23.144V21.896H119.365V23.144H114.773ZM121.279 27V19.016H122.799L122.751 20.968C123.087 19.608 123.999 18.808 125.407 18.808C127.167 18.808 128.287 20.072 128.287 22.088V27H126.767V22.312C126.767 20.856 126.095 20.04 124.895 20.04C123.535 20.04 122.799 21.048 122.799 22.872V27H121.279ZM133.995 27.272C131.659 27.272 129.979 25.48 129.979 23C129.979 20.536 131.659 18.728 133.979 18.728C136.731 18.728 138.075 21.208 137.787 23.432H131.515C131.563 24.984 132.587 26.088 134.011 26.088C135.115 26.088 136.043 25.448 136.347 24.488L137.643 24.696C137.291 26.168 135.851 27.272 133.995 27.272ZM131.531 22.296H136.315C136.315 20.936 135.371 19.88 133.979 19.88C132.651 19.88 131.659 20.872 131.531 22.296ZM141.039 23.704C141.039 25.16 141.711 25.976 142.863 25.976C144.191 25.976 144.911 24.968 144.911 23.144V19.016H146.431V24.12V27H144.911L144.959 25.448C144.543 26.568 143.663 27.208 142.367 27.208C140.639 27.208 139.535 25.976 139.535 23.992V19.016H141.039V23.704ZM152.863 26.92C151.311 27.416 149.487 27 149.487 24.536V20.28H147.951V19.016H149.487V17.016H151.007V19.016H153.071V20.28H151.007V24.424C151.007 25.832 151.951 25.976 152.831 25.656L152.863 26.92ZM154.778 27V19.016H156.298L156.25 21.4C156.586 19.432 157.962 18.728 159.338 18.984V20.472C157.658 20.248 156.298 21.24 156.298 23.56V27H154.778ZM162.834 27.176C161.33 27.176 160.242 26.344 160.242 24.952C160.242 23.464 161.522 22.664 163.938 22.392L165.57 22.216V21.896C165.57 20.728 164.914 19.992 163.794 19.992C162.77 19.992 162.05 20.648 161.954 21.752L160.482 21.704C160.61 19.96 161.954 18.776 163.842 18.776C165.762 18.776 167.058 20.024 167.058 21.944V24.712C167.058 25.576 167.154 26.44 167.266 27H165.794C165.698 26.632 165.634 26.184 165.634 25.352C165.266 26.456 164.178 27.176 162.834 27.176ZM163.298 26.12C164.578 26.12 165.586 25.144 165.586 23.736V23.128L164.05 23.32C162.562 23.496 161.762 23.896 161.762 24.824C161.762 25.704 162.434 26.12 163.298 26.12ZM172.155 26.904C170.651 27.336 169.019 27.08 169.019 24.808V15.8H170.523V24.504C170.523 25.672 171.163 25.944 172.123 25.624L172.155 26.904ZM172.865 23.144V21.896H177.457V23.144H172.865ZM181.251 27L178.515 19.016H180.147L182.163 25.304L184.083 19.016H185.763L187.699 25.304L189.715 19.016H191.315L188.579 27H186.883L184.931 20.664L182.963 27H181.251ZM192.875 27V15.8H194.395V20.792C194.763 19.544 195.659 18.808 197.003 18.808C198.763 18.808 199.883 20.072 199.883 22.088V27H198.363V22.312C198.363 20.856 197.691 20.04 196.491 20.04C195.131 20.04 194.395 21.048 194.395 22.872V27H192.875ZM201.863 27V19.016H203.383V27H201.863ZM202.631 17.656C202.007 17.656 201.543 17.192 201.543 16.568C201.543 15.96 202.007 15.48 202.631 15.48C203.239 15.48 203.703 15.96 203.703 16.568C203.703 17.192 203.239 17.656 202.631 17.656ZM209.814 26.92C208.262 27.416 206.438 27 206.438 24.536V20.28H204.902V19.016H206.438V17.016H207.958V19.016H210.022V20.28H207.958V24.424C207.958 25.832 208.902 25.976 209.782 25.656L209.814 26.92ZM215.177 27.272C212.841 27.272 211.161 25.48 211.161 23C211.161 20.536 212.841 18.728 215.161 18.728C217.913 18.728 219.257 21.208 218.969 23.432H212.697C212.745 24.984 213.769 26.088 215.193 26.088C216.297 26.088 217.225 25.448 217.529 24.488L218.825 24.696C218.473 26.168 217.033 27.272 215.177 27.272ZM212.713 22.296H217.497C217.497 20.936 216.553 19.88 215.161 19.88C213.833 19.88 212.841 20.872 212.713 22.296Z" fill="#414141"/>
<path d="M78.032 48L78.816 44.704H76.736V43.76H79.04L79.696 40.96H76.736V40.016H79.92L80.688 36.8H81.968L81.2 40.016H83.904L84.672 36.8H85.936L85.168 40.016H87.232V40.96H84.944L84.288 43.76H87.232V44.704H84.064L83.28 48H82L82.784 44.704H80.08L79.296 48H78.032ZM80.304 43.76H83.008L83.68 40.96H80.976L80.304 43.76ZM88.9314 48V36.8H96.0994V38.064H90.5154V41.824H95.7794V43.056H90.5154V48H88.9314ZM97.822 48V36.8H104.99V38.064H99.406V41.824H104.67V43.056H99.406V48H97.822ZM106.713 48V36.8H113.881V38.064H108.297V41.824H113.561V43.056H108.297V48H106.713ZM115.603 48V36.8H122.771V38.064H117.187V41.824H122.451V43.056H117.187V48H115.603ZM124.494 48V36.8H131.662V38.064H126.078V41.824H131.342V43.056H126.078V48H124.494ZM133.385 48V36.8H140.553V38.064H134.969V41.824H140.233V43.056H134.969V48H133.385Z" fill="#767676"/>
</svg>
