<svg width="393" height="64" viewBox="0 0 393 64" fill="none" xmlns="http://www.w3.org/2000/svg">
<rect width="393" height="64" fill="white"/>
<path d="M36.2316 41.6495L35.3595 41.5955C34.5342 41.5375 34.1342 41.0825 34.1342 40.2081V32.8848C34.1342 28.4844 31.8061 25.8578 27.9068 25.8578C25.7625 25.8578 23.8056 26.9453 22.5154 28.8456V21.0925C22.5154 20.5469 22.0721 20.1025 21.528 20.1025H16.9871C16.443 20.1025 15.9997 20.5469 15.9997 21.0925C15.9997 21.638 16.4069 22.0462 16.9259 22.0788L17.798 22.133C18.6233 22.1908 19.0233 22.646 19.0233 23.5203V40.2116C19.0233 41.0859 18.6233 41.5375 17.798 41.5989L16.9223 41.6532C16.4033 41.6857 15.9961 42.1192 15.9961 42.6396C15.9961 43.1597 16.4394 43.6294 16.9835 43.6294H24.6489C25.1931 43.6294 25.6364 43.1851 25.6364 42.6396C25.6364 42.094 25.2291 41.6857 24.7102 41.6532L23.838 41.5989C23.0128 41.5412 22.6127 41.0859 22.6127 40.2116V33.6037C22.6127 30.569 24.393 28.3687 26.8508 28.3687C29.1285 28.3687 30.5448 30.1137 30.5448 32.9209V40.2116C30.5448 41.1003 30.1772 41.5412 29.3879 41.5989L28.5771 41.6532C28.0617 41.6857 27.6545 42.1229 27.6545 42.643C27.6545 43.1633 28.0978 43.633 28.6419 43.633H36.1703C36.7145 43.633 37.1578 43.1888 37.1578 42.643C37.1578 42.0975 36.7506 41.6894 36.2352 41.6569L36.2316 41.6495Z" fill="#BC0F0F"/>
<path d="M150.606 42.4943C150.541 42.0356 150.138 41.6779 149.644 41.6454L148.815 41.5948C147.99 41.537 147.59 41.0818 147.59 40.2074V32.5085C147.59 28.2814 145.395 25.8572 141.564 25.8572C139.348 25.8572 137.254 27.0097 135.935 28.9498V27.2915C135.935 26.746 135.492 26.3016 134.948 26.3016H130.446C129.902 26.3016 129.459 26.746 129.459 27.2915C129.459 27.8371 129.866 28.2453 130.385 28.2778L131.257 28.332C132.083 28.3898 132.483 28.845 132.483 29.7193V40.2111C132.483 41.0854 132.086 41.537 131.268 41.5984H127.322C126.497 41.5407 126.097 41.0854 126.097 40.2111V32.5121C126.097 28.285 123.902 25.8608 120.071 25.8608C117.855 25.8608 115.761 27.0133 114.442 28.9534V27.2951C114.442 26.7496 113.999 26.3052 113.454 26.3052H108.953C108.409 26.3052 107.966 26.7496 107.966 27.2951C107.966 27.8407 108.373 28.2489 108.892 28.2814L109.764 28.3356C110.589 28.3934 110.989 28.8486 110.989 29.7229V40.2148C110.989 41.0891 110.593 41.5407 109.775 41.6021H105.937C105.303 41.6021 104.658 41.3455 104.658 39.4307V31.8004C104.658 28.1369 102.077 25.8644 97.9184 25.8644C95.6154 25.8644 93.6008 26.7207 92.2458 28.2742C91.2259 29.4195 91.0099 30.4528 91.0099 31.1211C91.0099 32.3892 91.8314 33.2419 93.0604 33.2419C93.99 33.2419 95.0028 32.5735 95.0425 31.3307V31.2801L94.0515 29.4592C94.6965 28.5199 95.976 27.9599 97.4751 27.9599C99.7238 27.9599 100.964 29.116 100.964 31.2187V32.1833C99.0102 32.9131 96.8912 33.7477 95.2947 34.4269C91.745 36.0274 90.2278 37.7038 90.2278 40.0413C90.2278 42.5087 92.0043 44.1057 94.7577 44.1057C97.3525 44.1057 99.6663 42.6208 101.122 40.0269C101.299 42.451 102.639 43.6289 105.223 43.6289H116.442C116.986 43.6289 117.429 43.1844 117.429 42.6389C117.429 42.0933 117.026 41.685 116.507 41.6525L115.732 41.6021C114.943 41.5441 114.575 41.1035 114.575 40.2148V33.6068C114.575 30.6226 116.528 28.3718 119.12 28.3718C121.271 28.3718 122.507 29.8819 122.507 32.5157V40.2148C122.507 41.0891 122.118 41.5407 121.318 41.6021L120.539 41.6525C120.024 41.6887 119.621 42.1222 119.621 42.6425C119.621 43.1629 120.064 43.6323 120.608 43.6323H137.899C138.397 43.6323 138.818 43.2964 138.908 42.8375C138.962 42.5523 138.898 42.2668 138.721 42.0393C138.548 41.8152 138.285 41.6743 138.004 41.6562L137.229 41.6055C136.44 41.5478 136.072 41.107 136.072 40.2182V33.6104C136.072 30.6262 138.025 28.3753 140.613 28.3753C142.765 28.3753 144 29.8855 144 32.5193V40.2182C144 41.0925 143.611 41.5441 142.811 41.6055L142.033 41.6562C141.517 41.6924 141.114 42.1259 141.114 42.6462C141.114 43.1663 141.557 43.636 142.101 43.636H149.63C149.914 43.636 150.185 43.5132 150.372 43.2964C150.56 43.0797 150.643 42.7942 150.603 42.5053L150.606 42.4943ZM96.0553 41.5263C94.7217 41.5263 93.9252 40.7674 93.9252 39.4921C93.9252 38.0686 94.8262 36.974 96.8444 35.9407C98.0625 35.3626 99.5437 34.7665 100.971 34.2029V35.4024C100.971 38.607 98.6283 41.5226 96.0553 41.5226V41.5263Z" fill="#BC0F0F"/>
<path d="M88.2671 41.6491L87.4417 41.5987C86.6165 41.5407 86.2165 41.0857 86.2165 40.2114V32.5123C86.2165 28.2853 84.1442 25.861 80.5332 25.861C78.2845 25.861 76.133 27.2231 74.9005 29.4233C74.0969 27.093 72.2986 25.861 69.693 25.861C67.628 25.861 65.7179 26.9485 64.4348 28.8489V27.2953C64.4348 26.7498 63.9917 26.3054 63.4474 26.3054H58.9462C58.4021 26.3054 57.9588 26.7498 57.9588 27.2953C57.9588 27.8409 58.3661 28.2491 58.885 28.2816L59.7571 28.3358C60.5825 28.3936 60.9825 28.8489 60.9825 29.7232V40.2148C60.9825 41.0891 60.5859 41.5407 59.7679 41.6021H55.6235C55 41.6021 54.3622 41.3528 54.3441 39.5212V27.2917C54.3441 26.7462 53.9008 26.3018 53.3567 26.3018H48.7185C48.1744 26.3018 47.7311 26.7462 47.7311 27.2917C47.7311 27.8373 48.1384 28.2455 48.6573 28.278L49.5294 28.3322C50.3548 28.39 50.7548 28.8452 50.7548 29.7195V36.2263C50.7548 38.7445 48.9276 41.5625 46.4842 41.5625C44.3975 41.5625 43.1976 39.9259 43.1976 37.0753V26.3018H37.5719C37.0278 26.3018 36.5845 26.7462 36.5845 27.2917C36.5845 27.8373 36.9917 28.2455 37.5107 28.278L38.3828 28.3322C39.2081 28.39 39.6081 28.8452 39.6081 29.7195V37.0753C39.6081 41.4759 41.7848 44.1023 45.4284 44.1023C47.5256 44.1023 49.562 42.8233 50.8918 40.6774C51.2556 42.6609 52.5676 43.6291 54.9063 43.6291H66.4349C66.9792 43.6291 67.4225 43.1846 67.4225 42.6354C67.4225 42.1153 67.0189 41.6853 66.5034 41.6491L65.7286 41.5987C64.9395 41.5407 64.5718 41.1001 64.5718 40.2114V33.6034C64.5718 30.6192 66.363 28.3684 68.7416 28.3684C70.6766 28.3684 71.7902 29.8785 71.7902 32.5123V40.2114C71.7902 41.1001 71.4228 41.5407 70.6336 41.5987L69.8226 41.6527C69.3072 41.6853 68.9001 42.1188 68.9001 42.6428C68.9001 43.1665 69.3434 43.6326 69.8874 43.6326H77.2791C77.8231 43.6326 78.2664 43.1883 78.2664 42.6428C78.2664 42.0972 77.8628 41.6889 77.3439 41.6564L76.5366 41.6021C75.7474 41.5444 75.3797 41.1035 75.3797 40.2148V33.607C75.3797 30.6228 77.1709 28.3719 79.5493 28.3719C81.5063 28.3719 82.6307 29.8821 82.6307 32.5159V40.2148C82.6307 41.0891 82.2415 41.5407 81.4413 41.6021L80.6665 41.6527C80.1513 41.6889 79.744 42.1224 79.744 42.6391C79.744 43.1846 80.1873 43.6291 80.7314 43.6291H88.2563C88.5301 43.6291 88.7933 43.5134 88.9807 43.3111C89.1681 43.1051 89.2618 42.8414 89.24 42.5596C89.2004 42.0718 88.7859 41.6816 88.2707 41.6491H88.2671Z" fill="#BC0F0F"/>
<path d="M151.563 28.736C149.58 28.736 147.967 27.1229 147.967 25.1403C147.967 23.1577 149.58 21.5446 151.563 21.5446C153.545 21.5446 155.158 23.1577 155.158 25.1403C155.158 27.1229 153.545 28.736 151.563 28.736ZM151.563 22.0846C149.878 22.0846 148.507 23.4561 148.507 25.1403C148.507 26.8244 149.878 28.1959 151.563 28.1959C153.247 28.1959 154.618 26.8244 154.618 25.1403C154.618 23.4561 153.247 22.0846 151.563 22.0846Z" fill="#BC0F0F"/>
<path d="M150.18 23.2044H151.775C152.134 23.2044 152.419 23.2935 152.63 23.469C152.841 23.6471 152.946 23.8965 152.946 24.2221C152.946 24.4587 152.878 24.6597 152.739 24.8251C152.601 24.9905 152.441 25.1024 152.253 25.1635C152.443 25.1966 152.594 25.2907 152.705 25.4484C152.817 25.6062 152.871 25.8072 152.871 26.054V27.0767H152.312V26.1659C152.312 25.8937 152.258 25.7029 152.151 25.5935C152.044 25.4841 151.859 25.4306 151.599 25.4306H150.739V27.0767H150.18V23.2044ZM151.653 24.9294C151.886 24.9294 152.064 24.876 152.185 24.7717C152.307 24.6674 152.37 24.5122 152.37 24.3112C152.37 24.1102 152.309 23.955 152.185 23.8532C152.061 23.7515 151.884 23.698 151.653 23.698H150.739V24.932H151.653V24.9294Z" fill="#BC0F0F"/>
<path d="M237.893 36.9199L240.973 40M240.084 31.5811C240.084 35.768 236.701 39.1622 232.528 39.1622C228.356 39.1622 224.973 35.768 224.973 31.5811C224.973 27.3942 228.356 24 232.528 24C236.701 24 240.084 27.3942 240.084 31.5811Z" stroke="black" stroke-linejoin="round"/>
<path d="M284.5 40.5C284.025 31.1667 269.975 31.1667 269.5 40.5" stroke="black" stroke-linejoin="round"/>
<circle cx="277" cy="28" r="3" stroke="black" stroke-linejoin="round"/>
<path d="M324.75 30.5V26C324.75 25.0054 324.355 24.0516 323.652 23.3483C322.948 22.6451 321.995 22.25 321 22.25C320.005 22.25 319.052 22.6451 318.348 23.3483C317.645 24.0516 317.25 25.0054 317.25 26V30.5M328.606 28.507L329.869 40.507C329.939 41.172 329.419 41.75 328.75 41.75H313.25C313.092 41.7502 312.936 41.7171 312.792 41.6531C312.648 41.589 312.519 41.4953 312.413 41.3781C312.307 41.2608 312.228 41.1227 312.179 40.9726C312.13 40.8226 312.113 40.6639 312.13 40.507L313.394 28.507C313.423 28.2306 313.554 27.9747 313.76 27.7888C313.967 27.6028 314.235 27.4999 314.513 27.5H327.487C328.063 27.5 328.546 27.935 328.606 28.507ZM317.625 30.5C317.625 30.5995 317.585 30.6948 317.515 30.7652C317.445 30.8355 317.349 30.875 317.25 30.875C317.151 30.875 317.055 30.8355 316.985 30.7652C316.914 30.6948 316.875 30.5995 316.875 30.5C316.875 30.4005 316.914 30.3052 316.985 30.2348C317.055 30.1645 317.151 30.125 317.25 30.125C317.349 30.125 317.445 30.1645 317.515 30.2348C317.585 30.3052 317.625 30.4005 317.625 30.5ZM325.125 30.5C325.125 30.5995 325.085 30.6948 325.015 30.7652C324.945 30.8355 324.849 30.875 324.75 30.875C324.651 30.875 324.555 30.8355 324.485 30.7652C324.414 30.6948 324.375 30.5995 324.375 30.5C324.375 30.4005 324.414 30.3052 324.485 30.2348C324.555 30.1645 324.651 30.125 324.75 30.125C324.849 30.125 324.945 30.1645 325.015 30.2348C325.085 30.3052 325.125 30.4005 325.125 30.5Z" stroke="black" stroke-linejoin="round"/>
<path d="M357.5 37.5H372.5" stroke="black" stroke-linejoin="round"/>
<path d="M357.5 32H372.5" stroke="black" stroke-linejoin="round"/>
<path d="M357.5 26.5H372.5" stroke="black" stroke-linejoin="round"/>
<circle cx="328.5" cy="22.5" r="8.5" fill="#BC0F0F"/>
<path d="M325.46 26V25.07L328.56 23.04C329.53 22.39 330.11 21.86 330.11 21.14C330.11 20.35 329.45 19.81 328.53 19.81C327.53 19.81 326.82 20.5 326.8 21.5H325.54C325.56 19.88 326.77 18.8 328.58 18.8C330.26 18.8 331.4 19.69 331.4 21.03C331.4 22.13 330.66 22.85 329.48 23.58L327.25 25H331.4V26H325.46Z" fill="white"/>
</svg>
