<svg width="140" height="32" viewBox="0 0 140 32" fill="none" xmlns="http://www.w3.org/2000/svg">
<path d="M0 16C0 7.16344 7.16344 0 16 0H124C132.837 0 140 7.16344 140 16C140 24.8366 132.837 32 124 32H16C7.16344 32 0 24.8366 0 16Z" fill="#F5F5F5"/>
<path d="M16.728 21V11.2H22.146C24.498 11.2 25.828 12.096 25.828 13.692C25.828 14.854 25.114 15.68 23.868 15.89C25.422 16.016 26.304 16.898 26.304 18.298C26.304 20.02 24.96 21 22.608 21H16.728ZM22.216 19.474C23.308 19.474 23.924 18.984 23.924 18.13C23.924 17.276 23.308 16.786 22.216 16.786H19.01V19.474H22.216ZM19.01 15.316H21.796C22.888 15.316 23.504 14.84 23.504 14C23.504 13.174 22.888 12.712 21.796 12.712H19.01V15.316ZM33.0824 21.28C29.6664 21.28 28.1404 19.866 28.1404 16.716V11.2H30.4644V16.534C30.4644 18.48 31.2904 19.362 33.0964 19.362C34.9304 19.362 35.7704 18.48 35.7704 16.534V11.2H38.0384V16.716C38.0384 19.866 36.4984 21.28 33.0824 21.28ZM43.2794 21V13.16H39.8354V11.2H49.0474V13.16H45.6034V21H43.2794ZM54.1192 21V13.16H50.6752V11.2H59.8872V13.16H56.4432V21H54.1192ZM66.8655 21.28C63.2955 21.28 60.9855 19.236 60.9855 16.1C60.9855 12.95 63.2955 10.92 66.8655 10.92C70.4495 10.92 72.7455 12.95 72.7455 16.1C72.7455 19.236 70.4495 21.28 66.8655 21.28ZM66.8655 19.404C68.9935 19.404 70.3935 18.088 70.3935 16.1C70.3935 14.098 68.9935 12.782 66.8655 12.782C64.7235 12.782 63.3375 14.098 63.3375 16.1C63.3375 18.088 64.7235 19.404 66.8655 19.404ZM74.769 21V11.2H77.163L82.721 18.13L82.623 11.2H84.905V21H82.497L76.953 14.014L77.051 21H74.769ZM96.4202 21.28C92.8082 21.28 90.4562 19.222 90.4562 16.1C90.4562 12.978 92.8082 10.92 96.4202 10.92C99.7242 10.92 101.95 12.572 102.076 15.12L99.7242 15.176C99.5982 13.748 98.2822 12.782 96.4202 12.782C94.2502 12.782 92.8082 14.112 92.8082 16.1C92.8082 18.088 94.2502 19.418 96.4202 19.418C98.2402 19.418 99.5562 18.452 99.7242 16.996L102.062 17.01C101.936 19.586 99.6962 21.28 96.4202 21.28ZM106.774 21V13.16H103.33V11.2H112.542V13.16H109.098V21H106.774ZM111.789 21L116.255 11.2H119.125L123.605 21H121.169L120.091 18.578H115.233L114.155 21H111.789ZM115.989 16.898H119.335L117.669 13.146L115.989 16.898Z" fill="#414141"/>
</svg>
