<svg width="123" height="42" viewBox="0 0 123 42" fill="none" xmlns="http://www.w3.org/2000/svg">
<path d="M0.832 26V14.8H7.024C9.712 14.8 11.232 15.824 11.232 17.648C11.232 18.976 10.416 19.92 8.992 20.16C10.768 20.304 11.776 21.312 11.776 22.912C11.776 24.88 10.24 26 7.552 26H0.832ZM7.104 24.256C8.352 24.256 9.056 23.696 9.056 22.72C9.056 21.744 8.352 21.184 7.104 21.184H3.44V24.256H7.104ZM3.44 19.504H6.624C7.872 19.504 8.576 18.96 8.576 18C8.576 17.056 7.872 16.528 6.624 16.528H3.44V19.504ZM19.4156 26.32C15.5116 26.32 13.7676 24.704 13.7676 21.104V14.8H16.4236V20.896C16.4236 23.12 17.3676 24.128 19.4316 24.128C21.5276 24.128 22.4876 23.12 22.4876 20.896V14.8H25.0796V21.104C25.0796 24.704 23.3196 26.32 19.4156 26.32ZM30.9621 26V17.04H27.0261V14.8H37.5541V17.04H33.6181V26H30.9621ZM43.2434 26V17.04H39.3074V14.8H49.8354V17.04H45.8994V26H43.2434ZM57.7034 26.32C53.6234 26.32 50.9834 23.984 50.9834 20.4C50.9834 16.8 53.6234 14.48 57.7034 14.48C61.7994 14.48 64.4234 16.8 64.4234 20.4C64.4234 23.984 61.7994 26.32 57.7034 26.32ZM57.7034 24.176C60.1354 24.176 61.7354 22.672 61.7354 20.4C61.7354 18.112 60.1354 16.608 57.7034 16.608C55.2554 16.608 53.6714 18.112 53.6714 20.4C53.6714 22.672 55.2554 24.176 57.7034 24.176ZM66.6289 26V14.8H69.3649L75.7169 22.72L75.6049 14.8H78.2129V26H75.4609L69.1249 18.016L69.2369 26H66.6289ZM91.1588 26.32C87.0308 26.32 84.3428 23.968 84.3428 20.4C84.3428 16.832 87.0308 14.48 91.1588 14.48C94.9348 14.48 97.4788 16.368 97.6228 19.28L94.9348 19.344C94.7908 17.712 93.2868 16.608 91.1588 16.608C88.6788 16.608 87.0308 18.128 87.0308 20.4C87.0308 22.672 88.6788 24.192 91.1588 24.192C93.2388 24.192 94.7428 23.088 94.9348 21.424L97.6068 21.44C97.4628 24.384 94.9028 26.32 91.1588 26.32ZM102.884 26V17.04H98.948V14.8H109.476V17.04H105.54V26H102.884ZM108.509 26L113.613 14.8H116.893L122.013 26H119.229L117.997 23.232H112.445L111.213 26H108.509ZM113.309 21.312H117.133L115.229 17.024L113.309 21.312Z" fill="#BC0F0F"/>
<line y1="29.5" x2="123" y2="29.5" stroke="#BC0F0F"/>
</svg>
