<svg width="163" height="40" viewBox="0 0 163 40" fill="none" xmlns="http://www.w3.org/2000/svg">
<path d="M20 1H143C153.493 1 162 9.50659 162 20C162 30.4934 153.493 39 143 39H20C9.50659 39 1 30.4934 1 20C1 9.50659 9.50659 1 20 1Z" stroke="#A0A0A0" stroke-width="2"/>
<path d="M20.832 26V14.8H27.024C29.712 14.8 31.232 15.824 31.232 17.648C31.232 18.976 30.416 19.92 28.992 20.16C30.768 20.304 31.776 21.312 31.776 22.912C31.776 24.88 30.24 26 27.552 26H20.832ZM27.104 24.256C28.352 24.256 29.056 23.696 29.056 22.72C29.056 21.744 28.352 21.184 27.104 21.184H23.44V24.256H27.104ZM23.44 19.504H26.624C27.872 19.504 28.576 18.96 28.576 18C28.576 17.056 27.872 16.528 26.624 16.528H23.44V19.504ZM39.4156 26.32C35.5116 26.32 33.7676 24.704 33.7676 21.104V14.8H36.4236V20.896C36.4236 23.12 37.3676 24.128 39.4316 24.128C41.5276 24.128 42.4876 23.12 42.4876 20.896V14.8H45.0796V21.104C45.0796 24.704 43.3196 26.32 39.4156 26.32ZM50.9621 26V17.04H47.0261V14.8H57.5541V17.04H53.6181V26H50.9621ZM63.2434 26V17.04H59.3074V14.8H69.8354V17.04H65.8994V26H63.2434ZM77.7034 26.32C73.6234 26.32 70.9834 23.984 70.9834 20.4C70.9834 16.8 73.6234 14.48 77.7034 14.48C81.7994 14.48 84.4234 16.8 84.4234 20.4C84.4234 23.984 81.7994 26.32 77.7034 26.32ZM77.7034 24.176C80.1354 24.176 81.7354 22.672 81.7354 20.4C81.7354 18.112 80.1354 16.608 77.7034 16.608C75.2554 16.608 73.6714 18.112 73.6714 20.4C73.6714 22.672 75.2554 24.176 77.7034 24.176ZM86.6289 26V14.8H89.3649L95.7169 22.72L95.6049 14.8H98.2129V26H95.4609L89.1249 18.016L89.2369 26H86.6289ZM111.159 26.32C107.031 26.32 104.343 23.968 104.343 20.4C104.343 16.832 107.031 14.48 111.159 14.48C114.935 14.48 117.479 16.368 117.623 19.28L114.935 19.344C114.791 17.712 113.287 16.608 111.159 16.608C108.679 16.608 107.031 18.128 107.031 20.4C107.031 22.672 108.679 24.192 111.159 24.192C113.239 24.192 114.743 23.088 114.935 21.424L117.607 21.44C117.463 24.384 114.903 26.32 111.159 26.32ZM122.884 26V17.04H118.948V14.8H129.476V17.04H125.54V26H122.884ZM128.509 26L133.613 14.8H136.893L142.013 26H139.229L137.997 23.232H132.445L131.213 26H128.509ZM133.309 21.312H137.133L135.229 17.024L133.309 21.312Z" fill="#414141"/>
</svg>
