<svg width="108" height="34" viewBox="0 0 108 34" fill="none" xmlns="http://www.w3.org/2000/svg">
<path d="M0.728 21V11.2H6.146C8.498 11.2 9.828 12.096 9.828 13.692C9.828 14.854 9.114 15.68 7.868 15.89C9.422 16.016 10.304 16.898 10.304 18.298C10.304 20.02 8.96 21 6.608 21H0.728ZM6.216 19.474C7.308 19.474 7.924 18.984 7.924 18.13C7.924 17.276 7.308 16.786 6.216 16.786H3.01V19.474H6.216ZM3.01 15.316H5.796C6.888 15.316 7.504 14.84 7.504 14C7.504 13.174 6.888 12.712 5.796 12.712H3.01V15.316ZM17.0824 21.28C13.6664 21.28 12.1404 19.866 12.1404 16.716V11.2H14.4644V16.534C14.4644 18.48 15.2904 19.362 17.0964 19.362C18.9304 19.362 19.7704 18.48 19.7704 16.534V11.2H22.0384V16.716C22.0384 19.866 20.4984 21.28 17.0824 21.28ZM27.2794 21V13.16H23.8354V11.2H33.0474V13.16H29.6034V21H27.2794ZM38.1192 21V13.16H34.6752V11.2H43.8872V13.16H40.4432V21H38.1192ZM50.8655 21.28C47.2955 21.28 44.9855 19.236 44.9855 16.1C44.9855 12.95 47.2955 10.92 50.8655 10.92C54.4495 10.92 56.7455 12.95 56.7455 16.1C56.7455 19.236 54.4495 21.28 50.8655 21.28ZM50.8655 19.404C52.9935 19.404 54.3935 18.088 54.3935 16.1C54.3935 14.098 52.9935 12.782 50.8655 12.782C48.7235 12.782 47.3375 14.098 47.3375 16.1C47.3375 18.088 48.7235 19.404 50.8655 19.404ZM58.769 21V11.2H61.163L66.721 18.13L66.623 11.2H68.905V21H66.497L60.953 14.014L61.051 21H58.769ZM80.4202 21.28C76.8082 21.28 74.4562 19.222 74.4562 16.1C74.4562 12.978 76.8082 10.92 80.4202 10.92C83.7242 10.92 85.9502 12.572 86.0762 15.12L83.7242 15.176C83.5982 13.748 82.2822 12.782 80.4202 12.782C78.2502 12.782 76.8082 14.112 76.8082 16.1C76.8082 18.088 78.2502 19.418 80.4202 19.418C82.2402 19.418 83.5562 18.452 83.7242 16.996L86.0622 17.01C85.9362 19.586 83.6962 21.28 80.4202 21.28ZM90.7735 21V13.16H87.3295V11.2H96.5415V13.16H93.0975V21H90.7735ZM95.7891 21L100.255 11.2H103.125L107.605 21H105.169L104.091 18.578H99.2331L98.1551 21H95.7891ZM99.9891 16.898H103.335L101.669 13.146L99.9891 16.898Z" fill="#414141"/>
<line y1="25.5" x2="108" y2="25.5" stroke="#A0A0A0"/>
</svg>
