<svg width="123" height="50" viewBox="0 0 123 50" fill="none" xmlns="http://www.w3.org/2000/svg">
<path d="M0.832 30V18.8H7.024C9.712 18.8 11.232 19.824 11.232 21.648C11.232 22.976 10.416 23.92 8.992 24.16C10.768 24.304 11.776 25.312 11.776 26.912C11.776 28.88 10.24 30 7.552 30H0.832ZM7.104 28.256C8.352 28.256 9.056 27.696 9.056 26.72C9.056 25.744 8.352 25.184 7.104 25.184H3.44V28.256H7.104ZM3.44 23.504H6.624C7.872 23.504 8.576 22.96 8.576 22C8.576 21.056 7.872 20.528 6.624 20.528H3.44V23.504ZM19.4156 30.32C15.5116 30.32 13.7676 28.704 13.7676 25.104V18.8H16.4236V24.896C16.4236 27.12 17.3676 28.128 19.4316 28.128C21.5276 28.128 22.4876 27.12 22.4876 24.896V18.8H25.0796V25.104C25.0796 28.704 23.3196 30.32 19.4156 30.32ZM30.9621 30V21.04H27.0261V18.8H37.5541V21.04H33.6181V30H30.9621ZM43.2434 30V21.04H39.3074V18.8H49.8354V21.04H45.8994V30H43.2434ZM57.7034 30.32C53.6234 30.32 50.9834 27.984 50.9834 24.4C50.9834 20.8 53.6234 18.48 57.7034 18.48C61.7994 18.48 64.4234 20.8 64.4234 24.4C64.4234 27.984 61.7994 30.32 57.7034 30.32ZM57.7034 28.176C60.1354 28.176 61.7354 26.672 61.7354 24.4C61.7354 22.112 60.1354 20.608 57.7034 20.608C55.2554 20.608 53.6714 22.112 53.6714 24.4C53.6714 26.672 55.2554 28.176 57.7034 28.176ZM66.6289 30V18.8H69.3649L75.7169 26.72L75.6049 18.8H78.2129V30H75.4609L69.1249 22.016L69.2369 30H66.6289ZM91.1588 30.32C87.0308 30.32 84.3428 27.968 84.3428 24.4C84.3428 20.832 87.0308 18.48 91.1588 18.48C94.9348 18.48 97.4788 20.368 97.6228 23.28L94.9348 23.344C94.7908 21.712 93.2868 20.608 91.1588 20.608C88.6788 20.608 87.0308 22.128 87.0308 24.4C87.0308 26.672 88.6788 28.192 91.1588 28.192C93.2388 28.192 94.7428 27.088 94.9348 25.424L97.6068 25.44C97.4628 28.384 94.9028 30.32 91.1588 30.32ZM102.884 30V21.04H98.948V18.8H109.476V21.04H105.54V30H102.884ZM108.509 30L113.613 18.8H116.893L122.013 30H119.229L117.997 27.232H112.445L111.213 30H108.509ZM113.309 25.312H117.133L115.229 21.024L113.309 25.312Z" fill="#BC0F0F"/>
<line y1="33.5" x2="123" y2="33.5" stroke="#BC0F0F"/>
</svg>
