<svg width="179" height="48" viewBox="0 0 179 48" fill="none" xmlns="http://www.w3.org/2000/svg">
<path d="M24 1H155C167.703 1 178 11.2975 178 24C178 36.7025 167.703 47 155 47H24C11.2975 47 1 36.7025 1 24C1 11.2975 11.2975 1 24 1Z" stroke="#BC0F0F" stroke-width="2"/>
<path d="M28.832 30V18.8H35.024C37.712 18.8 39.232 19.824 39.232 21.648C39.232 22.976 38.416 23.92 36.992 24.16C38.768 24.304 39.776 25.312 39.776 26.912C39.776 28.88 38.24 30 35.552 30H28.832ZM35.104 28.256C36.352 28.256 37.056 27.696 37.056 26.72C37.056 25.744 36.352 25.184 35.104 25.184H31.44V28.256H35.104ZM31.44 23.504H34.624C35.872 23.504 36.576 22.96 36.576 22C36.576 21.056 35.872 20.528 34.624 20.528H31.44V23.504ZM47.4156 30.32C43.5116 30.32 41.7676 28.704 41.7676 25.104V18.8H44.4236V24.896C44.4236 27.12 45.3676 28.128 47.4316 28.128C49.5276 28.128 50.4876 27.12 50.4876 24.896V18.8H53.0796V25.104C53.0796 28.704 51.3196 30.32 47.4156 30.32ZM58.9621 30V21.04H55.0261V18.8H65.5541V21.04H61.6181V30H58.9621ZM71.2434 30V21.04H67.3074V18.8H77.8354V21.04H73.8994V30H71.2434ZM85.7034 30.32C81.6234 30.32 78.9834 27.984 78.9834 24.4C78.9834 20.8 81.6234 18.48 85.7034 18.48C89.7994 18.48 92.4234 20.8 92.4234 24.4C92.4234 27.984 89.7994 30.32 85.7034 30.32ZM85.7034 28.176C88.1354 28.176 89.7354 26.672 89.7354 24.4C89.7354 22.112 88.1354 20.608 85.7034 20.608C83.2554 20.608 81.6714 22.112 81.6714 24.4C81.6714 26.672 83.2554 28.176 85.7034 28.176ZM94.6289 30V18.8H97.3649L103.717 26.72L103.605 18.8H106.213V30H103.461L97.1249 22.016L97.2369 30H94.6289ZM119.159 30.32C115.031 30.32 112.343 27.968 112.343 24.4C112.343 20.832 115.031 18.48 119.159 18.48C122.935 18.48 125.479 20.368 125.623 23.28L122.935 23.344C122.791 21.712 121.287 20.608 119.159 20.608C116.679 20.608 115.031 22.128 115.031 24.4C115.031 26.672 116.679 28.192 119.159 28.192C121.239 28.192 122.743 27.088 122.935 25.424L125.607 25.44C125.463 28.384 122.903 30.32 119.159 30.32ZM130.884 30V21.04H126.948V18.8H137.476V21.04H133.54V30H130.884ZM136.509 30L141.613 18.8H144.893L150.013 30H147.229L145.997 27.232H140.445L139.213 30H136.509ZM141.309 25.312H145.133L143.229 21.024L141.309 25.312Z" fill="#BC0F0F"/>
</svg>
