<svg xmlns="http://www.w3.org/2000/svg" viewBox="0 0 169 169" fill="none">
  <!-- Outer dashed circle -->
  <circle cx="84.5" cy="84.5" r="84" stroke="#FFFFFF" stroke-width="0.5" stroke-dasharray="4 3"/>
  <!-- Inner circle -->
  <circle cx="84.5" cy="84.5" r="62.5" stroke="#FFFFFF" stroke-width="1"/>
  <!-- Radiating lines with arrowheads (12 directions) -->
  <!-- Top -->
  <line x1="84.5" y1="22" x2="84.5" y2="1" stroke="#FFFFFF" stroke-width="1"/>
  <polyline points="81,8 84.5,1 88,8" stroke="#FFFFFF" stroke-width="1" fill="none"/>
  <!-- Top-right -->
  <line x1="128.7" y1="40.3" x2="143.5" y2="25.5" stroke="#FFFFFF" stroke-width="1"/>
  <polyline points="138,29 143.5,25.5 140,31" stroke="#FFFFFF" stroke-width="1" fill="none"/>
  <!-- Right -->
  <line x1="147" y1="84.5" x2="168" y2="84.5" stroke="#FFFFFF" stroke-width="1"/>
  <polyline points="161,81 168,84.5 161,88" stroke="#FFFFFF" stroke-width="1" fill="none"/>
  <!-- Bottom-right -->
  <line x1="128.7" y1="128.7" x2="143.5" y2="143.5" stroke="#FFFFFF" stroke-width="1"/>
  <polyline points="140,138 143.5,143.5 138,140" stroke="#FFFFFF" stroke-width="1" fill="none"/>
  <!-- Bottom -->
  <line x1="84.5" y1="147" x2="84.5" y2="168" stroke="#FFFFFF" stroke-width="1"/>
  <polyline points="81,161 84.5,168 88,161" stroke="#FFFFFF" stroke-width="1" fill="none"/>
  <!-- Bottom-left -->
  <line x1="40.3" y1="128.7" x2="25.5" y2="143.5" stroke="#FFFFFF" stroke-width="1"/>
  <polyline points="29,138 25.5,143.5 31,140" stroke="#FFFFFF" stroke-width="1" fill="none"/>
  <!-- Left -->
  <line x1="22" y1="84.5" x2="1" y2="84.5" stroke="#FFFFFF" stroke-width="1"/>
  <polyline points="8,81 1,84.5 8,88" stroke="#FFFFFF" stroke-width="1" fill="none"/>
  <!-- Top-left -->
  <line x1="40.3" y1="40.3" x2="25.5" y2="25.5" stroke="#FFFFFF" stroke-width="1"/>
  <polyline points="31,29 25.5,25.5 29,31" stroke="#FFFFFF" stroke-width="1" fill="none"/>
  <!-- Additional 4 intermediate directions -->
  <!-- NNE -->
  <line x1="106" y1="27" x2="116" y2="10" stroke="#FFFFFF" stroke-width="1"/>
  <polyline points="112,15 116,10 114,17" stroke="#FFFFFF" stroke-width="1" fill="none"/>
  <!-- ENE -->
  <line x1="142" y1="63" x2="159" y2="53" stroke="#FFFFFF" stroke-width="1"/>
  <polyline points="154,57 159,53 155,59" stroke="#FFFFFF" stroke-width="1" fill="none"/>
  <!-- SSE -->
  <line x1="106" y1="142" x2="116" y2="159" stroke="#FFFFFF" stroke-width="1"/>
  <polyline points="114,152 116,159 112,154" stroke="#FFFFFF" stroke-width="1" fill="none"/>
  <!-- WSW -->
  <line x1="27" y1="106" x2="10" y2="116" stroke="#FFFFFF" stroke-width="1"/>
  <polyline points="15,112 10,116 17,114" stroke="#FFFFFF" stroke-width="1" fill="none"/>
  <!-- Scattered dots inside -->
  <circle cx="84.5" cy="60" r="5" fill="#FFFFFF"/>
  <circle cx="65" cy="78" r="5" fill="#FFFFFF"/>
  <circle cx="100" cy="95" r="5" fill="#FFFFFF"/>
  <circle cx="75" cy="100" r="3" fill="#FFFFFF"/>
  <circle cx="95" cy="72" r="3" fill="#FFFFFF"/>
  <circle cx="84.5" cy="84.5" r="3" fill="#FFFFFF"/>
</svg>
