<svg xmlns="http://www.w3.org/2000/svg" viewBox="0 0 169 169" width="169" height="169">
  <!-- Outer ellipse: 169x169, stroke 0.5px white -->
  <ellipse cx="84.5" cy="84.5" rx="83.5" ry="83.5" fill="none" stroke="#FFFFFF" stroke-width="0.5"/>
  <!-- Large dots 18x18 (r=9): Ellipses 54, 60, 58 -->
  <circle cx="78" cy="74" r="9" fill="#FFFFFF"/>
  <circle cx="98" cy="82" r="9" fill="#FFFFFF"/>
  <circle cx="82" cy="100" r="9" fill="#FFFFFF"/>
  <!-- Medium-large 14x14 (r=7): Ellipse 55 -->
  <circle cx="67" cy="93" r="7" fill="#FFFFFF"/>
  <!-- Medium 10x10 (r=5): Ellipses 46, 47, 59, 48, 57 -->
  <circle cx="61" cy="74" r="5" fill="#FFFFFF"/>
  <circle cx="88" cy="61" r="5" fill="#FFFFFF"/>
  <circle cx="104" cy="71" r="5" fill="#FFFFFF"/>
  <circle cx="106" cy="95" r="5" fill="#FFFFFF"/>
  <circle cx="72" cy="111" r="5" fill="#FFFFFF"/>
  <!-- Small 9x9 (r=4.5): Ellipses 56, 61 -->
  <circle cx="95" cy="118" r="4.5" fill="#FFFFFF"/>
  <circle cx="61" cy="108" r="4.5" fill="#FFFFFF"/>
  <!-- Tiny 6x6 (r=3): Ellipses 49, 62, 50, 51, 52, 63, 53 -->
  <circle cx="90" cy="50" r="3" fill="#FFFFFF"/>
  <circle cx="70" cy="55" r="3" fill="#FFFFFF"/>
  <circle cx="50" cy="83" r="3" fill="#FFFFFF"/>
  <circle cx="55" cy="106" r="3" fill="#FFFFFF"/>
  <circle cx="97" cy="116" r="3" fill="#FFFFFF"/>
  <circle cx="112" cy="107" r="3" fill="#FFFFFF"/>
  <circle cx="101" cy="113" r="3" fill="#FFFFFF"/>
</svg>
