<svg width="281" height="49" viewBox="0 0 281 49" fill="none" xmlns="http://www.w3.org/2000/svg">
<path d="M40.8601 43.5102L39.0991 43.401C37.4327 43.2839 36.6249 42.3651 36.6249 40.5997V25.8121C36.6249 16.9267 31.924 11.6231 24.0503 11.6231C19.7206 11.6231 15.7692 13.8189 13.164 17.6562V2.00073C13.164 0.899169 12.2689 0.00186818 11.1701 0.00186818H2.00116C0.902341 0.00186818 0.00727697 0.899169 0.00727697 2.00073C0.00727697 3.10229 0.829574 3.92663 1.87745 3.99233L3.63848 4.10174C5.30491 4.21847 6.11265 5.13765 6.11265 6.90306V40.6066C6.11265 42.372 5.30491 43.2839 3.63848 43.4079L1.87018 43.5176C0.822298 43.5833 0 44.4586 0 45.5093C0 46.5594 0.895065 47.5079 1.99389 47.5079H17.472C18.5708 47.5079 19.4659 46.6108 19.4659 45.5093C19.4659 44.4077 18.6436 43.5833 17.5957 43.5176L15.8347 43.4079C14.1683 43.2913 13.3605 42.372 13.3605 40.6066V27.2639C13.3605 21.136 16.9553 16.6932 21.9182 16.6932C26.5172 16.6932 29.3771 20.2168 29.3771 25.8851V40.6066C29.3771 42.4012 28.6348 43.2913 27.0412 43.4079L25.4039 43.5176C24.3633 43.5833 23.541 44.466 23.541 45.5162C23.541 46.5669 24.436 47.5153 25.5348 47.5153H40.7364C41.8352 47.5153 42.7303 46.6182 42.7303 45.5162C42.7303 44.4146 41.908 43.5907 40.8674 43.525L40.8601 43.5102Z" fill="#BC0F0F"/>
<path d="M271.809 45.2159C271.678 44.2897 270.863 43.5675 269.866 43.5018L268.192 43.3996C266.526 43.283 265.718 42.3637 265.718 40.5982V25.0523C265.718 16.5169 261.287 11.6218 253.551 11.6218C249.076 11.6218 244.848 13.949 242.184 17.8665V14.518C242.184 13.4164 241.289 12.5191 240.19 12.5191H231.101C230.003 12.5191 229.108 13.4164 229.108 14.518C229.108 15.6196 229.93 16.444 230.978 16.5096L232.739 16.619C234.405 16.7357 235.213 17.6549 235.213 19.4204V40.6057C235.213 42.3711 234.412 43.283 232.761 43.407H224.792C223.126 43.2904 222.318 42.3711 222.318 40.6057V25.0595C222.318 16.5242 217.887 11.6292 210.151 11.6292C205.676 11.6292 201.448 13.9563 198.785 17.8738V14.5253C198.785 13.4238 197.89 12.5265 196.79 12.5265H187.702C186.603 12.5265 185.708 13.4238 185.708 14.5253C185.708 15.6269 186.53 16.4513 187.578 16.5169L189.339 16.6263C191.006 16.7431 191.813 17.6622 191.813 19.4277V40.6131C191.813 42.3785 191.012 43.2904 189.361 43.4144H181.611C180.33 43.4144 179.028 42.8962 179.028 39.0299V23.6224C179.028 16.2251 173.817 11.6364 165.42 11.6364C160.769 11.6364 156.702 13.3654 153.966 16.5023C151.906 18.8149 151.47 20.9013 151.47 22.2509C151.47 24.8115 153.129 26.5332 155.61 26.5332C157.488 26.5332 159.533 25.1836 159.613 22.674V22.5719L157.612 18.8952C158.914 16.9984 161.498 15.8676 164.525 15.8676C169.065 15.8676 171.569 18.2021 171.569 22.4479V24.3957C167.624 25.8693 163.346 27.5545 160.122 28.926C152.954 32.1578 149.891 35.5427 149.891 40.2628C149.891 45.245 153.478 48.4697 159.038 48.4697C164.277 48.4697 168.949 45.4713 171.889 40.2337C172.245 45.1285 174.952 47.5069 180.17 47.5069H202.823C203.922 47.5069 204.817 46.6094 204.817 45.5078C204.817 44.4063 204.002 43.5818 202.954 43.5161L201.39 43.4144C199.796 43.2973 199.054 42.4077 199.054 40.6131V27.27C199.054 21.2442 202.998 16.6993 208.23 16.6993C212.574 16.6993 215.07 19.7487 215.07 25.0668V40.6131C215.07 42.3785 214.285 43.2904 212.669 43.4144L211.097 43.5161C210.057 43.5893 209.242 44.4646 209.242 45.5153C209.242 46.5659 210.137 47.5139 211.235 47.5139H246.15C247.154 47.5139 248.006 46.8356 248.188 45.9089C248.297 45.333 248.166 44.7565 247.809 44.2971C247.46 43.8446 246.929 43.5601 246.361 43.5236L244.797 43.4213C243.203 43.3047 242.461 42.4146 242.461 40.62V27.2773C242.461 21.2515 246.405 16.7066 251.63 16.7066C255.974 16.7066 258.47 19.7559 258.47 25.0742V40.62C258.47 42.3854 257.684 43.2973 256.069 43.4213L254.497 43.5236C253.456 43.5967 252.642 44.472 252.642 45.5227C252.642 46.5728 253.536 47.5213 254.635 47.5213H269.837C270.412 47.5213 270.958 47.2733 271.336 46.8356C271.714 46.398 271.882 45.8215 271.802 45.2381L271.809 45.2159ZM161.658 43.2612C158.965 43.2612 157.357 41.7289 157.357 39.1539C157.357 36.2794 159.176 34.0691 163.251 31.9827C165.711 30.8155 168.702 29.6117 171.583 28.4737V30.8957C171.583 37.3667 166.853 43.2538 161.658 43.2538V43.2612Z" fill="#BC0F0F"/>
<path d="M145.932 43.5092L144.265 43.4075C142.599 43.2904 141.791 42.3716 141.791 40.6061V25.06C141.791 16.5246 137.607 11.6296 130.315 11.6296C125.774 11.6296 121.43 14.3798 118.941 18.8226C117.319 14.1172 113.687 11.6296 108.426 11.6296C104.257 11.6296 100.4 13.8254 97.8087 17.6627V14.5258C97.8087 13.4242 96.9141 12.5269 95.815 12.5269H86.7259C85.6273 12.5269 84.7323 13.4242 84.7323 14.5258C84.7323 15.6273 85.5547 16.4517 86.6025 16.5173L88.3635 16.6268C90.0301 16.7435 90.8378 17.6627 90.8378 19.4281V40.6131C90.8378 42.3785 90.0371 43.2904 88.3852 43.4144H80.0168C78.7577 43.4144 77.4699 42.911 77.4333 39.2126V14.5185C77.4333 13.4169 76.5383 12.5196 75.4397 12.5196H66.0739C64.9753 12.5196 64.0803 13.4169 64.0803 14.5185C64.0803 15.62 64.9027 16.4444 65.9504 16.5101L67.7115 16.6195C69.3781 16.7362 70.1858 17.6554 70.1858 19.4208V32.5594C70.1858 37.6443 66.4963 43.3344 61.5625 43.3344C57.3489 43.3344 54.926 40.0297 54.926 34.2738V12.5196H43.5665C42.4677 12.5196 41.5726 13.4169 41.5726 14.5185C41.5726 15.62 42.3949 16.4444 43.4428 16.5101L45.2038 16.6195C46.8702 16.7362 47.678 17.6554 47.678 19.4208V34.2738C47.678 43.1595 52.0733 48.4628 59.4305 48.4628C63.6653 48.4628 67.7772 45.8803 70.4624 41.5472C71.1969 45.5523 73.8461 47.5074 78.5685 47.5074H101.847C102.947 47.5074 103.842 46.6099 103.842 45.5009C103.842 44.4507 103.027 43.5823 101.986 43.5092L100.421 43.4075C98.8278 43.2904 98.0853 42.4007 98.0853 40.6061V27.2631C98.0853 21.2373 101.702 16.6924 106.505 16.6924C110.412 16.6924 112.661 19.7418 112.661 25.06V40.6061C112.661 42.4007 111.919 43.2904 110.326 43.4075L108.688 43.5166C107.647 43.5823 106.825 44.4577 106.825 45.5157C106.825 46.5733 107.72 47.5144 108.819 47.5144H123.744C124.843 47.5144 125.738 46.6173 125.738 45.5157C125.738 44.4142 124.923 43.5897 123.875 43.524L122.245 43.4144C120.652 43.2978 119.909 42.4077 119.909 40.6131V27.2704C119.909 21.2446 123.526 16.6997 128.328 16.6997C132.28 16.6997 134.55 19.7491 134.55 25.0673V40.6131C134.55 42.3785 133.765 43.2904 132.149 43.4144L130.584 43.5166C129.544 43.5897 128.722 44.4651 128.722 45.5083C128.722 46.6099 129.617 47.5074 130.715 47.5074H145.91C146.463 47.5074 146.994 47.2738 147.372 46.8653C147.751 46.4494 147.94 45.9169 147.896 45.3478C147.816 44.3628 146.979 43.5749 145.939 43.5092H145.932Z" fill="#BC0F0F"/>
<path d="M273.74 17.4348C269.736 17.4348 266.479 14.1776 266.479 10.1742C266.479 6.17085 269.736 2.91365 273.74 2.91365C277.743 2.91365 281 6.17085 281 10.1742C281 14.1776 277.743 17.4348 273.74 17.4348ZM273.74 4.00414C270.339 4.00414 267.569 6.7735 267.569 10.1742C267.569 13.5749 270.339 16.3443 273.74 16.3443C277.14 16.3443 279.909 13.5749 279.909 10.1742C279.909 6.7735 277.14 4.00414 273.74 4.00414Z" fill="#BC0F0F"/>
<path d="M270.948 6.26529H274.168C274.894 6.26529 275.468 6.4451 275.895 6.79962C276.322 7.15923 276.533 7.66269 276.533 8.32027C276.533 8.79804 276.396 9.20388 276.116 9.53781C275.836 9.87173 275.512 10.0978 275.134 10.2211C275.517 10.2879 275.822 10.4779 276.047 10.7965C276.273 11.115 276.381 11.5209 276.381 12.0192V14.0844H275.252V12.2452C275.252 11.6955 275.144 11.3102 274.928 11.0893C274.713 10.8684 274.339 10.7605 273.814 10.7605H272.077V14.0844H270.948V6.26529ZM273.922 9.74844C274.394 9.74844 274.752 9.64056 274.997 9.42993C275.243 9.2193 275.37 8.90592 275.37 8.50007C275.37 8.09422 275.247 7.78085 274.997 7.57535C274.747 7.36986 274.389 7.26198 273.922 7.26198H272.077V9.75358H273.922V9.74844Z" fill="#BC0F0F"/>
</svg>
