<svg width="140" height="25" viewBox="0 0 140 25" fill="none" xmlns="http://www.w3.org/2000/svg">
<path d="M20.3574 21.7799L19.48 21.7255C18.6497 21.6672 18.2473 21.2094 18.2473 20.3298V12.9624C18.2473 8.53544 15.9052 5.89308 11.9824 5.89308C9.82519 5.89308 7.85653 6.98708 6.55858 8.89889V1.09903C6.55858 0.550211 6.11264 0.103156 5.5652 0.103156H0.997021C0.449565 0.103156 0.00362554 0.550211 0.00362554 1.09903C0.00362554 1.64785 0.413311 2.05855 0.935386 2.09129L1.81277 2.1458C2.64301 2.20395 3.04545 2.66191 3.04545 3.54147V20.3333C3.04545 21.2129 2.64301 21.6672 1.81277 21.7289L0.931761 21.7836C0.409686 21.8163 0 22.2524 0 22.7759C0 23.2991 0.44594 23.7716 0.993396 23.7716H8.70491C9.25235 23.7716 9.6983 23.3247 9.6983 22.7759C9.6983 22.2271 9.28861 21.8163 8.76654 21.7836L7.88916 21.7289C7.05892 21.6709 6.65649 21.2129 6.65649 20.3333V13.6857C6.65649 10.6326 8.44748 8.41913 10.9201 8.41913C13.2114 8.41913 14.6363 10.1746 14.6363 12.9987V20.3333C14.6363 21.2274 14.2665 21.6709 13.4725 21.7289L12.6567 21.7836C12.1383 21.8163 11.7286 22.2561 11.7286 22.7793C11.7286 23.3028 12.1745 23.7753 12.722 23.7753H20.2957C20.8432 23.7753 21.2891 23.3284 21.2891 22.7793C21.2891 22.2305 20.8794 21.82 20.361 21.7873L20.3574 21.7799Z" fill="#BC0F0F"/>
<path d="M135.421 22.6297C135.355 22.1683 134.949 21.8085 134.453 21.7757L133.619 21.7248C132.789 21.6667 132.386 21.2087 132.386 20.3291V12.5838C132.386 8.3313 130.178 5.89247 126.324 5.89247C124.095 5.89247 121.988 7.05191 120.661 9.00369V7.3354C120.661 6.78658 120.215 6.33952 119.668 6.33952H115.139C114.592 6.33952 114.146 6.78658 114.146 7.3354C114.146 7.88424 114.556 8.29495 115.078 8.32765L115.955 8.38217C116.785 8.44032 117.188 8.89828 117.188 9.77787V20.3328C117.188 21.2124 116.789 21.6667 115.966 21.7285H111.996C111.166 21.6704 110.763 21.2124 110.763 20.3328V12.5874C110.763 8.33491 108.556 5.89611 104.702 5.89611C102.472 5.89611 100.365 7.05555 99.0386 9.00733V7.33904C99.0386 6.79022 98.5927 6.34317 98.0451 6.34317H93.517C92.9694 6.34317 92.5234 6.79022 92.5234 7.33904C92.5234 7.88786 92.9332 8.29859 93.4552 8.3313L94.3326 8.38581C95.1629 8.44396 95.5653 8.90192 95.5653 9.78149V20.3365C95.5653 21.2161 95.1664 21.6704 94.3434 21.7322H90.4822C89.8443 21.7322 89.1953 21.474 89.1953 19.5477V11.8714C89.1953 8.1859 86.5994 5.89973 82.4155 5.89973C80.0987 5.89973 78.072 6.76113 76.7088 8.32401C75.6828 9.47619 75.4655 10.5157 75.4655 11.1881C75.4655 12.4638 76.2919 13.3216 77.5283 13.3216C78.4635 13.3216 79.4824 12.6492 79.5223 11.3989V11.348L78.5253 9.51618C79.1743 8.57118 80.4615 8.00781 81.9696 8.00781C84.2318 8.00781 85.4791 9.17089 85.4791 11.2862V12.2567C83.5139 12.9908 81.3821 13.8304 79.776 14.5138C76.205 16.1239 74.6787 17.8103 74.6787 20.162C74.6787 22.6442 76.4659 24.2508 79.2358 24.2508C81.8463 24.2508 84.174 22.757 85.6386 20.1475C85.8163 22.5862 87.1649 23.7712 89.7646 23.7712H101.051C101.598 23.7712 102.044 23.324 102.044 22.7752C102.044 22.2264 101.638 21.8156 101.116 21.7829L100.337 21.7322C99.5424 21.6738 99.1728 21.2306 99.1728 20.3365V13.6887C99.1728 10.6865 101.138 8.42216 103.744 8.42216C105.909 8.42216 107.153 9.94143 107.153 12.591V20.3365C107.153 21.2161 106.761 21.6704 105.956 21.7322L105.173 21.7829C104.655 21.8193 104.248 22.2554 104.248 22.7789C104.248 23.3023 104.694 23.7746 105.242 23.7746H122.637C123.137 23.7746 123.562 23.4367 123.652 22.975C123.707 22.688 123.642 22.4008 123.464 22.172C123.29 21.9465 123.025 21.8048 122.742 21.7866L121.963 21.7356C121.169 21.6775 120.799 21.234 120.799 20.3399V13.6923C120.799 10.6901 122.764 8.42578 125.367 8.42578C127.532 8.42578 128.775 9.94505 128.775 12.5947V20.3399C128.775 21.2195 128.383 21.6738 127.579 21.7356L126.796 21.7866C126.277 21.823 125.871 22.2591 125.871 22.7826C125.871 23.3058 126.317 23.7783 126.865 23.7783H134.438C134.725 23.7783 134.997 23.6548 135.185 23.4367C135.374 23.2187 135.457 22.9315 135.417 22.6408L135.421 22.6297ZM80.5412 21.6559C79.1997 21.6559 78.3983 20.8925 78.3983 19.6095C78.3983 18.1774 79.3047 17.0762 81.3351 16.0367C82.5605 15.4551 84.0507 14.8554 85.4862 14.2884V15.4951C85.4862 18.7191 83.1298 21.6522 80.5412 21.6522V21.6559Z" fill="#BC0F0F"/>
<path d="M72.7061 21.7794L71.8758 21.7287C71.0456 21.6704 70.6432 21.2126 70.6432 20.333V12.5876C70.6432 8.33514 68.5585 5.89631 64.9257 5.89631C62.6635 5.89631 60.4989 7.26656 59.2591 9.48003C58.4506 7.13571 56.6415 5.89631 54.0202 5.89631C51.9428 5.89631 50.0212 6.99033 48.7303 8.90214V7.33926C48.7303 6.79042 48.2846 6.34336 47.737 6.34336H43.2087C42.6613 6.34336 42.2154 6.79042 42.2154 7.33926C42.2154 7.88808 42.6251 8.29879 43.1471 8.33149L44.0245 8.38603C44.8549 8.44416 45.2573 8.90214 45.2573 9.78171V20.3365C45.2573 21.2161 44.8583 21.6704 44.0353 21.7322H39.866C39.2387 21.7322 38.5971 21.4814 38.5789 19.6388V7.33562C38.5789 6.7868 38.1329 6.33975 37.5856 6.33975H32.9194C32.3721 6.33975 31.9261 6.7868 31.9261 7.33562C31.9261 7.88444 32.3359 8.29514 32.8579 8.32788L33.7352 8.38239C34.5656 8.44054 34.968 8.8985 34.968 9.77806V16.324C34.968 18.8574 33.1298 21.6923 30.6717 21.6923C28.5724 21.6923 27.3652 20.0458 27.3652 17.1781V6.33975H21.7057C21.1583 6.33975 20.7123 6.7868 20.7123 7.33562C20.7123 7.88444 21.122 8.29514 21.6441 8.32788L22.5215 8.38239C23.3517 8.44054 23.7542 8.8985 23.7542 9.77806V17.1781C23.7542 21.6052 25.944 24.2474 29.6095 24.2474C31.7194 24.2474 33.768 22.9607 35.1058 20.8019C35.4718 22.7973 36.7917 23.7714 39.1444 23.7714H50.7425C51.2901 23.7714 51.736 23.3242 51.736 22.7717C51.736 22.2485 51.33 21.8158 50.8114 21.7794L50.032 21.7287C49.238 21.6704 48.8681 21.2272 48.8681 20.333V13.6853C48.8681 10.6831 50.6701 8.41874 53.0631 8.41874C55.0098 8.41874 56.13 9.93798 56.13 12.5876V20.333C56.13 21.2272 55.7604 21.6704 54.9664 21.7287L54.1506 21.7831C53.6321 21.8158 53.2225 22.2519 53.2225 22.7791C53.2225 23.306 53.6685 23.7749 54.2158 23.7749H61.652C62.1993 23.7749 62.6452 23.3279 62.6452 22.7791C62.6452 22.2303 62.2392 21.8195 61.7172 21.7868L60.905 21.7322C60.1111 21.6741 59.7412 21.2306 59.7412 20.3365V13.6889C59.7412 10.6867 61.5432 8.42236 63.9358 8.42236C65.9047 8.42236 67.0358 9.94163 67.0358 12.5913V20.3365C67.0358 21.2161 66.6442 21.6704 65.8392 21.7322L65.0598 21.7831C64.5415 21.8195 64.1317 22.2556 64.1317 22.7754C64.1317 23.3242 64.5777 23.7714 65.125 23.7714H72.6953C72.9707 23.7714 73.2355 23.655 73.424 23.4515C73.6125 23.2443 73.7068 22.979 73.6849 22.6954C73.645 22.2047 73.2281 21.8122 72.7098 21.7794H72.7061Z" fill="#BC0F0F"/>
<path d="M136.383 8.78861C134.388 8.78861 132.765 7.1658 132.765 5.17123C132.765 3.17667 134.388 1.55386 136.383 1.55386C138.377 1.55386 140 3.17667 140 5.17123C140 7.1658 138.377 8.78861 136.383 8.78861ZM136.383 2.09717C134.688 2.09717 133.309 3.47692 133.309 5.17123C133.309 6.86553 134.688 8.24528 136.383 8.24528C138.077 8.24528 139.457 6.86553 139.457 5.17123C139.457 3.47692 138.077 2.09717 136.383 2.09717Z" fill="#BC0F0F"/>
<path d="M134.992 3.22372H136.596C136.958 3.22372 137.244 3.31331 137.457 3.48994C137.669 3.6691 137.775 3.91994 137.775 4.24755C137.775 4.48559 137.706 4.68779 137.567 4.85416C137.427 5.02053 137.266 5.13315 137.078 5.19458C137.268 5.22785 137.42 5.32255 137.532 5.48124C137.645 5.63996 137.699 5.84216 137.699 6.09043V7.11936H137.136V6.20305C137.136 5.92918 137.083 5.73722 136.975 5.62716C136.867 5.5171 136.681 5.46332 136.42 5.46332H135.554V7.11936H134.992V3.22372ZM136.474 4.9591C136.709 4.9591 136.887 4.90535 137.009 4.80041C137.132 4.69547 137.195 4.53934 137.195 4.33714C137.195 4.13493 137.134 3.9788 137.009 3.87642C136.884 3.77404 136.706 3.72029 136.474 3.72029H135.554V4.96166H136.474V4.9591Z" fill="#BC0F0F"/>
</svg>
