<svg width="140" height="25" viewBox="0 0 140 25" fill="none" xmlns="http://www.w3.org/2000/svg">
<path d="M20.3574 21.7799L19.48 21.7255C18.6497 21.6672 18.2473 21.2094 18.2473 20.3298V12.9624C18.2473 8.53547 15.9052 5.89311 11.9824 5.89311C9.82519 5.89311 7.85653 6.98711 6.55858 8.89892V1.09906C6.55858 0.550241 6.11264 0.103187 5.5652 0.103187H0.997021C0.449565 0.103187 0.00362554 0.550241 0.00362554 1.09906C0.00362554 1.64788 0.413311 2.05858 0.935386 2.09132L1.81277 2.14583C2.64301 2.20398 3.04545 2.66194 3.04545 3.54151V20.3333C3.04545 21.2129 2.64301 21.6672 1.81277 21.729L0.931761 21.7836C0.409686 21.8163 0 22.2524 0 22.7759C0 23.2991 0.44594 23.7717 0.993396 23.7717H8.70491C9.25235 23.7717 9.6983 23.3247 9.6983 22.7759C9.6983 22.2271 9.28861 21.8163 8.76654 21.7836L7.88916 21.729C7.05892 21.6709 6.65649 21.2129 6.65649 20.3333V13.6857C6.65649 10.6326 8.44748 8.41916 10.9201 8.41916C13.2114 8.41916 14.6363 10.1747 14.6363 12.9987V20.3333C14.6363 21.2274 14.2665 21.6709 13.4725 21.729L12.6567 21.7836C12.1383 21.8163 11.7286 22.2561 11.7286 22.7794C11.7286 23.3028 12.1745 23.7754 12.722 23.7754H20.2957C20.8432 23.7754 21.2891 23.3284 21.2891 22.7794C21.2891 22.2305 20.8794 21.82 20.361 21.7873L20.3574 21.7799Z" fill="#BC0F0F"/>
<path d="M135.421 22.6298C135.355 22.1683 134.949 21.8085 134.453 21.7758L133.619 21.7248C132.789 21.6667 132.386 21.2087 132.386 20.3291V12.5838C132.386 8.33133 130.178 5.8925 126.324 5.8925C124.095 5.8925 121.988 7.05194 120.661 9.00372V7.33543C120.661 6.78661 120.215 6.33955 119.668 6.33955H115.139C114.592 6.33955 114.146 6.78661 114.146 7.33543C114.146 7.88427 114.556 8.29498 115.078 8.32768L115.955 8.3822C116.785 8.44035 117.188 8.89831 117.188 9.7779V20.3328C117.188 21.2124 116.789 21.6667 115.966 21.7285H111.996C111.166 21.6704 110.763 21.2124 110.763 20.3328V12.5874C110.763 8.33494 108.556 5.89614 104.702 5.89614C102.472 5.89614 100.365 7.05558 99.0386 9.00736V7.33907C99.0386 6.79025 98.5927 6.3432 98.0451 6.3432H93.517C92.9694 6.3432 92.5234 6.79025 92.5234 7.33907C92.5234 7.88789 92.9332 8.29862 93.4552 8.33133L94.3326 8.38584C95.1629 8.444 95.5653 8.90195 95.5653 9.78152V20.3365C95.5653 21.2161 95.1664 21.6704 94.3434 21.7322H90.4822C89.8443 21.7322 89.1953 21.474 89.1953 19.5477V11.8714C89.1953 8.18593 86.5994 5.89976 82.4155 5.89976C80.0987 5.89976 78.072 6.76116 76.7088 8.32404C75.6828 9.47622 75.4655 10.5157 75.4655 11.1881C75.4655 12.4639 76.2919 13.3216 77.5283 13.3216C78.4635 13.3216 79.4824 12.6492 79.5223 11.3989V11.348L78.5253 9.51621C79.1743 8.57121 80.4615 8.00784 81.9696 8.00784C84.2318 8.00784 85.4791 9.17092 85.4791 11.2863V12.2567C83.5139 12.9909 81.3821 13.8305 79.776 14.5138C76.205 16.1239 74.6787 17.8104 74.6787 20.162C74.6787 22.6443 76.4659 24.2509 79.2358 24.2509C81.8463 24.2509 84.174 22.757 85.6386 20.1475C85.8163 22.5862 87.1649 23.7712 89.7646 23.7712H101.051C101.598 23.7712 102.044 23.324 102.044 22.7752C102.044 22.2264 101.638 21.8156 101.116 21.7829L100.337 21.7322C99.5424 21.6739 99.1728 21.2306 99.1728 20.3365V13.6887C99.1728 10.6866 101.138 8.42219 103.744 8.42219C105.909 8.42219 107.153 9.94146 107.153 12.5911V20.3365C107.153 21.2161 106.761 21.6704 105.956 21.7322L105.173 21.7829C104.655 21.8193 104.248 22.2554 104.248 22.7789C104.248 23.3024 104.694 23.7746 105.242 23.7746H122.637C123.137 23.7746 123.562 23.4367 123.652 22.975C123.707 22.6881 123.642 22.4009 123.464 22.172C123.29 21.9466 123.025 21.8048 122.742 21.7866L121.963 21.7356C121.169 21.6776 120.799 21.2341 120.799 20.34V13.6924C120.799 10.6902 122.764 8.42581 125.367 8.42581C127.532 8.42581 128.775 9.94508 128.775 12.5947V20.34C128.775 21.2196 128.383 21.6739 127.579 21.7356L126.796 21.7866C126.277 21.823 125.871 22.2591 125.871 22.7826C125.871 23.3058 126.317 23.7783 126.865 23.7783H134.438C134.725 23.7783 134.997 23.6548 135.185 23.4367C135.374 23.2187 135.457 22.9315 135.417 22.6408L135.421 22.6298ZM80.5412 21.6559C79.1997 21.6559 78.3983 20.8925 78.3983 19.6095C78.3983 18.1774 79.3047 17.0762 81.3351 16.0367C82.5605 15.4552 84.0507 14.8554 85.4862 14.2884V15.4951C85.4862 18.7191 83.1298 21.6522 80.5412 21.6522V21.6559Z" fill="#BC0F0F"/>
<path d="M72.7061 21.7795L71.8758 21.7288C71.0456 21.6704 70.6432 21.2127 70.6432 20.3331V12.5877C70.6432 8.33517 68.5585 5.89634 64.9257 5.89634C62.6635 5.89634 60.4989 7.26659 59.2591 9.48006C58.4506 7.13574 56.6415 5.89634 54.0202 5.89634C51.9428 5.89634 50.0212 6.99036 48.7303 8.90217V7.33929C48.7303 6.79045 48.2846 6.34339 47.737 6.34339H43.2087C42.6613 6.34339 42.2154 6.79045 42.2154 7.33929C42.2154 7.88811 42.6251 8.29882 43.1471 8.33152L44.0245 8.38606C44.8549 8.44419 45.2573 8.90217 45.2573 9.78174V20.3365C45.2573 21.2161 44.8583 21.6704 44.0353 21.7322H39.866C39.2387 21.7322 38.5971 21.4814 38.5789 19.6388V7.33565C38.5789 6.78683 38.1329 6.33978 37.5856 6.33978H32.9194C32.3721 6.33978 31.9261 6.78683 31.9261 7.33565C31.9261 7.88447 32.3359 8.29517 32.8579 8.32791L33.7352 8.38242C34.5656 8.44057 34.968 8.89853 34.968 9.77809V16.324C34.968 18.8574 33.1298 21.6923 30.6717 21.6923C28.5724 21.6923 27.3652 20.0459 27.3652 17.1782V6.33978H21.7057C21.1583 6.33978 20.7123 6.78683 20.7123 7.33565C20.7123 7.88447 21.122 8.29517 21.6441 8.32791L22.5215 8.38242C23.3517 8.44057 23.7542 8.89853 23.7542 9.77809V17.1782C23.7542 21.6052 25.944 24.2474 29.6095 24.2474C31.7194 24.2474 33.768 22.9608 35.1058 20.8019C35.4718 22.7974 36.7917 23.7714 39.1444 23.7714H50.7425C51.2901 23.7714 51.736 23.3243 51.736 22.7718C51.736 22.2485 51.33 21.8159 50.8114 21.7795L50.032 21.7288C49.238 21.6704 48.8681 21.2272 48.8681 20.3331V13.6853C48.8681 10.6831 50.6701 8.41877 53.0631 8.41877C55.0098 8.41877 56.13 9.93802 56.13 12.5877V20.3331C56.13 21.2272 55.7604 21.6704 54.9664 21.7288L54.1506 21.7831C53.6321 21.8159 53.2225 22.252 53.2225 22.7791C53.2225 23.3061 53.6685 23.7749 54.2158 23.7749H61.652C62.1993 23.7749 62.6452 23.328 62.6452 22.7791C62.6452 22.2303 62.2392 21.8196 61.7172 21.7868L60.905 21.7322C60.1111 21.6741 59.7412 21.2306 59.7412 20.3365V13.6889C59.7412 10.6867 61.5432 8.42239 63.9358 8.42239C65.9047 8.42239 67.0358 9.94166 67.0358 12.5913V20.3365C67.0358 21.2161 66.6442 21.6704 65.8392 21.7322L65.0598 21.7831C64.5415 21.8196 64.1317 22.2557 64.1317 22.7755C64.1317 23.3243 64.5777 23.7714 65.125 23.7714H72.6953C72.9707 23.7714 73.2355 23.655 73.424 23.4515C73.6125 23.2443 73.7068 22.979 73.6849 22.6955C73.645 22.2047 73.2281 21.8122 72.7098 21.7795H72.7061Z" fill="#BC0F0F"/>
<path d="M136.383 8.78864C134.388 8.78864 132.765 7.16583 132.765 5.17126C132.765 3.1767 134.388 1.55389 136.383 1.55389C138.377 1.55389 140 3.1767 140 5.17126C140 7.16583 138.377 8.78864 136.383 8.78864ZM136.383 2.0972C134.688 2.0972 133.309 3.47695 133.309 5.17126C133.309 6.86556 134.688 8.24531 136.383 8.24531C138.077 8.24531 139.457 6.86556 139.457 5.17126C139.457 3.47695 138.077 2.0972 136.383 2.0972Z" fill="#BC0F0F"/>
<path d="M134.992 3.22375H136.596C136.958 3.22375 137.244 3.31334 137.457 3.48997C137.669 3.66913 137.775 3.91997 137.775 4.24758C137.775 4.48562 137.706 4.68782 137.567 4.85419C137.427 5.02056 137.266 5.13318 137.078 5.19461C137.268 5.22788 137.42 5.32258 137.532 5.48127C137.645 5.63999 137.699 5.84219 137.699 6.09046V7.11939H137.136V6.20308C137.136 5.92921 137.083 5.73725 136.975 5.62719C136.867 5.51713 136.681 5.46336 136.42 5.46336H135.554V7.11939H134.992V3.22375ZM136.474 4.95913C136.709 4.95913 136.887 4.90538 137.009 4.80044C137.132 4.6955 137.195 4.53937 137.195 4.33717C137.195 4.13497 137.134 3.97884 137.009 3.87645C136.884 3.77407 136.706 3.72032 136.474 3.72032H135.554V4.96169H136.474V4.95913Z" fill="#BC0F0F"/>
</svg>
