<svg width="309" height="34" viewBox="0 0 309 34" fill="none" xmlns="http://www.w3.org/2000/svg">
<circle cx="5" cy="16" r="5" fill="#E6305E"/>
<path d="M23.096 26H21.612H19.288V24.74H20.464C21.248 24.74 21.584 24.236 21.584 23.62V8.78C21.584 8.164 21.248 7.66 20.464 7.66H19.288V6.4H21.612H24.524L30.712 19.392H30.88L37.012 6.4H39.868H42.192V7.66H41.016C40.232 7.66 39.896 8.164 39.896 8.78V23.62C39.896 24.236 40.232 24.74 41.016 24.74H42.192V26H39.868H37.376H34.604V24.74H36.004C36.956 24.74 37.348 24.236 37.348 23.62V9.788H37.18L31.02 22.64H29.452L23.292 9.788H23.124V23.62C23.124 24.236 23.516 24.74 24.468 24.74H25.868V26H23.096ZM48.9401 26.28C45.3841 26.28 42.8641 23.368 42.8641 19.392C42.8641 15.388 45.3281 12.42 48.8841 12.42C52.1041 12.42 54.4561 14.856 54.4561 18.104C54.4561 18.328 54.4561 18.412 54.4001 18.72H45.1881C45.1881 18.804 45.1881 18.916 45.1881 19C45.1881 22.108 46.8961 24.124 49.3601 24.124C51.1521 24.124 52.5241 23.088 53.0561 21.548H54.4001C53.8961 24.18 51.8801 26.28 48.9401 26.28ZM45.3281 17.376H51.9361C51.9361 15.248 50.6481 13.848 48.8281 13.848C47.0081 13.848 45.7481 15.248 45.3281 17.376ZM60.3944 26.28C58.8264 26.28 57.4264 25.356 57.4264 22.976V14.156H54.9344V12.924H55.1584C57.1184 12.924 57.9584 11.832 58.1824 10.264L58.4064 8.948H59.7784V12.7H63.1104V14.156H59.7784V22.78C59.7784 23.844 60.4224 24.432 61.2344 24.432C61.9344 24.432 62.5504 24.096 63.1944 23.48L63.9224 24.32C62.8864 25.468 61.8224 26.28 60.3944 26.28ZM67.7997 26.28C65.8397 26.28 64.2157 24.964 64.2157 22.92C64.2157 20.596 65.8397 19.28 68.4437 18.524L71.8877 17.516V16.34C71.8877 14.716 70.7397 13.764 69.3397 13.764C67.7437 13.764 67.1837 14.772 67.0157 15.556C66.8477 16.396 66.4557 16.956 65.6157 16.956C64.9437 16.956 64.4397 16.48 64.4397 15.668C64.4397 14.1 66.6517 12.42 69.2837 12.42C72.2237 12.42 74.2397 14.016 74.2397 16.508V23.76C74.2397 24.516 74.6877 24.796 75.1357 24.796C75.4437 24.796 75.8077 24.656 76.0877 24.46L76.5637 25.244C75.8077 25.888 75.2197 26.28 74.3517 26.28C73.0637 26.28 72.1117 25.44 72.0277 24.18V23.424H71.8597C71.1037 25.076 69.7877 26.28 67.7997 26.28ZM66.6517 22.528C66.6517 23.732 67.5197 24.488 68.5837 24.488C70.3757 24.488 71.8877 22.612 71.8877 20.092V18.804L68.9477 19.756C67.6317 20.176 66.6517 21.044 66.6517 22.528ZM83.8049 12.42C87.3049 12.42 89.4609 15.472 89.4609 19.252C89.4609 23.312 86.5209 26.28 82.8529 26.28C80.8089 26.28 79.1849 25.636 77.7289 24.348V8.444C77.7289 7.94 77.5609 7.632 77.0849 7.38L75.6849 6.652V6.176L79.8569 5H80.0809V5.28V14.268H80.2489C80.7529 13.568 81.9289 12.42 83.8049 12.42ZM82.9649 14.324C81.6209 14.324 80.6969 15.08 80.0809 15.948V21.268C80.0809 23.62 81.4249 24.852 83.2169 24.852C85.2609 24.852 86.9969 22.808 86.9969 19.756C86.9969 16.816 85.4009 14.324 82.9649 14.324ZM97.4506 26.28C93.6146 26.28 90.9266 23.34 90.9266 19.364C90.9266 15.36 93.6146 12.42 97.4506 12.42C101.287 12.42 104.003 15.36 104.003 19.364C104.003 23.34 101.287 26.28 97.4506 26.28ZM97.3106 13.848C95.1546 13.848 93.5586 15.64 93.5586 18.804C93.5586 21.968 95.0986 24.852 97.6186 24.852C99.8026 24.852 101.371 23.06 101.371 19.896C101.371 16.76 99.8306 13.848 97.3106 13.848ZM108.948 26H106.652H104.664V24.936H105.504C106.288 24.936 106.624 24.544 106.624 23.872V8.444C106.624 7.94 106.456 7.632 105.98 7.38L104.58 6.652V6.176L108.752 5H108.976V5.28V23.872C108.976 24.544 109.312 24.936 110.096 24.936H110.936V26H108.948ZM116.178 26H113.882H111.894V24.936H112.734C113.518 24.936 113.854 24.544 113.854 23.872V15.864C113.854 15.36 113.686 15.052 113.21 14.8L111.81 14.072V13.596L115.982 12.42H116.206V12.7V23.872C116.206 24.544 116.542 24.936 117.326 24.936H118.166V26H116.178ZM115.058 9.956C114.134 9.956 113.378 9.2 113.378 8.332C113.378 7.436 114.134 6.708 115.058 6.708C115.954 6.708 116.682 7.408 116.682 8.332C116.682 9.228 115.954 9.956 115.058 9.956ZM124.872 26.28C121.428 26.28 118.852 23.452 118.852 19.392C118.852 15.248 121.764 12.42 125.376 12.42C127.98 12.42 130.22 13.792 130.22 15.528C130.22 16.312 129.744 16.788 129.016 16.788C128.316 16.788 127.98 16.424 127.616 15.612C127.28 14.856 126.72 13.764 125.096 13.764C122.856 13.764 121.204 15.892 121.204 18.748C121.204 21.884 123.136 24.124 125.32 24.124C127.616 24.124 128.736 22.612 129.128 21.044H130.584C130.164 23.928 128.12 26.28 124.872 26.28Z" fill="#414141"/>
</svg>
