<svg width="393" height="40" viewBox="0 0 393 40" fill="none" xmlns="http://www.w3.org/2000/svg">
<rect width="393" height="40" fill="#BC0F0F"/>
<path d="M40 14L34 20L40 26" stroke="white" stroke-linejoin="round"/>
<path d="M58.311 25V15.2H64.583V16.306H59.697V19.596H64.303V20.674H59.697V25H58.311ZM65.6365 25V18.014H66.9665L66.9245 20.1C67.2185 18.378 68.4225 17.762 69.6265 17.986V19.288C68.1565 19.092 66.9665 19.96 66.9665 21.99V25H65.6365ZM73.7794 25.238C71.7354 25.238 70.2654 23.67 70.2654 21.5C70.2654 19.344 71.7354 17.762 73.7654 17.762C76.1734 17.762 77.3494 19.932 77.0974 21.878H71.6094C71.6514 23.236 72.5474 24.202 73.7934 24.202C74.7594 24.202 75.5714 23.642 75.8374 22.802L76.9714 22.984C76.6634 24.272 75.4034 25.238 73.7794 25.238ZM71.6234 20.884H75.8094C75.8094 19.694 74.9834 18.77 73.7654 18.77C72.6034 18.77 71.7354 19.638 71.6234 20.884ZM81.8048 25.238C79.7608 25.238 78.2908 23.67 78.2908 21.5C78.2908 19.344 79.7608 17.762 81.7908 17.762C84.1988 17.762 85.3748 19.932 85.1228 21.878H79.6348C79.6768 23.236 80.5728 24.202 81.8188 24.202C82.7848 24.202 83.5968 23.642 83.8628 22.802L84.9968 22.984C84.6888 24.272 83.4288 25.238 81.8048 25.238ZM79.6488 20.884H83.8348C83.8348 19.694 83.0088 18.77 81.7908 18.77C80.6288 18.77 79.7608 19.638 79.6488 20.884ZM93.1086 25.238C90.8686 25.238 89.2586 23.88 89.2446 21.934L90.5886 21.836C90.6306 23.222 91.6806 24.146 93.1226 24.146C94.4946 24.146 95.4606 23.46 95.4606 22.424C95.4606 21.542 94.9006 21.094 93.6546 20.814L92.3806 20.576C90.5746 20.226 89.5666 19.246 89.5666 17.804C89.5666 16.082 90.9666 14.962 92.9546 14.962C94.9986 14.962 96.4966 16.278 96.5526 18.168L95.1946 18.252C95.1386 16.922 94.2286 16.04 92.9406 16.04C91.7786 16.04 90.9386 16.712 90.9386 17.706C90.9386 18.518 91.5266 19.036 92.5066 19.26L93.7806 19.498C95.8246 19.89 96.8326 20.8 96.8326 22.34C96.8326 24.062 95.3066 25.238 93.1086 25.238ZM98.3397 25V15.2H99.6697V19.568C99.9917 18.476 100.776 17.832 101.952 17.832C103.492 17.832 104.472 18.938 104.472 20.702V25H103.142V20.898C103.142 19.624 102.554 18.91 101.504 18.91C100.314 18.91 99.6697 19.792 99.6697 21.388V25H98.3397ZM106.064 25V18.014H107.394V25H106.064ZM106.736 16.824C106.19 16.824 105.784 16.418 105.784 15.872C105.784 15.34 106.19 14.92 106.736 14.92C107.268 14.92 107.674 15.34 107.674 15.872C107.674 16.418 107.268 16.824 106.736 16.824ZM109.045 27.66V18.014H110.375V19.19C110.893 18.322 111.761 17.832 112.839 17.832C114.715 17.832 116.073 19.358 116.073 21.514C116.073 23.656 114.715 25.182 112.839 25.182C111.761 25.182 110.893 24.692 110.375 23.824V27.66H109.045ZM112.503 18.924C111.201 18.924 110.291 19.974 110.291 21.514C110.291 23.04 111.201 24.09 112.503 24.09C113.791 24.09 114.729 23.012 114.729 21.514C114.729 20.016 113.791 18.924 112.503 18.924ZM117.521 27.66V18.014H118.851V19.19C119.369 18.322 120.237 17.832 121.315 17.832C123.191 17.832 124.549 19.358 124.549 21.514C124.549 23.656 123.191 25.182 121.315 25.182C120.237 25.182 119.369 24.692 118.851 23.824V27.66H117.521ZM120.979 18.924C119.677 18.924 118.767 19.974 118.767 21.514C118.767 23.04 119.677 24.09 120.979 24.09C122.267 24.09 123.205 23.012 123.205 21.514C123.205 20.016 122.267 18.924 120.979 18.924ZM125.943 25V18.014H127.273V25H125.943ZM126.615 16.824C126.069 16.824 125.663 16.418 125.663 15.872C125.663 15.34 126.069 14.92 126.615 14.92C127.147 14.92 127.553 15.34 127.553 15.872C127.553 16.418 127.147 16.824 126.615 16.824ZM128.924 25V18.014H130.254L130.212 19.722C130.506 18.532 131.304 17.832 132.536 17.832C134.076 17.832 135.056 18.938 135.056 20.702V25H133.726V20.898C133.726 19.624 133.138 18.91 132.088 18.91C130.898 18.91 130.254 19.792 130.254 21.388V25H128.924ZM140.092 27.87C138.132 27.87 136.76 26.792 136.62 25.196L137.922 25.14C138.062 26.134 138.916 26.806 140.092 26.806C141.394 26.806 142.248 25.966 142.248 24.594V23.25C141.856 24.132 140.89 24.79 139.756 24.79C137.88 24.79 136.396 23.306 136.396 21.29C136.396 19.33 137.852 17.804 139.756 17.804C140.89 17.804 141.912 18.434 142.304 19.386V18.014H143.564V24.384C143.564 26.568 142.22 27.87 140.092 27.87ZM140.036 23.698C141.324 23.698 142.332 22.69 142.332 21.29C142.332 19.946 141.38 18.896 140.036 18.896C138.734 18.896 137.726 19.946 137.726 21.29C137.726 22.648 138.734 23.698 140.036 23.698ZM151.341 25.21C149.269 25.21 147.785 23.67 147.785 21.5C147.785 19.33 149.269 17.804 151.341 17.804C153.413 17.804 154.883 19.33 154.883 21.5C154.883 23.67 153.413 25.21 151.341 25.21ZM151.341 24.09C152.643 24.09 153.539 23.026 153.539 21.5C153.539 19.988 152.643 18.924 151.341 18.924C150.025 18.924 149.129 19.988 149.129 21.5C149.129 23.026 150.025 24.09 151.341 24.09ZM156.281 25V18.014H157.611L157.569 19.722C157.863 18.532 158.661 17.832 159.893 17.832C161.433 17.832 162.413 18.938 162.413 20.702V25H161.083V20.898C161.083 19.624 160.495 18.91 159.445 18.91C158.255 18.91 157.611 19.792 157.611 21.388V25H156.281ZM170.126 25.21C168.054 25.21 166.57 23.67 166.57 21.5C166.57 19.33 168.054 17.804 170.126 17.804C172.198 17.804 173.668 19.33 173.668 21.5C173.668 23.67 172.198 25.21 170.126 25.21ZM170.126 24.09C171.428 24.09 172.324 23.026 172.324 21.5C172.324 19.988 171.428 18.924 170.126 18.924C168.81 18.924 167.914 19.988 167.914 21.5C167.914 23.026 168.81 24.09 170.126 24.09ZM175.066 25V18.014H176.396L176.354 20.1C176.648 18.378 177.852 17.762 179.056 17.986V19.288C177.586 19.092 176.396 19.96 176.396 21.99V25H175.066ZM182.929 25.182C181.053 25.182 179.695 23.656 179.695 21.5C179.695 19.358 181.053 17.832 182.929 17.832C184.021 17.832 184.889 18.336 185.407 19.204V15.2H186.737V23.502V25H185.407V23.796C184.889 24.678 184.021 25.182 182.929 25.182ZM183.265 24.09C184.567 24.09 185.477 23.04 185.477 21.5C185.477 19.974 184.567 18.924 183.265 18.924C181.977 18.924 181.039 20.002 181.039 21.5C181.039 22.998 181.977 24.09 183.265 24.09ZM191.672 25.238C189.628 25.238 188.158 23.67 188.158 21.5C188.158 19.344 189.628 17.762 191.658 17.762C194.066 17.762 195.242 19.932 194.99 21.878H189.502C189.544 23.236 190.44 24.202 191.686 24.202C192.652 24.202 193.464 23.642 193.73 22.802L194.864 22.984C194.556 24.272 193.296 25.238 191.672 25.238ZM189.516 20.884H193.702C193.702 19.694 192.876 18.77 191.658 18.77C190.496 18.77 189.628 19.638 189.516 20.884ZM196.435 25V18.014H197.765L197.723 20.1C198.017 18.378 199.221 17.762 200.425 17.986V19.288C198.955 19.092 197.765 19.96 197.765 21.99V25H196.435ZM204.252 25.238C202.502 25.238 201.284 24.286 201.172 22.788L202.404 22.746C202.488 23.698 203.23 24.3 204.252 24.3C205.078 24.3 205.792 23.922 205.792 23.194C205.792 22.648 205.372 22.34 204.546 22.172L203.356 21.948C201.998 21.724 201.368 20.996 201.368 19.974C201.368 18.616 202.502 17.762 204.056 17.762C205.68 17.762 206.842 18.742 206.912 20.198L205.722 20.268C205.666 19.358 204.98 18.714 204.042 18.714C203.258 18.714 202.628 19.148 202.628 19.848C202.628 20.366 202.978 20.688 203.608 20.8L204.798 21.024C206.268 21.29 207.066 21.962 207.066 23.068C207.066 24.412 205.862 25.238 204.252 25.238ZM214.448 26.54V25.21C212.488 25.014 211.13 23.726 211.116 21.934L212.46 21.836C212.502 23.04 213.3 23.894 214.448 24.104V20.618L214.252 20.576C212.446 20.226 211.438 19.246 211.438 17.804C211.438 16.194 212.656 15.116 214.448 14.976V13.8H215.484V15.004C217.178 15.256 218.368 16.488 218.424 18.168L217.066 18.252C217.024 17.174 216.408 16.376 215.484 16.124V19.47L215.652 19.498C217.696 19.89 218.704 20.8 218.704 22.34C218.704 23.922 217.402 25.056 215.484 25.21V26.54H214.448ZM212.81 17.706C212.81 18.518 213.398 19.036 214.378 19.26L214.448 19.274V16.068C213.482 16.194 212.81 16.824 212.81 17.706ZM215.484 24.118C216.59 23.964 217.332 23.334 217.332 22.424C217.332 21.542 216.772 21.094 215.526 20.814L215.484 20.8V24.118ZM224.479 25V22.69H219.943V21.71C221.735 20.156 223.135 17.804 223.625 15.13H225.081C224.605 17.804 223.107 20.24 221.133 21.654H224.535V18.658H225.739V21.654H227.223V22.69H225.739V25H224.479ZM231.799 14.92C234.263 14.92 235.537 17.02 235.537 20.058C235.537 23.306 234.151 25.28 231.813 25.28C229.951 25.28 228.593 24.034 228.495 22.158L229.769 22.074C229.853 23.348 230.651 24.174 231.869 24.174C233.535 24.174 234.249 22.522 234.249 20.24C234.249 19.862 234.221 19.512 234.179 19.246C233.941 20.492 232.891 21.276 231.561 21.276C229.839 21.276 228.383 20.114 228.383 18.126C228.383 16.208 229.783 14.92 231.799 14.92ZM231.813 15.956C230.581 15.956 229.713 16.852 229.713 18.112C229.713 19.372 230.581 20.254 231.813 20.254C233.017 20.254 233.899 19.4 233.899 18.182C233.899 16.88 233.017 15.956 231.813 15.956ZM237.358 25.14C236.84 25.14 236.448 24.748 236.448 24.23C236.448 23.726 236.84 23.32 237.358 23.32C237.876 23.32 238.268 23.726 238.268 24.23C238.268 24.748 237.876 25.14 237.358 25.14ZM242.737 14.92C245.201 14.92 246.475 17.02 246.475 20.058C246.475 23.306 245.089 25.28 242.751 25.28C240.889 25.28 239.531 24.034 239.433 22.158L240.707 22.074C240.791 23.348 241.589 24.174 242.807 24.174C244.473 24.174 245.187 22.522 245.187 20.24C245.187 19.862 245.159 19.512 245.117 19.246C244.879 20.492 243.829 21.276 242.499 21.276C240.777 21.276 239.321 20.114 239.321 18.126C239.321 16.208 240.721 14.92 242.737 14.92ZM242.751 15.956C241.519 15.956 240.651 16.852 240.651 18.112C240.651 19.372 241.519 20.254 242.751 20.254C243.955 20.254 244.837 19.4 244.837 18.182C244.837 16.88 243.955 15.956 242.751 15.956ZM251.405 14.92C253.869 14.92 255.143 17.02 255.143 20.058C255.143 23.306 253.757 25.28 251.419 25.28C249.557 25.28 248.199 24.034 248.101 22.158L249.375 22.074C249.459 23.348 250.257 24.174 251.475 24.174C253.141 24.174 253.855 22.522 253.855 20.24C253.855 19.862 253.827 19.512 253.785 19.246C253.547 20.492 252.497 21.276 251.167 21.276C249.445 21.276 247.989 20.114 247.989 18.126C247.989 16.208 249.389 14.92 251.405 14.92ZM251.419 15.956C250.187 15.956 249.319 16.852 249.319 18.112C249.319 19.372 250.187 20.254 251.419 20.254C252.623 20.254 253.505 19.4 253.505 18.182C253.505 16.88 252.623 15.956 251.419 15.956ZM259.031 23.208V20.618H256.483V19.582H259.031V16.992H260.207V19.582H262.755V20.618H260.207V23.208H259.031Z" fill="white"/>
<path d="M276.55 24.238C274.31 24.238 272.7 22.88 272.686 20.934L274.03 20.836C274.072 22.222 275.122 23.146 276.564 23.146C277.936 23.146 278.902 22.46 278.902 21.424C278.902 20.542 278.342 20.094 277.096 19.814L275.822 19.576C274.016 19.226 273.008 18.246 273.008 16.804C273.008 15.082 274.408 13.962 276.396 13.962C278.44 13.962 279.938 15.278 279.994 17.168L278.636 17.252C278.58 15.922 277.67 15.04 276.382 15.04C275.22 15.04 274.38 15.712 274.38 16.706C274.38 17.518 274.968 18.036 275.948 18.26L277.222 18.498C279.266 18.89 280.274 19.8 280.274 21.34C280.274 23.062 278.748 24.238 276.55 24.238ZM281.781 24V14.2H283.111V18.568C283.433 17.476 284.217 16.832 285.393 16.832C286.933 16.832 287.913 17.938 287.913 19.702V24H286.583V19.898C286.583 18.624 285.995 17.91 284.945 17.91C283.755 17.91 283.111 18.792 283.111 20.388V24H281.781ZM292.81 24.21C290.738 24.21 289.254 22.67 289.254 20.5C289.254 18.33 290.738 16.804 292.81 16.804C294.882 16.804 296.352 18.33 296.352 20.5C296.352 22.67 294.882 24.21 292.81 24.21ZM292.81 23.09C294.112 23.09 295.008 22.026 295.008 20.5C295.008 18.988 294.112 17.924 292.81 17.924C291.494 17.924 290.598 18.988 290.598 20.5C290.598 22.026 291.494 23.09 292.81 23.09ZM297.805 26.66V17.014H299.135V18.19C299.653 17.322 300.521 16.832 301.599 16.832C303.475 16.832 304.833 18.358 304.833 20.514C304.833 22.656 303.475 24.182 301.599 24.182C300.521 24.182 299.653 23.692 299.135 22.824V26.66H297.805ZM301.263 17.924C299.961 17.924 299.051 18.974 299.051 20.514C299.051 22.04 299.961 23.09 301.263 23.09C302.551 23.09 303.489 22.012 303.489 20.514C303.489 19.016 302.551 17.924 301.263 17.924ZM309.043 24V17.014H310.373L310.331 18.722C310.625 17.532 311.423 16.832 312.655 16.832C314.195 16.832 315.175 17.938 315.175 19.702V24H313.845V19.898C313.845 18.624 313.257 17.91 312.207 17.91C311.017 17.91 310.373 18.792 310.373 20.388V24H309.043ZM320.071 24.21C317.999 24.21 316.515 22.67 316.515 20.5C316.515 18.33 317.999 16.804 320.071 16.804C322.143 16.804 323.613 18.33 323.613 20.5C323.613 22.67 322.143 24.21 320.071 24.21ZM320.071 23.09C321.373 23.09 322.269 22.026 322.269 20.5C322.269 18.988 321.373 17.924 320.071 17.924C318.755 17.924 317.859 18.988 317.859 20.5C317.859 22.026 318.755 23.09 320.071 23.09ZM326.642 24L324.248 17.014H325.676L327.44 22.516L329.12 17.014H330.59L332.284 22.516L334.048 17.014H335.448L333.054 24H331.57L329.862 18.456L328.14 24H326.642Z" fill="white"/>
<line x1="272" y1="28.5" x2="336" y2="28.5" stroke="white"/>
<path d="M353 26L359 20L353 14" stroke="white" stroke-linejoin="round"/>
</svg>
