<svg width="291" height="34" viewBox="0 0 291 34" fill="none" xmlns="http://www.w3.org/2000/svg">
<path d="M8.204 26.28C5.376 26.28 2.912 25.132 1.428 23.564V19.952H3.444C3.724 23.228 5.908 24.74 8.344 24.74C10.584 24.74 12.264 23.256 12.264 21.24C12.264 19.42 11.2 18.02 8.736 17.152L6.412 16.34C3.752 15.416 1.96 13.736 1.96 11.356C1.96 8.108 4.956 6.12 8.008 6.12C10.248 6.12 12.32 6.988 13.608 7.968V11.16H11.704C11.396 8.78 9.828 7.66 7.812 7.66C5.936 7.66 4.368 8.808 4.368 10.628C4.368 12.196 5.544 13.204 7.7 14.016L10.332 14.996C13.16 16.06 14.7 17.88 14.7 20.512C14.7 24.04 11.704 26.28 8.204 26.28ZM20.096 26.028H17.8H15.812V24.964H16.652C17.436 24.964 17.772 24.572 17.772 23.9V8.444C17.772 7.94 17.604 7.632 17.128 7.38L15.728 6.652V6.176L19.9 5H20.124V5.28V15.276H20.292C20.684 14.156 22.028 12.42 24.492 12.42C26.984 12.42 28.776 14.072 28.776 17.18V23.9C28.776 24.572 29.112 24.964 29.896 24.964H30.736V26.028H28.748H26.452H24.464V24.964H25.304C26.088 24.964 26.424 24.572 26.424 23.9V17.936C26.424 15.696 25.416 14.464 23.624 14.464C21.72 14.464 20.124 16.172 20.124 18.832V23.9C20.124 24.572 20.46 24.964 21.244 24.964H22.084V26.028H20.096ZM37.8803 26.28C34.0443 26.28 31.3563 23.34 31.3563 19.364C31.3563 15.36 34.0443 12.42 37.8803 12.42C41.7163 12.42 44.4323 15.36 44.4323 19.364C44.4323 23.34 41.7163 26.28 37.8803 26.28ZM37.7403 13.848C35.5843 13.848 33.9883 15.64 33.9883 18.804C33.9883 21.968 35.5283 24.852 38.0483 24.852C40.2323 24.852 41.8003 23.06 41.8003 19.896C41.8003 16.76 40.2603 13.848 37.7403 13.848ZM53.184 12.42C56.684 12.42 58.84 15.472 58.84 19.252C58.84 23.312 56.236 26.28 52.82 26.28C51.364 26.28 50.216 25.72 49.628 25.16H49.46V29.472C49.46 30.144 49.88 30.536 50.804 30.536H51.812V31.6H49.432H47.136H45.148V30.536H45.988C46.772 30.536 47.108 30.144 47.108 29.472V15.864C47.108 15.36 46.94 15.052 46.464 14.8L45.036 14.1V13.596L48.9 12.42H49.124L49.236 14.66H49.404C49.88 13.708 51.14 12.42 53.184 12.42ZM52.372 14.324C51.028 14.324 50.076 15.08 49.46 15.948V21.268C49.46 23.62 50.804 24.852 52.596 24.852C54.64 24.852 56.376 22.808 56.376 19.756C56.376 16.816 54.78 14.324 52.372 14.324ZM65.5165 24.74C66.4125 24.684 67.2525 24.432 67.7565 23.2L73.8045 8.612L73.0205 6.792V6.4H75.8765L82.7085 23.2C83.2125 24.432 84.0805 24.684 84.9485 24.74V26H77.6125V24.74H78.7605C79.7965 24.74 80.2725 24.068 79.8805 23.088L78.5645 19.84H70.6965L69.3805 23.088C68.9605 24.096 69.4645 24.74 70.5005 24.74H71.5925V26H65.5165V24.74ZM71.2845 18.44H78.0045L74.7285 10.404H74.5605L71.2845 18.44ZM90.0179 26H87.7219H85.7339V24.936H86.5739C87.3579 24.936 87.6939 24.544 87.6939 23.872V8.444C87.6939 7.94 87.5259 7.632 87.0499 7.38L85.6499 6.652V6.176L89.8219 5H90.0459V5.28V23.872C90.0459 24.544 90.3819 24.936 91.1659 24.936H92.0059V26H90.0179ZM97.1117 26H94.8157H92.8277V24.936H93.6677C94.4517 24.936 94.7877 24.544 94.7877 23.872V8.444C94.7877 7.94 94.6197 7.632 94.1437 7.38L92.7437 6.652V6.176L96.9157 5H97.1397V5.28V23.872C97.1397 24.544 97.4757 24.936 98.2597 24.936H99.0997V26H97.1117Z" fill="#414141"/>
</svg>
