<svg width="291" height="34" viewBox="0 0 291 34" fill="none" xmlns="http://www.w3.org/2000/svg">
<path d="M8.204 26.28C5.376 26.28 2.912 25.132 1.428 23.564V19.952H3.444C3.724 23.228 5.908 24.74 8.344 24.74C10.584 24.74 12.264 23.256 12.264 21.24C12.264 19.42 11.2 18.02 8.736 17.152L6.412 16.34C3.752 15.416 1.96 13.736 1.96 11.356C1.96 8.108 4.956 6.12 8.008 6.12C10.248 6.12 12.32 6.988 13.608 7.968V11.16H11.704C11.396 8.78 9.828 7.66 7.812 7.66C5.936 7.66 4.368 8.808 4.368 10.628C4.368 12.196 5.544 13.204 7.7 14.016L10.332 14.996C13.16 16.06 14.7 17.88 14.7 20.512C14.7 24.04 11.704 26.28 8.204 26.28ZM20.096 26.028H17.8H15.812V24.964H16.652C17.436 24.964 17.772 24.572 17.772 23.9V8.444C17.772 7.94 17.604 7.632 17.128 7.38L15.728 6.652V6.176L19.9 5H20.124V5.28V15.276H20.292C20.684 14.156 22.028 12.42 24.492 12.42C26.984 12.42 28.776 14.072 28.776 17.18V23.9C28.776 24.572 29.112 24.964 29.896 24.964H30.736V26.028H28.748H26.452H24.464V24.964H25.304C26.088 24.964 26.424 24.572 26.424 23.9V17.936C26.424 15.696 25.416 14.464 23.624 14.464C21.72 14.464 20.124 16.172 20.124 18.832V23.9C20.124 24.572 20.46 24.964 21.244 24.964H22.084V26.028H20.096ZM37.8803 26.28C34.0443 26.28 31.3563 23.34 31.3563 19.364C31.3563 15.36 34.0443 12.42 37.8803 12.42C41.7163 12.42 44.4323 15.36 44.4323 19.364C44.4323 23.34 41.7163 26.28 37.8803 26.28ZM37.7403 13.848C35.5843 13.848 33.9883 15.64 33.9883 18.804C33.9883 21.968 35.5283 24.852 38.0483 24.852C40.2323 24.852 41.8003 23.06 41.8003 19.896C41.8003 16.76 40.2603 13.848 37.7403 13.848ZM53.184 12.42C56.684 12.42 58.84 15.472 58.84 19.252C58.84 23.312 56.236 26.28 52.82 26.28C51.364 26.28 50.216 25.72 49.628 25.16H49.46V29.472C49.46 30.144 49.88 30.536 50.804 30.536H51.812V31.6H49.432H47.136H45.148V30.536H45.988C46.772 30.536 47.108 30.144 47.108 29.472V15.864C47.108 15.36 46.94 15.052 46.464 14.8L45.036 14.1V13.596L48.9 12.42H49.124L49.236 14.66H49.404C49.88 13.708 51.14 12.42 53.184 12.42ZM52.372 14.324C51.028 14.324 50.076 15.08 49.46 15.948V21.268C49.46 23.62 50.804 24.852 52.596 24.852C54.64 24.852 56.376 22.808 56.376 19.756C56.376 16.816 54.78 14.324 52.372 14.324ZM72.6845 26.28C69.8565 26.28 67.3925 25.132 65.9085 23.564V19.952H67.9245C68.2045 23.228 70.3885 24.74 72.8245 24.74C75.0645 24.74 76.7445 23.256 76.7445 21.24C76.7445 19.42 75.6805 18.02 73.2165 17.152L70.8925 16.34C68.2325 15.416 66.4405 13.736 66.4405 11.356C66.4405 8.108 69.4365 6.12 72.4885 6.12C74.7285 6.12 76.8005 6.988 78.0885 7.968V11.16H76.1845C75.8765 8.78 74.3085 7.66 72.2925 7.66C70.4165 7.66 68.8485 8.808 68.8485 10.628C68.8485 12.196 70.0245 13.204 72.1805 14.016L74.8125 14.996C77.6405 16.06 79.1805 17.88 79.1805 20.512C79.1805 24.04 76.1845 26.28 72.6845 26.28ZM85.849 26.28C83.469 26.28 81.733 24.628 81.733 21.52V14.828C81.733 14.156 81.397 13.764 80.613 13.764H79.773V12.7H81.761H84.085V20.848C84.085 22.948 85.037 24.236 86.689 24.236C88.453 24.236 89.825 22.696 89.825 20.064V14.828C89.825 14.156 89.489 13.764 88.705 13.764H87.865V12.7H89.853H92.177V22.836C92.177 23.34 92.345 23.648 92.821 23.9L94.221 24.628V25.104L90.413 26.28H90.161L90.049 23.368H89.881C89.461 24.656 88.089 26.28 85.849 26.28ZM102.504 12.42C106.004 12.42 108.16 15.472 108.16 19.252C108.16 23.312 105.556 26.28 102.14 26.28C100.684 26.28 99.5363 25.72 98.9483 25.16H98.7803V29.472C98.7803 30.144 99.2003 30.536 100.124 30.536H101.132V31.6H98.7523H96.4563H94.4683V30.536H95.3083C96.0923 30.536 96.4283 30.144 96.4283 29.472V15.864C96.4283 15.36 96.2603 15.052 95.7843 14.8L94.3563 14.1V13.596L98.2203 12.42H98.4443L98.5563 14.66H98.7243C99.2003 13.708 100.46 12.42 102.504 12.42ZM101.692 14.324C100.348 14.324 99.3963 15.08 98.7803 15.948V21.268C98.7803 23.62 100.124 24.852 101.916 24.852C103.96 24.852 105.696 22.808 105.696 19.756C105.696 16.816 104.1 14.324 101.692 14.324ZM115.678 26.28C112.122 26.28 109.602 23.368 109.602 19.392C109.602 15.388 112.066 12.42 115.622 12.42C118.842 12.42 121.194 14.856 121.194 18.104C121.194 18.328 121.194 18.412 121.138 18.72H111.926C111.926 18.804 111.926 18.916 111.926 19C111.926 22.108 113.634 24.124 116.098 24.124C117.89 24.124 119.262 23.088 119.794 21.548H121.138C120.634 24.18 118.618 26.28 115.678 26.28ZM112.066 17.376H118.674C118.674 15.248 117.386 13.848 115.566 13.848C113.746 13.848 112.486 15.248 112.066 17.376ZM126.475 26H124.179H122.191V24.936H123.031C123.815 24.936 124.151 24.544 124.151 23.872V15.864C124.151 15.36 123.983 15.052 123.507 14.8L122.079 14.1V13.596L125.943 12.42H126.167L126.279 15.276H126.447C127.091 13.204 129.135 12.42 130.227 12.42C131.515 12.42 132.215 13.176 132.215 13.988C132.215 14.856 131.711 15.444 130.843 15.444C129.919 15.444 129.807 14.828 128.883 14.828C127.483 14.828 126.503 16.508 126.503 18.328V23.872C126.503 24.544 126.951 24.936 127.959 24.936H129.051V26H126.475ZM140.645 26H134.569H132.245V24.74H133.421C134.205 24.74 134.541 24.236 134.541 23.62V8.78C134.541 8.164 134.205 7.66 133.421 7.66H132.245V6.4H134.569H140.617C144.397 6.4 146.525 8.36 146.525 11.216C146.525 13.372 144.957 15.164 143.193 15.696V15.864C145.405 16.312 147.225 18.216 147.225 20.568C147.225 23.788 144.817 26 140.645 26ZM137.089 23.536C137.089 24.152 137.509 24.572 138.125 24.572H140.001C142.773 24.572 144.397 22.976 144.397 20.624C144.397 18.244 142.773 16.62 140.169 16.62H137.089V23.536ZM137.089 15.164H140.169C142.353 15.164 143.697 13.624 143.697 11.412C143.697 9.284 142.353 7.828 140.001 7.828H138.125C137.509 7.828 137.089 8.248 137.089 8.864V15.164ZM154.569 26.28C151.013 26.28 148.493 23.368 148.493 19.392C148.493 15.388 150.957 12.42 154.513 12.42C157.733 12.42 160.085 14.856 160.085 18.104C160.085 18.328 160.085 18.412 160.029 18.72H150.817C150.817 18.804 150.817 18.916 150.817 19C150.817 22.108 152.525 24.124 154.989 24.124C156.781 24.124 158.153 23.088 158.685 21.548H160.029C159.525 24.18 157.509 26.28 154.569 26.28ZM150.957 17.376H157.565C157.565 15.248 156.277 13.848 154.457 13.848C152.637 13.848 151.377 15.248 150.957 17.376ZM167.35 26.28C163.794 26.28 161.274 23.368 161.274 19.392C161.274 15.388 163.738 12.42 167.294 12.42C170.514 12.42 172.866 14.856 172.866 18.104C172.866 18.328 172.866 18.412 172.81 18.72H163.598C163.598 18.804 163.598 18.916 163.598 19C163.598 22.108 165.306 24.124 167.77 24.124C169.562 24.124 170.934 23.088 171.466 21.548H172.81C172.306 24.18 170.29 26.28 167.35 26.28ZM163.738 17.376H170.346C170.346 15.248 169.058 13.848 167.238 13.848C165.418 13.848 164.158 15.248 163.738 17.376ZM178.805 26.28C177.237 26.28 175.837 25.356 175.837 22.976V14.156H173.345V12.924H173.569C175.529 12.924 176.369 11.832 176.593 10.264L176.817 8.948H178.189V12.7H181.521V14.156H178.189V22.78C178.189 23.844 178.833 24.432 179.645 24.432C180.345 24.432 180.961 24.096 181.605 23.48L182.333 24.32C181.297 25.468 180.233 26.28 178.805 26.28ZM187.416 26.28C185.4 26.28 183.748 25.608 182.628 24.404V21.884H184.364C184.616 24.152 186.016 24.908 187.528 24.908C188.956 24.908 190.104 24.152 190.104 22.836C190.104 21.66 189.236 20.988 187.92 20.568L186.184 20.008C184.056 19.308 182.908 18.048 182.908 16.256C182.908 13.96 185.064 12.42 187.444 12.42C189.292 12.42 190.692 13.036 191.616 13.848V16.228H189.908C189.74 14.576 188.648 13.792 187.192 13.792C186.016 13.792 185.064 14.548 185.064 15.724C185.064 16.788 185.904 17.32 187.248 17.74L188.648 18.188C190.944 18.916 192.26 20.148 192.26 22.248C192.26 24.852 189.74 26.28 187.416 26.28Z" fill="#414141"/>
</svg>
