<svg width="26" height="26" viewBox="0 0 26 26" fill="none" xmlns="http://www.w3.org/2000/svg">
<g clip-path="url(#clip0_3303_1329)">
<path d="M13 2.34101C16.4734 2.34101 16.8847 2.35624 18.2507 2.41718C19.5203 2.47304 20.2058 2.68632 20.6628 2.86405C21.2671 3.09765 21.7038 3.38202 22.1558 3.83397C22.6128 4.291 22.8921 4.72264 23.1257 5.32694C23.3035 5.78397 23.5167 6.47459 23.5726 7.73904C23.6335 9.11013 23.6488 9.52146 23.6488 12.9898C23.6488 16.4632 23.6335 16.8746 23.5726 18.2406C23.5167 19.5101 23.3035 20.1956 23.1257 20.6527C22.8921 21.257 22.6077 21.6937 22.1558 22.1456C21.6988 22.6027 21.2671 22.882 20.6628 23.1156C20.2058 23.2933 19.5152 23.5066 18.2507 23.5624C16.8796 23.6234 16.4683 23.6386 13 23.6386C9.52654 23.6386 9.11521 23.6234 7.7492 23.5624C6.47967 23.5066 5.79412 23.2933 5.33709 23.1156C4.7328 22.882 4.29608 22.5976 3.84413 22.1456C3.3871 21.6886 3.1078 21.257 2.87421 20.6527C2.69648 20.1956 2.4832 19.505 2.42734 18.2406C2.3664 16.8695 2.35117 16.4582 2.35117 12.9898C2.35117 9.51638 2.3664 9.10505 2.42734 7.73904C2.4832 6.46951 2.69648 5.78397 2.87421 5.32694C3.1078 4.72264 3.39218 4.28593 3.84413 3.83397C4.30116 3.37694 4.7328 3.09765 5.33709 2.86405C5.79412 2.68632 6.48475 2.47304 7.7492 2.41718C9.11521 2.35624 9.52654 2.34101 13 2.34101ZM13 0C9.47068 0 9.02888 0.0152343 7.64256 0.0761717C6.26131 0.137109 5.3117 0.360546 4.48905 0.680467C3.63085 1.01562 2.90468 1.45742 2.18359 2.18359C1.45742 2.90468 1.01562 3.63085 0.680467 4.48397C0.360546 5.3117 0.137109 6.25623 0.0761717 7.63748C0.0152343 9.02888 0 9.47068 0 13C0 16.5293 0.0152343 16.971 0.0761717 18.3574C0.137109 19.7386 0.360546 20.6882 0.680467 21.5109C1.01562 22.3691 1.45742 23.0952 2.18359 23.8163C2.90468 24.5374 3.63085 24.9843 4.48397 25.3144C5.3117 25.6343 6.25623 25.8577 7.63748 25.9187C9.0238 25.9796 9.4656 25.9948 12.9949 25.9948C16.5242 25.9948 16.966 25.9796 18.3523 25.9187C19.7335 25.8577 20.6831 25.6343 21.5058 25.3144C22.3589 24.9843 23.0851 24.5374 23.8062 23.8163C24.5273 23.0952 24.9741 22.3691 25.3042 21.516C25.6241 20.6882 25.8476 19.7437 25.9085 18.3624C25.9695 16.9761 25.9847 16.5343 25.9847 13.005C25.9847 9.47576 25.9695 9.03396 25.9085 7.64763C25.8476 6.26639 25.6241 5.31678 25.3042 4.49413C24.9843 3.63085 24.5425 2.90468 23.8163 2.18359C23.0952 1.4625 22.3691 1.01562 21.516 0.685545C20.6882 0.365624 19.7437 0.142187 18.3624 0.0812498C16.971 0.0152343 16.5293 0 13 0Z" fill="#414141"/>
<path d="M12.9999 6.32224C9.31321 6.32224 6.32221 9.31325 6.32221 13C6.32221 16.6867 9.31321 19.6777 12.9999 19.6777C16.6866 19.6777 19.6776 16.6867 19.6776 13C19.6776 9.31325 16.6866 6.32224 12.9999 6.32224ZM12.9999 17.3316C10.6081 17.3316 8.66829 15.3917 8.66829 13C8.66829 10.6082 10.6081 8.66833 12.9999 8.66833C15.3917 8.66833 17.3316 10.6082 17.3316 13C17.3316 15.3917 15.3917 17.3316 12.9999 17.3316Z" fill="#414141"/>
<path d="M21.5007 6.05813C21.5007 6.92141 20.7999 7.61711 19.9417 7.61711C19.0785 7.61711 18.3828 6.91633 18.3828 6.05813C18.3828 5.19485 19.0835 4.49915 19.9417 4.49915C20.7999 4.49915 21.5007 5.19993 21.5007 6.05813Z" fill="#414141"/>
</g>
<defs>
<clipPath id="clip0_3303_1329">
<rect width="25.5273" height="25.5273" fill="white" transform="scale(1.01852)"/>
</clipPath>
</defs>
</svg>
