<svg width="309" height="34" viewBox="0 0 309 34" fill="none" xmlns="http://www.w3.org/2000/svg">
<circle cx="5" cy="16" r="4.5" fill="#E9FF6D" stroke="#A0A0A0"/>
<path d="M26.204 26.28C23.376 26.28 20.912 25.132 19.428 23.564V19.952H21.444C21.724 23.228 23.908 24.74 26.344 24.74C28.584 24.74 30.264 23.256 30.264 21.24C30.264 19.42 29.2 18.02 26.736 17.152L24.412 16.34C21.752 15.416 19.96 13.736 19.96 11.356C19.96 8.108 22.956 6.12 26.008 6.12C28.248 6.12 30.32 6.988 31.608 7.968V11.16H29.704C29.396 8.78 27.828 7.66 25.812 7.66C23.936 7.66 22.368 8.808 22.368 10.628C22.368 12.196 23.544 13.204 25.7 14.016L28.332 14.996C31.16 16.06 32.7 17.88 32.7 20.512C32.7 24.04 29.704 26.28 26.204 26.28ZM41.6293 12.42C45.1293 12.42 47.2853 15.472 47.2853 19.252C47.2853 23.312 44.6813 26.28 41.2653 26.28C39.8093 26.28 38.6613 25.72 38.0733 25.16H37.9053V29.472C37.9053 30.144 38.3253 30.536 39.2493 30.536H40.2573V31.6H37.8773H35.5813H33.5933V30.536H34.4333C35.2173 30.536 35.5533 30.144 35.5533 29.472V15.864C35.5533 15.36 35.3853 15.052 34.9093 14.8L33.4813 14.1V13.596L37.3453 12.42H37.5693L37.6813 14.66H37.8493C38.3253 13.708 39.5853 12.42 41.6293 12.42ZM40.8173 14.324C39.4733 14.324 38.5213 15.08 37.9053 15.948V21.268C37.9053 23.62 39.2493 24.852 41.0413 24.852C43.0853 24.852 44.8213 22.808 44.8213 19.756C44.8213 16.816 43.2253 14.324 40.8173 14.324ZM55.2514 26.28C51.4154 26.28 48.7274 23.34 48.7274 19.364C48.7274 15.36 51.4154 12.42 55.2514 12.42C59.0874 12.42 61.8034 15.36 61.8034 19.364C61.8034 23.34 59.0874 26.28 55.2514 26.28ZM55.1114 13.848C52.9554 13.848 51.3594 15.64 51.3594 18.804C51.3594 21.968 52.8994 24.852 55.4194 24.852C57.6034 24.852 59.1714 23.06 59.1714 19.896C59.1714 16.76 57.6314 13.848 55.1114 13.848ZM67.0765 26H64.7805H62.7925V24.936H63.6325C64.4165 24.936 64.7525 24.544 64.7525 23.872V15.864C64.7525 15.36 64.5845 15.052 64.1085 14.8L62.6805 14.1V13.596L66.5445 12.42H66.7685L66.8805 15.276H67.0485C67.6925 13.204 69.7365 12.42 70.8285 12.42C72.1165 12.42 72.8165 13.176 72.8165 13.988C72.8165 14.856 72.3125 15.444 71.4445 15.444C70.5205 15.444 70.4085 14.828 69.4845 14.828C68.0845 14.828 67.1045 16.508 67.1045 18.328V23.872C67.1045 24.544 67.5525 24.936 68.5605 24.936H69.6525V26H67.0765ZM78.7108 26.28C77.1428 26.28 75.7428 25.356 75.7428 22.976V14.156H73.2508V12.924H73.4748C75.4348 12.924 76.2748 11.832 76.4988 10.264L76.7228 8.948H78.0948V12.7H81.4268V14.156H78.0948V22.78C78.0948 23.844 78.7388 24.432 79.5508 24.432C80.2508 24.432 80.8668 24.096 81.5108 23.48L82.2388 24.32C81.2028 25.468 80.1388 26.28 78.7108 26.28ZM87.3221 26.28C85.3061 26.28 83.6541 25.608 82.5341 24.404V21.884H84.2701C84.5221 24.152 85.9221 24.908 87.4341 24.908C88.8621 24.908 90.0101 24.152 90.0101 22.836C90.0101 21.66 89.1421 20.988 87.8261 20.568L86.0901 20.008C83.9621 19.308 82.8141 18.048 82.8141 16.256C82.8141 13.96 84.9701 12.42 87.3501 12.42C89.1981 12.42 90.5981 13.036 91.5221 13.848V16.228H89.8141C89.6461 14.576 88.5541 13.792 87.0981 13.792C85.9221 13.792 84.9701 14.548 84.9701 15.724C84.9701 16.788 85.8101 17.32 87.1541 17.74L88.5541 18.188C90.8501 18.916 92.1661 20.148 92.1661 22.248C92.1661 24.852 89.6461 26.28 87.3221 26.28Z" fill="#414141"/>
</svg>
