<svg width="136" height="32" viewBox="0 0 136 32" fill="none" xmlns="http://www.w3.org/2000/svg">
<path d="M0 16C0 7.16344 7.16344 0 16 0H120C128.837 0 136 7.16344 136 16C136 24.8366 128.837 32 120 32H16C7.16344 32 0 24.8366 0 16Z" fill="#BC0F0F"/>
<path d="M21.926 21.28C18.356 21.28 16.046 19.236 16.046 16.1C16.046 12.95 18.356 10.92 21.926 10.92C25.51 10.92 27.806 12.95 27.806 16.1C27.806 17.892 27.064 19.32 25.748 20.216L27.582 22.4H25.132L23.984 21.028C23.354 21.196 22.668 21.28 21.926 21.28ZM21.926 19.404C22.15 19.404 22.374 19.39 22.584 19.362L20.722 17.15H23.172L24.376 18.592C25.062 18.018 25.454 17.15 25.454 16.1C25.454 14.098 24.054 12.782 21.926 12.782C19.784 12.782 18.398 14.098 18.398 16.1C18.398 18.088 19.784 19.404 21.926 19.404ZM34.7016 21.28C31.2856 21.28 29.7596 19.866 29.7596 16.716V11.2H32.0836V16.534C32.0836 18.48 32.9096 19.362 34.7156 19.362C36.5496 19.362 37.3896 18.48 37.3896 16.534V11.2H39.6576V16.716C39.6576 19.866 38.1176 21.28 34.7016 21.28ZM41.7905 21V11.2H44.0725V21H41.7905ZM52.0549 21.28C48.4429 21.28 46.0909 19.222 46.0909 16.1C46.0909 12.978 48.4429 10.92 52.0549 10.92C55.3589 10.92 57.5849 12.572 57.7109 15.12L55.3589 15.176C55.2329 13.748 53.9169 12.782 52.0549 12.782C49.8849 12.782 48.4429 14.112 48.4429 16.1C48.4429 18.088 49.8849 19.418 52.0549 19.418C53.8749 19.418 55.1909 18.452 55.3589 16.996L57.6969 17.01C57.5709 19.586 55.3309 21.28 52.0549 21.28ZM59.6694 21V11.2H61.9934V15.554L66.8234 11.2H69.6794L65.2834 15.204L69.8194 21H66.8794L63.6174 16.716L61.9934 18.186V21H59.6694ZM79.4231 21L74.8591 11.2H77.4071L80.7391 18.62L84.0711 11.2H86.5491L81.9851 21H79.4231ZM88.3471 21V11.2H90.6291V21H88.3471ZM92.8296 21V11.2H101.174V13.02H95.1116V15.204H100.614V16.926H95.1116V19.138H101.258V21H92.8296ZM106.127 21L102.963 11.2H105.469L107.653 18.508L110.047 11.2H112.721L115.143 18.508L117.327 11.2H119.777L116.585 21H113.869L111.377 13.58L108.885 21H106.127Z" fill="white"/>
</svg>
