<svg width="239" height="38" viewBox="0 0 239 38" fill="none" xmlns="http://www.w3.org/2000/svg">
<path d="M19 1H220C229.941 1 238 9.05887 238 19C238 28.9411 229.941 37 220 37H19C9.05888 37 1 28.9411 1 19C1 9.05887 9.05888 1 19 1Z" stroke="white" stroke-width="2"/>
<path d="M20.728 24V14.2H29.072V16.02H23.01V18.204H28.512V19.926H23.01V22.138H29.156V24H20.728ZM39.1627 24L36.2367 20.528L33.4087 24H30.8607L35.0047 19.058L30.9167 14.2H33.5767L36.4327 17.588L39.2327 14.2H41.7527L37.6507 19.044L41.8367 24H39.1627ZM43.6518 24V14.2H48.4818C51.3378 14.2 52.8218 15.348 52.8218 17.574C52.8218 19.8 51.3378 20.948 48.4818 20.948H45.9618V24H43.6518ZM45.9618 19.128H48.4678C49.7698 19.128 50.4698 18.596 50.4698 17.574C50.4698 16.566 49.7698 16.02 48.4678 16.02H45.9618V19.128ZM54.7378 24V14.2H57.0198V22.054H62.3818V24H54.7378ZM69.3752 24.28C65.8052 24.28 63.4952 22.236 63.4952 19.1C63.4952 15.95 65.8052 13.92 69.3752 13.92C72.9592 13.92 75.2552 15.95 75.2552 19.1C75.2552 22.236 72.9592 24.28 69.3752 24.28ZM69.3752 22.404C71.5032 22.404 72.9032 21.088 72.9032 19.1C72.9032 17.098 71.5032 15.782 69.3752 15.782C67.2332 15.782 65.8472 17.098 65.8472 19.1C65.8472 21.088 67.2332 22.404 69.3752 22.404ZM77.2788 24V14.2H82.3608C85.1608 14.2 86.6588 15.194 86.6588 17.014C86.6588 18.148 86.0568 18.96 84.9928 19.296C86.1688 19.576 86.7568 20.36 86.8128 21.746L86.8828 24H84.5028L84.4328 22.138C84.4048 20.99 83.8168 20.5 82.4588 20.5H79.5608V24H77.2788ZM82.2208 18.834C83.5368 18.834 84.2788 18.288 84.2788 17.35C84.2788 16.44 83.5508 15.908 82.2768 15.908H79.5608V18.834H82.2208ZM88.9936 24V14.2H97.3376V16.02H91.2756V18.204H96.7776V19.926H91.2756V22.138H97.4216V24H88.9936ZM108.742 24.28C105.172 24.28 102.862 22.236 102.862 19.1C102.862 15.95 105.172 13.92 108.742 13.92C112.326 13.92 114.622 15.95 114.622 19.1C114.622 22.236 112.326 24.28 108.742 24.28ZM108.742 22.404C110.87 22.404 112.27 21.088 112.27 19.1C112.27 17.098 110.87 15.782 108.742 15.782C106.6 15.782 105.214 17.098 105.214 19.1C105.214 21.088 106.6 22.404 108.742 22.404ZM121.518 24.28C118.102 24.28 116.576 22.866 116.576 19.716V14.2H118.9V19.534C118.9 21.48 119.726 22.362 121.532 22.362C123.366 22.362 124.206 21.48 124.206 19.534V14.2H126.474V19.716C126.474 22.866 124.934 24.28 121.518 24.28ZM128.607 24V14.2H133.689C136.489 14.2 137.987 15.194 137.987 17.014C137.987 18.148 137.385 18.96 136.321 19.296C137.497 19.576 138.085 20.36 138.141 21.746L138.211 24H135.831L135.761 22.138C135.733 20.99 135.145 20.5 133.787 20.5H130.889V24H128.607ZM133.549 18.834C134.865 18.834 135.607 18.288 135.607 17.35C135.607 16.44 134.879 15.908 133.605 15.908H130.889V18.834H133.549ZM148.719 24.28C145.611 24.28 143.623 22.866 143.581 20.626H145.849C145.905 21.872 146.997 22.53 148.775 22.53C150.203 22.53 151.057 22.138 151.057 21.396C151.057 20.78 150.525 20.388 149.559 20.262L147.165 19.94C145.275 19.702 143.973 18.722 143.973 17.042C143.973 15.11 145.681 13.92 148.411 13.92C151.253 13.92 153.031 15.25 153.101 17.378H150.861C150.805 16.23 149.839 15.642 148.369 15.642C147.053 15.642 146.255 16.048 146.255 16.79C146.255 17.392 146.745 17.756 147.627 17.882L149.853 18.162C152.331 18.484 153.423 19.73 153.423 21.228C153.423 23.16 151.603 24.28 148.719 24.28ZM161.071 24.28C157.459 24.28 155.107 22.222 155.107 19.1C155.107 15.978 157.459 13.92 161.071 13.92C164.375 13.92 166.601 15.572 166.727 18.12L164.375 18.176C164.249 16.748 162.933 15.782 161.071 15.782C158.901 15.782 157.459 17.112 157.459 19.1C157.459 21.088 158.901 22.418 161.071 22.418C162.891 22.418 164.207 21.452 164.375 19.996L166.713 20.01C166.587 22.586 164.347 24.28 161.071 24.28ZM168.685 24V14.2H170.967V24H168.685ZM173.167 24V14.2H181.511V16.02H175.449V18.204H180.951V19.926H175.449V22.138H181.595V24H173.167ZM183.624 24V14.2H186.018L191.576 21.13L191.478 14.2H193.76V24H191.352L185.808 17.014L185.906 24H183.624ZM201.75 24.28C198.138 24.28 195.786 22.222 195.786 19.1C195.786 15.978 198.138 13.92 201.75 13.92C205.054 13.92 207.28 15.572 207.406 18.12L205.054 18.176C204.928 16.748 203.612 15.782 201.75 15.782C199.58 15.782 198.138 17.112 198.138 19.1C198.138 21.088 199.58 22.418 201.75 22.418C203.57 22.418 204.886 21.452 205.054 19.996L207.392 20.01C207.266 22.586 205.026 24.28 201.75 24.28ZM209.365 24V14.2H217.709V16.02H211.647V18.204H217.149V19.926H211.647V22.138H217.793V24H209.365Z" fill="white"/>
</svg>
