<svg width="235" height="38" viewBox="0 0 235 38" fill="none" xmlns="http://www.w3.org/2000/svg">
<path d="M0 19C0 8.50659 8.50659 0 19 0H216C226.493 0 235 8.50659 235 19C235 29.4934 226.493 38 216 38H19C8.50659 38 0 29.4934 0 19Z" fill="#BC0F0F"/>
<path d="M20.728 24V14.2H29.072V16.02H23.01V18.204H28.512V19.926H23.01V22.138H29.156V24H20.728ZM39.1627 24L36.2367 20.528L33.4087 24H30.8607L35.0047 19.058L30.9167 14.2H33.5767L36.4327 17.588L39.2327 14.2H41.7527L37.6507 19.044L41.8367 24H39.1627ZM43.6518 24V14.2H48.4818C51.3378 14.2 52.8218 15.348 52.8218 17.574C52.8218 19.8 51.3378 20.948 48.4818 20.948H45.9618V24H43.6518ZM45.9618 19.128H48.4678C49.7698 19.128 50.4698 18.596 50.4698 17.574C50.4698 16.566 49.7698 16.02 48.4678 16.02H45.9618V19.128ZM54.7378 24V14.2H57.0198V22.054H62.3818V24H54.7378ZM69.3752 24.28C65.8052 24.28 63.4952 22.236 63.4952 19.1C63.4952 15.95 65.8052 13.92 69.3752 13.92C72.9592 13.92 75.2552 15.95 75.2552 19.1C75.2552 22.236 72.9592 24.28 69.3752 24.28ZM69.3752 22.404C71.5032 22.404 72.9032 21.088 72.9032 19.1C72.9032 17.098 71.5032 15.782 69.3752 15.782C67.2332 15.782 65.8472 17.098 65.8472 19.1C65.8472 21.088 67.2332 22.404 69.3752 22.404ZM77.2788 24V14.2H82.3608C85.1608 14.2 86.6588 15.194 86.6588 17.014C86.6588 18.148 86.0568 18.96 84.9928 19.296C86.1688 19.576 86.7568 20.36 86.8128 21.746L86.8828 24H84.5028L84.4328 22.138C84.4048 20.99 83.8168 20.5 82.4588 20.5H79.5608V24H77.2788ZM82.2208 18.834C83.5368 18.834 84.2788 18.288 84.2788 17.35C84.2788 16.44 83.5508 15.908 82.2768 15.908H79.5608V18.834H82.2208ZM88.9936 24V14.2H97.3376V16.02H91.2756V18.204H96.7776V19.926H91.2756V22.138H97.4216V24H88.9936ZM106.152 24V16.16H102.708V14.2H111.92V16.16H108.476V24H106.152ZM121.167 24V19.982H116.113V24H113.789V14.2H116.113V18.064H121.167V14.2H123.505V24H121.167ZM125.708 24V14.2H134.052V16.02H127.99V18.204H133.492V19.926H127.99V22.138H134.136V24H125.708ZM144.617 24.28C141.509 24.28 139.521 22.866 139.479 20.626H141.747C141.803 21.872 142.895 22.53 144.673 22.53C146.101 22.53 146.955 22.138 146.955 21.396C146.955 20.78 146.423 20.388 145.457 20.262L143.063 19.94C141.173 19.702 139.871 18.722 139.871 17.042C139.871 15.11 141.579 13.92 144.309 13.92C147.151 13.92 148.929 15.25 148.999 17.378H146.759C146.703 16.23 145.737 15.642 144.267 15.642C142.951 15.642 142.153 16.048 142.153 16.79C142.153 17.392 142.643 17.756 143.525 17.882L145.751 18.162C148.229 18.484 149.321 19.73 149.321 21.228C149.321 23.16 147.501 24.28 144.617 24.28ZM156.969 24.28C153.357 24.28 151.005 22.222 151.005 19.1C151.005 15.978 153.357 13.92 156.969 13.92C160.273 13.92 162.499 15.572 162.625 18.12L160.273 18.176C160.147 16.748 158.831 15.782 156.969 15.782C154.799 15.782 153.357 17.112 153.357 19.1C153.357 21.088 154.799 22.418 156.969 22.418C158.789 22.418 160.105 21.452 160.273 19.996L162.611 20.01C162.485 22.586 160.245 24.28 156.969 24.28ZM164.583 24V14.2H166.865V24H164.583ZM169.066 24V14.2H177.41V16.02H171.348V18.204H176.85V19.926H171.348V22.138H177.494V24H169.066ZM179.523 24V14.2H181.917L187.475 21.13L187.377 14.2H189.659V24H187.251L181.707 17.014L181.805 24H179.523ZM197.649 24.28C194.037 24.28 191.685 22.222 191.685 19.1C191.685 15.978 194.037 13.92 197.649 13.92C200.953 13.92 203.179 15.572 203.305 18.12L200.953 18.176C200.827 16.748 199.511 15.782 197.649 15.782C195.479 15.782 194.037 17.112 194.037 19.1C194.037 21.088 195.479 22.418 197.649 22.418C199.469 22.418 200.785 21.452 200.953 19.996L203.291 20.01C203.165 22.586 200.925 24.28 197.649 24.28ZM205.263 24V14.2H213.607V16.02H207.545V18.204H213.047V19.926H207.545V22.138H213.691V24H205.263Z" fill="white"/>
</svg>
