<svg width="59" height="32" viewBox="0 0 59 32" fill="none" xmlns="http://www.w3.org/2000/svg">
<path d="M0 16C0 7.16344 7.16344 0 16 0H43C51.8366 0 59 7.16344 59 16C59 24.8366 51.8366 32 43 32H16C7.16344 32 0 24.8366 0 16Z" fill="black"/>
<path d="M22.454 21.182C19.472 21.182 16.546 19.572 16.546 16.156C16.546 12.992 18.982 10.92 22.72 10.92C25.8 10.92 28.054 12.39 28.418 14.616L26.066 14.686C25.702 13.496 24.358 12.726 22.72 12.726C20.41 12.726 18.884 14.042 18.884 16.1C18.884 18.144 20.368 19.376 22.776 19.376C24.568 19.376 25.94 18.606 26.346 17.388H21.81V15.526H28.502V21H26.276L26.29 20.062C25.156 20.944 23.602 21.182 22.454 21.182ZM36.3283 21.28C32.7583 21.28 30.4483 19.236 30.4483 16.1C30.4483 12.95 32.7583 10.92 36.3283 10.92C39.9123 10.92 42.2083 12.95 42.2083 16.1C42.2083 19.236 39.9123 21.28 36.3283 21.28ZM36.3283 19.404C38.4563 19.404 39.8563 18.088 39.8563 16.1C39.8563 14.098 38.4563 12.782 36.3283 12.782C34.1863 12.782 32.8003 14.098 32.8003 16.1C32.8003 18.088 34.1863 19.404 36.3283 19.404Z" fill="white"/>
</svg>
