<svg width="53" height="34" viewBox="0 0 53 34" fill="none" xmlns="http://www.w3.org/2000/svg">
<path d="M0.728 21V11.2H3.01V19.054H8.372V21H0.728ZM15.3655 21.28C11.7955 21.28 9.48545 19.236 9.48545 16.1C9.48545 12.95 11.7955 10.92 15.3655 10.92C18.9495 10.92 21.2455 12.95 21.2455 16.1C21.2455 19.236 18.9495 21.28 15.3655 21.28ZM15.3655 19.404C17.4935 19.404 18.8935 18.088 18.8935 16.1C18.8935 14.098 17.4935 12.782 15.3655 12.782C13.2235 12.782 11.8375 14.098 11.8375 16.1C11.8375 18.088 13.2235 19.404 15.3655 19.404ZM28.995 21.182C26.013 21.182 23.087 19.572 23.087 16.156C23.087 12.992 25.523 10.92 29.261 10.92C32.341 10.92 34.595 12.39 34.959 14.616L32.607 14.686C32.243 13.496 30.899 12.726 29.261 12.726C26.951 12.726 25.425 14.042 25.425 16.1C25.425 18.144 26.909 19.376 29.317 19.376C31.109 19.376 32.481 18.606 32.887 17.388H28.351V15.526H35.043V21H32.817L32.831 20.062C31.697 20.944 30.143 21.182 28.995 21.182ZM37.185 21V11.2H39.467V21H37.185ZM41.6675 21V11.2H44.0615L49.6195 18.13L49.5215 11.2H51.8035V21H49.3955L43.8515 14.014L43.9495 21H41.6675Z" fill="#414141"/>
<line y1="25.5" x2="53" y2="25.5" stroke="#A0A0A0"/>
</svg>
