<svg width="64" height="34" viewBox="0 0 64 34" fill="none" xmlns="http://www.w3.org/2000/svg">
<path d="M4.55 21.238C2.31 21.238 0.7 19.88 0.686 17.934L2.03 17.836C2.072 19.222 3.122 20.146 4.564 20.146C5.936 20.146 6.902 19.46 6.902 18.424C6.902 17.542 6.342 17.094 5.096 16.814L3.822 16.576C2.016 16.226 1.008 15.246 1.008 13.804C1.008 12.082 2.408 10.962 4.396 10.962C6.44 10.962 7.938 12.278 7.994 14.168L6.636 14.252C6.58 12.922 5.67 12.04 4.382 12.04C3.22 12.04 2.38 12.712 2.38 13.706C2.38 14.518 2.968 15.036 3.948 15.26L5.222 15.498C7.266 15.89 8.274 16.8 8.274 18.34C8.274 20.062 6.748 21.238 4.55 21.238ZM9.78108 21V11.2H11.1111V15.568C11.4331 14.476 12.2171 13.832 13.3931 13.832C14.9331 13.832 15.9131 14.938 15.9131 16.702V21H14.5831V16.898C14.5831 15.624 13.9951 14.91 12.9451 14.91C11.7551 14.91 11.1111 15.792 11.1111 17.388V21H9.78108ZM20.8097 21.21C18.7377 21.21 17.2537 19.67 17.2537 17.5C17.2537 15.33 18.7377 13.804 20.8097 13.804C22.8817 13.804 24.3517 15.33 24.3517 17.5C24.3517 19.67 22.8817 21.21 20.8097 21.21ZM20.8097 20.09C22.1117 20.09 23.0077 19.026 23.0077 17.5C23.0077 15.988 22.1117 14.924 20.8097 14.924C19.4937 14.924 18.5977 15.988 18.5977 17.5C18.5977 19.026 19.4937 20.09 20.8097 20.09ZM25.8045 23.66V14.014H27.1345V15.19C27.6525 14.322 28.5205 13.832 29.5985 13.832C31.4745 13.832 32.8325 15.358 32.8325 17.514C32.8325 19.656 31.4745 21.182 29.5985 21.182C28.5205 21.182 27.6525 20.692 27.1345 19.824V23.66H25.8045ZM29.2625 14.924C27.9605 14.924 27.0505 15.974 27.0505 17.514C27.0505 19.04 27.9605 20.09 29.2625 20.09C30.5505 20.09 31.4885 19.012 31.4885 17.514C31.4885 16.016 30.5505 14.924 29.2625 14.924ZM37.0428 21V14.014H38.3728L38.3308 15.722C38.6248 14.532 39.4228 13.832 40.6548 13.832C42.1948 13.832 43.1748 14.938 43.1748 16.702V21H41.8448V16.898C41.8448 15.624 41.2568 14.91 40.2068 14.91C39.0168 14.91 38.3728 15.792 38.3728 17.388V21H37.0428ZM48.0714 21.21C45.9994 21.21 44.5154 19.67 44.5154 17.5C44.5154 15.33 45.9994 13.804 48.0714 13.804C50.1434 13.804 51.6134 15.33 51.6134 17.5C51.6134 19.67 50.1434 21.21 48.0714 21.21ZM48.0714 20.09C49.3734 20.09 50.2694 19.026 50.2694 17.5C50.2694 15.988 49.3734 14.924 48.0714 14.924C46.7554 14.924 45.8594 15.988 45.8594 17.5C45.8594 19.026 46.7554 20.09 48.0714 20.09ZM54.6421 21L52.2481 14.014H53.6761L55.4401 19.516L57.1201 14.014H58.5901L60.2841 19.516L62.0481 14.014H63.4481L61.0541 21H59.5701L57.8621 15.456L56.1401 21H54.6421Z" fill="white"/>
<line y1="25.5" x2="64" y2="25.5" stroke="white"/>
</svg>
