<svg width="265" height="40" viewBox="0 0 265 40" fill="none" xmlns="http://www.w3.org/2000/svg">
<path d="M20 1H245C255.493 1 264 9.50659 264 20C264 30.4934 255.493 39 245 39H20C9.50659 39 1 30.4934 1 20C1 9.50659 9.50659 1 20 1Z" stroke="white" stroke-width="2"/>
<path d="M20.832 26V14.8H30.368V16.88H23.44V19.376H29.728V21.344H23.44V23.872H30.464V26H20.832ZM41.7931 26L38.4491 22.032L35.2171 26H32.3051L37.0411 20.352L32.3691 14.8H35.4091L38.6731 18.672L41.8731 14.8H44.7531L40.0651 20.336L44.8491 26H41.7931ZM46.8164 26V14.8H52.3364C55.6004 14.8 57.2964 16.112 57.2964 18.656C57.2964 21.2 55.6004 22.512 52.3364 22.512H49.4564V26H46.8164ZM49.4564 20.432H52.3204C53.8084 20.432 54.6084 19.824 54.6084 18.656C54.6084 17.504 53.8084 16.88 52.3204 16.88H49.4564V20.432ZM59.3789 26V14.8H61.9869V23.776H68.1149V26H59.3789ZM76.0003 26.32C71.9203 26.32 69.2803 23.984 69.2803 20.4C69.2803 16.8 71.9203 14.48 76.0003 14.48C80.0963 14.48 82.7203 16.8 82.7203 20.4C82.7203 23.984 80.0963 26.32 76.0003 26.32ZM76.0003 24.176C78.4323 24.176 80.0323 22.672 80.0323 20.4C80.0323 18.112 78.4323 16.608 76.0003 16.608C73.5523 16.608 71.9683 18.112 71.9683 20.4C71.9683 22.672 73.5523 24.176 76.0003 24.176ZM84.9258 26V14.8H90.7338C93.9338 14.8 95.6458 15.936 95.6458 18.016C95.6458 19.312 94.9578 20.24 93.7418 20.624C95.0858 20.944 95.7578 21.84 95.8218 23.424L95.9018 26H93.1818L93.1018 23.872C93.0698 22.56 92.3978 22 90.8458 22H87.5338V26H84.9258ZM90.5738 20.096C92.0778 20.096 92.9258 19.472 92.9258 18.4C92.9258 17.36 92.0938 16.752 90.6378 16.752H87.5338V20.096H90.5738ZM98.207 26V14.8H107.743V16.88H100.815V19.376H107.103V21.344H100.815V23.872H107.839V26H98.207ZM120.563 26.32C116.483 26.32 113.843 23.984 113.843 20.4C113.843 16.8 116.483 14.48 120.563 14.48C124.659 14.48 127.283 16.8 127.283 20.4C127.283 23.984 124.659 26.32 120.563 26.32ZM120.563 24.176C122.995 24.176 124.595 22.672 124.595 20.4C124.595 18.112 122.995 16.608 120.563 16.608C118.115 16.608 116.531 18.112 116.531 20.4C116.531 22.672 118.115 24.176 120.563 24.176ZM135.056 26.32C131.152 26.32 129.408 24.704 129.408 21.104V14.8H132.064V20.896C132.064 23.12 133.008 24.128 135.072 24.128C137.168 24.128 138.128 23.12 138.128 20.896V14.8H140.72V21.104C140.72 24.704 138.96 26.32 135.056 26.32ZM143.051 26V14.8H148.859C152.059 14.8 153.771 15.936 153.771 18.016C153.771 19.312 153.083 20.24 151.867 20.624C153.211 20.944 153.883 21.84 153.947 23.424L154.027 26H151.307L151.227 23.872C151.195 22.56 150.523 22 148.971 22H145.659V26H143.051ZM148.699 20.096C150.203 20.096 151.051 19.472 151.051 18.4C151.051 17.36 150.219 16.752 148.763 16.752H145.659V20.096H148.699ZM165.822 26.32C162.27 26.32 159.998 24.704 159.95 22.144H162.542C162.606 23.568 163.854 24.32 165.886 24.32C167.517 24.32 168.494 23.872 168.494 23.024C168.494 22.32 167.885 21.872 166.782 21.728L164.046 21.36C161.886 21.088 160.398 19.968 160.398 18.048C160.398 15.84 162.35 14.48 165.47 14.48C168.718 14.48 170.75 16 170.83 18.432H168.27C168.206 17.12 167.102 16.448 165.422 16.448C163.918 16.448 163.006 16.912 163.006 17.76C163.006 18.448 163.566 18.864 164.574 19.008L167.118 19.328C169.95 19.696 171.198 21.12 171.198 22.832C171.198 25.04 169.118 26.32 165.822 26.32ZM179.831 26.32C175.703 26.32 173.015 23.968 173.015 20.4C173.015 16.832 175.703 14.48 179.831 14.48C183.607 14.48 186.151 16.368 186.295 19.28L183.607 19.344C183.463 17.712 181.959 16.608 179.831 16.608C177.351 16.608 175.703 18.128 175.703 20.4C175.703 22.672 177.351 24.192 179.831 24.192C181.911 24.192 183.415 23.088 183.607 21.424L186.279 21.44C186.135 24.384 183.575 26.32 179.831 26.32ZM188.426 26V14.8H191.034V26H188.426ZM193.441 26V14.8H202.977V16.88H196.049V19.376H202.337V21.344H196.049V23.872H203.073V26H193.441ZM205.285 26V14.8H208.021L214.373 22.72L214.261 14.8H216.869V26H214.117L207.781 18.016L207.893 26H205.285ZM225.893 26.32C221.765 26.32 219.077 23.968 219.077 20.4C219.077 16.832 221.765 14.48 225.893 14.48C229.669 14.48 232.213 16.368 232.357 19.28L229.669 19.344C229.525 17.712 228.021 16.608 225.893 16.608C223.413 16.608 221.765 18.128 221.765 20.4C221.765 22.672 223.413 24.192 225.893 24.192C227.973 24.192 229.477 23.088 229.669 21.424L232.341 21.44C232.197 24.384 229.637 26.32 225.893 26.32ZM234.488 26V14.8H244.024V16.88H237.096V19.376H243.384V21.344H237.096V23.872H244.12V26H234.488Z" fill="white"/>
</svg>
