<svg width="131" height="38" viewBox="0 0 131 38" fill="none" xmlns="http://www.w3.org/2000/svg">
<path d="M8.106 24V19.982H3.052V24H0.728V14.2H3.052V18.064H8.106V14.2H10.444V24H8.106ZM18.3459 24.28C14.7759 24.28 12.4659 22.236 12.4659 19.1C12.4659 15.95 14.7759 13.92 18.3459 13.92C21.9299 13.92 24.2259 15.95 24.2259 19.1C24.2259 22.236 21.9299 24.28 18.3459 24.28ZM18.3459 22.404C20.4739 22.404 21.8739 21.088 21.8739 19.1C21.8739 17.098 20.4739 15.782 18.3459 15.782C16.2039 15.782 14.8179 17.098 14.8179 19.1C14.8179 21.088 16.2039 22.404 18.3459 22.404ZM28.3105 24L25.1465 14.2H27.6525L29.8365 21.508L32.2305 14.2H34.9045L37.3265 21.508L39.5105 14.2H41.9605L38.7685 24H36.0525L33.5605 16.58L31.0685 24H28.3105ZM47.3139 24V14.2H49.5959V24H47.3139ZM54.9044 24V16.16H51.4604V14.2H60.6724V16.16H57.2284V24H54.9044ZM68.8379 24L65.6739 14.2H68.1799L70.3639 21.508L72.7579 14.2H75.4319L77.8539 21.508L80.0379 14.2H82.4879L79.2959 24H76.5799L74.0879 16.58L71.5959 24H68.8379ZM89.2893 24.28C85.7193 24.28 83.4093 22.236 83.4093 19.1C83.4093 15.95 85.7193 13.92 89.2893 13.92C92.8733 13.92 95.1693 15.95 95.1693 19.1C95.1693 22.236 92.8733 24.28 89.2893 24.28ZM89.2893 22.404C91.4173 22.404 92.8173 21.088 92.8173 19.1C92.8173 17.098 91.4173 15.782 89.2893 15.782C87.1473 15.782 85.7613 17.098 85.7613 19.1C85.7613 21.088 87.1473 22.404 89.2893 22.404ZM97.1928 24V14.2H102.275C105.075 14.2 106.573 15.194 106.573 17.014C106.573 18.148 105.971 18.96 104.907 19.296C106.083 19.576 106.671 20.36 106.727 21.746L106.797 24H104.417L104.347 22.138C104.319 20.99 103.731 20.5 102.373 20.5H99.4748V24H97.1928ZM102.135 18.834C103.451 18.834 104.193 18.288 104.193 17.35C104.193 16.44 103.465 15.908 102.191 15.908H99.4748V18.834H102.135ZM108.908 24V14.2H111.232V18.554L116.062 14.2H118.918L114.522 18.204L119.058 24H116.118L112.856 19.716L111.232 21.186V24H108.908ZM124.934 24.28C121.826 24.28 119.838 22.866 119.796 20.626H122.064C122.12 21.872 123.212 22.53 124.99 22.53C126.418 22.53 127.272 22.138 127.272 21.396C127.272 20.78 126.74 20.388 125.774 20.262L123.38 19.94C121.49 19.702 120.188 18.722 120.188 17.042C120.188 15.11 121.896 13.92 124.626 13.92C127.468 13.92 129.246 15.25 129.316 17.378H127.076C127.02 16.23 126.054 15.642 124.584 15.642C123.268 15.642 122.47 16.048 122.47 16.79C122.47 17.392 122.96 17.756 123.842 17.882L126.068 18.162C128.546 18.484 129.638 19.73 129.638 21.228C129.638 23.16 127.818 24.28 124.934 24.28Z" fill="white"/>
</svg>
