<svg width="72" height="34" viewBox="0 0 72 34" fill="none" xmlns="http://www.w3.org/2000/svg">
<path d="M5.586 21.28C2.478 21.28 0.49 19.866 0.448 17.626H2.716C2.772 18.872 3.864 19.53 5.642 19.53C7.07 19.53 7.924 19.138 7.924 18.396C7.924 17.78 7.392 17.388 6.426 17.262L4.032 16.94C2.142 16.702 0.84 15.722 0.84 14.042C0.84 12.11 2.548 10.92 5.278 10.92C8.12 10.92 9.898 12.25 9.968 14.378H7.728C7.672 13.23 6.706 12.642 5.236 12.642C3.92 12.642 3.122 13.048 3.122 13.79C3.122 14.392 3.612 14.756 4.494 14.882L6.72 15.162C9.198 15.484 10.29 16.73 10.29 18.228C10.29 20.16 8.47 21.28 5.586 21.28ZM12.2241 21V11.2H20.5681V13.02H14.5061V15.204H20.0081V16.926H14.5061V19.138H20.6521V21H12.2241ZM22.3301 21L26.7961 11.2H29.6661L34.1461 21H31.7101L30.6321 18.578H25.7741L24.6961 21H22.3301ZM26.5301 16.898H29.8761L28.2101 13.146L26.5301 16.898ZM35.9409 21V11.2H41.0229C43.8229 11.2 45.3209 12.194 45.3209 14.014C45.3209 15.148 44.7189 15.96 43.6549 16.296C44.8309 16.576 45.4189 17.36 45.4749 18.746L45.5449 21H43.1649L43.0949 19.138C43.0669 17.99 42.4789 17.5 41.1209 17.5H38.2229V21H35.9409ZM40.8829 15.834C42.1989 15.834 42.9409 15.288 42.9409 14.35C42.9409 13.44 42.2129 12.908 40.9389 12.908H38.2229V15.834H40.8829ZM53.26 21.28C49.648 21.28 47.296 19.222 47.296 16.1C47.296 12.978 49.648 10.92 53.26 10.92C56.564 10.92 58.79 12.572 58.916 15.12L56.564 15.176C56.438 13.748 55.122 12.782 53.26 12.782C51.09 12.782 49.648 14.112 49.648 16.1C49.648 18.088 51.09 19.418 53.26 19.418C55.08 19.418 56.396 18.452 56.564 16.996L58.902 17.01C58.776 19.586 56.536 21.28 53.26 21.28ZM68.2525 21V16.982H63.1985V21H60.8745V11.2H63.1985V15.064H68.2525V11.2H70.5905V21H68.2525Z" fill="#414141"/>
<line y1="25.5" x2="72" y2="25.5" stroke="#A0A0A0"/>
</svg>
