<svg width="133" height="34" viewBox="0 0 133 34" fill="none" xmlns="http://www.w3.org/2000/svg">
<path d="M0.728 21V11.2H5.558C8.414 11.2 9.898 12.348 9.898 14.574C9.898 16.8 8.414 17.948 5.558 17.948H3.038V21H0.728ZM3.038 16.128H5.544C6.846 16.128 7.546 15.596 7.546 14.574C7.546 13.566 6.846 13.02 5.544 13.02H3.038V16.128ZM11.8139 21V11.2H16.8959C19.6959 11.2 21.1939 12.194 21.1939 14.014C21.1939 15.148 20.5919 15.96 19.5279 16.296C20.7039 16.576 21.2919 17.36 21.3479 18.746L21.4179 21H19.0379L18.9679 19.138C18.9399 17.99 18.3519 17.5 16.9939 17.5H14.0959V21H11.8139ZM16.7559 15.834C18.0719 15.834 18.8139 15.288 18.8139 14.35C18.8139 13.44 18.0859 12.908 16.8119 12.908H14.0959V15.834H16.7559ZM29.049 21.28C25.479 21.28 23.169 19.236 23.169 16.1C23.169 12.95 25.479 10.92 29.049 10.92C32.633 10.92 34.929 12.95 34.929 16.1C34.929 19.236 32.633 21.28 29.049 21.28ZM29.049 19.404C31.177 19.404 32.577 18.088 32.577 16.1C32.577 14.098 31.177 12.782 29.049 12.782C26.907 12.782 25.521 14.098 25.521 16.1C25.521 18.088 26.907 19.404 29.049 19.404ZM36.9526 21V11.2H45.1006V13.118H39.2766V15.596H44.7786V17.486H39.2766V21H36.9526ZM47.0268 21V11.2H55.3708V13.02H49.3088V15.204H54.8108V16.926H49.3088V19.138H55.4548V21H47.0268ZM62.2188 21.28C59.1108 21.28 57.1228 19.866 57.0808 17.626H59.3488C59.4048 18.872 60.4968 19.53 62.2748 19.53C63.7028 19.53 64.5568 19.138 64.5568 18.396C64.5568 17.78 64.0248 17.388 63.0588 17.262L60.6648 16.94C58.7748 16.702 57.4728 15.722 57.4728 14.042C57.4728 12.11 59.1808 10.92 61.9108 10.92C64.7528 10.92 66.5308 12.25 66.6008 14.378H64.3608C64.3048 13.23 63.3388 12.642 61.8688 12.642C60.5528 12.642 59.7548 13.048 59.7548 13.79C59.7548 14.392 60.2448 14.756 61.1268 14.882L63.3528 15.162C65.8308 15.484 66.9228 16.73 66.9228 18.228C66.9228 20.16 65.1028 21.28 62.2188 21.28ZM73.8243 21.28C70.7163 21.28 68.7283 19.866 68.6863 17.626H70.9543C71.0103 18.872 72.1023 19.53 73.8803 19.53C75.3083 19.53 76.1623 19.138 76.1623 18.396C76.1623 17.78 75.6303 17.388 74.6643 17.262L72.2703 16.94C70.3803 16.702 69.0783 15.722 69.0783 14.042C69.0783 12.11 70.7863 10.92 73.5163 10.92C76.3583 10.92 78.1363 12.25 78.2063 14.378H75.9663C75.9103 13.23 74.9443 12.642 73.4743 12.642C72.1583 12.642 71.3603 13.048 71.3603 13.79C71.3603 14.392 71.8503 14.756 72.7323 14.882L74.9583 15.162C77.4363 15.484 78.5283 16.73 78.5283 18.228C78.5283 20.16 76.7083 21.28 73.8243 21.28ZM80.4624 21V11.2H82.7444V21H80.4624ZM90.6428 21.28C87.0728 21.28 84.7628 19.236 84.7628 16.1C84.7628 12.95 87.0728 10.92 90.6428 10.92C94.2268 10.92 96.5228 12.95 96.5228 16.1C96.5228 19.236 94.2268 21.28 90.6428 21.28ZM90.6428 19.404C92.7708 19.404 94.1708 18.088 94.1708 16.1C94.1708 14.098 92.7708 12.782 90.6428 12.782C88.5008 12.782 87.1148 14.098 87.1148 16.1C87.1148 18.088 88.5008 19.404 90.6428 19.404ZM98.5464 21V11.2H100.94L106.498 18.13L106.4 11.2H108.682V21H106.274L100.73 14.014L100.828 21H98.5464ZM110.498 21L114.964 11.2H117.834L122.314 21H119.878L118.8 18.578H113.942L112.864 21H110.498ZM114.698 16.898H118.044L116.378 13.146L114.698 16.898ZM124.109 21V11.2H126.391V19.054H131.753V21H124.109Z" fill="#414141"/>
<line y1="25.5" x2="133" y2="25.5" stroke="#A0A0A0"/>
</svg>
