<svg width="240" height="48" viewBox="0 0 240 48" fill="none" xmlns="http://www.w3.org/2000/svg">
<path d="M0 24C0 10.7452 10.7452 0 24 0H216C229.255 0 240 10.7452 240 24C240 37.2548 229.255 48 216 48H24C10.7452 48 0 37.2548 0 24Z" fill="black"/>
<path d="M34.384 30.32C30.832 30.32 28.56 28.704 28.512 26.144H31.104C31.168 27.568 32.416 28.32 34.448 28.32C36.08 28.32 37.056 27.872 37.056 27.024C37.056 26.32 36.448 25.872 35.344 25.728L32.608 25.36C30.448 25.088 28.96 23.968 28.96 22.048C28.96 19.84 30.912 18.48 34.032 18.48C37.28 18.48 39.312 20 39.392 22.432H36.832C36.768 21.12 35.664 20.448 33.984 20.448C32.48 20.448 31.568 20.912 31.568 21.76C31.568 22.448 32.128 22.864 33.136 23.008L35.68 23.328C38.512 23.696 39.76 25.12 39.76 26.832C39.76 29.04 37.68 30.32 34.384 30.32ZM50.2953 30V25.408H44.5193V30H41.8633V18.8H44.5193V23.216H50.2953V18.8H52.9673V30H50.2953ZM61.8909 30.32C57.8109 30.32 55.1709 27.984 55.1709 24.4C55.1709 20.8 57.8109 18.48 61.8909 18.48C65.9869 18.48 68.6109 20.8 68.6109 24.4C68.6109 27.984 65.9869 30.32 61.8909 30.32ZM61.8909 28.176C64.3229 28.176 65.9229 26.672 65.9229 24.4C65.9229 22.112 64.3229 20.608 61.8909 20.608C59.4429 20.608 57.8589 22.112 57.8589 24.4C57.8589 26.672 59.4429 28.176 61.8909 28.176ZM70.8164 30V18.8H76.3364C79.6004 18.8 81.2964 20.112 81.2964 22.656C81.2964 25.2 79.6004 26.512 76.3364 26.512H73.4564V30H70.8164ZM73.4564 24.432H76.3204C77.8084 24.432 78.6084 23.824 78.6084 22.656C78.6084 21.504 77.8084 20.88 76.3204 20.88H73.4564V24.432ZM92.8684 30.32C89.3164 30.32 87.0444 28.704 86.9964 26.144H89.5884C89.6524 27.568 90.9004 28.32 92.9324 28.32C94.5644 28.32 95.5404 27.872 95.5404 27.024C95.5404 26.32 94.9324 25.872 93.8284 25.728L91.0924 25.36C88.9324 25.088 87.4444 23.968 87.4444 22.048C87.4444 19.84 89.3964 18.48 92.5164 18.48C95.7644 18.48 97.7964 20 97.8764 22.432H95.3164C95.2524 21.12 94.1484 20.448 92.4684 20.448C90.9644 20.448 90.0524 20.912 90.0524 21.76C90.0524 22.448 90.6124 22.864 91.6204 23.008L94.1644 23.328C96.9964 23.696 98.2444 25.12 98.2444 26.832C98.2444 29.04 96.1644 30.32 92.8684 30.32ZM105.884 30.32C101.98 30.32 100.236 28.704 100.236 25.104V18.8H102.892V24.896C102.892 27.12 103.836 28.128 105.9 28.128C107.996 28.128 108.956 27.12 108.956 24.896V18.8H111.548V25.104C111.548 28.704 109.788 30.32 105.884 30.32ZM113.879 30V18.8H119.399C122.663 18.8 124.359 20.112 124.359 22.656C124.359 25.2 122.663 26.512 119.399 26.512H116.519V30H113.879ZM116.519 24.432H119.383C120.871 24.432 121.671 23.824 121.671 22.656C121.671 21.504 120.871 20.88 119.383 20.88H116.519V24.432ZM126.441 30V18.8H135.977V20.88H129.049V23.376H135.337V25.344H129.049V27.872H136.073V30H126.441ZM138.285 30V18.8H144.093C147.293 18.8 149.005 19.936 149.005 22.016C149.005 23.312 148.317 24.24 147.101 24.624C148.445 24.944 149.117 25.84 149.181 27.424L149.261 30H146.541L146.461 27.872C146.429 26.56 145.757 26 144.205 26H140.893V30H138.285ZM143.933 24.096C145.437 24.096 146.285 23.472 146.285 22.4C146.285 21.36 145.453 20.752 143.997 20.752H140.893V24.096H143.933ZM151.566 30V18.8H157.758C160.446 18.8 161.966 19.824 161.966 21.648C161.966 22.976 161.15 23.92 159.726 24.16C161.502 24.304 162.51 25.312 162.51 26.912C162.51 28.88 160.974 30 158.286 30H151.566ZM157.838 28.256C159.086 28.256 159.79 27.696 159.79 26.72C159.79 25.744 159.086 25.184 157.838 25.184H154.174V28.256H157.838ZM154.174 23.504H157.358C158.606 23.504 159.31 22.96 159.31 22C159.31 21.056 158.606 20.528 157.358 20.528H154.174V23.504ZM164.598 30V18.8H174.134V20.88H167.206V23.376H173.494V25.344H167.206V27.872H174.23V30H164.598ZM176.441 30V18.8H185.977V20.88H179.049V23.376H185.337V25.344H179.049V27.872H186.073V30H176.441ZM191.915 30V21.04H187.979V18.8H198.507V21.04H194.571V30H191.915ZM205.743 30.32C202.191 30.32 199.919 28.704 199.871 26.144H202.463C202.527 27.568 203.775 28.32 205.807 28.32C207.439 28.32 208.415 27.872 208.415 27.024C208.415 26.32 207.807 25.872 206.703 25.728L203.967 25.36C201.807 25.088 200.319 23.968 200.319 22.048C200.319 19.84 202.271 18.48 205.391 18.48C208.639 18.48 210.671 20 210.751 22.432H208.191C208.127 21.12 207.023 20.448 205.343 20.448C203.839 20.448 202.927 20.912 202.927 21.76C202.927 22.448 203.487 22.864 204.495 23.008L207.039 23.328C209.871 23.696 211.119 25.12 211.119 26.832C211.119 29.04 209.039 30.32 205.743 30.32Z" fill="white"/>
</svg>
