<svg width="224" height="40" viewBox="0 0 224 40" fill="none" xmlns="http://www.w3.org/2000/svg">
<path d="M0 20C0 8.95431 8.95431 0 20 0H204C215.046 0 224 8.95431 224 20C224 31.0457 215.046 40 204 40H20C8.95431 40 0 31.0457 0 20Z" fill="#BC0F0F"/>
<path d="M26.384 26.32C22.832 26.32 20.56 24.704 20.512 22.144H23.104C23.168 23.568 24.416 24.32 26.448 24.32C28.08 24.32 29.056 23.872 29.056 23.024C29.056 22.32 28.448 21.872 27.344 21.728L24.608 21.36C22.448 21.088 20.96 19.968 20.96 18.048C20.96 15.84 22.912 14.48 26.032 14.48C29.28 14.48 31.312 16 31.392 18.432H28.832C28.768 17.12 27.664 16.448 25.984 16.448C24.48 16.448 23.568 16.912 23.568 17.76C23.568 18.448 24.128 18.864 25.136 19.008L27.68 19.328C30.512 19.696 31.76 21.12 31.76 22.832C31.76 25.04 29.68 26.32 26.384 26.32ZM42.2953 26V21.408H36.5193V26H33.8633V14.8H36.5193V19.216H42.2953V14.8H44.9673V26H42.2953ZM53.8909 26.32C49.8109 26.32 47.1709 23.984 47.1709 20.4C47.1709 16.8 49.8109 14.48 53.8909 14.48C57.9869 14.48 60.6109 16.8 60.6109 20.4C60.6109 23.984 57.9869 26.32 53.8909 26.32ZM53.8909 24.176C56.3229 24.176 57.9229 22.672 57.9229 20.4C57.9229 18.112 56.3229 16.608 53.8909 16.608C51.4429 16.608 49.8589 18.112 49.8589 20.4C49.8589 22.672 51.4429 24.176 53.8909 24.176ZM62.8164 26V14.8H68.3364C71.6004 14.8 73.2964 16.112 73.2964 18.656C73.2964 21.2 71.6004 22.512 68.3364 22.512H65.4564V26H62.8164ZM65.4564 20.432H68.3204C69.8084 20.432 70.6084 19.824 70.6084 18.656C70.6084 17.504 69.8084 16.88 68.3204 16.88H65.4564V20.432ZM84.8684 26.32C81.3164 26.32 79.0444 24.704 78.9964 22.144H81.5884C81.6524 23.568 82.9004 24.32 84.9324 24.32C86.5644 24.32 87.5404 23.872 87.5404 23.024C87.5404 22.32 86.9324 21.872 85.8284 21.728L83.0924 21.36C80.9324 21.088 79.4444 19.968 79.4444 18.048C79.4444 15.84 81.3964 14.48 84.5164 14.48C87.7644 14.48 89.7964 16 89.8764 18.432H87.3164C87.2524 17.12 86.1484 16.448 84.4684 16.448C82.9644 16.448 82.0524 16.912 82.0524 17.76C82.0524 18.448 82.6124 18.864 83.6204 19.008L86.1644 19.328C88.9964 19.696 90.2444 21.12 90.2444 22.832C90.2444 25.04 88.1644 26.32 84.8684 26.32ZM97.8844 26.32C93.9804 26.32 92.2364 24.704 92.2364 21.104V14.8H94.8924V20.896C94.8924 23.12 95.8364 24.128 97.9004 24.128C99.9964 24.128 100.956 23.12 100.956 20.896V14.8H103.548V21.104C103.548 24.704 101.788 26.32 97.8844 26.32ZM105.879 26V14.8H111.399C114.663 14.8 116.359 16.112 116.359 18.656C116.359 21.2 114.663 22.512 111.399 22.512H108.519V26H105.879ZM108.519 20.432H111.383C112.871 20.432 113.671 19.824 113.671 18.656C113.671 17.504 112.871 16.88 111.383 16.88H108.519V20.432ZM118.441 26V14.8H127.977V16.88H121.049V19.376H127.337V21.344H121.049V23.872H128.073V26H118.441ZM130.285 26V14.8H136.093C139.293 14.8 141.005 15.936 141.005 18.016C141.005 19.312 140.317 20.24 139.101 20.624C140.445 20.944 141.117 21.84 141.181 23.424L141.261 26H138.541L138.461 23.872C138.429 22.56 137.757 22 136.205 22H132.893V26H130.285ZM135.933 20.096C137.437 20.096 138.285 19.472 138.285 18.4C138.285 17.36 137.453 16.752 135.997 16.752H132.893V20.096H135.933ZM143.566 26V14.8H149.758C152.446 14.8 153.966 15.824 153.966 17.648C153.966 18.976 153.15 19.92 151.726 20.16C153.502 20.304 154.51 21.312 154.51 22.912C154.51 24.88 152.974 26 150.286 26H143.566ZM149.838 24.256C151.086 24.256 151.79 23.696 151.79 22.72C151.79 21.744 151.086 21.184 149.838 21.184H146.174V24.256H149.838ZM146.174 19.504H149.358C150.606 19.504 151.31 18.96 151.31 18C151.31 17.056 150.606 16.528 149.358 16.528H146.174V19.504ZM156.598 26V14.8H166.134V16.88H159.206V19.376H165.494V21.344H159.206V23.872H166.23V26H156.598ZM168.441 26V14.8H177.977V16.88H171.049V19.376H177.337V21.344H171.049V23.872H178.073V26H168.441ZM183.915 26V17.04H179.979V14.8H190.507V17.04H186.571V26H183.915ZM197.743 26.32C194.191 26.32 191.919 24.704 191.871 22.144H194.463C194.527 23.568 195.775 24.32 197.807 24.32C199.439 24.32 200.415 23.872 200.415 23.024C200.415 22.32 199.807 21.872 198.703 21.728L195.967 21.36C193.807 21.088 192.319 19.968 192.319 18.048C192.319 15.84 194.271 14.48 197.391 14.48C200.639 14.48 202.671 16 202.751 18.432H200.191C200.127 17.12 199.023 16.448 197.343 16.448C195.839 16.448 194.927 16.912 194.927 17.76C194.927 18.448 195.487 18.864 196.495 19.008L199.039 19.328C201.871 19.696 203.119 21.12 203.119 22.832C203.119 25.04 201.039 26.32 197.743 26.32Z" fill="white"/>
</svg>
