<svg width="88" height="42" viewBox="0 0 88 42" fill="none" xmlns="http://www.w3.org/2000/svg">
<path d="M1.206 26V13.4H2.988V24.524H9.162V26H1.206ZM14.1603 26.306C11.5323 26.306 9.6423 24.29 9.6423 21.5C9.6423 18.728 11.5323 16.694 14.1423 16.694C17.2383 16.694 18.7503 19.484 18.4263 21.986H11.3703C11.4243 23.732 12.5763 24.974 14.1783 24.974C15.4203 24.974 16.4643 24.254 16.8063 23.174L18.2643 23.408C17.8683 25.064 16.2483 26.306 14.1603 26.306ZM11.3883 20.708H16.7703C16.7703 19.178 15.7083 17.99 14.1423 17.99C12.6483 17.99 11.5323 19.106 11.3883 20.708ZM22.2867 26.198C20.5947 26.198 19.3707 25.262 19.3707 23.696C19.3707 22.022 20.8107 21.122 23.5287 20.816L25.3647 20.618V20.258C25.3647 18.944 24.6267 18.116 23.3667 18.116C22.2147 18.116 21.4047 18.854 21.2967 20.096L19.6407 20.042C19.7847 18.08 21.2967 16.748 23.4207 16.748C25.5807 16.748 27.0387 18.152 27.0387 20.312V23.426C27.0387 24.398 27.1467 25.37 27.2727 26H25.6167C25.5087 25.586 25.4367 25.082 25.4367 24.146C25.0227 25.388 23.7987 26.198 22.2867 26.198ZM22.8087 25.01C24.2487 25.01 25.3827 23.912 25.3827 22.328V21.644L23.6547 21.86C21.9807 22.058 21.0807 22.508 21.0807 23.552C21.0807 24.542 21.8367 25.01 22.8087 25.01ZM28.6011 26V17.018H30.3111L30.2571 19.7C30.6351 17.486 32.1831 16.694 33.7311 16.982V18.656C31.8411 18.404 30.3111 19.52 30.3111 22.13V26H28.6011ZM34.6929 26V17.018H36.4029L36.3489 19.214C36.7269 17.684 37.7529 16.784 39.3369 16.784C41.3169 16.784 42.5769 18.206 42.5769 20.474V26H40.8669V20.726C40.8669 19.088 40.1109 18.17 38.7609 18.17C37.2309 18.17 36.4029 19.304 36.4029 21.356V26H34.6929ZM47.2456 26V17.018H48.9556L48.9016 19.25C49.2616 17.702 50.2876 16.784 51.8896 16.784C53.4196 16.784 54.5176 17.666 54.9136 19.142C55.2916 17.648 56.3536 16.784 57.9376 16.784C59.8636 16.784 61.0876 18.17 61.0876 20.384V26H59.3776V20.726C59.3776 19.088 58.6576 18.17 57.3616 18.17C55.9036 18.17 55.0756 19.304 55.0756 21.356V26H53.3836V20.726C53.3836 19.088 52.6276 18.17 51.2956 18.17C49.7836 18.17 48.9556 19.304 48.9556 21.356V26H47.2456ZM66.8842 26.27C64.2202 26.27 62.3122 24.29 62.3122 21.5C62.3122 18.71 64.2202 16.748 66.8842 16.748C69.5482 16.748 71.4382 18.71 71.4382 21.5C71.4382 24.29 69.5482 26.27 66.8842 26.27ZM66.8842 24.83C68.5582 24.83 69.7102 23.462 69.7102 21.5C69.7102 19.556 68.5582 18.188 66.8842 18.188C65.1922 18.188 64.0402 19.556 64.0402 21.5C64.0402 23.462 65.1922 24.83 66.8842 24.83ZM72.7358 26V17.018H74.4458L74.3918 19.7C74.7698 17.486 76.3178 16.694 77.8658 16.982V18.656C75.9758 18.404 74.4458 19.52 74.4458 22.13V26H72.7358ZM82.7052 26.306C80.0772 26.306 78.1872 24.29 78.1872 21.5C78.1872 18.728 80.0772 16.694 82.6872 16.694C85.7832 16.694 87.2952 19.484 86.9712 21.986H79.9152C79.9692 23.732 81.1212 24.974 82.7232 24.974C83.9652 24.974 85.0092 24.254 85.3512 23.174L86.8092 23.408C86.4132 25.064 84.7932 26.306 82.7052 26.306ZM79.9332 20.708H85.3152C85.3152 19.178 84.2532 17.99 82.6872 17.99C81.1932 17.99 80.0772 19.106 79.9332 20.708Z" fill="#414141"/>
<line y1="33.5" x2="88" y2="33.5" stroke="#414141"/>
</svg>
