<svg width="277" height="48" viewBox="0 0 277 48" fill="none" xmlns="http://www.w3.org/2000/svg">
<path d="M0 24C0 10.7452 10.7452 0 24 0H253C266.255 0 277 10.7452 277 24C277 37.2548 266.255 48 253 48H24C10.7452 48 0 37.2548 0 24Z" fill="black"/>
<path d="M28.832 30V18.8H38.368V20.88H31.44V23.376H37.728V25.344H31.44V27.872H38.464V30H28.832ZM49.7931 30L46.4491 26.032L43.2171 30H40.3051L45.0411 24.352L40.3691 18.8H43.4091L46.6731 22.672L49.8731 18.8H52.7531L48.0651 24.336L52.8491 30H49.7931ZM54.8164 30V18.8H60.3364C63.6004 18.8 65.2964 20.112 65.2964 22.656C65.2964 25.2 63.6004 26.512 60.3364 26.512H57.4564V30H54.8164ZM57.4564 24.432H60.3204C61.8084 24.432 62.6084 23.824 62.6084 22.656C62.6084 21.504 61.8084 20.88 60.3204 20.88H57.4564V24.432ZM67.3789 30V18.8H69.9869V27.776H76.1149V30H67.3789ZM84.0003 30.32C79.9203 30.32 77.2803 27.984 77.2803 24.4C77.2803 20.8 79.9203 18.48 84.0003 18.48C88.0963 18.48 90.7203 20.8 90.7203 24.4C90.7203 27.984 88.0963 30.32 84.0003 30.32ZM84.0003 28.176C86.4323 28.176 88.0323 26.672 88.0323 24.4C88.0323 22.112 86.4323 20.608 84.0003 20.608C81.5523 20.608 79.9683 22.112 79.9683 24.4C79.9683 26.672 81.5523 28.176 84.0003 28.176ZM92.9258 30V18.8H98.7338C101.934 18.8 103.646 19.936 103.646 22.016C103.646 23.312 102.958 24.24 101.742 24.624C103.086 24.944 103.758 25.84 103.822 27.424L103.902 30H101.182L101.102 27.872C101.07 26.56 100.398 26 98.8458 26H95.5338V30H92.9258ZM98.5738 24.096C100.078 24.096 100.926 23.472 100.926 22.4C100.926 21.36 100.094 20.752 98.6378 20.752H95.5338V24.096H98.5738ZM106.207 30V18.8H115.743V20.88H108.815V23.376H115.103V25.344H108.815V27.872H115.839V30H106.207ZM125.603 30V21.04H121.667V18.8H132.195V21.04H128.259V30H125.603ZM142.655 30V25.408H136.879V30H134.223V18.8H136.879V23.216H142.655V18.8H145.327V30H142.655ZM147.738 30V18.8H157.274V20.88H150.346V23.376H156.634V25.344H150.346V27.872H157.37V30H147.738ZM169.134 30.32C165.582 30.32 163.31 28.704 163.262 26.144H165.854C165.918 27.568 167.166 28.32 169.198 28.32C170.83 28.32 171.806 27.872 171.806 27.024C171.806 26.32 171.198 25.872 170.094 25.728L167.358 25.36C165.198 25.088 163.71 23.968 163.71 22.048C163.71 19.84 165.662 18.48 168.782 18.48C172.03 18.48 174.062 20 174.142 22.432H171.582C171.518 21.12 170.414 20.448 168.734 20.448C167.23 20.448 166.318 20.912 166.318 21.76C166.318 22.448 166.878 22.864 167.886 23.008L170.43 23.328C173.262 23.696 174.51 25.12 174.51 26.832C174.51 29.04 172.43 30.32 169.134 30.32ZM183.143 30.32C179.015 30.32 176.327 27.968 176.327 24.4C176.327 20.832 179.015 18.48 183.143 18.48C186.919 18.48 189.463 20.368 189.607 23.28L186.919 23.344C186.775 21.712 185.271 20.608 183.143 20.608C180.663 20.608 179.015 22.128 179.015 24.4C179.015 26.672 180.663 28.192 183.143 28.192C185.223 28.192 186.727 27.088 186.919 25.424L189.591 25.44C189.447 28.384 186.887 30.32 183.143 30.32ZM191.738 30V18.8H194.346V30H191.738ZM196.754 30V18.8H206.29V20.88H199.362V23.376H205.65V25.344H199.362V27.872H206.386V30H196.754ZM208.598 30V18.8H211.334L217.686 26.72L217.574 18.8H220.182V30H217.43L211.094 22.016L211.206 30H208.598ZM229.206 30.32C225.078 30.32 222.39 27.968 222.39 24.4C222.39 20.832 225.078 18.48 229.206 18.48C232.982 18.48 235.526 20.368 235.67 23.28L232.982 23.344C232.838 21.712 231.334 20.608 229.206 20.608C226.726 20.608 225.078 22.128 225.078 24.4C225.078 26.672 226.726 28.192 229.206 28.192C231.286 28.192 232.79 27.088 232.982 25.424L235.654 25.44C235.51 28.384 232.95 30.32 229.206 30.32ZM237.801 30V18.8H247.337V20.88H240.409V23.376H246.697V25.344H240.409V27.872H247.433V30H237.801Z" fill="white"/>
</svg>
