<svg width="95" height="34" viewBox="0 0 95 34" fill="none" xmlns="http://www.w3.org/2000/svg">
<path d="M5.586 21.28C2.478 21.28 0.49 19.866 0.448 17.626H2.716C2.772 18.872 3.864 19.53 5.642 19.53C7.07 19.53 7.924 19.138 7.924 18.396C7.924 17.78 7.392 17.388 6.426 17.262L4.032 16.94C2.142 16.702 0.84 15.722 0.84 14.042C0.84 12.11 2.548 10.92 5.278 10.92C8.12 10.92 9.898 12.25 9.968 14.378H7.728C7.672 13.23 6.706 12.642 5.236 12.642C3.92 12.642 3.122 13.048 3.122 13.79C3.122 14.392 3.612 14.756 4.494 14.882L6.72 15.162C9.198 15.484 10.29 16.73 10.29 18.228C10.29 20.16 8.47 21.28 5.586 21.28ZM19.6021 21V16.982H14.5481V21H12.2241V11.2H14.5481V15.064H19.6021V11.2H21.9401V21H19.6021ZM29.842 21.28C26.272 21.28 23.962 19.236 23.962 16.1C23.962 12.95 26.272 10.92 29.842 10.92C33.426 10.92 35.722 12.95 35.722 16.1C35.722 19.236 33.426 21.28 29.842 21.28ZM29.842 19.404C31.97 19.404 33.37 18.088 33.37 16.1C33.37 14.098 31.97 12.782 29.842 12.782C27.7 12.782 26.314 14.098 26.314 16.1C26.314 18.088 27.7 19.404 29.842 19.404ZM37.7456 21V11.2H42.5756C45.4316 11.2 46.9156 12.348 46.9156 14.574C46.9156 16.8 45.4316 17.948 42.5756 17.948H40.0556V21H37.7456ZM40.0556 16.128H42.5616C43.8636 16.128 44.5636 15.596 44.5636 14.574C44.5636 13.566 43.8636 13.02 42.5616 13.02H40.0556V16.128ZM52.3706 21V11.2H54.7646L60.3226 18.13L60.2246 11.2H62.5066V21H60.0986L54.5546 14.014L54.6526 21H52.3706ZM70.4123 21.28C66.8423 21.28 64.5323 19.236 64.5323 16.1C64.5323 12.95 66.8423 10.92 70.4123 10.92C73.9963 10.92 76.2923 12.95 76.2923 16.1C76.2923 19.236 73.9963 21.28 70.4123 21.28ZM70.4123 19.404C72.5403 19.404 73.9403 18.088 73.9403 16.1C73.9403 14.098 72.5403 12.782 70.4123 12.782C68.2703 12.782 66.8843 14.098 66.8843 16.1C66.8843 18.088 68.2703 19.404 70.4123 19.404ZM80.377 21L77.213 11.2H79.719L81.903 18.508L84.297 11.2H86.971L89.393 18.508L91.577 11.2H94.027L90.835 21H88.119L85.627 13.58L83.135 21H80.377Z" fill="white"/>
<line y1="25.5" x2="95" y2="25.5" stroke="white"/>
</svg>
