<svg width="48" height="34" viewBox="0 0 48 34" fill="none" xmlns="http://www.w3.org/2000/svg">
<path d="M6.51 21.28C2.898 21.28 0.546 19.222 0.546 16.1C0.546 12.978 2.898 10.92 6.51 10.92C9.814 10.92 12.04 12.572 12.166 15.12L9.814 15.176C9.688 13.748 8.372 12.782 6.51 12.782C4.34 12.782 2.898 14.112 2.898 16.1C2.898 18.088 4.34 19.418 6.51 19.418C8.33 19.418 9.646 18.452 9.814 16.996L12.152 17.01C12.026 19.586 9.786 21.28 6.51 21.28ZM12.9395 21L17.4055 11.2H20.2755L24.7555 21H22.3195L21.2415 18.578H16.3835L15.3055 21H12.9395ZM17.1395 16.898H20.4855L18.8195 13.146L17.1395 16.898ZM26.5503 21V11.2H31.6323C34.4323 11.2 35.9303 12.194 35.9303 14.014C35.9303 15.148 35.3283 15.96 34.2643 16.296C35.4403 16.576 36.0283 17.36 36.0843 18.746L36.1543 21H33.7743L33.7043 19.138C33.6763 17.99 33.0883 17.5 31.7303 17.5H28.8323V21H26.5503ZM31.4923 15.834C32.8083 15.834 33.5503 15.288 33.5503 14.35C33.5503 13.44 32.8223 12.908 31.5483 12.908H28.8323V15.834H31.4923ZM41.0313 21V13.16H37.5873V11.2H46.7993V13.16H43.3553V21H41.0313Z" fill="#414141"/>
<line y1="25.5" x2="48" y2="25.5" stroke="#A0A0A0"/>
</svg>
