<svg width="198" height="32" viewBox="0 0 198 32" fill="none" xmlns="http://www.w3.org/2000/svg">
<path d="M189.373 5.98321C187.784 5.54995 185.886 5.88005 184.339 6.33395C181.388 7.26237 178.892 9.22238 176.148 10.646C174.704 11.2443 172.723 11.3681 171.382 10.5428C171.073 10.3159 170.495 10.4809 170.495 10.4809C170.309 10.3365 170.103 10.2952 169.855 10.3778C169.195 10.8523 168.494 10.1095 167.792 10.5015C167.091 10.1095 166.389 10.8523 165.729 10.3778C165.481 10.2952 165.275 10.3365 165.089 10.4809C165.089 10.4809 164.512 10.3159 164.202 10.5428C162.861 11.3681 160.881 11.2443 159.436 10.646C156.713 9.24301 154.196 7.26237 151.246 6.33395C149.698 5.88005 147.8 5.54995 146.211 5.98321C146.005 6.12763 145.778 6.37521 145.819 6.66406C145.923 6.84974 146.046 7.09732 146.273 7.13858C151.926 6.31332 154.98 11.8426 159.725 13.3074C159.725 13.3693 159.457 13.5963 159.147 13.7613C158.487 14.1327 157.476 13.9883 157.414 14.8961C157.6 15.4531 158.281 15.6595 158.797 15.8864C159.973 16.5466 161.396 15.9896 162.449 15.4531C162.572 15.3293 162.779 15.3912 162.882 15.515C162.799 18.0527 164.759 19.7239 165.11 22.0759C165.316 23.1694 164.615 23.974 164.532 25.0056C164.532 25.377 164.821 25.1294 164.986 26.3879C165.048 26.6149 165.626 27.2544 166.162 27.5226C166.637 27.7083 167.194 27.7702 167.772 27.7496C168.329 27.7496 168.906 27.7083 169.381 27.5226C169.897 27.2544 170.474 26.6149 170.557 26.3879C170.722 25.1294 171.011 25.377 171.011 25.0056C170.928 23.974 170.227 23.1694 170.433 22.0759C170.784 19.7239 172.744 18.0527 172.661 15.515C172.764 15.3912 172.971 15.3293 173.094 15.4531C174.167 15.9896 175.57 16.526 176.746 15.8864C177.241 15.6595 177.943 15.4531 178.129 14.8961C178.067 13.9883 177.056 14.1327 176.396 13.7613C176.086 13.5963 175.818 13.3693 175.818 13.3074C180.563 11.8426 183.617 6.31332 189.27 7.13858C189.497 7.09732 189.62 6.84974 189.724 6.66406C189.785 6.35458 189.538 6.107 189.332 5.98321" fill="white"/>
<path d="M136.061 0V32H135.813V0H136.061Z" fill="white"/>
<path d="M25.0624 23.912L24.3196 23.8708C23.6182 23.8295 23.288 23.4375 23.288 22.6948V16.5259C23.288 12.8122 21.328 10.6046 18.027 10.6046C14.7259 10.6046 14.5609 11.5124 13.488 13.1217V6.58145C13.488 6.12755 13.1166 5.75618 12.6628 5.75618H8.82527C8.37137 5.73555 8 6.12755 8 6.58145C8 7.03534 8.35074 7.38608 8.784 7.40671L9.52674 7.44798C10.2282 7.48924 10.5583 7.88124 10.5583 8.62398V22.6948C10.5583 23.4375 10.2282 23.8089 9.52674 23.8708L8.784 23.912C8.35074 23.9327 8 24.304 8 24.7373C8 25.1706 8.37137 25.5626 8.82527 25.5626H15.283C15.7369 25.5626 16.1082 25.1912 16.1082 24.7373C16.1082 24.2834 15.7575 23.9327 15.3242 23.912L14.5815 23.8708C13.88 23.8295 13.5499 23.4375 13.5499 22.6948V17.1242C13.5499 14.5659 15.056 12.709 17.1192 12.709C19.1824 12.709 20.2346 14.1739 20.2346 16.5465V22.6948C20.2346 23.4375 19.9251 23.8089 19.2649 23.8708L18.584 23.912C18.1508 23.9327 17.8 24.304 17.8 24.7373C17.8 25.1706 18.1714 25.5626 18.6253 25.5626H24.9798C25.4337 25.5626 25.8051 25.1912 25.8051 24.7373C25.8051 24.2834 25.4544 23.9327 25.0211 23.912H25.0624Z" fill="white"/>
<path d="M121.515 24.634C121.453 24.242 121.123 23.9532 120.711 23.9119L120.009 23.8706C119.308 23.8294 118.978 23.4374 118.978 22.6946V16.1957C118.978 12.6264 117.121 10.5839 113.902 10.5839C110.684 10.5839 110.271 11.5535 109.157 13.1834V11.7805C109.157 11.3266 108.786 10.9552 108.332 10.9552H104.535C104.082 10.9552 103.71 11.3266 103.71 11.7805C103.71 12.2344 104.061 12.5851 104.494 12.6058L105.237 12.647C105.938 12.6883 106.269 13.0803 106.269 13.823V22.674C106.269 23.4167 105.938 23.7881 105.237 23.85H101.915C101.214 23.8087 100.884 23.4167 100.884 22.674V16.175C100.884 12.6058 99.0268 10.5632 95.8083 10.5632C92.5898 10.5632 92.1771 11.5329 91.063 13.1628V11.7599C91.063 11.306 90.6917 10.9346 90.2378 10.9346H86.4415C85.9876 10.9346 85.6163 11.306 85.6163 11.7599C85.6163 12.2138 85.967 12.5645 86.4003 12.5851L87.143 12.6264C87.8445 12.6676 88.1746 13.0596 88.1746 13.8024V22.6534C88.1746 23.3961 87.8445 23.7675 87.143 23.8294H83.9038C83.3674 23.8294 82.831 23.623 82.831 21.9931V15.5561C82.831 12.4613 80.6647 10.5426 77.1573 10.5426C73.6499 10.5426 73.5261 11.2647 72.3708 12.5851C71.5042 13.5548 71.3185 14.4213 71.3185 14.9784C71.3185 16.0512 72.02 16.7733 73.0516 16.7733C74.0832 16.7733 74.6815 16.2163 74.7228 15.1641V15.1228L73.8769 13.5961C74.4133 12.8121 75.5068 12.3375 76.7653 12.3375C78.6634 12.3375 79.7156 13.3072 79.7156 15.0815V15.8862C78.0651 16.5051 76.2908 17.2066 74.9291 17.7843C71.9375 19.1254 70.6583 20.5489 70.6583 22.5296C70.6583 24.5102 72.1645 25.9544 74.4752 25.9544C76.7859 25.9544 78.6222 24.6959 79.8394 22.5089C79.9838 24.5515 81.1186 25.5418 83.3055 25.5418H92.7755C93.2294 25.5418 93.6007 25.1704 93.6007 24.7165C93.6007 24.2626 93.2706 23.9119 92.8167 23.8913L92.1565 23.85C91.4963 23.8087 91.1868 23.4374 91.1868 22.674V17.1035C91.1868 14.5864 92.8373 12.6883 95.0243 12.6883C97.2113 12.6883 97.8715 13.9674 97.8715 16.175V22.674C97.8715 23.4167 97.5414 23.7881 96.8605 23.85L96.2003 23.8913C95.767 23.9119 95.4163 24.2833 95.4163 24.7165C95.4163 25.1498 95.7877 25.5418 96.2416 25.5418H110.828C111.241 25.5418 111.612 25.2529 111.674 24.8816C111.715 24.634 111.674 24.4071 111.509 24.2007C111.365 24.0151 111.138 23.8913 110.911 23.8706L110.25 23.8294C109.59 23.7881 109.281 23.4167 109.281 22.6534V17.0828C109.281 14.5658 110.931 12.6676 113.118 12.6676C115.305 12.6676 115.965 13.9468 115.965 16.1544V22.6534C115.965 23.3961 115.635 23.7675 114.954 23.8294L114.294 23.8706C113.861 23.8913 113.51 24.2626 113.51 24.6959C113.51 25.1292 113.882 25.5212 114.336 25.5212H120.69C120.938 25.5212 121.165 25.418 121.309 25.2323C121.474 25.0466 121.536 24.7991 121.495 24.5721L121.515 24.634ZM75.5068 23.8087C74.372 23.8087 73.7118 23.1692 73.7118 22.0963C73.7118 21.0235 74.4752 19.9712 76.167 19.1047C77.1986 18.6096 78.4365 18.1144 79.6537 17.6399V18.6508C79.6537 21.3536 77.6731 23.8087 75.5068 23.8087Z" fill="white"/>
<path d="M68.946 23.9119L68.2445 23.8707C67.543 23.8294 67.2129 23.4374 67.2129 22.6947V16.1957C67.2129 12.6264 65.4592 10.5839 62.4264 10.5839C59.3935 10.5839 58.7127 11.7393 57.6811 13.5961C57.0002 11.6361 55.4941 10.5839 53.2865 10.5839C51.079 10.5839 49.9442 11.4917 48.8507 13.101V11.7805C48.8507 11.3266 48.4794 10.9553 48.0255 10.9553H44.2292C43.7754 10.9553 43.404 11.3266 43.404 11.7805C43.404 12.2344 43.7547 12.5852 44.188 12.6058L44.9307 12.6471C45.6322 12.6883 45.9623 13.0803 45.9623 13.8231V22.674C45.9623 23.4168 45.6322 23.7881 44.9307 23.85H41.444C40.9282 23.85 40.3711 23.6437 40.3711 22.0963V11.7805C40.3711 11.3266 39.9998 10.9553 39.5459 10.9553H35.6259C35.172 10.9553 34.8006 11.3266 34.8006 11.7805C34.8006 12.2344 35.1513 12.5852 35.5846 12.6058L36.3273 12.6471C37.0288 12.6883 37.3589 13.0803 37.3589 13.8231V19.3111C37.3589 21.4361 35.8115 23.8088 33.7484 23.8088C31.6852 23.8088 30.9837 22.4265 30.9837 20.0332V10.9553H26.2385C25.7846 10.9553 25.4132 11.3266 25.4132 11.7805C25.4132 12.2344 25.7639 12.5852 26.1972 12.6058L26.9399 12.6471C27.6414 12.6883 27.9715 13.0803 27.9715 13.8231V20.0332C27.9715 23.7469 29.8077 25.9545 32.8818 25.9545C35.956 25.9545 36.3686 24.8816 37.4827 23.066C37.7922 24.7372 38.9063 25.5625 40.8663 25.5625H50.5838C51.0377 25.5625 51.4091 25.1911 51.4091 24.7166C51.4091 24.242 51.079 23.9119 50.6251 23.8913L49.9648 23.85C49.3046 23.8088 48.9952 23.4374 48.9952 22.674V17.1035C48.9952 14.5864 50.5013 12.6883 52.5025 12.6883C54.5038 12.6883 55.0815 13.9675 55.0815 16.1751V22.674C55.0815 23.4168 54.772 23.7881 54.1118 23.85L53.431 23.8913C52.9977 23.9119 52.647 24.2833 52.647 24.7166C52.647 25.1498 53.0183 25.5418 53.4722 25.5418H59.703C60.1569 25.5418 60.5282 25.1705 60.5282 24.7166C60.5282 24.2627 60.1775 23.9119 59.7442 23.8913L59.0634 23.85C58.4032 23.8088 58.0937 23.4374 58.0937 22.674V17.1035C58.0937 14.5864 59.5998 12.6883 61.6011 12.6883C63.6024 12.6883 64.2007 13.9675 64.2007 16.1751V22.674C64.2007 23.4168 63.8706 23.7881 63.1897 23.85L62.5295 23.8913C62.0962 23.9119 61.7455 24.2833 61.7455 24.7166C61.7455 25.1498 62.1169 25.5418 62.5708 25.5418H68.9253C69.1523 25.5418 69.3792 25.4387 69.5443 25.2736C69.7093 25.1086 69.7712 24.8816 69.7712 24.634C69.73 24.2214 69.3792 23.8913 68.946 23.8707V23.9119Z" fill="white"/>
<path d="M122.32 13.0186C120.649 13.0186 119.287 11.6569 119.287 9.98576C119.287 8.31459 120.649 6.9529 122.32 6.9529C123.991 6.9529 125.353 8.31459 125.353 9.98576C125.353 11.6569 123.991 13.0186 122.32 13.0186ZM122.32 7.4068C120.896 7.4068 119.741 8.56217 119.741 9.98576C119.741 11.4093 120.896 12.5647 122.32 12.5647C123.744 12.5647 124.899 11.4093 124.899 9.98576C124.899 8.56217 123.744 7.4068 122.32 7.4068Z" fill="white"/>
<path d="M121.165 11.6156V8.35581H122.506C122.815 8.35581 123.042 8.43834 123.228 8.58276C123.413 8.72718 123.496 8.9335 123.496 9.22234C123.496 9.51119 123.434 9.59371 123.331 9.73814C123.207 9.88256 123.083 9.96508 122.918 10.027C123.083 10.0476 123.207 10.1301 123.29 10.2746C123.393 10.3983 123.434 10.584 123.434 10.7903V11.6569H122.96V10.8935C122.96 10.6666 122.918 10.5015 122.815 10.419C122.733 10.3365 122.568 10.2746 122.341 10.2746H121.619V11.6569H121.144L121.165 11.6156ZM122.403 9.82066C122.609 9.82066 122.753 9.7794 122.856 9.69687C122.96 9.61435 123.021 9.46992 123.021 9.30487C123.021 9.13982 122.98 8.9954 122.856 8.91287C122.753 8.83034 122.609 8.78908 122.403 8.78908H121.639V9.82066H122.403Z" fill="white"/>
</svg>
